<svg width="81" height="82" viewBox="0 0 81 82" fill="none" xmlns="http://www.w3.org/2000/svg">
<circle cx="40.303" cy="41.2181" r="40" stroke="#D4D4D4" stroke-width="0.606061"/>
<path d="M35.6585 35.3129L35.6536 35.3132C35.5739 34.6067 35.6258 33.8542 35.6258 33.1406C35.6259 32.4646 35.6332 30.6126 35.8803 30.043L35.8971 30.0057C36.2001 29.0966 38.3213 29.1555 39.431 29.1555V28.0149C39.0276 27.9844 38.1877 28.0999 37.9065 27.8977L37.7488 27.7852C37.6053 27.6701 37.4505 27.4465 37.4408 27.2558C37.3942 26.34 38.1634 26.2211 38.8513 26.2199L39.4346 26.2105C39.4633 26.1539 39.473 25.5949 39.4305 25.5529C39.1579 25.2826 36.6938 26.0387 36.6823 24.6073C36.676 23.8278 37.3957 23.9253 37.9545 23.9229L39.3994 23.9322C39.4122 22.9941 39.4072 23.1733 38.5932 23.1731L37.3103 23.1722C37.0009 23.172 36.6391 23.2073 36.3355 23.1496C35.642 23.0178 35.5754 22.0256 36.1738 21.704L36.2119 21.6841C36.5748 21.4888 37.0418 21.5765 37.439 21.577L39.3297 21.6506C39.3918 21.3448 39.344 20.9134 39.3252 20.599L37.0315 20.5024C36.6715 20.4827 36.2669 20.5368 35.9185 20.4382L35.8774 20.4263C35.0705 20.2042 35.1196 19.1293 35.8821 19.0316C36.2101 18.9896 36.6034 19.0494 36.939 19.0533L39.2877 19.0778L39.2038 18.3126C38.7759 18.3911 37.0749 18.3492 36.6405 18.3493C36.2676 18.3494 35.4655 18.5264 35.3983 17.9933C35.2608 16.9022 35.6557 16.9014 36.4978 16.8829L39.3687 16.8731L39.3652 16.0965L36.4229 16.0667C35.4949 15.9975 35.4997 14.9928 35.9094 14.7138L35.9406 14.6937C36.2591 14.4847 36.8071 14.591 37.1702 14.5904L39.385 14.5983C39.3772 14.4866 39.3615 13.8513 39.3165 13.81C39.2618 13.7599 36.5928 13.8681 36.1579 13.7778C35.2669 13.5929 35.4573 12.3757 36.3034 12.2702C36.613 12.2316 36.9968 12.3209 37.3156 12.3294L39.2592 12.3422C39.325 12.0489 39.3031 11.8136 39.2592 11.5208C38.6339 11.4032 36.7469 11.6203 36.4775 10.8756C36.354 10.5342 36.6836 9.89139 37.0278 9.78691C37.2314 9.72508 37.5008 9.76534 37.712 9.77121L40.1187 9.74842L41.1997 9.73818L43.9402 9.71222C44.1026 9.70983 44.3143 9.6734 44.4608 9.76052L44.4889 9.77877C44.8491 10.0027 45.0238 10.5887 44.8131 10.9644C44.4097 11.6836 42.7438 11.3209 42.0329 11.5208V12.3931L45.4581 12.3545C45.9758 12.3295 45.8369 12.5169 45.8499 13.1104C45.8703 14.0445 45.2091 13.8778 44.6081 13.8782L42.0417 13.8609L42.0725 14.5867L44.803 14.6929C45.2666 14.7191 45.696 14.6564 46.1198 14.8799C46.6799 15.9307 46.0679 16.172 45.0876 16.1793L42.2016 16.175L42.1874 16.8878C42.8331 16.8385 43.5029 16.8725 44.1511 16.873L45.0712 16.875C45.3975 16.8767 45.8454 16.85 46.1088 17.082C46.4851 17.4135 46.3981 18.3608 45.843 18.4543C45.5087 18.5107 45.1037 18.4671 44.7631 18.4674L42.1831 18.4667L42.164 19.1316C42.1986 19.1695 42.1764 19.1585 42.2333 19.1586L44.5896 19.166C44.9507 19.1675 45.4071 19.044 45.5876 19.444C45.7289 19.757 45.7462 20.4319 45.3378 20.5674L45.3027 20.5781C44.8988 20.705 44.3846 20.6507 43.9635 20.6511L42.0843 20.6503C42.039 20.957 42.0755 21.3274 42.0763 21.6408L44.0176 21.7008C44.5868 21.7141 44.5981 21.6789 45.158 21.7854C45.9068 21.9277 45.8192 23.0798 45.0998 23.1869C44.7791 23.2346 44.372 23.1828 44.0439 23.1808L42.1474 23.1645L42.1504 23.8491C42.2761 23.9267 42.6019 23.9022 42.7582 23.9112L44.1047 24.0514C44.3711 24.0913 44.67 24.0936 44.6921 24.4227C44.7681 25.5565 44.0533 25.503 43.1372 25.5058L42.1721 25.5071V26.2198L43.1562 26.2534C43.4278 26.2667 43.9359 26.2621 44.1493 26.447C44.5221 26.7703 44.3376 27.9097 43.857 27.9909C43.6485 28.0262 43.3848 27.998 43.1703 27.9981L42.1585 27.9974C42.0979 28.0912 42.1311 28.9742 42.1297 29.1526L43.3301 29.1555C44.493 29.1589 45.3877 29.313 45.419 30.6445L45.5492 35.1881L45.535 35.2814C45.2319 35.3348 44.8826 35.3051 44.5724 35.3055L35.6585 35.3129Z" fill="#FF70A6"/>
<path d="M40.7247 8.1875C39.5126 8.1875 40.1187 9.74842 40.1187 9.74842L41.1997 9.73818C41.1997 9.73818 41.9368 8.1875 40.7247 8.1875Z" fill="#FF70A6"/>
<path d="M45.1424 34.979C45.5195 35.4661 47.5766 34.1544 47.5755 38.0625L47.5478 39.961C47.7121 39.9827 47.8926 39.9901 48.053 40.037C49.4312 40.4399 49.6998 41.9132 49.697 43.4462L49.6628 45.6008L49.3526 52.6054L48.3334 69.32C48.2558 71.3068 48.3031 73.6569 46.4448 74.282C46.0643 74.41 45.6396 74.348 45.2483 74.3426L35.6306 74.3368C35.2586 74.3428 34.8751 74.4008 34.5055 74.3562C32.8655 74.1589 32.38 72.494 32.272 70.5608L31.7322 61.073L31.5841 57.1208L31.2302 49.7002L30.9998 44.695C30.9476 43.3599 30.6304 41.3679 31.6057 40.4417C32.0519 40.018 32.5399 40.153 33.0118 39.9352L32.9878 38.2853C32.9847 37.2142 32.897 35.257 34.0514 35.1832L35.3569 35.169L44.1741 35.0968C44.4809 35.0962 44.8264 35.1345 45.1263 35.0656L45.1424 34.979Z" fill="#EAECEE"/>
<path d="M40.0975 47.2642C42.2143 47.0983 44.552 48.79 44.6725 50.9975C44.8119 53.549 43.4337 55.8209 40.7228 55.9558C38.5057 56.0416 36.8714 54.9051 36.2524 52.6968C35.489 49.9726 37.3014 47.4794 40.0975 47.2642Z" fill="#FFA9C3"/>
</svg>
