<svg width="81" height="81" viewBox="0 0 81 81" fill="none" xmlns="http://www.w3.org/2000/svg">
<circle cx="40.6971" cy="40.5212" r="40" stroke="#D4D4D4" stroke-width="0.606061"/>
<path d="M46.1544 22.3071C46.3062 22.2639 46.4177 22.2425 46.5777 22.2579L46.634 22.263C48.1076 22.406 49.374 23.4479 49.3824 24.9978L49.3823 26.0399C49.3807 27.3753 49.3393 28.7197 49.4324 30.0523C49.1586 29.8936 48.7097 29.9053 48.3947 29.8912L33.5348 29.8389C33.0402 29.8324 32.5023 29.7399 32.0186 29.8479L32.0253 28.7999L32.0375 26.6078C32.0434 24.4288 31.8109 22.4043 34.6376 22.3898C34.8248 22.3888 35.2543 22.436 35.412 22.3468L35.4396 22.3255C35.8592 22.2329 36.3352 22.2741 36.7604 22.2742L42.9871 22.277C43.5909 22.2776 44.2417 22.2306 44.8386 22.3051L45.7472 22.372C45.8674 22.3724 46.0312 22.3855 46.1453 22.3495L46.1544 22.3071Z" fill="#DAD9D9"/>
<path d="M46.1544 22.3071C46.3062 22.2639 46.4177 22.2425 46.5777 22.2579L46.634 22.263C48.1076 22.406 49.374 23.4479 49.3824 24.9978L49.3823 26.0399C49.3807 27.3753 49.3393 28.7197 49.4324 30.0523C49.1586 29.8936 48.7097 29.9053 48.3947 29.8912L33.5348 29.8389C33.0402 29.8324 32.5023 29.7399 32.0186 29.8479L32.0253 28.7999C32.3861 28.7283 32.7013 28.6619 33.0834 28.6395L43.1491 28.5491C44.2834 28.5117 45.8281 28.517 46.8016 27.8735L46.9237 27.7913C48.3853 26.7419 48.089 24.5597 47.1195 23.2779C46.8715 22.95 46.5845 22.6522 46.2876 22.3685L46.1453 22.3305L46.1544 22.3071Z" fill="#C9C8C8"/>
<path d="M35.4402 22.2925C35.3456 21.8034 35.3596 21.3039 35.3598 20.7911L35.3579 17.4043C35.3573 17.1149 35.3409 16.8161 35.3721 16.5287L35.3761 16.4951C34.5474 16.5124 33.5782 16.7266 33.0466 15.8931C32.783 15.4798 32.8056 14.9661 32.9102 14.5083C33.4464 12.1627 36.2995 11.1495 38.4911 11.1398L49.2054 11.1307C49.4039 11.1304 49.6325 11.1127 49.8255 11.1613L49.8631 11.1715C51.168 11.5104 51.062 12.8365 51.0621 13.9253C51.0622 14.8355 51.3043 14.8644 50.4785 15.1405L47.6756 15.9778C47.1242 16.1508 46.5807 16.3952 46.0255 16.544L45.9901 16.5532L46.0704 20.5701C46.0718 21.1404 46.0627 21.7425 46.1481 22.3073L46.1459 22.3306C46.0318 22.3856 45.868 22.3725 45.7478 22.3721L44.8392 22.3398C44.2423 22.2307 43.5914 22.2777 42.9876 22.2771L36.761 22.2744C36.3358 22.2742 35.8598 22.2331 35.4402 22.2925Z" fill="#FF70A6"/>
<path d="M44.8389 22.3398L44.8593 16.56C45.2003 16.5418 45.6614 16.4639 45.9898 16.5531L46.07 20.57C46.0715 21.1403 46.0624 21.7425 46.1478 22.3072L46.1456 22.3305C46.0315 22.3856 45.8676 22.3724 45.7475 22.3721L44.8389 22.3398Z" fill="#FFA9C3"/>
<path d="M23.5195 61.0335C23.6216 61.0434 23.7697 61.0247 23.8759 61.0246L44.3598 60.962C44.7029 60.9634 45.0399 61.0147 45.3801 61.0188L52.2002 61.011C52.4083 61.0028 52.6134 60.9666 52.8219 60.964L56.2309 60.9561C56.9068 60.949 57.5989 60.8153 58.2674 60.955L57.5286 63.9069C57.3372 64.635 57.2139 65.4113 56.9252 66.1082C56.3978 67.3807 55.1949 68.265 53.8565 68.518C53.0899 68.663 52.2206 68.5903 51.4402 68.5907L47.4018 68.591L47.3316 68.6322C48.4795 68.7706 46.8092 69.933 46.8289 70.3291L46.8985 70.3882H46.69H45.8751H36.3281H34.2214C34.3582 69.8618 33.355 69.341 34.1304 68.6764L33.6522 68.6386C33.5403 68.6322 33.402 68.6124 33.2836 68.6111L32.473 68.6011C30.5614 68.5819 28.584 68.7078 26.751 68.0458C25.242 67.5008 24.9087 65.7985 24.5226 64.4313L23.8531 62.0768C23.7568 61.7436 23.6857 61.389 23.5388 61.0742L23.5195 61.0335ZM45.8705 68.5916L43.9416 68.591L36.6046 68.5952C36.4014 68.5949 36.151 68.5628 35.9547 68.5922L34.47 68.5939C34.2016 68.5955 33.9184 68.5817 33.6522 68.6386L34.1304 68.6764C33.355 69.341 34.3582 69.8618 34.2214 70.3882H36.3281H45.8751H46.69H46.8985L46.8289 70.3291C46.8092 69.933 48.4795 68.7706 47.3316 68.6322L47.4018 68.5907L45.8705 68.5916Z" fill="#DAD9D9"/>
<path d="M45.8701 68.5915L47.4015 68.5906L47.3313 68.6321C48.4792 68.7705 46.8088 69.9329 46.8286 70.329L46.8982 70.3882H46.6896H45.8747H36.3278H34.2211C34.3578 69.8618 33.3546 69.3409 34.1301 68.6763L33.6519 68.6385C33.9181 68.5816 34.2012 68.5954 34.4697 68.5938L35.9544 68.5921C36.1507 68.5628 36.401 68.5949 36.6043 68.5951L43.9413 68.5909L45.8701 68.5915ZM43.9413 68.5907L42.9971 68.5973C43.4375 68.5991 44.4197 68.479 44.8014 68.7262L45.8682 68.7155C45.8751 68.6654 45.8739 68.628 45.8701 68.5915L43.9413 68.5907Z" fill="url(#paint0_linear_9_4756)"/>
<path d="M43.9417 68.5907L45.8705 68.5915C45.8743 68.628 45.8755 68.6654 45.8687 68.7155L44.8018 68.7262C44.4201 68.479 43.4379 68.5991 42.9976 68.5973L43.9417 68.5907Z" fill="#C9C8C8" fill-opacity="0.627451"/>
<path d="M32.0189 29.8479C32.5027 29.74 33.0406 29.8324 33.5351 29.8389L48.3951 29.8913C48.7101 29.9053 49.159 29.8936 49.4401 30.0524C49.5716 30.1473 50.0538 30.1129 50.2306 30.114C54.7586 30.146 58.5871 32.2459 60.0466 36.7934L60.3036 37.6362C60.3609 37.827 60.4741 38.0454 60.4333 38.2476L60.3832 38.2263C60.1771 38.2532 60.2906 38.3059 60.4275 38.3086L60.5241 38.4358L21.064 38.3842C22.0063 34.3034 24.2234 31.5923 28.3222 30.5195C28.9597 30.3526 29.6247 30.2642 30.2725 30.146C30.8113 30.0475 31.7803 30.2895 32.0189 29.8479Z" fill="#DAD9D9"/>
<path d="M21.0638 38.3721L60.524 38.4308C60.8492 38.9613 61.2253 42.0645 61.2839 43.0592L61.3038 44.7531C61.3018 45.5825 61.2331 46.3924 61.1871 47.2195L61.0821 49.3532C61.0029 50.4242 60.7508 51.5179 60.5403 52.5713L60.1184 54.3863L59.0314 58.2258C58.7639 59.136 58.4728 60.0268 58.2671 60.9549C57.5987 60.8153 56.9065 60.9489 56.2306 60.956L52.8217 60.9639C52.6131 60.9665 52.4081 61.0028 52.2 61.0109L45.3798 61.0187C45.0396 61.0146 44.7026 60.9633 44.3595 60.9619L23.8756 61.0245C23.7694 61.0247 23.6213 61.0434 23.5193 61.0218C23.3107 60.8226 23.2401 60.3742 23.1582 60.096L21.4902 53.4949L20.8653 49.9395L20.4424 45.7606C20.2958 43.13 20.4768 40.9635 21.0638 38.3721Z" fill="#FF70A6"/>
<path d="M41.7309 41.3092C42.2322 41.2992 42.7465 41.2766 43.245 41.3428C46.7697 41.8107 50.5011 45.046 50.7185 49.1347C50.9759 53.9764 46.8508 57.377 42.7384 57.6388C41.2024 57.7534 39.5893 57.4199 38.2035 56.669C33.9156 54.3454 32.1833 48.841 35.4832 44.7127C37.0217 42.7879 39.3924 41.4753 41.7309 41.3092Z" fill="#EAECEE"/>
<path d="M39.446 47.964C40.735 47.9934 40.7073 50.3265 39.6355 50.3882C38.4046 50.29 38.207 48.1794 39.446 47.964Z" fill="#FF70A6"/>
<path d="M44.8479 47.9667C46.0528 47.8739 46.295 50.1926 45.0896 50.3857C43.8936 50.4739 43.6539 48.1871 44.8479 47.9667Z" fill="#FF70A6"/>
<path d="M40.0783 52.8139C40.3294 52.7847 40.4304 53.1818 40.5321 53.3955C41.2365 54.8755 43.0696 54.9161 43.9091 53.5876C44.0282 53.399 44.1407 52.9721 44.3135 52.8759C44.6923 52.6653 44.7356 53.3541 44.597 53.734C43.5824 55.9224 40.5181 55.6151 39.8734 53.4947C39.7781 53.1808 39.7935 52.921 40.0783 52.8139Z" fill="#FF70A6"/>
<defs>
<linearGradient id="paint0_linear_9_4756" x1="41.789" y1="72.1085" x2="39.8625" y2="66.4945" gradientUnits="userSpaceOnUse">
<stop stop-color="white" stop-opacity="0.521569"/>
<stop offset="1" stop-color="#FEFDFB" stop-opacity="0.764706"/>
</linearGradient>
</defs>
</svg>
