<svg width="82" height="82" viewBox="0 0 82 82" fill="none" xmlns="http://www.w3.org/2000/svg">
<circle cx="40.8484" cy="41.2181" r="40" stroke="#D4D4D4" stroke-width="0.606061"/>
<path d="M34.0883 32.1945L30.695 18.834C30.5183 18.1505 30.1296 17.069 30.2743 16.264L30.2906 16.1727C30.4935 14.9845 31.0719 14.8324 31.6059 14.4768L33.9281 13.0723C35.4289 12.2866 36.9835 11.7526 38.529 11.4374L39.5345 11.2399L40.6748 11.2228C41.0574 11.2229 41.4447 11.2017 41.8266 11.248L43.8358 11.6061C45.0306 11.9089 46.2261 12.3565 47.3903 12.959L50.4098 14.7851C50.7537 14.9959 50.992 15.2334 51.1647 15.8935L51.1983 16.0278C51.4336 16.9637 51.1559 17.7163 50.9402 18.5315L48.3025 28.863C48.0111 30.0185 47.6567 31.1113 47.4285 32.3209C47.2521 31.9841 46.7006 32.1237 46.4787 32.1233L45.2105 32.1229L44.131 32.1234L42.5746 32.1238L41.5952 32.1233L40.0151 32.1234L39.0019 32.1233L37.4222 32.124L36.4048 32.123L34.9873 32.1238C34.7229 32.1243 34.4225 32.0726 34.1633 32.1716C34.1402 32.1804 34.1114 32.1949 34.0883 32.1945Z" fill="#FF70A6"/>
<path d="M39.0018 32.1235L38.4188 22.6882C38.3647 21.8601 38.1935 20.3029 38.8631 20.175C39.4392 20.065 39.4433 21.6943 39.4669 22.3636L40.015 32.125L39.0018 32.1235Z" fill="#AB3E5F"/>
<path d="M41.5947 32.1233C41.5938 31.3161 41.6431 30.5234 41.6899 29.7133L42.0784 22.9929C42.1091 22.3312 42.0679 21.532 42.1943 20.91C42.2833 20.4725 42.5756 19.9403 42.8399 20.1693L42.8582 20.186C43.3575 20.6336 43.212 21.7719 43.1634 22.5903L42.5742 32.1293L41.5947 32.1233Z" fill="#AB3E5F"/>
<path d="M36.4047 32.1232C36.3414 31.5664 36.2338 31.035 36.1398 30.5009L34.8685 22.8406C34.7473 22.203 34.5102 21.3429 34.7316 20.6927C35.0589 19.731 35.5337 20.2113 35.7174 21.1496C35.8078 21.6114 35.8626 22.1087 35.9291 22.5848L36.3275 25.3117L37.189 30.6263C37.2616 31.1163 37.3764 31.6291 37.4221 32.1271L36.4047 32.1232Z" fill="#AB3E5F"/>
<path d="M44.1313 32.1233C44.0885 31.8933 44.3165 30.9194 44.3632 30.6381L45.77 22.0097C45.864 21.3163 46.0239 19.6863 46.6105 20.253C47.1801 20.8031 46.8484 22.0907 46.7211 22.8657L45.2108 32.1146L44.1313 32.1233Z" fill="#AB3E5F"/>
<path d="M45.2103 32.1233H46.4785C46.7004 32.1238 47.252 31.9841 47.4284 32.321L47.4684 32.3983C47.6619 32.6049 47.5982 34.9819 47.5984 35.4867L47.5986 39.5691C47.6788 40.2091 47.3622 42.2246 47.2761 42.8854L46.0777 51.745L44.3031 64.3597C43.8593 67.3896 43.4111 69.6938 41.7061 70.9656C41.3272 71.2483 40.9369 71.4602 40.5257 71.3355L40.3964 71.2938C39.0906 70.7201 38.0227 68.6938 37.614 66.2703L36.6808 59.8363L34.1593 41.5538L34.0188 40.3173C33.9941 40.0653 33.9584 39.7725 33.9899 39.5179C34.0045 39.352 33.9969 39.1707 33.9964 39.0028L33.9953 34.6143C33.9955 33.8946 33.9684 33.1256 34.0323 32.4155L34.0356 32.3799C34.0442 32.2833 34.0529 32.2604 34.0882 32.1945C34.1112 32.1949 34.14 32.1805 34.1631 32.1716C34.4223 32.0726 34.7228 32.1243 34.9871 32.1239L36.4046 32.123L37.4221 32.1233H39.0018H40.0149H41.595L42.5744 32.1249L44.1308 32.1247L45.2103 32.1233Z" fill="#EAECEE"/>
<path d="M40.7761 62.9616C41.4172 62.8836 42.1425 64.1903 41.9604 65.4728L41.9529 65.5238C41.8157 66.5118 41.4701 67.0775 40.9449 67.2862C39.5709 67.5012 39.078 63.2708 40.7761 62.9616Z" fill="#DBDBDA"/>
<path d="M40.5881 43.3409C41.5125 43.1183 42.4063 44.2765 42.7761 45.8738C43.4026 48.5798 42.5017 51.3106 41.0267 51.8201L40.9664 51.8358C39.0576 52.271 37.8861 47.7416 39.1034 44.8836C39.481 43.9973 39.996 43.4493 40.5881 43.3409Z" fill="#DBDBDA"/>
<path d="M45.2103 32.1233H46.4785C46.7004 32.1238 47.2519 31.9841 47.4284 32.321L47.4684 32.3983C47.6619 32.6049 47.5982 34.9819 47.5984 35.4867L47.5986 39.5691L47.5926 39.5504C47.4955 39.582 47.3679 39.541 47.268 39.5372L33.9899 39.5302C34.0045 39.352 33.9969 39.1707 33.9964 39.0028L33.9953 34.6143C33.9955 33.8946 33.9684 33.1256 34.0323 32.4155L34.0356 32.3799C34.0442 32.2833 34.0529 32.2604 34.0882 32.1945C34.1112 32.1949 34.14 32.1805 34.1631 32.1716C34.4223 32.0726 34.7228 32.1243 34.9871 32.1239L36.4046 32.123L37.4221 32.1233H39.0017H40.0149H41.595L42.5744 32.1249L44.1308 32.1247L45.2103 32.1233Z" fill="#DBDBDA"/>
</svg>
