<svg width="81" height="82" viewBox="0 0 81 82" fill="none" xmlns="http://www.w3.org/2000/svg">
<circle cx="40.6971" cy="41.2181" r="40" stroke="#D4D4D4" stroke-width="0.606061"/>
<path d="M34.0728 33.1185C34.3748 30.8467 35.4905 30.0454 37.3106 28.8699C39.6027 27.3898 43.0826 25.5431 43.9403 22.7332C44.3036 23.5019 44.3187 24.321 44.3207 25.1499L44.4102 30.9128C45.2665 30.5082 45.5043 30.4532 46.2436 29.6873L46.8339 29.0144C47.0054 28.8138 47.1716 28.6006 47.4335 28.521C48.5396 28.6909 48.8349 32.1243 48.7574 32.9828C48.664 33.3351 45.7701 33.2326 45.3054 33.2323L35.2372 33.1766C34.8493 33.1543 34.4583 33.1724 34.0728 33.1185Z" fill="#DBDADA"/>
<path d="M31.7976 34.0101C31.4035 33.9775 31.0877 33.8763 31.183 33.4207C31.3361 32.6881 33.5495 32.9779 34.0731 33.1055C34.4586 33.1723 34.8497 33.1542 35.2375 33.1765L45.3057 33.2322C45.7704 33.2325 48.6644 33.335 48.7578 32.9827C48.9145 33.1192 50.05 32.9761 50.408 33.0971C50.7675 33.2185 50.9666 33.4782 51.2742 33.6733L51.2411 33.6894C51.0204 33.7991 50.8336 33.9731 50.6026 34.0567C50.6292 34.4975 50.712 35.0159 50.6315 35.4495C50.7578 35.4516 50.8638 35.4615 50.985 35.4976C51.1835 35.7537 50.9868 36.5256 50.7923 36.7515L50.7872 36.7552C50.5896 37.1781 50.6879 37.6958 50.6038 38.149C51.255 37.8189 51.1015 39.1985 50.7005 39.4421C50.5007 39.4957 48.9821 39.3716 48.6302 39.3703L36.6621 39.3615C36.2799 39.3575 35.916 39.2661 35.5343 39.2546L31.3737 39.2419L31.2268 39.0745C31.0087 38.7999 30.9755 38.5273 31.2716 38.3142C31.4455 38.0765 31.3609 36.8794 31.3293 36.5412C31.2409 36.3604 30.6694 35.5774 31.3602 35.5215C31.47 35.0284 31.6041 34.4767 31.7976 34.0101Z" fill="#EAEAE9"/>
<path d="M50.6036 38.1491C51.2549 37.819 51.1013 39.1986 50.7003 39.4422C50.5005 39.4958 48.9819 39.3717 48.63 39.3704L36.6619 39.3616C36.2797 39.3576 35.9158 39.2662 35.5341 39.2547L31.3735 39.2421L31.2266 39.0746C31.0085 38.8001 30.9754 38.5274 31.2714 38.3143L34.1769 38.3414L38.3931 38.5963L43.6277 38.5924L49.6583 38.3099C49.9562 38.3014 50.3467 38.3196 50.6036 38.1491Z" fill="#A7A6A6"/>
<path d="M50.6315 35.4552C50.7578 35.4518 50.8638 35.4617 50.985 35.4978C51.1835 35.7539 50.9868 36.5258 50.7923 36.7517L50.7872 36.7554C50.3477 36.7068 49.8758 36.7414 49.4331 36.742L33.5996 36.6813C32.8544 36.6421 32.1057 36.6026 31.3683 36.4823L31.3293 36.5414C31.2409 36.3606 30.6694 35.5776 31.3602 35.5218L31.4029 35.5451C32.0358 35.7998 36.4865 35.7752 37.3722 35.7746L44.9801 35.8254C46.195 35.8005 47.4141 35.64 48.6268 35.5632L49.9598 35.5197C50.1719 35.5117 50.4307 35.5223 50.6315 35.4552Z" fill="#A7A6A6"/>
<path d="M31.7973 34.0101C31.4032 33.9775 31.0874 33.8763 31.1826 33.4207C31.3358 32.6881 33.5491 32.9779 34.0728 33.1055C34.4583 33.1723 34.8493 33.1542 35.2372 33.1765L45.3054 33.2322C45.7701 33.2325 48.664 33.335 48.7574 32.9827C48.9141 33.1192 50.0497 32.9761 50.4076 33.0971C50.7671 33.2185 50.9662 33.4782 51.2739 33.6733L51.2407 33.6894C51.0201 33.7991 50.8333 33.9731 50.6022 34.0567C50.6289 34.4975 50.7116 35.0159 50.6311 35.4495C50.4304 35.5221 50.1716 35.5115 49.9595 35.5195L48.6265 35.563C47.4138 35.6398 46.1947 35.8003 44.9797 35.8252L37.3719 35.7744C36.4861 35.775 32.0354 35.7996 31.4026 35.5449L31.3599 35.5215C31.4696 35.0284 31.6038 34.4767 31.7973 34.0101Z" fill="#EAEAE9"/>
<path d="M31.7973 34.0117C31.4032 33.9775 31.0874 33.8763 31.1826 33.4207C31.3358 32.6881 33.5491 32.9779 34.0728 33.1055C34.4583 33.1723 34.8493 33.1542 35.2372 33.1765L45.3054 33.2322C45.7701 33.2325 48.664 33.335 48.7574 32.9827C48.9141 33.1192 50.0497 32.9761 50.4076 33.0971C50.7671 33.2185 50.9662 33.4782 51.2739 33.6733L51.2407 33.6894C51.0201 33.7991 50.8333 33.9731 50.6022 34.0567C50.166 34.0062 49.6509 34.0618 49.2056 34.0626L37.1492 34.0734C35.3714 34.0734 33.5714 34.1307 31.7973 34.0117Z" fill="#A7A6A6"/>
<path d="M56.2535 51.192L56.2889 53.91C56.2901 55.4068 56.4745 56.9991 55.3162 58.1428C54.3908 59.0565 53.4492 59.3428 52.2182 59.3412L29.3086 59.3331C27.4603 59.3086 26.0157 58.0945 25.49 56.3236C25.3724 55.9274 25.311 55.5263 25.3001 55.1148L25.2896 51.1917L56.2535 51.192Z" fill="#FF70A6"/>
<path d="M31.3735 39.2358L35.5341 39.2548C35.9158 39.2663 36.2797 39.3576 36.6619 39.3617L48.63 39.3704C48.9819 39.3717 50.5005 39.4959 50.7003 39.4127C50.5264 39.7216 50.6682 40.2605 50.7929 40.5576C51.3174 41.2068 51.0613 41.9497 50.8589 42.6815C52.61 43.2296 54.6442 45.3027 55.4522 46.8649C56.1518 48.2174 56.1217 49.6873 56.2534 51.1582L25.288 51.1991C24.9295 48.2182 26.7407 45.3318 29.1595 43.7369C29.9214 43.2344 30.7445 42.8632 31.5477 42.437C31.002 41.9893 30.95 41.4155 31.2823 40.7628L31.3102 40.7106C31.4339 40.3762 31.503 39.9927 31.462 39.6366L31.4555 39.5869C31.44 39.463 31.4135 39.3542 31.3735 39.2358Z" fill="#DBDADA"/>
<path d="M31.3733 39.2358L35.5339 39.2548C35.9157 39.2663 36.2796 39.3576 36.6618 39.3617L48.6298 39.3704C48.9817 39.3717 50.5003 39.4959 50.7001 39.4127C50.5263 39.7216 50.6681 40.2605 50.7927 40.5576C50.3741 40.5672 49.9664 40.6422 49.5495 40.6602L43.1737 41.0174L39.7986 41.0187C39.5812 41.0115 39.3679 40.9706 39.1489 40.9645L37.4648 40.9496L32.0574 40.7773C31.8541 40.7764 31.4814 40.8201 31.3101 40.7277C31.4337 40.3762 31.5028 39.9927 31.4618 39.6366L31.4554 39.5869C31.4399 39.463 31.4133 39.3542 31.3733 39.2358Z" fill="#EAEAE9"/>
</svg>
