<svg width="82" height="81" viewBox="0 0 82 81" fill="none" xmlns="http://www.w3.org/2000/svg">
<circle cx="41.1517" cy="40.3697" r="40" stroke="#D4D4D4" stroke-width="0.606061"/>
<g clip-path="url(#clip0_9_4789)">
<path d="M27.3318 41.2768C30.2852 40.5566 33.275 40.0691 36.2991 39.7716L38.7466 39.5578L42.9457 39.553C45.6138 39.6479 48.2817 39.9798 50.8967 40.51L52.7519 40.8981C53.3015 41.0121 53.8962 41.1239 54.4276 41.3043C54.9579 41.5237 55.5255 41.6543 56.0766 41.8127L58.1322 42.4728C62.4016 43.9944 69.2003 47.3334 69.2095 52.6541L69.1603 54.2284L69.1396 54.2735C69.0426 54.45 68.9924 54.6509 68.9227 54.8405C68.3241 56.47 67.1997 57.704 65.9187 58.848C62.4079 61.9833 56.9318 63.6976 52.3186 64.6097L48.0405 65.2825L44.6501 65.5634L40.5706 65.6557L35.4292 65.4562C32.5441 65.2163 29.7175 64.745 26.9148 64.0226C22.0574 62.7703 14.3397 59.7365 12.7696 54.6691C12.7286 54.537 12.6898 54.2831 12.5946 54.1896L12.5615 54.1599C12.4747 52.8095 12.4343 51.5158 12.9992 50.2488C14.7809 46.2529 19.8985 43.7948 23.8809 42.3739L25.9155 41.7084C26.3871 41.568 26.8722 41.453 27.3318 41.2768Z" fill="#FFA9C3"/>
<path d="M27.3324 41.2767L27.2993 41.2705C26.1838 41.0736 25.8743 40.9987 24.7736 40.5203L23.0794 39.7727C19.8796 38.2936 16.6284 36.4749 14.5467 33.5361C11.2727 28.9141 11.9892 23.8188 15.7676 19.6559C20.6985 14.2232 29.523 11.7104 36.7444 10.9957L39.9098 10.8079C41.6794 10.7544 43.4401 10.8363 45.1994 11.016L47.5816 11.3171C49.9596 11.735 52.3159 12.2368 54.6201 12.9694C60.6885 14.8986 68.3558 19.2641 69.1651 26.1189C70.0539 33.6467 62.9027 38.2888 56.6839 40.6182L55.1323 41.1314C54.9263 41.1886 54.6065 41.2047 54.4282 41.3041C53.8968 41.1237 53.3021 41.012 52.7525 40.898L50.8973 40.5098C48.2824 39.9797 45.6144 39.6477 42.9463 39.5528L38.7472 39.5577L36.2998 39.7714C33.2756 40.0689 30.2858 40.5565 27.3324 41.2767Z" fill="#EAECEE"/>
<path d="M56.7778 18.5527C59.5449 20.0095 62.2405 21.9386 63.2083 25.0632C64.4782 29.1634 61.0298 32.615 57.7767 34.4829C54.4937 36.368 51.0201 37.2521 47.3066 37.7841L45.0518 38.1201C43.2156 38.3287 40.1993 38.4939 38.334 38.2445C38.3586 38.1176 38.4186 38.0109 38.5063 37.9163L45.8542 30.2568L55.833 19.5548C56.1505 19.2325 56.5175 18.9238 56.7778 18.5527Z" fill="#DDDCDC"/>
<path d="M33.8042 37.6623L28.6779 36.4761C26.1309 35.6855 23.6421 34.5463 21.6014 32.8053C15.275 27.4083 18.8454 21.8115 24.792 18.7469C28.0645 17.0603 31.7884 16.0647 35.4382 15.6421L40.0893 15.3271L43.0961 15.3277L46.1987 15.5921L48.3523 15.9506C49.8505 16.2219 51.3199 16.5349 52.7723 17.0001C54.1572 17.4017 55.4866 17.9092 56.7771 18.5525C56.5168 18.9236 56.1498 19.2322 55.8323 19.5546L45.8535 30.2566L38.5056 37.9161C38.4179 38.0106 38.3579 38.1174 38.3333 38.2443C36.8409 38.1766 35.2601 38.0295 33.8042 37.6623Z" fill="#DDDCDC"/>
<path d="M33.8047 37.6624L52.7728 17.0002C54.1577 17.4018 55.4871 17.9093 56.7776 18.5527C56.5173 18.9237 56.1503 19.2324 55.8329 19.5548L45.854 30.2568L38.5062 37.9162C38.4184 38.0108 38.3584 38.1175 38.3338 38.2444C36.8414 38.1767 35.2607 38.0296 33.8047 37.6624Z" fill="white"/>
<path d="M12.5588 54.1597L12.595 54.1894C12.6902 54.2829 12.729 54.5368 12.77 54.6689C14.3401 59.7363 22.0578 62.7701 26.9152 64.0224C29.7179 64.7448 32.5444 65.2161 35.4296 65.456L40.571 65.6555L44.6505 65.5632L48.0409 65.2823L52.3189 64.6095C56.9322 63.6974 62.4083 61.9831 65.9191 58.8478C67.2001 57.7038 68.3245 56.4698 68.9231 54.8403C68.9928 54.6507 69.043 54.4498 69.14 54.2733L69.1607 54.2282C69.167 54.3584 69.1904 54.5202 69.1918 54.6559L69.1971 57.6398C69.1973 58.0453 69.2242 58.4717 69.169 58.874C68.3839 64.5774 59.7728 67.7528 54.9424 69.0042C52.6934 69.5869 50.4242 70.124 48.1104 70.3592L46.3562 70.5285C45.8617 70.5682 45.3522 70.5856 44.8662 70.6929C44.296 70.8189 43.6241 70.7596 43.0386 70.76L38.1264 70.7598C37.0656 70.7577 36.0631 70.6082 34.9935 70.5205C32.3657 70.305 29.7832 69.8082 27.2309 69.1579L24.7599 68.4971C20.5278 67.2074 13.0926 63.7835 12.5394 58.8212C12.4149 57.7043 12.4607 55.2819 12.5588 54.1597Z" fill="#EAECEE"/>
<path d="M35.9165 44.3653C38.792 43.757 41.74 43.7022 44.6449 44.1318C45.1644 44.2086 45.7637 44.271 46.2641 44.4259C46.4571 44.3409 46.6238 44.4295 46.8246 44.4548L48.6932 44.6872C51.9925 45.1849 56.1121 46.3749 58.9301 48.0695C62.7907 50.3909 64.0136 53.4884 59.7275 56.5703C56.0677 59.2018 51.5727 60.3305 47.1552 60.8972L43.4184 61.2249L38.9726 61.2345C38.0799 61.2297 37.2132 61.1388 36.326 61.0571L30.4413 60.0937C28.0602 59.5714 25.863 58.8422 23.7167 57.6495C19.992 55.5799 17.2626 52.7294 21.1654 49.2789C24.2106 46.5866 29.7101 45.2165 33.6069 44.6483L34.7824 44.4923C35.1356 44.4398 35.5354 44.3374 35.8918 44.3632L35.9165 44.3653Z" fill="#EAECEE"/>
<path d="M52.9471 49.7648C54.823 49.7388 58.2028 50.1477 58.4162 52.4417C58.597 54.3833 55.7714 55.2214 54.2874 55.3474C52.455 55.5279 49.9921 55.0154 48.9937 53.3124C48.5949 52.6319 48.6382 51.7678 49.1645 51.171C49.9894 50.2357 51.747 49.8339 52.9471 49.7648Z" fill="#FF70A6"/>
<path d="M40.1415 52.795C42.2519 52.7657 46.0542 53.2258 46.2943 55.8065C46.4977 57.9907 43.3188 58.9337 41.6493 59.0754C39.5879 59.2784 36.8171 58.7019 35.694 56.7861C35.2453 56.0204 35.2941 55.0483 35.8861 54.377C36.8141 53.3247 38.7914 52.8727 40.1415 52.795Z" fill="#FF70A6"/>
<path d="M28.0994 49.7648C29.9753 49.7388 33.3551 50.1477 33.5686 52.4417C33.7493 54.3833 30.9237 55.2214 29.4397 55.3474C27.6073 55.5279 25.1444 55.0154 24.1461 53.3124C23.7472 52.6319 23.7906 51.7678 24.3169 51.171C25.1418 50.2357 26.8993 49.8339 28.0994 49.7648Z" fill="#FF70A6"/>
</g>
<defs>
<clipPath id="clip0_9_4789">
<rect width="60.6061" height="60.6061" fill="white" transform="translate(10.5459 10.3695)"/>
</clipPath>
</defs>
</svg>
