<svg width="82" height="81" viewBox="0 0 82 81" fill="none" xmlns="http://www.w3.org/2000/svg">
<circle cx="40.8484" cy="40.5212" r="40" stroke="#D4D4D4" stroke-width="0.606061"/>
<path d="M38.4248 16.2258C37.2833 16.592 36.0926 17.0788 35.0204 17.6103C34.4656 17.8853 33.929 18.3157 33.3378 18.4984C31.4859 19.0706 29.1371 16.0781 32.0296 14.511L33.7263 13.6787C36.6962 12.2916 40.4089 11.1171 43.6675 12.0918C44.5676 12.361 45.8383 12.7867 46.2997 13.6796C46.868 14.7794 46.5077 16.1825 45.3706 16.728C44.3983 17.1944 43.403 16.4548 42.5025 16.1348C41.7996 16.0207 40.0021 16.0526 39.2678 16.1109L38.7426 16.1684C38.6422 16.184 38.5243 16.2218 38.4248 16.2258Z" fill="#FF70A6"/>
<path d="M38.3954 16.2302C38.5244 16.2218 38.6423 16.184 38.7427 16.1684L39.2679 16.1109C40.0023 16.0526 41.7997 16.0207 42.5026 16.1274L42.5394 17.7515L42.5301 23.2451C42.8051 23.2988 43.1083 23.2749 43.389 23.2753L44.9556 23.2704C45.1955 23.2698 45.4909 23.2348 45.72 23.3144C47.1108 23.7976 46.9723 25.2457 46.9742 26.3787L47.0004 29.866L36.8099 29.8252C36.0303 29.8284 35.2537 29.8279 34.4813 29.9505C34.4298 29.5187 34.4392 29.085 34.4391 28.6478L34.4444 25.4573C34.4662 23.7667 35.139 23.268 36.8285 23.2769L38.3854 23.2912L38.3902 17.5991L38.3954 16.2302Z" fill="#FF70A6"/>
<path d="M38.395 16.2302C38.524 16.2218 38.6419 16.184 38.7423 16.1684L39.2675 16.1109C40.0019 16.0526 41.7994 16.0207 42.5023 16.1274L42.5391 17.7515C42.1444 17.5584 39.1018 17.6454 38.4076 17.5991L38.395 16.2302Z" fill="#FFA9C3"/>
<path d="M34.4813 29.9595C35.2537 29.8279 36.0303 29.8284 36.8099 29.8252L47.0413 29.8311C48.5147 29.8272 49.9934 30.067 51.1017 31.1431C51.956 31.9727 52.4794 33.1453 52.4937 34.3392L52.4897 40.436C52.4858 40.7799 52.4296 41.1233 52.4277 41.471L52.4255 63.9123C52.4248 65.4404 52.3189 66.135 51.1592 67.3016C50.2765 68.1895 49.1667 68.6795 47.9054 68.6765L36.0256 68.6706C35.1032 68.7165 34.1242 68.8102 33.2121 68.6285C31.2543 68.2387 30.0028 66.6135 29.7435 64.6924C29.6909 64.3025 29.7145 63.889 29.7141 63.4953L29.7106 41.5558C29.7085 41.1816 29.6526 40.8123 29.648 40.4368L29.6367 34.1283C29.6507 32.2163 31.381 30.1485 33.3433 29.998C33.7191 29.9693 34.1116 30.0168 34.4813 29.9595Z" fill="#EAECEE"/>
<path d="M40.2491 41.8524C43.075 41.6203 46.3609 43.6205 47.2713 46.3773C48.3383 49.6082 47.773 53.2464 45.3142 55.7004C44.2329 56.7797 42.9826 57.556 41.4791 57.8689L41.4112 57.8807C40.0337 58.0973 38.4974 57.5185 37.3998 56.7039C35.4682 55.2704 34.3206 52.663 34.0084 50.3321C33.7854 48.6672 34.1594 46.1416 35.1927 44.8034C36.3922 43.25 38.2988 42.1019 40.2491 41.8524Z" fill="#FF70A6"/>
<path d="M44.3025 46.344C45.1375 46.302 45.8208 47.4696 44.4067 47.8651C44.2962 47.8734 44.1892 47.8834 44.0797 47.8616L44.046 47.8544C43.2548 47.6904 43.2078 46.597 44.3025 46.344Z" fill="#FFA9C3"/>
<path d="M37.6127 46.3722C38.8175 46.3206 38.7197 47.9057 37.7356 47.9767C36.5631 47.8717 36.5078 46.6575 37.6127 46.3722Z" fill="#FFA9C3"/>
<path d="M38.379 51.7348C38.6302 51.7056 38.7312 52.1027 38.8329 52.3164C39.5373 53.7964 41.3704 53.837 42.2099 52.5085C42.329 52.3199 42.4415 51.893 42.6143 51.7968C42.9931 51.5862 43.0364 52.275 42.8978 52.6549C41.8832 54.8433 38.8189 54.536 38.1742 52.4156C38.0788 52.1017 38.0943 51.8419 38.379 51.7348Z" fill="#FFA9C3"/>
</svg>
