<svg width="81" height="81" viewBox="0 0 81 81" fill="none" xmlns="http://www.w3.org/2000/svg">
<circle cx="40.303" cy="40.5212" r="40" stroke="#D4D4D4" stroke-width="0.606061"/>
<path d="M29.7119 59.6133L50.3124 59.6315L50.2677 66.7829C50.266 68.5365 49.6473 69.7765 47.598 69.788L33.5348 69.7892C32.9421 69.7894 32.2996 69.8388 31.7157 69.7391C30.094 69.4622 29.7175 68.0736 29.7122 66.6931L29.7119 59.6133Z" fill="#FF70A6"/>
<path d="M39.6252 63.5337C41.8248 63.2495 43.96 64.9691 44.158 67.1722C44.2093 67.7414 44.1474 68.3381 44.1083 68.907C43.7171 66.9925 42.6734 65.4278 40.687 64.9101C39.8674 64.7627 39.0456 64.804 38.2836 65.1611C37.1326 65.7005 36.0497 67.238 35.8344 68.5047C35.8021 68.0664 35.7281 67.5757 35.7863 67.1392C36.0471 65.1875 37.6901 63.7287 39.6252 63.5337Z" fill="#FFA9C3"/>
<path d="M48.3444 43.1356C48.6953 43.2347 49.0112 43.2266 49.3728 43.2274L50.8215 43.2279C51.1407 43.2279 51.4769 43.205 51.7913 43.2631L51.8196 43.2678L51.445 46.9884L51.0119 50.6676L50.3181 59.6466L29.7332 59.6161L28.7985 48.6367L28.1982 43.182L31.7317 43.2645C31.9602 43.6741 32.1291 44.1022 32.3572 44.5013C35.0493 49.2116 42.6604 50.001 46.3693 46.2459C47.2735 45.3305 47.7507 44.2481 48.3444 43.1356Z" fill="#EAECEE"/>
<path d="M48.3444 43.1356C48.6953 43.2347 49.0112 43.2266 49.3728 43.2274L50.8215 43.2279C51.1407 43.2279 51.4769 43.205 51.7913 43.2631L51.8196 43.2678L51.4248 47.1878C51.3518 47.1935 51.3079 47.0094 51.2396 46.9791C50.9926 46.9929 50.9724 47.2951 50.9052 47.4932L50.5903 48.3683C49.2148 51.8004 45.1982 53.8559 41.6861 54.2433C37.1245 54.7464 32.6885 53.1908 29.8856 49.4985C29.566 49.0775 29.2833 48.5964 28.8932 48.2368C28.8804 48.3643 28.8926 48.5489 28.7985 48.6367L28.1982 43.182L31.7317 43.2645C31.9602 43.6741 32.1291 44.1022 32.3572 44.5013C35.0493 49.2116 42.6604 50.001 46.3693 46.2459C47.2735 45.3305 47.7507 44.2481 48.3444 43.1356Z" fill="#FF70A6"/>
<path d="M28.1946 43.1879L25.0244 15.3151C24.9764 14.8813 24.9055 14.4475 24.9149 14.0093C24.9401 12.8413 25.8647 11.7457 27.0452 11.6182C27.3911 11.5808 27.7549 11.6004 28.1034 11.6002L52.8057 11.5887C54.3415 11.6152 55.1944 13.1375 55.119 14.5161C55.0656 15.4936 54.8677 16.4793 54.7754 17.4568L52.1751 39.9242C52.0506 41.0344 51.9965 42.1672 51.8187 43.2703L51.7904 43.263C51.476 43.2049 51.1398 43.2278 50.8206 43.2278L49.372 43.2272C49.0103 43.2265 48.6944 43.2346 48.3435 43.1355C47.7498 44.248 47.2726 45.3303 46.3684 46.2458C42.6595 50.0009 35.0484 49.2115 32.3563 44.5012C32.1282 44.1021 31.9593 43.674 31.7309 43.2784L28.1946 43.1879Z" fill="#EAECEE"/>
<path d="M31.7032 43.2784C31.4913 42.86 31.3053 42.169 31.2326 41.7189C30.3772 36.4142 36.5379 33.3678 41.1346 33.8331C44.5569 34.1796 48.6352 36.7749 48.9369 40.4726C49.0091 41.3576 48.7068 42.3487 48.3159 43.1356C47.7221 44.248 47.2449 45.3304 46.3407 46.2459C42.6318 50.001 35.0207 49.2115 32.3286 44.5012C32.1005 44.1022 31.9316 43.674 31.7032 43.2784Z" fill="#DEDDDD"/>
<path d="M37.2129 37.7938H43.8796" stroke="#AB3E5F" stroke-width="0.606061" stroke-linecap="round"/>
<path d="M36.001 39.6119H44.4858" stroke="#AB3E5F" stroke-width="0.606061" stroke-linecap="round"/>
<path d="M35.3945 41.4299H45.6976" stroke="#AB3E5F" stroke-width="0.606061" stroke-linecap="round"/>
<path d="M36.001 43.2483H44.4858" stroke="#AB3E5F" stroke-width="0.606061" stroke-linecap="round"/>
<path d="M37.2129 44.7635H43.8796" stroke="#AB3E5F" stroke-width="0.606061" stroke-linecap="round"/>
</svg>
