<svg width="82" height="81" viewBox="0 0 82 81" fill="none" xmlns="http://www.w3.org/2000/svg">
<circle cx="41.0003" cy="40.3697" r="40" stroke="#D4D4D4" stroke-width="0.606061"/>
<path d="M33.5506 39.437L33.5211 37.6346C33.1754 37.527 32.7323 37.5461 32.3658 37.4845L29.6695 36.9277C26.0477 36.0678 21.8714 34.4994 18.9716 32.0674C16.3177 29.8415 14.5841 26.5543 15.6907 23.0622C17.2843 18.0333 23.2558 15.0976 28.0245 13.6959L30.7585 12.9762C32.4613 12.6116 34.2011 12.3887 35.9328 12.2154L38.6726 11.9917L43.1357 11.9919L46.145 12.2546C52.7119 12.9992 61.9699 15.5442 65.1989 21.7924C67.6384 26.5131 64.9686 30.3593 61.1458 33.0113C57.7801 35.3461 52.7763 36.9078 48.8056 37.4768L48.1115 37.5532C48.0375 37.561 47.929 37.5551 47.8689 37.5984L47.8713 39.4263L47.0669 39.2542L47.0796 37.5448C47.0823 36.9834 47.0575 36.3088 47.2583 35.78C47.4466 35.733 47.5219 35.7302 47.664 35.5953C47.7235 35.6713 47.7028 35.7474 47.7847 35.8017C53.3003 35.0329 61.2961 32.607 62.9067 26.6875C63.6954 23.7886 61.3625 21.0406 59.1656 19.4926L57.8574 18.6631C57.2478 18.29 56.5993 17.8836 55.9061 17.6952L55.886 17.7059L52.2963 16.5584C52.1189 16.5011 51.9283 16.3926 51.7649 16.3032L51.8097 16.2883C51.8917 16.3236 51.9475 16.3154 52.0329 16.3047L52.0661 16.3002L49.2997 15.6974C47.4015 15.3467 45.4927 15.1396 43.5682 15.009L41.395 14.918C40.8924 14.9151 40.385 14.8985 39.8833 14.9291L38.3368 14.9282C32.7138 15.1369 24.7223 16.8872 20.7307 20.8508C15.6578 25.888 19.8363 30.7906 25.2549 33.2068L27.1237 33.9441C29.0335 34.6584 31.3167 35.3853 33.3665 35.6002C33.7027 35.6354 34.141 35.5826 34.4354 35.7382L34.4541 35.7546L34.5731 39.1679C34.2566 39.2778 33.8716 39.3091 33.5506 39.437Z" fill="#EAECEE"/>
<path d="M52.0668 16.3003C52.2768 16.3177 52.4846 16.3826 52.6887 16.434L56.3355 17.4829C56.5605 17.5446 56.853 17.6288 57.062 17.7237C56.9175 17.7236 56.7315 17.7504 56.604 17.6941L56.4979 17.6736C56.4116 17.6513 56.0079 17.6112 55.938 17.6645L55.9068 17.6952L55.8867 17.7059L52.297 16.5584C52.1196 16.5011 51.929 16.3926 51.7656 16.3032L51.8104 16.2883C51.8924 16.3236 51.9482 16.3154 52.0336 16.3047L52.0668 16.3003Z" fill="#DCD4C5"/>
<path d="M17.5149 51.0564L17.5955 50.9604C17.6632 51.1642 17.6902 51.3772 17.7455 51.584C18.7022 55.1637 23.3119 57.2101 26.4466 58.4091C29.1002 59.424 30.7936 59.7823 33.6047 60.169C40.2107 61.0776 47.5663 60.9731 53.9014 58.8553C57.2775 57.7267 61.8523 55.7606 63.5517 52.3539C63.682 52.0928 63.7622 51.7582 63.9269 51.5258L63.9222 55.7007C63.9201 56.7514 63.9741 57.8177 63.6917 58.8428C62.6391 62.663 57.6382 65.2845 54.2544 66.545L51.576 67.4413C49.7917 67.9426 47.9486 68.2795 46.1132 68.5231L42.9774 68.7947C38.8827 69.0264 34.8713 68.687 30.8879 67.6643L28.2381 66.9367C24.3015 65.6639 18.1087 62.4301 17.5669 58.0601C17.4678 57.2603 17.5153 56.4181 17.515 55.6115L17.5149 51.0564Z" fill="#C2C2C2"/>
<path d="M39.8836 14.9225C40.3852 14.8985 40.8927 14.915 41.3953 14.918L43.5685 15.009C45.4929 15.1396 47.4018 15.3466 49.3 15.6974L52.0663 16.3002L52.0332 16.3046C51.9477 16.3153 51.892 16.3235 51.8099 16.2883L51.7652 16.3032C51.9286 16.3926 52.1191 16.501 52.2966 16.5583L55.8863 17.7059L55.9064 17.6951C56.5996 17.8836 57.248 18.2899 57.8577 18.6631L59.1659 19.4925C61.3627 21.0405 63.6957 23.7885 62.907 26.6875C61.2963 32.607 53.3006 35.0329 47.785 35.8017C47.7031 35.7473 47.7238 35.6712 47.6642 35.5952C47.5222 35.7302 47.4469 35.7329 47.2586 35.7799C47.0578 36.3088 47.0826 36.9834 47.0798 37.5447L47.0749 39.2541C45.6536 39.0793 44.2335 38.9296 42.8094 38.8777L38.8823 38.8776L35.9238 39.0459C35.4815 39.0758 35.0279 39.0828 34.5923 39.1678L34.4636 35.7546L34.4357 35.7381C34.1413 35.5826 33.7029 35.6354 33.3668 35.6001C31.3169 35.3852 29.0338 34.6583 27.124 33.9441L25.2551 33.2067C19.8365 30.7906 15.6581 25.888 20.731 20.8507C24.7226 16.8872 32.7141 15.1369 38.3371 14.9282L39.8836 14.9225Z" fill="#DEDDDD"/>
<path d="M34.4639 35.7546C34.8296 35.8522 35.3103 35.8714 35.6965 35.8843L46.2812 35.8834C46.5812 35.8764 46.9778 35.895 47.2589 35.7917C47.0581 36.3089 47.0828 36.9835 47.0801 37.5448L47.0751 39.2542C45.6539 39.0793 44.2338 38.9297 42.8096 38.8777L38.8825 38.8776L35.9241 39.0459C35.4817 39.0759 35.0281 39.0829 34.5925 39.1679L34.4639 35.7546Z" fill="#202F34"/>
<path d="M39.8836 14.9299C40.3852 14.8985 40.8927 14.9151 41.3953 14.918L43.5685 15.009C45.493 15.1396 47.4018 15.3467 49.3 15.6974L52.0663 16.3002L52.0332 16.3047C51.9477 16.3153 51.892 16.3236 51.81 16.2883L51.7652 16.3032C51.9286 16.3926 52.1191 16.5011 52.2966 16.5584L55.8863 17.7059L55.8709 17.7587C55.6202 18.4194 54.6367 19.4415 54.1659 19.9576L49.7555 24.4996L40.6189 33.6678C40.5133 33.7856 40.4316 33.912 40.2896 33.9877L37.5724 33.9649L33.9827 33.6001C33.5926 33.5535 33.198 33.5538 32.8095 33.4922C32.1505 33.3875 31.4907 33.1749 30.8431 33.0128C28.4616 32.4165 24.595 31.3745 22.6426 29.7951C22.8964 29.5502 23.2083 29.3449 23.5007 29.1484L26.7746 26.8936C28.1558 25.8332 29.6026 24.8138 30.9068 23.66L38.7484 15.9817C39.168 15.6069 39.4856 15.3216 39.8836 14.9299Z" fill="white"/>
<path d="M45.6336 20.9395C45.9325 20.9146 46.2698 21.145 46.314 21.4522C46.409 22.1142 45.7106 22.5877 45.2946 22.9877L43.9197 24.3404L38.1281 30.5724C37.8732 30.8596 37.6039 31.2767 37.191 31.3191L37.1621 31.316C36.2433 31.2023 36.4095 30.4572 36.8452 29.9157C38.5481 27.7996 40.601 25.9666 42.4649 23.9974L43.9609 22.396C44.3229 21.9942 44.6615 21.4621 45.1148 21.1598L45.1576 21.1323C45.3181 21.0279 45.4461 20.9789 45.6336 20.9395Z" fill="#DEDDDD"/>
<path d="M40.5929 18.8362L40.7624 18.8372C41.4351 18.9103 41.5539 19.8353 41.1782 20.2859C40.8476 20.6824 40.4284 21.0217 40.0766 21.4043L34.5667 27.1211C34.2937 27.4108 34.0323 27.7436 33.7228 27.9935L33.6873 28.0216C33.5935 28.0973 33.5162 28.1449 33.403 28.1878C32.9325 28.3623 32.2002 27.4471 32.9321 26.6233C33.1625 26.364 33.4348 26.1451 33.6762 25.896L38.7408 20.5524C39.2492 20.0266 39.8962 19.0824 40.5929 18.8362Z" fill="#DEDDDD"/>
<path d="M34.5926 39.1679C35.0282 39.0829 35.4818 39.076 35.9242 39.046L38.8826 38.8777L42.8097 38.8778C44.2338 38.9298 45.6539 39.0794 47.0675 39.2542L47.8563 39.4263L47.8861 39.4378C48.094 39.5139 48.3185 39.5299 48.5357 39.5666L51.7696 40.2191C52.6157 40.4294 53.458 40.715 54.2853 40.9897C58.1094 42.2593 63.4431 44.6988 64.0353 49.1981C64.1289 49.9094 64.0687 50.8109 63.9263 51.5257C63.7621 51.758 63.6819 52.0926 63.5517 52.3538C61.8522 55.7605 57.2774 57.7265 53.9013 58.8552C47.5662 60.973 40.2106 61.0775 33.6046 60.1689C30.7935 59.7822 29.1001 59.4239 26.4465 58.4089C23.3118 57.21 18.7021 55.1636 17.7454 51.5839C17.6901 51.3771 17.6631 51.164 17.5954 50.9603L17.5121 51.0563C17.3651 46.6688 19.8255 44.4427 23.5983 42.5331C25.6402 41.4996 27.856 40.7565 30.074 40.2031L31.8323 39.8202C32.4098 39.7114 32.9936 39.6279 33.5512 39.4371C33.8722 39.3091 34.2573 39.2779 34.5926 39.1679Z" fill="#EAECEE"/>
<path d="M39.7443 43.4939C44.2984 43.4798 49.2131 43.8329 53.3312 45.9487C59.0749 48.8995 57.1527 52.3847 51.9253 54.3978C48.7252 55.6302 45.2461 56.1169 41.8296 56.1356C40.5772 56.1414 39.2988 56.183 38.0491 56.1105L35.2441 55.803C32.4415 55.4024 29.5789 54.7059 27.1601 53.1754C25.1547 51.9063 23.7609 49.7582 25.6519 47.7431C28.6489 44.5494 35.3687 43.6274 39.7443 43.4939Z" fill="#FF70A6"/>
</svg>
