<svg width="82" height="81" viewBox="0 0 82 81" fill="none" xmlns="http://www.w3.org/2000/svg">
<circle cx="41.0003" cy="40.5212" r="40" stroke="#D4D4D4" stroke-width="0.606061"/>
<path d="M33.3994 31.9445V25.9982C33.4004 24.9724 33.6249 24.1045 34.7603 23.7656L34.8086 23.7509C35.3816 23.6587 35.8216 23.6378 36.3332 23.6587V14.8661C36.3343 14.4773 36.3046 14.0529 36.3761 13.6701C36.6304 12.308 37.7565 11.4416 39.1025 11.8238C39.882 12.0452 40.6467 12.3816 41.4135 12.6488C43.1392 13.2502 45.6311 13.746 45.6546 16.0377L45.6971 23.6294L47.3657 23.6537C48.2033 23.7077 48.8956 24.3382 49.1708 25.1002L49.1919 25.1569C49.2967 25.4429 49.2689 25.7558 49.2697 26.0557L49.2774 30.2399C49.2878 30.7455 49.2876 31.4084 49.2774 31.9111L44.6763 31.9445H40.1308H36.1914C35.3924 32.0092 34.173 31.9254 33.3994 31.9445Z" fill="#FF70A6"/>
<path d="M40.1385 31.7646L49.364 31.7314C49.9012 31.8665 50.4435 31.7615 50.9759 31.9C51.6336 32.0709 52.5754 32.8401 52.6048 33.5935L52.5971 63.5711C52.5988 65.3639 52.6338 66.0195 51.2338 67.3679C49.6899 68.8552 48.2059 68.6486 46.1848 68.6469L36.695 68.6507C35.329 68.6666 34.2982 68.9292 32.858 68.4657C31.09 67.8966 29.9771 66.1998 29.8916 64.392L29.874 39.5629C29.8726 39.1939 29.8275 38.843 29.8089 38.4773L29.7947 33.9487C29.793 33.7623 29.7674 33.5402 29.8298 33.3638L29.8438 33.3272C30.0654 32.7006 30.8044 32.0664 31.4638 31.9172C32.0896 31.7756 32.6489 31.7902 33.3698 31.7902L40.1385 31.7646Z" fill="#D9D9D9"/>
<path d="M40.6026 41.8622C42.106 41.7978 43.5755 42.1799 44.7995 43.0716C46.7102 44.4634 47.4932 45.8107 47.8437 48.0793C48.1842 50.2824 47.7069 52.8541 46.3682 54.668C45.2174 56.2276 43.3991 57.5828 41.4523 57.8789L41.3107 57.8934C37.3257 58.2466 34.4445 53.6093 34.1594 50.1293C34.0137 48.3508 34.3952 45.8536 35.569 44.4788C36.8071 43.0284 38.6992 42.0194 40.6026 41.8622Z" fill="#FF70A6"/>
<circle cx="40.7369" cy="16.187" r="0.606061" fill="black"/>
<path d="M37.6113 46.49C39.3299 46.5194 39.293 48.8525 37.8639 48.9142C36.2228 48.816 35.9593 46.7054 37.6113 46.49Z" fill="#EAECEE"/>
<path d="M44.207 46.4928C45.8136 46.4 46.1365 48.7187 44.5293 48.9119C42.9346 49.0001 42.6151 46.7132 44.207 46.4928Z" fill="#EAECEE"/>
<path d="M38.061 51.9465C38.4064 51.91 38.5452 52.4063 38.6851 52.6735C39.6536 54.5235 42.1741 54.5742 43.3284 52.9136C43.4922 52.6779 43.6469 52.1442 43.8845 52.024C44.4053 51.7608 44.4649 52.6218 44.2743 53.0966C42.8793 55.8321 38.6659 55.448 37.7794 52.7975C37.6483 52.4051 37.6695 52.0803 38.061 51.9465Z" fill="#EAECEE"/>
<path d="M49.3346 27.7186V26.4908C49.3346 25.7788 49.3346 25.2779 49.0396 24.7555C48.6079 23.7895 47.8057 23.6355 46.828 23.6355H46.3602L46.5578 23.8666C46.8265 24.1684 47.0173 24.3118 47.2417 24.6606C48.119 26.0241 48.3871 28.3454 47.0646 29.4617L46.954 29.5492C46.0731 30.2337 44.6753 30.2281 43.649 30.2678L34.5406 30.364C34.1949 30.3878 33.9096 30.4585 33.5832 30.5347L33.4639 31.6955C34.0197 31.6955 34.3417 31.6886 34.7892 31.6955H48.3957C48.6807 31.7105 49.0887 31.6955 49.3762 31.6955C49.3762 30.2825 49.3331 29.1392 49.3346 27.7186Z" fill="#FF70A6"/>
<path d="M52.504 60.9871C52.5154 61.3272 52.5248 61.7479 52.5248 62.2098C52.5248 63.3826 52.4639 64.8074 52.2255 65.8503C52.058 66.5832 51.5986 67.1623 51.0614 67.5984C50.5239 68.0348 49.9175 68.3207 49.4769 68.4676C49.4396 68.48 49.3437 68.4957 49.1778 68.5103C49.0181 68.5244 48.8082 68.5366 48.5545 68.5469C48.0473 68.5675 47.3709 68.5805 46.5831 68.5876C45.0078 68.6018 42.9919 68.5924 41.0035 68.5734C39.0153 68.5545 37.0554 68.5261 35.5926 68.5024C35.5271 68.5014 35.4626 68.5003 35.3991 68.4993C36.9073 68.3231 38.5067 68.1396 40.0477 67.9628C41.0323 67.8498 41.9931 67.7396 42.8911 67.6357C44.4015 67.4611 45.7345 67.3044 46.7037 67.1832C47.1882 67.1226 47.5827 67.0707 47.8633 67.0298C48.0034 67.0094 48.1165 66.9915 48.1987 66.9764C48.2396 66.969 48.2747 66.9619 48.3023 66.9552C48.3161 66.9518 48.3298 66.9482 48.3423 66.9442C48.3521 66.941 48.3715 66.9345 48.3906 66.9231C49.9443 65.9909 51.0361 64.2913 51.7369 62.844C52.0826 62.1302 52.3358 61.472 52.504 60.9871Z" fill="#C9C8C8" stroke="#C9C8C8" stroke-width="0.30303"/>
</svg>
