<svg width="82" height="82" viewBox="0 0 82 82" fill="none" xmlns="http://www.w3.org/2000/svg">
<circle cx="41.1517" cy="41.2181" r="40" stroke="#D4D4D4" stroke-width="0.606061"/>
<path d="M49.6573 44.061L49.7253 44.0703C50.3234 44.1304 50.9342 44.082 51.5352 44.1044L53.4528 44.267C54.8468 44.4143 58.0678 44.7389 58.5457 46.4184L58.5561 46.453C59.1152 48.45 52.6998 51.8191 51.3032 52.5689L50.3215 53.0989C50.0907 53.2259 49.8571 53.3729 49.6095 53.4644L49.6109 45.2895C49.6114 44.887 49.5913 44.4583 49.6573 44.061Z" fill="#FF70A6"/>
<path d="M60.2705 51.9782C61.5996 51.8705 62.989 52.1912 64.0607 53.0093C68.0442 56.0499 66.5139 62.5253 61.3325 63.0963C58.5396 63.3698 55.6457 61.3385 55.2669 58.4879C54.8338 55.2283 57.002 52.3895 60.2705 51.9782Z" fill="#EAECEE"/>
<path d="M35.6409 26.0376L35.6429 22.787C35.6436 22.2671 35.5928 21.687 35.669 21.1761C36.0965 18.3089 39.7485 14.5264 42.1182 13.204C42.5926 12.9393 43.0972 12.6905 43.6312 12.5773L43.6735 12.5677C45.2714 12.2307 45.6873 13.6245 45.6945 14.8636L45.757 26.1907C45.7886 27.5241 44.9306 27.9687 43.7343 28.491C41.4865 29.4724 36.8501 29.4262 35.7801 27.0257C35.6425 26.7171 35.6554 26.3698 35.6409 26.0376Z" fill="#FF70A6"/>
<path d="M49.815 58.3003C49.8555 58.5118 49.8406 58.7344 49.8403 58.9481L49.8405 63.9763C49.9761 64.0598 50.1394 64.0638 50.2924 64.0975L50.8774 64.2492C52.2847 64.6343 54.5986 65.3474 54.983 66.9764C55.0557 67.2841 55.0335 67.5821 54.8841 67.8635L54.8596 67.9103C54.0205 69.4794 50.8341 69.8546 49.235 69.9795L42.8171 70.2721C42.6118 70.2796 42.411 70.3163 42.204 70.3204L35.2858 70.3214C35.0299 70.3138 34.7784 70.2696 34.5199 70.265C32.1021 70.2224 21.7954 70.6479 20.9385 67.5634C20.6557 66.5456 21.7465 65.7973 22.3891 65.2151C23.9037 63.8427 25.2912 62.6463 27.339 62.1823L31.5062 61.5734L31.5149 58.3492C31.9266 58.785 32.3148 58.9677 32.876 59.1836C34.5525 59.757 36.8271 59.9596 38.5779 60.0284L42.9548 60.0327C44.3509 59.9723 49.2092 59.6265 49.815 58.3003ZM49.6776 65.1211L49.6663 65.1597C49.5262 65.6851 49.9773 66.0685 49.1837 66.568C48.183 67.1981 46.5177 67.3267 45.3621 67.4533L42.5333 67.7342L38.3093 67.7364C38.0873 67.7239 37.8747 67.6765 37.6555 67.6552L36.2452 67.5214C34.4638 67.3333 32.0824 67.4285 31.4906 65.4109C30.7764 66.1658 30.2653 66.8499 31.1151 67.7265C32.4968 68.8087 35.1731 69.0456 36.867 69.1888L38.1762 69.3092L42.7719 69.3139L45.5966 69.0602C46.8631 68.9067 48.1562 68.7234 49.3408 68.2283C50.8149 67.6123 51.6457 66.4073 49.9994 65.25C49.9121 65.1885 49.8115 65.1008 49.6776 65.1211Z" fill="#FFA9C3"/>
<path d="M35.6356 26.0381C35.6555 26.3702 35.6426 26.7175 35.7801 27.0261C36.8502 29.4267 41.4866 29.4729 43.7343 28.4914C44.9307 27.9692 45.7886 27.5246 45.7962 26.1911C49.3483 26.2423 52.2374 27.4814 52.9628 31.3611C54.4593 30.4691 56.0762 30.0323 57.8013 30.4757C64.1485 32.1076 63.1725 42.0544 55.4139 42.1433L49.5809 42.7477C49.6383 43.1337 49.7271 43.6705 49.6472 44.0612C49.5915 44.4584 49.6117 44.8872 49.6112 45.2896L49.6111 53.4646C49.5118 53.5929 49.5292 53.7632 49.5269 53.9041L49.5237 56.6768C49.5244 57.0742 49.4703 57.6405 49.6078 58.0136L49.6629 58.1469C49.6887 58.2053 49.7267 58.2695 49.7889 58.2932L49.8153 58.3004C49.2094 59.6266 44.3511 59.9724 42.9551 60.0328L38.5782 60.0285C36.8273 59.9597 34.5527 59.7571 32.8762 59.1837C32.315 58.9678 31.9269 58.7851 31.5193 58.3493C31.6473 57.9261 31.776 56.3996 31.7152 55.9267C31.4083 56.1169 31.0286 56.2287 30.6844 56.2984L30.3884 56.3451C28.3424 56.4854 26.1767 54.9169 26.0553 52.7942C25.9332 52.7435 25.5861 52.9568 25.4574 53.0187C21.9589 54.6993 17.9105 53.7373 16.064 50.1285C14.4106 46.8975 15.7661 42.8977 19.0125 41.2594C20.7887 40.363 22.6512 40.3926 24.5134 41.0022C23.9117 38.0695 25.6355 34.9049 28.5938 34.0815L28.7619 34.0434C31.067 33.6743 31.6705 34.9687 32.9863 36.2384C33.4636 36.6988 34.0266 37.0729 34.567 37.4543C34.7313 36.3592 34.6969 35.312 34.698 34.2057L34.6971 27.5487C34.6898 27.2494 34.566 26.7449 34.786 26.4963C34.9825 26.2742 35.3414 26.058 35.6356 26.0381ZM46.7364 40.4462L46.8122 42.22C46.8178 42.725 46.8679 43.1256 46.5242 43.5271C45.1413 45.1428 39.9991 44.9796 38.1417 44.6967C37.2368 44.5588 34.7284 44.2016 34.6757 42.993C34.6626 42.6928 34.7863 40.856 34.632 40.7116L34.6028 40.6921C32.2961 41.6303 31.7226 41.7734 31.7299 44.2272L31.7368 46.0895L31.7143 55.7469C31.711 55.7966 31.6937 55.8808 31.7152 55.9267C31.776 56.3996 31.6473 57.9261 31.5193 58.3493C31.9269 58.7851 32.315 58.9678 32.8762 59.1837C34.5527 59.7571 36.8273 59.9597 38.5782 60.0285L42.9551 60.0328C44.3511 59.9724 49.2094 59.6266 49.8153 58.3004L49.7889 58.2932C49.7267 58.2695 49.6887 58.2053 49.6629 58.1469L49.6078 58.0136C49.4703 57.6405 49.5244 57.0742 49.5237 56.6768L49.5269 53.9041C49.5292 53.7632 49.5118 53.5929 49.6111 53.4646L49.6112 45.2896C49.6117 44.8872 49.5915 44.4584 49.6472 44.0612C49.7271 43.6705 49.6383 43.1337 49.5809 42.7477L49.5688 42.7214C49.1319 41.9246 47.561 40.707 46.7364 40.4462Z" fill="#EAECEE"/>
<path d="M46.7237 40.4461C46.6051 40.1456 46.6259 39.7832 46.6232 39.4669L46.6196 38.1934C46.619 37.625 46.5772 37.0172 46.6457 36.4541C51.3117 37.0731 49.4384 41.2048 54.7727 41.9348L55.3876 42.0508C55.3957 42.1105 55.3902 42.0873 55.4137 42.1431L49.5807 42.7475L49.5686 42.7213C49.1317 41.9244 47.5608 40.7068 46.7237 40.4461Z" fill="#FF70A6"/>
<path d="M26.0547 52.7939C26.216 52.6085 26.2588 52.2471 26.3177 52.0112C26.8058 50.0568 27.9203 48.6546 29.7086 47.7154C29.7933 47.671 30.2616 47.4715 30.2945 47.4088C30.3137 47.3723 29.2347 44.2623 29.8557 42.7829C30.4834 41.2876 32.7309 40.6878 34.2049 40.4954C34.4264 40.4665 34.7765 40.3553 34.6022 40.6917C32.2955 41.63 31.7219 41.7731 31.7293 44.2269L31.7356 46.0891L31.7333 55.7466C31.7103 55.7963 31.6931 55.8804 31.7064 55.9264C31.4077 56.1166 31.0279 56.2283 30.6837 56.298L30.3878 56.3448C28.3417 56.4851 26.176 54.9165 26.0547 52.7939Z" fill="#FF70A6"/>
<path d="M46.7366 40.4463C47.5612 40.7071 49.1321 41.9246 49.569 42.7215L49.5811 42.7478C49.6385 43.1338 49.7273 43.6706 49.6474 44.0612C49.5917 44.4585 49.6119 44.8872 49.6114 45.2897L49.6113 53.4646C49.512 53.5929 49.5294 53.7633 49.5271 53.9041L49.5239 56.6769C49.5246 57.0742 49.4705 57.6405 49.608 58.0136L49.6631 58.1469C49.6889 58.2054 49.7269 58.2696 49.7891 58.2932L49.8155 58.3005C49.2096 59.6267 44.3513 59.9724 42.9553 60.0328L38.5784 60.0286C36.8275 59.9598 34.5529 59.7571 32.8764 59.1837C32.3152 58.9678 31.9271 58.7852 31.5195 58.3493C31.6475 57.9262 31.7762 56.3997 31.7154 55.9268C31.6939 55.8808 31.7112 55.7967 31.7145 55.747L31.737 46.0895L31.7301 44.2273C31.7228 41.7735 32.2963 41.6304 34.603 40.6921L34.6322 40.7117C34.7865 40.8561 34.6628 42.6929 34.6759 42.993C34.7286 44.2016 37.237 44.5589 38.1419 44.6968C39.9993 44.9797 45.1415 45.1429 46.5244 43.5271C46.8681 43.1256 46.8179 42.7251 46.8124 42.2201L46.7366 40.4463ZM31.737 46.0895L31.7145 55.747C31.7338 55.8663 31.7425 56.0165 31.8978 55.9181L31.9274 55.8885C32.0644 55.8723 32.0555 55.7902 32.1346 55.711L32.1422 55.6663C32.1879 55.5516 32.1468 55.709 32.1721 55.609L32.194 55.5184C32.2139 55.454 32.2261 55.3761 32.2596 55.3192L32.3497 55.2748C32.4571 55.2736 32.5065 55.1907 32.6423 55.2356L32.7486 55.2743L32.8316 54.6233L32.8301 48.3973C32.8294 47.3323 32.8301 46.2632 32.4428 45.2556C32.2607 45.1384 31.8095 44.6577 31.7795 44.4206L31.737 46.0895Z" fill="#DDDDDC"/>
<path d="M32.8277 54.623L32.8353 58.0779C32.8376 58.4383 32.9171 58.8309 32.8749 59.1835C32.3152 58.9676 31.9271 58.785 31.5195 58.3491C31.6475 57.926 31.7762 56.3994 31.7154 55.9266C31.6939 55.8806 31.7112 55.7965 31.7145 55.7467C31.7338 55.8661 31.7425 56.0163 31.8978 55.9179L31.9274 55.8883C32.0644 55.8721 32.0555 55.79 32.1346 55.7108L32.1422 55.6661C32.1879 55.5514 32.1468 55.7087 32.1721 55.6088L32.194 55.5182C32.2139 55.4538 32.2261 55.3759 32.2596 55.319L32.3497 55.2746C32.4571 55.2734 32.5065 55.1905 32.6423 55.2354L32.7486 55.2741L32.8277 54.623Z" fill="#F2EEF1"/>
</svg>
