<svg width="82" height="82" viewBox="0 0 82 82" fill="none" xmlns="http://www.w3.org/2000/svg">
<circle cx="41.0003" cy="41.2181" r="40" stroke="#D4D4D4" stroke-width="0.606061"/>
<path d="M13.3936 49.7026C15.1197 49.2331 17.6892 49.9469 18.78 51.3862C19.386 52.1856 19.6678 53.1997 20.2368 54.0371C22.0383 56.6884 25.4506 57.3191 28.395 56.5505C30.2859 56.0569 32.2244 54.8312 32.8946 52.9097C32.9543 52.7382 32.959 52.501 33.0855 52.3691L34.3373 62.6389L34.481 64.2283C34.1131 64.3479 33.77 64.6325 33.4579 64.8594L30.1352 67.3473C29.8875 67.5205 29.6297 67.757 29.3572 67.8817C28.3908 67.5393 27.4554 67.0067 26.5713 66.4931C20.3634 62.8869 15.2566 56.6926 13.3936 49.7026Z" fill="#FF70A6"/>
<path d="M30.9788 23.3416L29.8975 19.9265C29.4157 18.4964 29.404 18.0657 30.4014 16.8745C33.0488 13.7124 37.7033 12.2732 41.7085 12.5501C45.0842 12.7836 49.9565 14.5769 51.6581 17.7704C52.228 18.8402 51.6565 19.8309 51.2925 20.884L50.754 22.5215C50.4135 23.3232 50.1734 24.2008 49.9124 25.0327L48.4511 29.3948C48.3736 29.5857 48.3008 29.8024 48.1907 29.9773C47.6979 29.8301 47.0825 29.9023 46.57 29.9085L44.7643 29.9213L43.6882 29.9212L41.316 29.9218L40.2268 29.9212H37.8106L36.722 29.9209L35.3786 29.9184L34.106 29.9156C33.8704 29.9143 33.6153 29.8924 33.3826 29.9289C33.0503 29.5081 32.8762 28.9653 32.6987 28.4614L30.9788 23.3416Z" fill="#FF70A6"/>
<path d="M40.2263 29.9212L40.2406 25.6293C40.234 25.4381 40.1901 25.2478 40.1797 25.0552L40.1629 23.4306C40.1588 23.0199 40.1213 22.5804 40.1632 22.1727C40.2143 21.6762 40.5588 21.0146 41.0214 21.6047L41.0586 21.651C41.3825 22.0806 41.1874 23.9168 41.2109 24.5196C41.2186 24.7158 41.2683 24.9063 41.2765 25.1028L41.2879 27.9372C41.2888 28.5956 41.3306 29.2777 41.2866 29.9328L40.2263 29.9212Z" fill="#AB3E5F"/>
<path d="M36.7218 29.9212L35.3202 24.6238C35.1578 24.0134 34.094 21.4433 35.2356 21.234L35.2722 21.2312C35.4321 21.3795 35.4884 21.5789 35.5531 21.7806L37.4234 28.6401C37.5446 29.0452 37.7753 29.5046 37.8105 29.9212H36.7218Z" fill="#AB3E5F"/>
<path d="M43.6875 29.9215L43.6942 29.8465C43.7451 29.3854 43.884 28.9238 43.9793 28.4701L45.1963 23.6069C45.3812 22.9615 45.5384 22.2724 45.817 21.6597C46.142 20.9451 46.7169 21.2763 46.6715 21.8311C46.6458 22.1472 46.5588 22.4629 46.4872 22.7712L44.7636 29.9221L43.6875 29.9215Z" fill="#AB3E5F"/>
<path d="M13.3941 49.7026C10.1963 39.1331 13.0363 27.517 21.2537 20.1013C22.1256 19.3145 23.2997 18.1384 24.5885 18.4276L24.849 18.49C25.9866 18.8087 26.8924 20.2455 26.54 21.4098L26.5251 21.4566C26.3283 22.0805 25.7652 22.4669 25.2748 22.8511L24.2605 23.6672C20.9311 26.397 18.323 30.0156 16.8565 34.07C16.5608 34.8877 16.1858 35.92 16.5821 36.7562C17.2296 38.1222 19.0183 37.546 19.5573 36.3681C19.7336 35.9829 19.8463 35.5587 20.0022 35.1629L21.1465 32.6204C23.3861 28.2311 26.8082 25.6255 30.9786 23.3416L32.6985 28.4613C32.876 28.9653 33.0501 29.508 33.3824 29.934C31.4391 31.59 31.4669 32.4637 31.6111 34.7715L32.3849 44.7543L33.0846 52.3691C32.9595 52.501 32.9549 52.7382 32.8951 52.9097C32.2249 54.8313 30.2864 56.0569 28.3956 56.5505C25.4511 57.3191 22.0388 56.6884 20.2373 54.0371C19.6683 53.1997 19.3865 52.1857 18.7805 51.3862C17.6897 49.9469 15.1202 49.2331 13.3941 49.7026ZM17.0322 39.3065C15.2307 39.6689 15.6298 41.9954 17.2622 41.7854C18.7788 41.4513 18.7477 39.2317 17.0322 39.3065Z" fill="#EAECEE"/>
<path d="M44.7643 29.9215L46.5699 29.9088C47.0825 29.9027 47.6979 29.8305 48.1907 29.9776C49.8898 30.8819 50.0856 31.9088 50.0109 33.6493L48.8627 46.0423C48.7908 46.6639 48.7614 47.3336 48.6224 47.9414L47.2969 61.4961C47.2598 61.9544 47.267 62.4963 47.1523 62.9395L47.1203 62.9882C47.0471 63.1507 47.0546 63.3704 47.0441 63.5463L46.9842 64.2668C46.9338 64.9967 46.9525 65.7228 46.8177 66.4451C46.5037 68.1268 45.1716 69.5876 43.6121 70.2588C43.4708 70.3195 43.1991 70.3862 43.0958 70.4829L43.177 70.5069L43.1674 70.522C42.8025 70.5292 42.4426 70.5881 42.0779 70.6048L40.5916 70.6098C40.0721 70.6079 38.7408 70.642 38.2784 70.4468C38.3136 70.4158 38.2959 70.4345 38.3291 70.3887C36.4009 69.6899 35.0994 68.0752 34.7395 66.0807L34.4842 64.2287L34.3389 62.6393L33.0862 52.3695L32.3851 44.7547L31.6113 34.7719C31.4671 32.4641 31.4393 31.5904 33.3826 29.9344C33.6153 29.8927 33.8704 29.9146 34.1059 29.9159L35.3785 29.9209L36.7219 29.9215H37.8106H40.2268L41.3159 29.9245L43.6882 29.9215H44.7643ZM33.3826 29.9344C31.4393 31.5904 31.4671 32.4641 31.6113 34.7719L32.3851 44.7547L33.0862 52.3695L34.3379 62.6393C34.9921 62.5364 37.0589 62.7345 37.2384 62.6069L34.6977 40.5122L39.6114 40.5124C40.6664 40.5119 41.5314 40.6291 42.0271 39.5387L41.9429 39.4163C41.5879 38.9262 40.719 39.0359 40.1326 39.032L36.5541 39.0349C35.8859 39.0386 35.198 39.0414 34.5376 39.1519L34.1869 35.6609C33.8845 33.2599 34.2722 31.8753 35.7808 29.9305L35.3785 29.9209L34.1059 29.9159C33.8704 29.9146 33.6153 29.8927 33.3826 29.9344Z" fill="#DEDDDD"/>
<path d="M44.5206 39.0282C44.6234 39.0019 44.8058 39.0261 44.9186 39.0261L45.8758 39.0219C45.8877 40.6635 44.7767 40.5056 43.3849 40.5108C41.5892 40.4656 42.1738 40.6391 42.1922 39.1133C42.5556 38.9379 44.0846 39.0293 44.5206 39.0282Z" fill="white"/>
<path d="M40.3672 46.5616C40.7025 46.5332 41.0459 46.5259 41.3711 46.6237C43.0839 47.1392 43.2061 48.58 43.2038 50.0261L43.201 57.9285C43.1972 59.5265 42.9444 60.8263 41.1702 61.2237C40.8642 61.2773 40.4517 61.3003 40.1532 61.2181L40.1059 61.2042C39.1511 60.9385 38.6107 60.1854 38.3585 59.2471L38.3075 59.0319C38.2184 58.5288 38.2716 57.9504 38.2716 57.438L38.2735 50.6482C38.2741 49.9819 38.2242 49.277 38.3068 48.6179C38.44 47.5557 39.3318 46.7335 40.3672 46.5616Z" fill="#FF70A6"/>
<path d="M50.754 22.5215C56.1567 25.377 60.345 30.7769 62.127 36.5597C62.7289 38.5128 62.8678 40.556 62.8598 42.5872L62.8893 42.5385C62.9574 42.4327 63.5819 41.9989 63.7063 41.9122C65.8894 40.3915 68.8915 41.1009 69.3535 43.9251C69.4379 44.4411 69.4049 45.1358 69.321 45.6454L69.1043 47.2492C67.3071 58.6279 57.7122 68.4048 46.3091 70.2173C45.2651 70.3833 44.2306 70.4489 43.1769 70.492L43.0957 70.4825C43.199 70.3858 43.4707 70.3191 43.612 70.2583C45.1716 69.5872 46.5036 68.1264 46.8176 66.4447C46.9525 65.7224 46.9338 64.9963 46.9842 64.2664L47.0441 63.5459C47.0545 63.37 47.0471 63.1503 47.1202 62.9877L47.1438 62.9391C47.267 62.4959 47.2598 61.954 47.2968 61.4957L48.6223 47.941C48.7613 47.3332 48.7908 46.6635 48.8626 46.0418L50.0108 33.6489C50.0855 31.9084 49.8897 30.8814 48.1906 29.9772C48.3007 29.8024 48.3735 29.5856 48.4511 29.3947L49.9123 25.0326C50.1734 24.2007 50.4134 23.3231 50.754 22.5215Z" fill="#EAECEE"/>
<path d="M64.037 49.4857C65.7372 49.2787 66.0661 51.5456 64.5338 52.0833C62.8701 52.1438 62.5355 49.9773 64.037 49.4857Z" fill="white"/>
<path d="M48.6217 47.9413L48.6797 47.9245C51.0323 48.1366 51.7229 44.4898 54.837 44.6991C58.9586 44.9762 57.9643 48.974 60.3618 49.2091L60.8729 49.207C59.8097 52.0613 58.0746 54.9471 55.9882 57.1964C54.1508 59.177 49.9849 62.5542 47.1494 62.9394C47.2664 62.4962 47.2591 61.9543 47.2962 61.496L48.6217 47.9413Z" fill="#FF70A6"/>
</svg>
