<svg width="81" height="81" viewBox="0 0 81 81" fill="none" xmlns="http://www.w3.org/2000/svg">
<circle cx="40.303" cy="40.3697" r="40" stroke="#D4D4D4" stroke-width="0.606061"/>
<path d="M13.8169 63.4159L66.9718 63.3848C67.067 63.9422 67.1673 64.572 67.1207 65.1258C66.8764 67.1223 65.1392 68.5852 63.2754 69.0712L63.0405 69.1175C62.2932 69.2189 61.5048 69.1706 60.7509 69.1709L18.9758 69.1718C18.6393 69.1713 18.2947 69.1858 17.9594 69.1577C15.7076 68.9698 13.8632 67.151 13.5933 64.9153C13.565 64.4224 13.5817 63.8603 13.8169 63.4159Z" fill="#FFA9C3"/>
<path d="M13.8169 63.4159L66.9718 63.3848C67.067 63.9422 67.1673 64.572 67.1207 65.1258L13.5933 64.9122C13.565 64.4224 13.5817 63.8603 13.8169 63.4159Z" fill="#E21F5A"/>
<path d="M21.268 43.9884C21.8063 44.2493 22.561 44.1635 23.1408 44.1647L58.7698 44.1654C59.0463 44.1651 59.3558 44.1413 59.6284 44.1772L64.9706 58.1651L66.2572 61.2383C66.552 61.9586 66.8368 62.623 66.9713 63.3957L13.8164 63.393C14.0197 63.015 14.1371 62.5249 14.298 62.0996L20.7415 45.3512C20.9009 44.9055 21.0286 44.3964 21.268 43.9884Z" fill="#EAECEE"/>
<path d="M39.4607 47.3663L39.5041 47.3614C40.6084 47.2473 42.0326 47.5773 42.9004 48.3179C43.728 49.024 43.9107 50.1522 43.1783 51.0103C42.5007 51.8043 41.524 52.1272 40.5325 52.1854C39.4253 52.2117 38.0644 52.0327 37.1675 51.2867C36.3142 50.5769 36.0656 49.4722 36.7905 48.5673C37.4412 47.7553 38.4872 47.4545 39.4607 47.3663Z" fill="#FF70A6"/>
<path d="M55.3862 55.8567L55.4405 55.8508C56.8208 55.7134 58.6011 56.1109 59.6858 57.0028C60.7202 57.8532 60.9487 59.212 60.0332 60.2455C59.1862 61.2017 57.9653 61.5906 56.7259 61.6607C55.3419 61.6924 53.6408 61.4768 52.5197 60.5783C51.4531 59.7235 51.1422 58.393 52.0484 57.3032C52.8617 56.3252 54.1693 55.9629 55.3862 55.8567Z" fill="#FF70A6"/>
<path d="M23.8705 55.8567L23.9248 55.8508C25.3052 55.7134 27.0854 56.1109 28.1702 57.0028C29.2046 57.8532 29.4331 59.212 28.5176 60.2455C27.6706 61.2017 26.4497 61.5906 25.2103 61.6607C23.8262 61.6924 22.1252 61.4768 21.004 60.5783C19.9375 59.7235 19.6266 58.393 20.5328 57.3032C21.3461 56.3252 22.6537 55.9629 23.8705 55.8567Z" fill="#FF70A6"/>
<path d="M53.0517 47.3663L53.0988 47.3614C54.2951 47.2473 55.838 47.5773 56.7781 48.3179C57.6746 49.024 57.8726 50.1522 57.0791 51.0103C56.3451 51.8043 55.287 52.1272 54.2128 52.1854C53.0133 52.2117 51.5391 52.0327 50.5674 51.2867C49.6431 50.5769 49.3737 49.4722 50.159 48.5673C50.8639 47.7553 51.9971 47.4545 53.0517 47.3663Z" fill="#FF70A6"/>
<path d="M27.5547 52.1605L27.5076 52.1655C26.3114 52.2795 24.7685 51.9495 23.8283 51.209C22.9318 50.5029 22.7339 49.3746 23.5273 48.5165C24.2613 47.7226 25.3195 47.3997 26.3936 47.3414C27.5931 47.3152 29.0673 47.4941 30.039 48.2402C30.9634 48.95 31.2328 50.0547 30.4474 50.9595C29.7425 51.7715 28.6093 52.0723 27.5547 52.1605Z" fill="#FF70A6"/>
<path d="M39.3978 55.5992L39.4294 55.5947C40.7342 55.4547 42.3603 55.8812 43.3974 56.6821C44.3908 57.4493 44.7863 58.8209 43.9701 59.8516C43.1703 60.8617 41.8526 61.2342 40.6289 61.3767C40.5544 61.3773 40.4318 61.403 40.3517 61.4068L39.81 61.4164C38.7501 61.4189 37.6155 61.1134 36.7616 60.4675C33.8839 58.2908 36.7775 55.8896 39.3978 55.5992Z" fill="#FF70A6"/>
<path d="M21.1258 41.74C20.9916 41.137 20.9373 40.5204 20.8731 39.9069L19.9109 30.674L19.2381 25.3982L18.028 14.8486C17.8729 13.7213 17.2286 12.2015 18.7234 11.701L18.753 11.6897C19.1167 11.5563 19.6266 11.601 20.0129 11.6043L26.6691 11.5376L61.4188 11.5084C61.9642 11.5223 62.5719 11.9781 62.7663 12.495L62.7825 12.5327C63.0646 13.1966 62.6602 14.9204 62.582 15.6486L59.7581 41.2258C59.729 41.4014 59.6804 41.5837 59.6691 41.7609C59.5646 42.2992 59.5267 43.6191 59.6214 44.1816C59.3562 44.1412 59.0468 44.165 58.7703 44.1653L23.1413 44.1646C22.5615 44.1634 21.8067 44.2492 21.2684 43.9919L21.1258 41.74Z" fill="#DFDEDE"/>
<path d="M21.125 41.7399L58.6463 41.7513C58.9711 41.7503 59.3487 41.7105 59.6683 41.7551C59.5638 42.2991 59.5259 43.619 59.6206 44.1815C59.3555 44.1412 59.046 44.165 58.7695 44.1652L23.1405 44.1645C22.5607 44.1633 21.806 44.2491 21.2677 43.9918L21.125 41.7399Z" fill="#FFA9C3"/>
<path d="M44.7886 12.8849L60.2233 12.8769C60.3423 12.877 60.7683 12.8551 60.8438 12.946C61.3515 13.5572 59.7146 14.7962 59.3688 15.1235L58.0027 16.4638L49.3027 25.4914L38.7225 36.3433C37.4766 37.6225 35.7605 38.9541 35.516 40.8374C33.6032 40.3132 32.1824 40.364 30.236 40.3669L23.8661 40.3633C22.6987 40.3577 22.5605 40.5467 22.3959 39.2771L19.8455 16.8356C19.6804 15.563 19.4312 14.2819 19.3418 13.0025C19.4044 12.9453 21.181 12.896 21.5875 12.8896L44.7886 12.8849Z" fill="white"/>
<path d="M47.0281 16.9432C47.1477 16.9313 47.2493 16.9158 47.3657 16.9541C47.4765 17.6001 45.7052 19.2347 45.2948 19.6724L34.5408 30.605C33.9565 31.2331 33.3018 32.1364 32.3237 31.8431C30.86 31.074 33.2663 29.1641 33.8323 28.6257L41.86 20.7248C43.3624 19.2681 44.9292 17.4981 47.0281 16.9432Z" fill="#DFDEDE"/>
<path d="M50.4009 18.5464C50.7412 18.5266 51.112 18.566 51.3892 18.7857L51.4192 18.8101C51.7484 19.0685 51.9429 19.4528 51.8758 19.8804L51.8346 20.0909C51.5384 21.0461 50.3125 21.9773 49.6142 22.6452L41.2146 31.0135C40.3242 31.8987 39.2227 33.1785 37.9292 33.4187C37.4331 33.4992 36.8963 33.4569 36.3941 33.4522C36.3224 33.1935 36.3315 32.7646 36.3786 32.5L36.3861 32.4607C36.5534 31.509 37.6361 30.7305 38.2826 30.0971L41.577 26.8939L46.9452 21.4028C47.713 20.6316 49.2884 18.71 50.4009 18.5464Z" fill="#DFDEDE"/>
</svg>
