<svg width="81" height="81" viewBox="0 0 81 81" fill="none" xmlns="http://www.w3.org/2000/svg">
<circle cx="40.6971" cy="40.3697" r="40" stroke="#D4D4D4" stroke-width="0.606061"/>
<g clip-path="url(#clip0_9_4823)">
<path d="M35.0975 39.7847C34.9785 39.7314 34.7918 39.7211 34.6694 39.7038L31.4453 39.1465C25.2684 37.8059 14.3767 33.5315 14.2659 25.9741C14.231 23.5988 15.4625 21.2321 17.0827 19.5571C21.9308 14.5448 31.4335 11.9253 38.284 11.8221L42.6283 11.834L46.0988 12.1415C50.1061 12.6232 54.1395 13.6259 57.7839 15.3803C68.3398 20.4618 69.8827 29.3472 59.2873 35.4963C56.4224 37.1591 53.396 38.2331 50.1628 38.9658L47.444 39.5319L45.6373 39.7418L45.651 43.1799L42.5268 42.9357L37.3702 42.9299C36.626 42.9616 35.8721 43.0478 35.1328 43.1385L35.0975 39.7847Z" fill="#FFA9C3"/>
<path d="M35.0977 39.7847C35.1222 39.774 44.6766 39.7986 45.6375 39.7928L45.6512 41.9678L42.527 41.7236L37.3704 41.7178C36.6262 41.7495 35.8723 41.8357 35.133 41.9264L35.0977 39.7847Z" fill="#202F34"/>
<path d="M39.1699 16.026L41.3413 16.0166C43.0829 16.0185 44.6714 16.2093 46.3982 16.4721L49.4026 16.981C52.8491 17.7287 56.8968 19.1739 59.4603 21.6668C62.0452 24.1806 62.0088 27.3265 59.5 29.8871C55.6161 33.851 47.3672 35.8444 41.785 35.9049C40.7186 35.9062 39.6274 35.9525 38.5639 35.8915L37.6592 35.8021C32.7743 35.4243 25.8407 33.9101 22.0419 30.4998C19.2838 28.024 18.4247 24.8012 21.0416 21.9447C24.5876 18.074 32.5069 16.5195 37.4877 16.1475L39.1699 16.026Z" fill="#DFDEDE"/>
<path d="M39.3065 18.017C39.7326 17.9992 40.4975 17.8808 40.5651 18.4701C40.6564 19.2655 40.0527 19.9821 39.2709 20.0533C38.0432 20.0456 36.9813 18.2195 39.3065 18.017Z" fill="white"/>
<path d="M45.21 16.6855C45.8158 16.7192 46.4725 16.8435 47.036 17.0713C46.214 18.2231 45.2086 19.2649 44.2877 20.3401L43.183 21.644L34.0535 31.6124C33.8394 31.8608 33.7036 32.2347 33.3487 32.2727C32.6917 32.1968 32.0682 32.0238 31.4878 31.6993L32.9509 29.8862L44.6711 17.0996C44.8287 16.9414 44.9886 16.7451 45.21 16.6855Z" fill="white"/>
<path d="M35.1326 41.9263C35.8718 41.8357 36.6257 41.7495 37.3699 41.7178L42.5265 41.7236L45.6559 41.9678C46.1243 42.0467 46.6096 42.0717 47.0818 42.1299L49.6806 42.5214C55.1786 43.5104 65.7276 46.8676 66.4193 53.5856C66.4671 54.0502 66.4399 54.5405 66.44 55.0083L66.4399 57.5374C66.4405 58.2849 66.4747 59.0524 66.393 59.7955C65.8068 65.1315 58.654 68.033 54.0563 69.2733C52.6632 69.6491 51.2418 69.9819 49.8191 70.2262L45.5671 70.7345C44.4638 70.8044 43.3408 70.7611 42.2343 70.7615L36.3131 70.7612C35.8829 70.7609 35.4351 70.7807 35.0079 70.7334C28.8491 70.0516 21.2436 68.6666 16.7119 64.1176C14.5345 61.932 14.3207 60.4553 14.3181 57.6462L14.3179 54.4053C14.3355 47.6691 23.7331 44.1006 29.0894 42.9448L35.1326 41.9263Z" fill="#EAECEE"/>
<path d="M39.305 46.426H41.3114C44.7254 46.4295 48.0922 47.0662 51.2843 48.2629C53.9634 49.2673 58.4632 51.3827 58.4773 54.8075C58.499 60.1235 49.6547 62.5158 45.5134 63.0562L43.0177 63.3304L41.4814 63.355C40.3263 63.3595 39.1404 63.4058 37.9885 63.331L37.221 63.2515C32.6998 62.8736 22.3324 60.6013 22.2547 54.9483C22.2366 53.6322 22.9802 52.3797 23.8764 51.4697C27.1753 48.1197 34.7091 46.4506 39.305 46.426Z" fill="#FF70A6"/>
<path d="M40.736 49.1575C43.3176 49.1612 46.602 49.4893 49.0209 50.2325L50.8403 50.8464C51.8788 51.2321 54.2294 52.3064 53.6318 53.5331C53.1746 54.4717 52.0497 54.8643 50.9271 54.4442L49.8951 54.0507L48.2534 53.5273C47.3608 53.276 46.4482 53.0871 45.531 52.9094L43.9313 52.6108L38.6042 51.8731C37.7527 51.7258 35.928 51.4316 36.1746 50.3667L36.1803 50.3451C36.4343 49.3142 39.7186 49.1582 40.736 49.1575Z" fill="#F2508D"/>
</g>
<defs>
<clipPath id="clip0_9_4823">
<rect width="60.6061" height="60.6061" fill="white" transform="translate(10.0908 10.3696)"/>
</clipPath>
</defs>
</svg>
