<svg width="82" height="81" viewBox="0 0 82 81" fill="none" xmlns="http://www.w3.org/2000/svg">
<circle cx="41.1517" cy="40.5212" r="40" stroke="#D4D4D4" stroke-width="0.606061"/>
<path d="M31.6006 57.3909L50.6366 57.4142C50.8706 57.427 51.1152 57.4208 51.347 57.4515C51.3955 57.6773 51.428 57.9048 51.4369 58.1296L51.4541 65.7004C51.4537 67.0798 51.4516 68.1863 49.9037 68.8552C49.5599 69.0038 49.1699 69.1215 48.7958 69.1349L35.4466 69.1477C34.1515 69.1456 32.7758 69.2559 31.9182 68.0608L31.8909 68.0217C31.4689 67.425 31.4336 66.8367 31.4341 66.121L31.4354 64.8591C31.4367 63.9424 31.393 63.001 31.4514 62.0874C31.5046 61.2536 31.611 60.7933 31.5895 59.9205L31.5702 58.2545C31.5704 57.9703 31.5522 57.6713 31.6006 57.3909Z" fill="#DEDDDD"/>
<path d="M41.4012 62.4704C41.5267 62.4467 41.6936 62.458 41.822 62.4602C43.8651 62.4956 46.121 64.1691 46.0901 66.3641L41.6149 66.3648L36.916 66.3817C37.176 63.8575 38.9647 62.6446 41.4012 62.4704Z" fill="#9D9D9D"/>
<path d="M31.6024 57.3898C31.6099 56.8417 31.4965 56.2927 31.4122 55.7513L27.2467 28.5891L25.3843 17.4517C25.1691 16.2115 25.0957 15.4565 25.0926 14.2039L25.0908 11.7383L57.766 11.7333L57.7777 14.3598C57.7764 15.4926 57.7586 16.0209 57.5711 17.1283L56.0778 25.9499L52.463 49.333L51.5048 55.8422C51.4157 56.3518 51.2902 56.9393 51.3467 57.4575C51.115 57.4207 50.8704 57.4268 50.6364 57.4141L31.6024 57.3898ZM41.2301 21.0705C35.3434 21.4348 31.0548 26.5819 32.3863 32.4535C33.4004 36.9253 37.0675 39.7521 41.5927 39.7682C47.1589 39.5496 50.8445 35.4863 50.6212 29.9362L50.5741 29.4601C50.4631 28.8513 50.3947 28.2571 50.2286 27.6578C49.1436 23.7437 45.2947 20.9209 41.2301 21.0705Z" fill="#EAECEE"/>
<path d="M40.9717 45.4396L42.9576 45.4397C43.9181 45.44 45.8221 45.3654 45.8581 46.0214C45.8915 46.6282 44.8418 46.6358 43.8783 46.636L42.0514 46.6349L39.5746 46.6354C39.109 46.6353 38.3111 46.6945 37.9053 46.57L37.692 46.4971C37.4039 46.3786 37.187 46.2141 37.1809 46.0368C37.1615 45.4714 38.403 45.4414 39.3896 45.4402L40.9717 45.4396Z" fill="#FF70A6"/>
<path d="M40.9717 47.8639L42.9576 47.864C43.9181 47.8643 45.8221 47.7897 45.8581 48.4457C45.8915 49.0526 44.8418 49.0602 43.8783 49.0603L42.0514 49.0592L39.5746 49.0597C39.109 49.0596 38.3111 49.1188 37.9053 48.9943L37.692 48.9214C37.4039 48.8029 37.187 48.6384 37.1809 48.4611C37.1615 47.8957 38.403 47.8657 39.3896 47.8645L40.9717 47.8639Z" fill="#FF70A6"/>
<path d="M36.845 43.0574L45.5448 43.0648C46.3681 43.0652 47.7032 43.0498 47.7387 43.5767C47.7701 44.0436 47.0543 44.2418 46.1379 44.2542C45.9117 44.2577 45.65 44.2692 45.4195 44.2695L37.2593 44.2677C36.5371 44.2657 35.9217 44.2578 35.4855 43.947C34.7507 43.4234 35.7647 43.0965 36.845 43.0574Z" fill="#FF70A6"/>
<path d="M41.2302 21.0704C45.2947 20.9208 49.1436 23.7436 50.2286 27.6576C50.3947 28.257 50.4631 28.8512 50.5742 29.46L50.6213 29.936C50.8445 35.4861 47.1589 39.5494 41.5927 39.7681C37.0675 39.752 33.4004 36.9252 32.3863 32.4533C31.0549 26.5818 35.3435 21.4346 41.2302 21.0704ZM42.4502 35.6837L42.2662 35.4693C42.3696 35.1505 42.3916 34.5623 42.4913 34.3263L42.5029 34.3004C42.343 34.2744 42.4042 34.2327 42.4986 34.162C41.4392 34.3989 40.4186 34.3241 39.4905 33.729C39.2059 33.5466 38.9564 33.3047 38.6451 33.1679L38.6088 33.1512C38.1979 33.0358 37.2041 33.6636 37.9559 34.4958C39.0178 35.6715 40.9443 35.9377 42.4502 35.6837ZM44.595 26.2985C42.7662 26.751 43.4649 29.0729 45.1137 28.8805C46.7984 28.4002 46.4209 26.1907 44.595 26.2985ZM37.8363 26.3328C36.2196 26.7755 36.4437 29.0261 38.2297 28.8352C39.8455 28.3788 39.5901 26.1776 37.8363 26.3328ZM42.4986 34.162C42.4042 34.2327 42.343 34.2744 42.5029 34.3004L42.4913 34.3263C42.3916 34.5623 42.3696 35.1505 42.2662 35.4693L42.4502 35.6837C43.4493 35.4789 44.768 34.9816 45.185 33.9816C45.0646 33.701 44.6883 33.2289 44.3403 33.2095C44.2615 33.2051 42.9622 33.9987 42.4986 34.162Z" fill="#FF70A6"/>
</svg>
