<svg width="82" height="81" viewBox="0 0 82 81" fill="none" xmlns="http://www.w3.org/2000/svg">
<circle cx="40.8484" cy="40.3697" r="40" stroke="#D4D4D4" stroke-width="0.606061"/>
<g clip-path="url(#clip0_9_4815)">
<path d="M14.1539 54.5242C14.2879 54.6354 14.31 54.9099 14.3474 55.0744C15.6028 60.5963 28.284 62.9134 33.6872 63.4266L37.7365 63.6882L43.4713 63.6919C45.8231 63.5686 48.2045 63.4066 50.5349 63.0555L54.5726 62.2551C57.9803 61.474 65.2822 59.2666 66.6323 55.5577C66.7169 55.3249 66.7658 55.0204 66.9105 54.8203L66.9209 61.6268C66.6428 64.3453 62.2948 66.4517 60.1052 67.328C56.36 68.8268 52.2484 69.6475 48.2455 70.0542L38.7481 70.4025C38.4688 70.396 38.1954 70.349 37.9195 70.3405L36.2011 70.3083C35.9894 70.299 35.7852 70.2628 35.5757 70.2467L33.3853 70.0786C27.9362 69.52 18.5775 67.8976 15.0037 63.4148C14.1161 62.3014 14.1144 61.3038 14.1132 59.9578L14.1127 55.8745C14.1128 55.4249 14.0995 54.9713 14.1539 54.5242Z" fill="#C2C2C2"/>
<path d="M14.1623 54.5241C14.5248 50.229 22.7393 47.9244 26.155 47.141C27.0378 46.9385 27.9666 46.6886 28.8685 46.6001C28.5333 46.4816 28.1875 46.4094 27.8545 46.2815C24.6876 45.0662 20.5994 42.8141 18.1397 40.6373C10.9203 34.2482 10.8715 25.5414 17.7414 19.1814C23.9033 13.4769 33.9377 10.9462 42.2921 11.2737C45.7142 11.4078 50.4856 12.3618 53.644 13.4918C59.1057 15.4457 64.7328 19.0682 67.2667 24.4247C69.7425 29.6587 68.2416 35.1407 64.3437 39.3121C61.7793 42.0563 58.4983 43.8732 55.1357 45.4539L52.3578 46.5344C52.6361 46.6696 53.095 46.6789 53.4055 46.7452L55.4829 47.2337C58.8576 48.0592 66.9905 50.4153 66.9107 54.8203C66.7661 55.0203 66.7172 55.3249 66.6325 55.5576C65.2824 59.2665 57.9805 61.4739 54.5729 62.255L50.5351 63.0555C48.2047 63.4065 45.8234 63.5685 43.4716 63.6918L37.7367 63.6882L33.6875 63.4266C28.2843 62.9133 15.6031 60.5962 14.3476 55.0743C14.3103 54.9099 14.2882 54.6354 14.1623 54.5241ZM39.7195 16.2403C39.5805 16.6706 39.1947 16.9561 38.8804 17.2563L34.8292 21.0241L27.9254 27.8321L20.6884 35.1803C20.5472 35.3337 20.4132 35.5233 20.2276 35.6261L20.1627 35.6549L21.7481 37.3296C22.2819 37.8645 22.9389 38.2818 23.5358 38.7425C25.4949 40.4328 30.8831 42.5121 33.7052 42.4796L37.1739 42.7762C38.306 42.8574 39.4539 42.8276 40.5889 42.8268C41.919 42.8259 43.2139 42.8656 44.5346 42.6916C44.6053 42.5278 44.8078 42.3842 44.9429 42.2707L45.7796 41.5707C46.3393 41.0881 46.8376 40.5369 47.3687 40.0237L51.0854 36.5098L61.9051 25.499C61.7532 25.1653 61.5323 24.879 61.314 24.5867C58.4453 20.7449 54.0647 18.3924 49.4895 17.1949C48.499 16.9356 47.4777 16.6696 46.4531 16.6053C46.0983 16.5322 45.7356 16.4955 45.3765 16.4495L42.7945 16.2562L40.71 16.2194C40.3802 16.2166 40.0479 16.2033 39.7195 16.2403Z" fill="#EAECEE"/>
<path d="M32.1149 45.5693L47.6433 45.5533C48.2184 45.5536 48.8338 45.5112 49.4044 45.5656C50.0912 45.6312 50.7227 46.744 49.0049 46.7344C48.8261 46.7337 48.6298 46.7169 48.4493 46.715L36.0495 46.6676L33.0943 46.7185C32.6707 46.7209 32.207 46.7973 31.7906 46.7511C30.9857 46.6618 30.6813 45.638 32.1149 45.5693Z" fill="#FFA9C3"/>
<path d="M61.9047 25.499C63.628 28.8281 63.6436 31.5584 61.5202 34.8481C59.1849 38.4662 54.6887 40.8172 50.5979 41.9888C48.6379 42.5503 46.5641 42.6935 44.5342 42.6892C44.6048 42.5278 44.8074 42.3842 44.9424 42.2707L45.7791 41.5708C46.3389 41.0882 46.8371 40.5369 47.3682 40.0238L51.085 36.5098L61.9047 25.499Z" fill="#DEDDDD"/>
<path d="M39.0513 48.0188L43.8749 48.0313C44.5205 48.0605 45.1687 48.1642 45.8133 48.2185L49.5029 48.5955C52.9415 49.083 66.3986 52.0006 58.2324 56.6C54.6978 58.5909 49.1321 59.2478 45.1071 59.5476L42.2293 59.7007L38.6074 59.7041C34.3921 59.5206 28.0268 58.8874 24.1217 57.2185C21.3019 56.0134 18.3459 53.7617 22.3684 51.3763C24.3404 50.2068 27.3908 49.3994 29.6714 48.9897L34.0642 48.4079C35.7197 48.2183 37.3842 48.026 39.0513 48.0188Z" fill="#FF70A6"/>
</g>
<defs>
<clipPath id="clip0_9_4815">
<rect width="60.6061" height="60.6061" fill="white" transform="translate(10.2427 10.3696)"/>
</clipPath>
</defs>
</svg>
