<svg width="85" height="85" viewBox="0 0 85 85" fill="none" xmlns="http://www.w3.org/2000/svg">
<path d="M2.68066 41.8007C2.82988 29.9066 8.402 19.1523 17.5501 11.7359L19.4459 10.2456C24.9756 6.24717 31.7216 3.83756 38.4935 3.21216C38.8922 3.17534 39.2724 3.10928 39.6752 3.09881L43.1648 3.08301C59.2759 3.14807 73.8738 13.9447 79.3386 29.0083C80.8077 33.0575 81.6965 37.3396 81.8036 41.65C81.4131 41.6613 80.9697 41.7009 80.5732 41.7024L69.6081 41.7022C69.1192 35.1051 67.2509 30.092 63.0928 25.0317C60.7845 22.2227 58.1672 20.4953 55.0743 18.6829C53.72 17.8647 52.232 17.2678 50.7306 16.7803C41.2533 13.703 31.797 15.8812 24.2475 22.2299C18.5337 27.0351 14.9918 34.2196 14.8967 41.724L2.68066 41.8007Z" fill="#1286D9"/>
<path d="M55.0624 18.6829C58.1672 20.4952 60.7844 22.2226 63.0928 25.0317C67.2509 30.092 69.1191 35.1051 69.608 41.6765C69.64 49.2122 66.9049 56.257 61.5672 61.6496C56.5359 66.7326 41.644 79.7691 34.5387 79.8582L34.5194 74.2734C34.522 73.8264 34.4799 73.3309 34.6585 72.9123C33.3958 73.0219 31.9367 72.3035 31.2379 71.2637L31.1973 71.2011C30.656 70.3807 32.3292 65.3456 34.5195 62.3929C35.9059 60.5238 38.7118 58.387 38.846 58.2951L38.89 58.264C39.3675 57.94 39.7974 57.3801 40.1973 56.9559L41.8753 55.1096C42.6375 54.2811 43.4019 53.463 44.0813 52.5634L45.4308 50.5158C45.5401 50.3358 45.6655 50.0436 45.8718 49.9845L45.9325 50.1278L45.9322 49.6646C46.1738 49.4664 46.3771 49.1992 46.5513 48.9396L49.7619 43.5202C52.7493 37.513 54.453 30.9029 54.974 24.2271C55.0723 22.9684 55.0112 21.6716 55.0085 20.4083L55.0026 19.3818C55.0004 19.1451 54.9774 18.9084 55.0624 18.6829Z" fill="#DEF1FF"/>
<path d="M81.8055 41.7105C81.7986 42.7699 81.8266 43.8993 81.7523 45.0175L81.6204 46.2394C81.009 52.585 78.9989 58.7664 75.4898 64.1141C68.5344 74.7136 56.8838 81.6998 44.1193 82.2826L40.8158 82.3124C19.8327 82.2387 2.48424 63.5053 2.63093 42.8112C2.63323 42.4882 2.61102 42.1246 2.67341 41.8071L14.8927 41.7116C14.8634 42.5775 14.868 43.4611 14.9392 44.3129L15.0648 45.3141C16.3462 57.1693 25.1618 66.9419 36.983 69.1675C38.0635 69.371 39.1822 69.56 40.2823 69.5975L42.4042 69.5832C49.5095 69.4853 56.5366 66.7324 61.5679 61.6494C66.9056 56.2568 69.6407 49.212 69.6064 41.6763L80.5738 41.7021C80.9703 41.7007 81.4137 41.661 81.8055 41.7105Z" fill="#70C3FF"/>
<path d="M41.934 24.5693L45.1339 24.577C51.1143 24.7114 56.2826 29.0011 56.9777 35.0632C57.7211 41.5462 53.3997 47.2679 46.9218 48.271C45.5882 48.4775 44.2592 48.4827 42.9137 48.4868L38.9169 48.4963C38.7551 48.4966 38.1112 48.4486 38.0135 48.5401L38.0009 49.202C38.023 50.3867 38.3954 49.9229 39.8112 49.9244L44.3472 49.9328C45.2452 49.9362 46.3021 49.857 47.1801 50.0409C49.374 50.5005 49.4083 53.4871 47.359 54.1137C46.9255 54.2463 46.3817 54.1971 45.9314 54.1988L43.5674 54.2021L37.9633 54.2058L38.0524 58.4442C38.1819 60.5349 36.1316 62.2348 34.3986 60.43C33.4632 59.4556 33.5624 58.1968 33.5822 56.9495L33.6669 54.219C32.4216 54.1376 30.9781 54.5061 29.9873 53.5468C29.1455 52.7317 29.3928 51.4315 30.171 50.6587C31.1599 49.6773 32.4931 49.869 33.7665 49.8731L33.6169 48.4794C32.8646 48.4809 31.8585 48.5901 31.1485 48.3445L31.0665 48.315C29.4982 47.7653 28.4977 46.1823 29.8894 44.8644C30.9365 43.8731 32.2897 44.1744 33.5983 44.2158L33.5954 28.028C33.6002 24.3149 34.5019 24.5827 37.6015 24.5759L41.934 24.5693Z" fill="#1286D9"/>
<path d="M42.7286 28.9892C44.657 28.9816 46.6077 28.7935 48.4084 29.5929C54.4937 32.2948 53.9556 40.9554 47.4329 43.1871C45.6809 43.6757 43.9054 43.6106 42.1028 43.6112L38.0328 43.5972L38.0166 29.0633C38.3312 28.8991 42.0723 28.9894 42.7286 28.9892Z" fill="#F7F7F7"/>
<path d="M12.326 34.4699C10.6953 35.0782 9.04354 33.6963 9.54217 32.0287C11.8699 24.2441 17.1723 17.7902 24.3201 13.6491L26.031 12.6918C30.9791 10.1779 36.715 9.08283 42.2544 9.41621C42.5805 9.43584 42.8953 9.42983 43.2215 9.47101L43.7201 9.54475C44.8398 9.71033 45.4472 10.9455 44.8949 11.9334C44.6052 12.4515 44.0547 12.7689 43.4611 12.7622C33.798 12.6532 29.8141 13.0563 23.3383 18.1324C18.0199 22.3014 15.0012 27.2528 13.8017 32.7242C13.628 33.5164 13.0858 34.1865 12.326 34.4699Z" fill="#B7E1FF"/>
</svg>
