<svg width="85" height="85" viewBox="0 0 85 85" fill="none" xmlns="http://www.w3.org/2000/svg">
<path d="M41.8134 2.86185L41.821 2.85206C45.0201 2.73062 46.5982 3.95338 49.1123 5.67478C52.4272 7.94458 55.0823 8.66422 58.8897 9.72243C68.3924 12.3635 72.2155 15.4517 75.0136 25.1828C76.0013 28.6181 77.0078 32.0674 78.8857 35.1456C79.4786 36.1176 80.2092 36.9931 80.8178 37.9542C82.2243 40.1758 82.6558 42.9914 81.6959 45.4637C81.1888 46.7703 80.2328 47.7848 79.4741 48.942C76.5896 53.3407 75.7508 58.1737 73.9314 63.0015C70.7631 71.4084 65.9857 72.9057 58.204 75.2776C55.6757 76.0482 52.1682 77.1493 49.9486 78.6529C47.7123 80.1678 46.4274 81.7586 43.3937 82.0406C39.652 82.1853 37.8372 80.5588 34.8781 78.6694C31.6665 76.6189 27.9019 75.7547 24.3014 74.6584C15.2733 71.9095 12.4497 68.1081 9.88539 59.6673L8.24366 54.6535C7.60834 52.9252 6.89473 51.2791 5.91516 49.7124C3.62006 46.0416 1.74105 43.7665 3.41772 39.2595C3.91009 37.936 4.83772 36.9433 5.61558 35.7974C7.78447 32.6024 8.64519 29.8 9.69641 26.1489C12.3535 16.92 15.1908 12.956 24.7125 10.1317L28.0896 9.20209C30.8024 8.39743 33.3843 7.26462 35.7495 5.70415C37.9418 4.25763 39.1269 3.12931 41.8134 2.86185Z" fill="#70C3FF"/>
<path d="M41.3961 14.1559L41.7049 14.1432C48.4706 14.0955 53.843 15.5766 59.4766 19.5948C67.8271 25.551 72.1959 36.4045 70.8572 46.5105C69.0962 59.8052 57.0464 71.003 43.5374 71.0765C42.7276 71.0824 41.9008 71.1067 41.0923 71.0592C32.0613 70.5288 24.9173 66.7471 19.6179 59.5745C18.9352 58.6504 18.2444 57.7214 17.6641 56.7281C14.0683 50.5758 13.0551 43.003 14.6785 36.0954C15.924 30.7959 18.0774 26.9544 21.7441 22.8685C26.7737 17.2638 34.0203 14.5593 41.3961 14.1559Z" fill="#1286D9"/>
<path d="M33.9268 18.6641L33.9872 18.6569C35.7546 18.4621 36.7154 19.7404 36.8903 21.3744C37.1268 23.5836 32.7077 26.7791 31.215 28.2089C29.1074 30.2275 25.0257 34.986 22.2846 35.7906L22.1033 35.8264C21.7523 35.8962 21.3465 35.9362 20.9934 35.868L20.9434 35.8576C16.3378 34.957 22.1825 26.9712 24.0012 24.9133C26.2184 22.4043 30.4781 19.2634 33.9268 18.6641Z" fill="#B7E1FF"/>
<path d="M37.1877 53.2262L34.5069 48.5754C32.0089 43.9683 29.0597 38.7649 30.3905 33.3559C31.5774 28.5315 35.3837 24.5176 40.2171 23.2518C49.9972 20.6904 59.3761 29.2245 57.0004 39.3377C55.9847 43.6613 53.3671 47.9362 51.1254 51.703L47.1621 57.822C46.4503 58.8769 45.728 60.4264 44.3435 60.6978C42.008 61.1555 40.5829 58.4894 39.5541 56.8722L37.5172 53.7012C37.4611 53.6187 37.2615 53.2653 37.1877 53.2262ZM43.0691 30.0906C42.3439 30.1787 41.6809 30.3556 41.0271 30.6876L40.9588 30.7216C35.9628 33.2475 37.442 42.184 44.5955 41.5899C46.2952 41.2805 47.561 40.4699 48.5497 39.0375C51.3455 34.987 48.0295 29.55 43.0691 30.0906Z" fill="white"/>
</svg>
