<svg width="84" height="85" viewBox="0 0 84 85" fill="none" xmlns="http://www.w3.org/2000/svg">
<path d="M2.40527 41.8009C2.55449 29.9068 8.12661 19.1526 17.2747 11.7361L19.1705 10.2459C24.7002 6.24742 31.4462 3.8378 38.2181 3.2124C38.6168 3.17558 38.997 3.10952 39.3998 3.09906L42.8894 3.08325C59.0006 3.14831 73.5984 13.9449 79.0632 29.0086C80.5323 33.0577 81.4211 37.3398 81.5282 41.6502C81.1377 41.6615 80.6943 41.7012 80.2978 41.7026L69.3327 41.7025C68.8438 35.1053 66.9755 30.0922 62.8175 25.032C60.5091 22.2229 57.8918 20.4955 54.7989 18.6831C53.4446 17.865 51.9566 17.268 50.4552 16.7806C40.9779 13.7033 31.5216 15.8814 23.9721 22.2301C18.2583 27.0353 14.7164 34.2199 14.6213 41.7243L2.40527 41.8009Z" fill="#1286D9"/>
<path d="M81.5291 41.711C81.5223 42.7704 81.5503 43.8998 81.4759 45.018L81.344 46.2399C80.7326 52.5855 78.7225 58.7669 75.2134 64.1146C68.258 74.7141 56.6075 81.7003 43.843 82.283L40.5394 82.3129C19.5563 82.2391 2.20787 63.5058 2.35457 42.8117C2.35686 42.4887 2.33465 42.1251 2.39704 41.8076L14.6163 41.7121C14.5871 42.578 14.5916 43.4616 14.6628 44.3134L14.7884 45.3146C16.0699 57.1698 24.8854 66.9424 36.7066 69.168C37.7872 69.3715 38.9059 69.5605 40.0059 69.598L42.1279 69.5837C49.2331 69.4858 56.2602 66.7329 61.2915 61.6499C66.6292 56.2572 69.3643 49.2125 69.3301 41.6768L80.2974 41.7026C80.694 41.7012 81.1373 41.6615 81.5291 41.711Z" fill="#70C3FF"/>
<path d="M41.6196 23.5538C44.3127 23.4013 46.2792 25.702 45.5154 28.3037L45.4951 28.3705C45.0476 29.8804 43.8813 30.8341 42.2933 30.9907C42.0245 30.9929 41.7555 31.0004 41.4887 30.9627L41.4199 30.9524C40.5223 30.8237 39.5068 30.2962 38.9298 29.5875L38.8859 29.5326C36.9626 27.1661 38.5131 23.8902 41.6196 23.5538Z" fill="#1286D9"/>
<path d="M38.1481 58.4539L38.1491 40.9644C38.1498 40.2077 38.1032 39.4113 38.2015 38.6613C38.4223 36.9786 39.9368 35.8791 41.5233 35.6162C43.27 35.3266 45.387 36.8214 45.661 38.582L45.6715 49.665L45.6571 50.1282L45.5964 49.9849C45.3901 50.044 45.2647 50.3362 45.1554 50.5162L43.8059 52.5638C43.1265 53.4634 42.3621 54.2815 41.5999 55.11L39.9219 56.9563C39.522 57.3805 39.0921 57.9404 38.6146 58.2644L38.5706 58.2955C38.4364 58.3874 38.305 58.4205 38.1481 58.4539Z" fill="#1286D9"/>
<path d="M54.7865 18.6831C57.8913 20.4955 60.5085 22.2229 62.8169 25.0319C66.975 30.0922 68.8432 35.1053 69.3321 41.6767C69.3641 49.2124 66.629 56.2572 61.2913 61.6498C56.26 66.7329 49.2329 69.4858 42.1277 69.5749L42.1084 63.9901C42.111 63.5431 42.0689 63.0477 42.2474 62.629C40.9847 62.7386 39.5256 62.0202 38.8269 60.9804L38.7863 60.9178C38.2449 60.0974 38.1635 59.3982 38.1455 58.4537C38.3046 58.4203 38.4359 58.3872 38.5701 58.2953L38.6141 58.2642C39.0916 57.9402 39.5215 57.3804 39.9214 56.9561L41.5994 55.1099C42.3616 54.2814 43.126 53.4632 43.8054 52.5637L45.1549 50.5161C45.2642 50.3361 45.3896 50.0438 45.5959 49.9847L45.6566 50.128L45.6563 49.6648C45.8979 49.4666 46.1012 49.1995 46.2754 48.9399L49.486 43.5204C52.4734 37.5132 54.1771 30.9032 54.6981 24.2274C54.7964 22.9686 54.7353 21.6719 54.7326 20.4085L54.7267 19.382C54.7245 19.1453 54.7015 18.9087 54.7865 18.6831Z" fill="#DEF1FF"/>
<path d="M38.1455 58.4536C38.3046 58.4202 38.4359 58.3871 38.5701 58.2952L38.6141 58.2641C39.0916 57.9401 39.5215 57.3803 39.9214 56.956L41.5994 55.1097C42.3616 54.2813 43.126 53.4631 43.8054 52.5636L45.1549 50.516C45.2642 50.336 45.3896 50.0437 45.5959 49.9846L45.6566 50.1279L45.6904 58.2623C45.6991 58.6986 45.7429 59.1696 45.6419 59.5974C45.2609 61.2088 43.8546 62.3814 42.2474 62.6289C40.9847 62.7385 39.5256 62.0201 38.8269 60.9803L38.7863 60.9177C38.2449 60.0973 38.1635 59.398 38.1455 58.4536Z" fill="#1286D9"/>
<path d="M12.0506 34.4701C10.4199 35.0785 8.76815 33.6965 9.26677 32.029C11.5945 24.2444 16.8969 17.7905 24.0447 13.6493L25.7556 12.6921C30.7037 10.1782 36.4396 9.08308 41.979 9.41646C42.3051 9.43608 42.6199 9.43008 42.9461 9.47126L43.4447 9.54499C44.5644 9.71057 45.1718 10.9457 44.6195 11.9336C44.3298 12.4518 43.7793 12.7691 43.1857 12.7625C33.5226 12.6534 29.5387 13.0565 23.0629 18.1327C17.7445 22.3016 14.7258 27.2531 13.5263 32.7245C13.3526 33.5166 12.8104 34.1867 12.0506 34.4701Z" fill="#B7E1FF"/>
</svg>
