<svg width="85" height="85" viewBox="0 0 85 85" fill="none" xmlns="http://www.w3.org/2000/svg">
<path d="M18.2939 63.5239L18.295 58.5295C18.2936 57.2037 19.3024 56.7429 19.3956 57.8201C19.4455 58.398 19.4005 59.0116 19.4001 59.5931L19.3951 62.7556C19.3889 63.0451 19.3377 63.334 19.3357 63.6232C18.9928 63.624 18.6339 63.5681 18.2939 63.5239Z" fill="#419BDD"/>
<path d="M55.6142 18.6833C58.7189 20.4957 61.3362 22.2231 63.6445 25.0322C67.8026 30.0925 69.6709 35.1055 70.1598 41.677C70.1917 49.2127 67.4567 56.2575 62.119 61.6501C57.0877 66.7331 42.1957 79.7695 35.0905 79.8586L35.0712 74.2739C35.0738 73.8269 35.0317 73.3314 35.2102 72.9128C33.9475 73.0224 32.4884 72.304 31.7897 71.2642L31.7491 71.2016C31.2077 70.3812 32.881 65.3461 35.0712 62.3934C36.4577 60.5243 39.2636 58.3875 39.3977 58.2956L39.4418 58.2645C39.9192 57.9405 40.3492 57.3806 40.749 56.9564L42.4271 55.1101C43.1892 54.2816 43.9537 53.4635 44.6331 52.5639L45.9826 50.5163C46.0918 50.3363 46.2173 50.0441 46.4235 49.985L46.4843 50.1283L46.484 49.6651C46.7256 49.4669 46.9288 49.1997 47.1031 48.9401L50.3136 43.5207C53.3011 37.5135 55.0047 30.9034 55.5257 24.2276C55.624 22.9689 55.5629 21.6721 55.5603 20.4088L55.5544 19.3823C55.5521 19.1456 55.5292 18.9089 55.6142 18.6833Z" fill="#DEF1FF"/>
<path d="M3.23242 41.8009C3.38164 29.9068 8.95376 19.1526 18.1019 11.7361L19.9976 10.2459C25.5273 6.24742 32.2734 3.8378 39.0453 3.2124C39.444 3.17558 39.8241 3.10952 40.2269 3.09906L43.7165 3.08325C59.8277 3.14831 74.4256 13.9449 79.8904 29.0086C81.3595 33.0577 82.2482 37.3398 82.3553 41.6502C81.9649 41.6615 81.5215 41.7012 81.1249 41.7026L70.1599 41.7025C69.6709 35.1053 67.8027 30.0922 63.6446 25.032C61.3363 22.2229 58.719 20.4955 55.626 18.6831C54.2718 17.865 52.7837 17.268 51.2824 16.7806C41.8051 13.7033 32.3487 15.8814 24.7993 22.2301C19.0855 27.0353 15.5435 34.2199 15.4485 41.7243L3.23242 41.8009Z" fill="#1286D9"/>
<path d="M42.2277 6.51099L42.4922 6.52976C42.5599 6.54427 42.516 6.54535 42.5741 6.56553L42.6179 6.57454C43.1273 6.70548 43.6282 7.31858 43.8725 7.76506C44.6606 9.2045 43.5941 11.3605 42.2382 12.0638C41.7989 12.2917 41.2838 12.3696 40.8006 12.4425L36.2476 13.069L24.1274 15.6217C23.5527 15.7989 23.0141 16.0441 22.3989 15.9708L23.7856 14.6635L23.8841 14.5554C27.2482 11.832 31.5544 9.78938 35.9048 9.35749C37.2837 9.22059 38.7232 9.28765 40.1066 9.30306C41.2305 9.31559 42.3178 9.58087 42.6254 8.11026C42.7289 7.61501 42.5122 6.9246 42.2277 6.51099Z" fill="#1286D9"/>
<path d="M12.8768 34.4699C11.2461 35.0782 9.59432 33.6963 10.0929 32.0287C12.4207 24.2441 17.7231 17.7902 24.8708 13.6491L26.5818 12.6918C31.5299 10.1779 37.2657 9.08283 42.8052 9.41621C43.1313 9.43584 43.446 9.42983 43.7723 9.47101L44.2709 9.54475C45.3905 9.71033 45.998 10.9455 45.4457 11.9334C45.156 12.4515 44.6055 12.7689 44.0119 12.7622C34.3488 12.6532 30.3649 13.0563 23.8891 18.1324C18.5707 22.3014 15.552 27.2528 14.3525 32.7242C14.1788 33.5164 13.6366 34.1865 12.8768 34.4699Z" fill="#B7E1FF"/>
<path d="M36.2827 50.7518C36.0661 50.6836 35.7759 50.7176 35.5515 50.7181L34.0641 50.7214C33.7263 50.7221 33.3695 50.7406 33.0361 50.6836C31.9657 50.5007 31.1095 49.5341 30.78 48.5473C30.5807 47.9503 30.6374 47.2981 30.6372 46.6766L30.6461 34.2506C30.9086 27.4636 36.5725 21.357 43.5934 21.7118C50.0375 22.0374 55.0037 27.502 55.4714 33.8509C55.531 34.6602 55.4852 35.5016 55.485 36.3139L55.4901 47.1352C55.4911 47.409 55.5036 47.6895 55.4831 47.9623C55.394 49.1488 54.2935 50.2925 53.1766 50.5691C52.7996 50.6624 52.4283 50.6572 52.0432 50.6554L50.2623 50.6419C50.1187 50.6483 49.9685 50.6443 49.8309 50.6909L49.8103 50.6985C49.4319 50.7306 49.0197 50.5917 48.6349 50.5814L48.5198 49.3714L48.6242 47.6172C48.1262 47.98 47.6761 48.3807 47.1449 48.6974C44.5838 50.2241 40.0022 50.3287 37.9461 47.8327L37.6314 47.5274L37.636 48.8683C37.6364 49.0381 37.6634 49.2613 37.6337 49.4251L37.6293 50.1846C37.6271 50.3448 37.64 50.534 37.5904 50.6867L36.2827 50.7518Z" fill="#70C3FF"/>
<path d="M37.631 47.5275C37.3563 47.0035 36.9028 46.5416 36.5626 46.0537C35.5801 44.6446 34.985 42.8884 34.8859 41.1779L34.7436 41.2099C33.4547 41.4725 32.7563 39.4518 32.5745 38.512C32.4375 37.804 32.5195 36.9921 32.6645 36.295C32.9758 34.7981 33.5127 34.6118 34.6711 35.4286C35.3287 35.2265 36.0193 35.2155 36.6984 35.1396C39.1462 34.8657 41.1841 34.1731 43.2215 32.7213C43.5406 32.4939 45.6032 30.9349 45.8737 31.0341C45.9672 31.0684 46.1895 31.5345 46.2541 31.6359C47.0522 32.8883 47.7103 33.0192 49.0031 33.0556C50.3948 33.0948 51.0982 34.3416 51.3978 35.5754C51.9743 35.001 52.3776 34.5716 53.0704 35.3044C54.3 36.6055 53.9209 39.6095 52.6799 40.769C52.2319 41.1875 51.8262 41.1333 51.2608 41.1147C51.2487 42.8869 50.5942 44.6082 49.6498 46.0901C49.3204 46.6069 48.9298 47.0867 48.6228 47.6173C48.1258 47.9801 47.6756 48.3808 47.1444 48.6974C44.5834 50.2241 40.0018 50.3287 37.9456 47.8327L37.631 47.5275Z" fill="#F8F8F8"/>
<path d="M37.9458 47.8324C38.1162 47.8255 38.2632 47.9186 38.4076 47.998L38.9875 48.319C40.2319 48.9583 42.1221 49.1077 43.4895 48.7953C45.9806 48.226 48.095 45.9372 49.3295 43.7749C49.6787 43.1632 50.4185 41.0847 51.261 41.1086C51.2489 42.8866 50.5944 44.6078 49.65 46.0897C49.3206 46.6066 48.93 47.0864 48.623 47.6169C48.126 47.9797 47.6758 48.3804 47.1447 48.6971C44.5836 50.2238 40.002 50.3284 37.9458 47.8324Z" fill="#D3D2D2"/>
<path d="M37.633 47.5276L37.9461 47.8329C40.0022 50.3289 44.5839 50.2243 47.1449 48.6976C47.6761 48.3809 48.1262 47.9802 48.6233 47.6174L48.5243 49.3716L48.6349 50.5816C49.0197 50.5919 49.4319 50.7308 49.8104 50.7088C51.5968 51.0785 53.2769 51.8256 54.8884 52.6646L56.5805 53.5795C60.7328 55.6988 64.3949 57.2574 65.8082 62.1325C66.3962 64.1606 66.0688 64.7781 64.0922 65.7638C63.2238 66.1969 62.3223 66.5605 61.4069 66.8816L57.2515 68.1916C54.8316 68.837 52.3518 69.2511 49.8625 69.5086L45.598 69.8217L41.0328 69.8285C39.971 69.8198 38.6428 69.7197 37.5923 69.6267L33.6762 69.1884L28.7955 68.1848L25.6675 67.2015C24.5553 66.813 23.4712 66.4089 22.4011 65.9137C21.4587 65.4777 20.241 65.0373 20.0839 63.8709L20.0774 63.8267C19.9492 62.9203 20.6043 61.189 21.014 60.3805C22.8056 56.8448 25.8813 55.4674 29.1975 53.779C31.203 52.758 34.0298 51.0512 36.2827 50.752L37.5876 50.6869C37.64 50.5342 37.6272 50.345 37.6293 50.1848L37.6439 49.4253C37.6634 49.2615 37.6364 49.0383 37.636 48.8685L37.633 47.5276Z" fill="#1286D9"/>
<path d="M37.6329 47.5276L37.9459 47.8329C40.0021 50.3289 44.5837 50.2243 47.1448 48.6976C47.676 48.3809 48.1261 47.9802 48.6232 47.6174L48.5241 49.3716L48.6348 50.5816C48.6483 50.9258 48.6368 51.331 48.77 51.6524C49.4168 52.1585 50.0275 52.3983 49.7347 53.312C48.9864 55.6479 46.3118 57.1027 44.0139 57.354C41.1117 57.6714 38.0551 56.2855 36.631 53.6965C36.2832 53.0644 36.1653 52.2864 36.9646 51.9043L37.4152 51.9654C37.5156 51.5481 37.5517 51.1142 37.5874 50.6869C37.6399 50.5342 37.627 50.345 37.6292 50.1848L37.6438 49.4253C37.6633 49.2615 37.6363 49.0383 37.6359 48.8685L37.6329 47.5276Z" fill="#F8F8F8"/>
<path d="M37.6333 47.5276L37.9463 47.8329C40.0025 50.3289 44.5841 50.2243 47.1452 48.6976C47.6764 48.3809 48.1265 47.9802 48.6235 47.6174L48.5245 49.3716C47.7007 50.4278 44.9768 51.2075 43.7574 51.3593C41.4674 51.6445 39.5468 50.5339 37.65 49.4253C37.6636 49.2615 37.6367 49.0383 37.6363 48.8685L37.6333 47.5276Z" fill="#F5F5F5"/>
<path d="M82.3563 41.711C82.3494 42.7704 82.3774 43.8998 82.3031 45.018L82.1712 46.2399C81.5598 52.5855 79.5497 58.7669 76.0405 64.1146C69.0852 74.7141 57.4346 81.7003 44.6701 82.283L41.3666 82.3129C20.3835 82.2391 3.03502 63.5058 3.18172 42.8117C3.18401 42.4887 3.1618 42.1251 3.22419 41.8076L15.4435 41.7121C15.4142 42.578 15.4188 43.4616 15.49 44.3134L15.6156 45.3146C16.897 57.1698 25.7125 66.9424 37.5338 69.168C38.6143 69.3715 39.733 69.5605 40.8331 69.598L42.955 69.5837C50.0603 69.4858 57.0874 66.7329 62.1187 61.6499C67.4564 56.2572 70.1914 49.2125 70.1572 41.6768L81.1246 41.7026C81.5211 41.7012 81.9645 41.6615 82.3563 41.711Z" fill="#70C3FF"/>
</svg>
