<svg width="85" height="85" viewBox="0 0 85 85" fill="none" xmlns="http://www.w3.org/2000/svg">
<path d="M41.5381 2.86112L41.5456 2.85133C44.7447 2.72989 46.3228 3.95265 48.8369 5.67404C52.1518 7.94384 54.8069 8.66349 58.6143 9.7217C68.117 12.3628 71.9401 15.451 74.7382 25.1821C75.7259 28.6174 76.7324 32.0667 78.6103 35.1449C79.2033 36.1169 79.9338 36.9923 80.5424 37.9535C81.9489 40.175 82.3804 42.9907 81.4205 45.463C80.9134 46.7696 79.9574 47.7841 79.1987 48.9413C76.3142 53.34 75.4755 58.1729 73.656 63.0008C70.4878 71.4077 65.7104 72.9049 57.9286 75.2768C55.4003 76.0475 51.8928 77.1485 49.6732 78.6522C47.437 80.1671 46.152 81.7579 43.1183 82.0399C39.3766 82.1845 37.5618 80.5581 34.6027 78.6687C31.3912 76.6181 27.6265 75.754 24.026 74.6577C14.9979 71.9087 12.1743 68.1074 9.61 59.6666L7.96827 54.6528C7.33295 52.9245 6.61934 51.2783 5.63977 49.7116C3.34467 46.0408 1.46566 43.7657 3.14233 39.2588C3.6347 37.9353 4.56233 36.9425 5.34019 35.7966C7.50908 32.6017 8.3698 29.7993 9.42102 26.1482C12.0782 16.9193 14.9154 12.9553 24.4371 10.131L27.8142 9.20136C30.527 8.3967 33.1089 7.26388 35.4741 5.70341C37.6665 4.2569 38.8515 3.12858 41.5381 2.86112Z" fill="#70C3FF"/>
<path d="M41.1202 14.1557L41.429 14.143C48.1947 14.0953 53.5672 15.5764 59.2007 19.5945C67.5513 25.5508 71.92 36.4043 70.5813 46.5102C68.8204 59.8049 56.7705 71.0027 43.2615 71.0763C42.4517 71.0822 41.6249 71.1064 40.8164 71.0589C31.7854 70.5285 24.6414 66.7469 19.342 59.5743C18.6593 58.6502 17.9686 57.7211 17.3882 56.7279C13.7924 50.5756 12.7792 43.0027 14.4026 36.0952C15.6481 30.7956 17.8015 26.9541 21.4682 22.8683C26.4978 17.2636 33.7444 14.5591 41.1202 14.1557Z" fill="#1286D9"/>
<path d="M33.6519 18.6638L33.7123 18.6566C35.4797 18.4619 36.4405 19.7401 36.6154 21.3741C36.8519 23.5834 32.4327 26.7788 30.9401 28.2086C28.8325 30.2272 24.7508 34.9858 22.0097 35.7903L21.8284 35.8262C21.4774 35.896 21.0716 35.9359 20.7185 35.8678L20.6685 35.8573C16.0629 34.9568 21.9076 26.971 23.7263 24.9131C25.9435 22.4041 30.2032 19.2631 33.6519 18.6638Z" fill="#B7E1FF"/>
<path d="M41.6359 24.168L44.9942 24.176C51.2709 24.317 56.6953 28.8193 57.4249 35.1816C58.2051 41.9858 53.6696 47.9909 46.8707 49.0437C45.4711 49.2605 44.0762 49.2659 42.664 49.2703L38.4692 49.2803C38.2994 49.2805 37.6237 49.2302 37.5211 49.3262L37.5079 50.0209C37.5311 51.2642 37.9218 50.7775 39.4078 50.779L44.1686 50.7879C45.1111 50.7914 46.2204 50.7083 47.1418 50.9013C49.4445 51.3837 49.4805 54.5183 47.3296 55.1758C46.8746 55.315 46.3039 55.2634 45.8313 55.2652L43.3502 55.2686L37.4684 55.2725L37.5619 59.7209C37.6978 61.9152 35.5459 63.6993 33.727 61.8051C32.7453 60.7824 32.8494 59.4612 32.8702 58.1521L32.9591 55.2864C31.6521 55.201 30.1371 55.5878 29.0972 54.5809C28.2137 53.7254 28.4733 52.3608 29.29 51.5498C30.3279 50.5197 31.7271 50.7209 33.0637 50.7253L32.9066 49.2625C32.117 49.264 31.0611 49.3787 30.316 49.1209L30.2299 49.0899C28.5839 48.513 27.5338 46.8516 28.9944 45.4684C30.0935 44.4279 31.5137 44.7443 32.8871 44.7876L32.8841 27.7979C32.8891 23.901 33.8355 24.182 37.0887 24.1748L41.6359 24.168Z" fill="white"/>
<path d="M42.4699 28.8063C44.4939 28.7984 46.5412 28.6009 48.431 29.44C54.8179 32.2756 54.2531 41.3654 47.4073 43.7076C45.5684 44.2203 43.7049 44.152 41.8131 44.1527L37.5414 44.1379L37.5244 28.8841C37.8545 28.7117 41.7811 28.8066 42.4699 28.8063Z" fill="#1286D9"/>
</svg>
