<svg width="85" height="85" viewBox="0 0 85 85" fill="none" xmlns="http://www.w3.org/2000/svg">
<path d="M55.3383 18.6833C58.443 20.4957 61.0603 22.2231 63.3687 25.0322C67.5267 30.0925 69.395 35.1055 69.8839 41.677C69.9159 49.2127 67.1808 56.2575 61.8431 61.6501C56.8118 66.7331 41.9198 79.7695 34.8146 79.8586L34.7953 74.2739C34.7979 73.8269 34.7558 73.3314 34.9343 72.9128C33.6716 73.0224 32.2126 72.304 31.5138 71.2642L31.4732 71.2016C30.9318 70.3812 32.6051 65.3461 34.7954 62.3934C36.1818 60.5243 38.9877 58.3875 39.1218 58.2956L39.1659 58.2645C39.6434 57.9405 40.0733 57.3806 40.4731 56.9564L42.1512 55.1101C42.9134 54.2816 43.6778 53.4635 44.3572 52.5639L45.7067 50.5163C45.816 50.3363 45.9414 50.0441 46.1476 49.985L46.2084 50.1283L46.2081 49.6651C46.4497 49.4669 46.6529 49.1997 46.8272 48.9401L50.0378 43.5207C53.0252 37.5135 54.7288 30.9034 55.2499 24.2276C55.3481 22.9689 55.287 21.6721 55.2844 20.4088L55.2785 19.3823C55.2762 19.1456 55.2533 18.9089 55.3383 18.6833Z" fill="#DEF1FF"/>
<path d="M2.95654 41.8009C3.10576 29.9068 8.67788 19.1526 17.826 11.7361L19.7218 10.2459C25.2515 6.24742 31.9975 3.8378 38.7694 3.2124C39.1681 3.17558 39.5483 3.10952 39.951 3.09906L43.4407 3.08325C59.5518 3.14831 74.1497 13.9449 79.6145 29.0086C81.0836 33.0577 81.9723 37.3398 82.0795 41.6502C81.689 41.6615 81.2456 41.7012 80.849 41.7026L69.884 41.7025C69.3951 35.1053 67.5268 30.0922 63.3687 25.032C61.0604 22.2229 58.4431 20.4955 55.3502 18.6831C53.9959 17.865 52.5078 17.268 51.0065 16.7806C41.5292 13.7033 32.0728 15.8814 24.5234 22.2301C18.8096 27.0353 15.2676 34.2199 15.1726 41.7243L2.95654 41.8009Z" fill="#1286D9"/>
<path d="M82.0804 41.711C82.0735 42.7704 82.1015 43.8998 82.0272 45.018L81.8953 46.2399C81.2839 52.5855 79.2738 58.7669 75.7647 64.1146C68.8093 74.7141 57.1587 81.7003 44.3942 82.283L41.0907 82.3129C20.1076 82.2391 2.75914 63.5058 2.90584 42.8117C2.90813 42.4887 2.88592 42.1251 2.94831 41.8076L15.1676 41.7121C15.1383 42.578 15.1429 43.4616 15.2141 44.3134L15.3397 45.3146C16.6211 57.1698 25.4367 66.9424 37.2579 69.168C38.3384 69.3715 39.4571 69.5605 40.5572 69.598L42.6791 69.5837C49.7844 69.4858 56.8115 66.7329 61.8428 61.6499C67.1805 56.2572 69.9156 49.2125 69.8813 41.6768L80.8487 41.7026C81.2452 41.7012 81.6886 41.6615 82.0804 41.711Z" fill="#70C3FF"/>
<path d="M37.7809 52.3221L35.3438 48.0941C33.0729 43.9059 30.3918 39.1754 31.6016 34.2582C32.6806 29.8724 36.1409 26.2233 40.5349 25.0726C49.426 22.7441 57.9523 30.5023 55.7925 39.6962C54.8691 43.6267 52.4895 47.513 50.4516 50.9374L46.8485 56.5001C46.2015 57.4591 45.5448 58.8677 44.2862 59.1145C42.1631 59.5305 40.8675 57.1069 39.9322 55.6367L38.0804 52.7539C38.0295 52.6789 37.848 52.3577 37.7809 52.3221ZM43.1277 31.2897C42.4684 31.3698 41.8657 31.5306 41.2713 31.8324L41.2092 31.8633C36.6674 34.1597 38.0121 42.2837 44.5153 41.7436C46.0605 41.4624 47.2112 40.7254 48.11 39.4233C50.6517 35.7409 47.6372 30.7982 43.1277 31.2897Z" fill="#1286D9"/>
<path d="M12.6014 34.4701C10.9707 35.0785 9.31893 33.6965 9.81756 32.029C12.1453 24.2444 17.4477 17.7905 24.5955 13.6493L26.3064 12.6921C31.2545 10.1782 36.9903 9.08308 42.5298 9.41646C42.8559 9.43608 43.1706 9.43008 43.4969 9.47126L43.9955 9.54499C45.1152 9.71057 45.7226 10.9457 45.1703 11.9336C44.8806 12.4518 44.3301 12.7691 43.7365 12.7625C34.0734 12.6534 30.0895 13.0565 23.6137 18.1327C18.2953 22.3016 15.2766 27.2531 14.0771 32.7245C13.9034 33.5166 13.3612 34.1867 12.6014 34.4701Z" fill="#B7E1FF"/>
</svg>
