<svg width="84" height="85" viewBox="0 0 84 85" fill="none" xmlns="http://www.w3.org/2000/svg">
<path d="M41.2627 2.86112L41.2702 2.85133C44.4693 2.72989 46.0474 3.95265 48.5615 5.67404C51.8764 7.94384 54.5315 8.66349 58.3389 9.7217C67.8416 12.3628 71.6647 15.451 74.4628 25.1821C75.4505 28.6174 76.457 32.0667 78.3349 35.1449C78.9279 36.1169 79.6584 36.9923 80.2671 37.9535C81.6736 40.175 82.105 42.9907 81.1451 45.463C80.638 46.7696 79.682 47.7841 78.9233 48.9413C76.0389 53.34 75.2001 58.1729 73.3806 63.0008C70.2124 71.4077 65.435 72.9049 57.6533 75.2768C55.1249 76.0475 51.6174 77.1485 49.3979 78.6522C47.1616 80.1671 45.8766 81.7579 42.843 82.0399C39.1012 82.1845 37.2864 80.5581 34.3273 78.6687C31.1158 76.6181 27.3511 75.754 23.7506 74.6577C14.7225 71.9087 11.8989 68.1074 9.33461 59.6666L7.69288 54.6528C7.05756 52.9245 6.34395 51.2783 5.36438 49.7116C3.06928 46.0408 1.19027 43.7657 2.86694 39.2588C3.35931 37.9353 4.28694 36.9425 5.0648 35.7966C7.23369 32.6017 8.09441 29.7993 9.14563 26.1482C11.8028 16.9193 14.64 12.9553 24.1617 10.131L27.5388 9.20136C30.2516 8.3967 32.8335 7.26388 35.1987 5.70341C37.3911 4.2569 38.5761 3.12858 41.2627 2.86112Z" fill="#70C3FF"/>
<path d="M40.8449 14.1559L41.1536 14.1432C47.9193 14.0955 53.2918 15.5766 58.9253 19.5948C67.2759 25.551 71.6446 36.4045 70.3059 46.5105C68.545 59.8052 56.4951 71.003 42.9861 71.0765C42.1763 71.0824 41.3495 71.1067 40.541 71.0592C31.51 70.5288 24.366 66.7471 19.0666 59.5745C18.3839 58.6504 17.6932 57.7214 17.1128 56.7281C13.517 50.5758 12.5038 43.003 14.1272 36.0954C15.3727 30.7959 17.5261 26.9544 21.1928 22.8685C26.2224 17.2638 33.469 14.5593 40.8449 14.1559Z" fill="#1286D9"/>
<path d="M41.2315 19.6913L41.2507 19.6895L41.2697 19.6867L41.2826 19.6848C42.9538 19.5622 44.2046 20.0972 45.0685 20.9398C45.9495 21.7991 46.4676 23.0184 46.5693 24.2989C46.6709 25.5794 46.3523 26.8734 45.6221 27.8736C44.9023 28.8597 43.7561 29.5989 42.1065 29.7537L42.096 29.7547L42.0856 29.756L42.0211 29.764C38.6757 30.1528 35.9949 26.8498 36.6759 23.4583L36.6759 23.4582C37.0894 21.3983 39.1016 19.891 41.2315 19.6913Z" fill="#FAFAFA" stroke="#1286D9" stroke-width="1.39771"/>
<path d="M33.3765 18.6641L33.4369 18.6569C35.2043 18.4621 36.1651 19.7404 36.34 21.3744C36.5765 23.5836 32.1574 26.7791 30.6647 28.2089C28.5572 30.2275 24.4754 34.986 21.7343 35.7906L21.553 35.8264C21.202 35.8962 20.7962 35.9362 20.4431 35.868L20.3931 35.8576C15.7875 34.957 21.6323 26.9712 23.4509 24.9133C25.6681 22.4043 29.9278 19.2634 33.3765 18.6641Z" fill="#B7E1FF"/>
<path d="M41.148 35.5699L41.1078 35.5752C39.0947 35.8396 37.429 37.3886 37.1958 39.3825L37.1958 39.3825C37.1623 39.6681 37.1653 39.9565 37.1687 40.2871C37.1698 40.3983 37.171 40.5143 37.1708 40.6365M41.148 35.5699L36.472 40.6362M41.148 35.5699L41.1688 35.5647C43.6086 35.293 45.9978 36.7849 46.4523 39.1689L47.1388 39.0381M41.148 35.5699L46.6486 61.4938M37.1708 40.6365C37.1708 40.6367 37.1708 40.6368 37.1708 40.637L36.472 40.6362M37.1708 40.6365L37.1708 40.636L36.472 40.6362M37.1708 40.6365L37.1764 60.7447L36.4776 60.7453M36.472 40.6362L36.4776 60.7453M36.4776 60.7453L37.1764 60.7451M36.4776 60.7453L37.1764 60.7451M37.1764 60.7451C37.1772 61.8074 37.2134 62.6836 37.4481 63.4551C37.6734 64.1958 38.0898 64.8616 38.91 65.4728C39.3389 65.7925 39.9918 66.0784 40.7054 66.2461C41.3717 66.4028 42.0216 66.4401 42.5228 66.3495M37.1764 60.7451L42.7887 67.0083M42.5228 66.3495L42.4279 66.4095L42.415 66.4177L42.7887 67.0083M42.5228 66.3495C42.5602 66.3428 42.5968 66.3353 42.6325 66.3271L42.7784 66.9633L42.7887 67.0083M42.5228 66.3495L42.5422 66.3372L42.6752 66.3128C44.6806 65.9438 46.3975 64.5587 46.6233 62.6265L46.6234 62.6265C46.6538 62.366 46.6519 62.0986 46.6498 61.7909C46.6491 61.6967 46.6484 61.5988 46.6486 61.4962L46.6486 61.4984L47.3474 61.4953M42.7887 67.0083L42.8017 67.0001C44.9998 66.5957 47.0446 65.0421 47.3175 62.7077C47.3535 62.4001 47.351 62.0749 47.3486 61.7581C47.3479 61.6697 47.3473 61.5819 47.3474 61.4953M47.3474 61.4953L46.6486 61.4938M47.3474 61.4953L47.2579 41.7295M47.2579 41.7295C47.2579 41.5658 47.2596 41.4015 47.2613 41.237C47.2689 40.5015 47.2765 39.7604 47.1388 39.0381M47.2579 41.7295L41.0428 34.8757C43.7951 34.546 46.6009 36.2167 47.1388 39.0381M47.2579 41.7295L46.6486 61.4938M47.1388 39.0381L46.4523 39.169C46.5757 39.8165 46.5694 40.4726 46.5624 41.2029C46.5608 41.374 46.5591 41.5492 46.559 41.7293L46.559 41.7327L46.6486 61.4938" fill="#FAFAFA" stroke="#1286D9" stroke-width="1.39771"/>
</svg>
