<svg width="85" height="85" viewBox="0 0 85 85" fill="none" xmlns="http://www.w3.org/2000/svg">
<path d="M42.0893 2.86112L42.0969 2.85133C45.2959 2.72989 46.8741 3.95265 49.3882 5.67404C52.7031 7.94384 55.3582 8.66349 59.1656 9.7217C68.6683 12.3628 72.4914 15.451 75.2895 25.1821C76.2772 28.6174 77.2837 32.0667 79.1616 35.1449C79.7545 36.1169 80.485 36.9923 81.0937 37.9535C82.5002 40.175 82.9316 42.9907 81.9718 45.463C81.4647 46.7696 80.5086 47.7841 79.7499 48.9413C76.8655 53.34 76.0267 58.1729 74.2073 63.0008C71.039 71.4077 66.2616 72.9049 58.4799 75.2768C55.9516 76.0475 52.4441 77.1485 50.2245 78.6522C47.9882 80.1671 46.7033 81.7579 43.6696 82.0399C39.9279 82.1845 38.1131 80.5581 35.1539 78.6687C31.9424 76.6181 28.1778 75.754 24.5772 74.6577C15.5492 71.9087 12.7256 68.1074 10.1613 59.6666L8.51954 54.6528C7.88422 52.9245 7.17061 51.2783 6.19104 49.7116C3.89594 46.0408 2.01693 43.7657 3.6936 39.2588C4.18597 37.9353 5.1136 36.9425 5.89146 35.7966C8.06035 32.6017 8.92107 29.7993 9.97229 26.1482C12.6294 16.9193 15.4666 12.9553 24.9884 10.131L28.3655 9.20136C31.0782 8.3967 33.6601 7.26388 36.0253 5.70341C38.2177 4.2569 39.4028 3.12858 42.0893 2.86112Z" fill="#70C3FF"/>
<path d="M41.672 14.1559L41.9808 14.1432C48.7465 14.0955 54.1189 15.5766 59.7525 19.5948C68.103 25.551 72.4718 36.4045 71.1331 46.5105C69.3721 59.8052 57.3222 71.003 43.8133 71.0765C43.0035 71.0824 42.1767 71.1067 41.3682 71.0592C32.3372 70.5288 25.1931 66.7471 19.8937 59.5745C19.211 58.6504 18.5203 57.7214 17.94 56.7281C14.3442 50.5758 13.331 43.003 14.9544 36.0954C16.1999 30.7959 18.3532 26.9544 22.0199 22.8685C27.0496 17.2638 34.2962 14.5593 41.672 14.1559Z" fill="#1286D9"/>
<path d="M34.2027 18.6641L34.2631 18.6569C36.0304 18.4621 36.9913 19.7404 37.1662 21.3744C37.4027 23.5836 32.9835 26.7791 31.4909 28.2089C29.3833 30.2275 25.3016 34.986 22.5605 35.7906L22.3791 35.8264C22.0281 35.8962 21.6224 35.9362 21.2693 35.868L21.2193 35.8576C16.6136 34.957 22.4584 26.9712 24.277 24.9133C26.4943 22.4043 30.754 19.2634 34.2027 18.6641Z" fill="#B7E1FF"/>
<g clip-path="url(#clip0_9_5331)">
<path d="M36.2827 50.6145C36.0661 50.5464 35.7759 50.5804 35.5515 50.5809L34.0641 50.5842C33.7263 50.5849 33.3695 50.6034 33.0361 50.5464C31.9657 50.3635 31.1095 49.3969 30.78 48.4101C30.5807 47.8131 30.6374 47.1609 30.6372 46.5394L30.6461 34.1134C30.9086 27.3264 36.5725 21.2198 43.5934 21.5745C50.0375 21.9002 55.0037 27.3648 55.4714 33.7137C55.531 34.523 55.4852 35.3644 55.485 36.1766L55.4901 46.998C55.4911 47.2718 55.5036 47.5523 55.4831 47.8251C55.394 49.0116 54.2935 50.1553 53.1766 50.4319C52.7996 50.5252 52.4283 50.52 52.0432 50.5182L50.2623 50.5047C50.1187 50.5111 49.9685 50.5071 49.8309 50.5536L49.8103 50.5613C49.4319 50.5933 49.0197 50.4544 48.6349 50.4442L48.5198 49.2342L48.6242 47.48C48.1262 47.8428 47.6761 48.2435 47.1449 48.5602C44.5838 50.0869 40.0022 50.1914 37.9461 47.6955L37.6314 47.3902L37.636 48.7311C37.6364 48.9009 37.6634 49.1241 37.6337 49.2878L37.6293 50.0474C37.6271 50.2076 37.64 50.3968 37.5904 50.5495L36.2827 50.6145Z" fill="#70C3FF"/>
<path d="M37.631 47.3902C37.3563 46.8662 36.9028 46.4043 36.5626 45.9165C35.5801 44.5074 34.985 42.7512 34.8859 41.0407L34.7436 41.0727C33.4547 41.3353 32.7563 39.3146 32.5745 38.3748C32.4375 37.6668 32.5195 36.8549 32.6645 36.1578C32.9758 34.6608 33.5127 34.4746 34.6711 35.2914C35.3287 35.0893 36.0193 35.0783 36.6984 35.0024C39.1462 34.7285 41.1841 34.0359 43.2215 32.5841C43.5406 32.3567 45.6032 30.7977 45.8737 30.8969C45.9672 30.9312 46.1895 31.3973 46.2541 31.4987C47.0522 32.751 47.7103 32.882 49.0031 32.9184C50.3948 32.9576 51.0982 34.2044 51.3978 35.4382C51.9743 34.8638 52.3776 34.4344 53.0704 35.1672C54.3 36.4683 53.9209 39.4723 52.6799 40.6318C52.2319 41.0503 51.8262 40.9961 51.2608 40.9775C51.2487 42.7497 50.5942 44.471 49.6498 45.9529C49.3204 46.4697 48.9298 46.9495 48.6228 47.4801C48.1258 47.8429 47.6756 48.2436 47.1444 48.5602C44.5834 50.0869 40.0018 50.1915 37.9456 47.6955L37.631 47.3902Z" fill="#F8F8F8"/>
<path d="M37.9458 47.6952C38.1162 47.6883 38.2632 47.7814 38.4076 47.8608L38.9875 48.1818C40.2319 48.8211 42.1221 48.9705 43.4895 48.6581C45.9806 48.0888 48.095 45.8 49.3295 43.6377C49.6787 43.026 50.4185 40.9475 51.261 40.9714C51.2489 42.7494 50.5944 44.4706 49.65 45.9525C49.3206 46.4694 48.93 46.9492 48.623 47.4797C48.126 47.8425 47.6758 48.2432 47.1447 48.5599C44.5836 50.0866 40.002 50.1911 37.9458 47.6952Z" fill="#D3D2D2"/>
<path d="M37.633 47.3901L37.9461 47.6954C40.0022 50.1914 44.5839 50.0868 47.1449 48.5601C47.6761 48.2435 48.1262 47.8428 48.6233 47.48L48.5243 49.2342L48.6349 50.4442C49.0197 50.4544 49.4319 50.5933 49.8104 50.5713C51.5968 50.9411 53.2769 51.6882 54.8884 52.5272L56.5805 53.442C60.7328 55.5613 64.3949 57.1199 65.8082 61.995C66.3962 64.0231 66.0688 64.6406 64.0922 65.6263C63.2238 66.0595 62.3223 66.4231 61.4069 66.7442L57.2515 68.0542C54.8316 68.6996 52.2997 70.3844 49.8104 70.642L45.2273 71.334L40.6621 71.3408C39.6003 71.3322 38.5907 70.8531 37.5402 70.7601L33.6241 70.3217L28.7955 68.0473L25.6675 67.0641C24.5553 66.6755 23.4712 66.2714 22.4011 65.7763C21.4587 65.3403 20.241 64.8999 20.0839 63.7335L20.0774 63.6893C19.9492 62.7829 20.6043 61.0516 21.014 60.243C22.8056 56.7073 25.8813 55.33 29.1975 53.6415C31.203 52.6205 34.0298 50.9137 36.2827 50.6145L37.5876 50.5494C37.64 50.3968 37.6272 50.2075 37.6293 50.0473L37.6439 49.2878C37.6634 49.124 37.6364 48.9008 37.636 48.7311L37.633 47.3901Z" fill="#DEF1FF"/>
<path d="M37.6329 47.3901L37.9459 47.6954C40.0021 50.1914 44.5837 50.0868 47.1448 48.5601C47.676 48.2435 48.1261 47.8428 48.6232 47.48L48.5241 49.2342L48.6348 50.4442C48.6483 50.7883 48.6368 51.1935 48.77 51.5149C49.4168 52.021 50.0275 52.2608 49.7347 53.1746C48.9864 55.5105 46.3118 56.9652 44.0139 57.2166C41.1117 57.534 38.0551 56.1481 36.631 53.5591C36.2832 52.9269 36.1653 52.149 36.9646 51.7669L37.4152 51.828C37.5156 51.4106 37.5517 50.9767 37.5874 50.5494C37.6399 50.3968 37.627 50.2075 37.6292 50.0473L37.6438 49.2878C37.6633 49.124 37.6363 48.9008 37.6359 48.7311L37.6329 47.3901Z" fill="#F8F8F8"/>
<path d="M37.6333 47.3901L37.9463 47.6954C40.0025 50.1914 44.5841 50.0868 47.1452 48.5601C47.6764 48.2435 48.1265 47.8428 48.6235 47.48L48.5245 49.2342C47.7007 50.2903 44.9768 51.07 43.7574 51.2219C41.4674 51.5071 39.5468 50.3965 37.65 49.2878C37.6636 49.124 37.6367 48.9008 37.6363 48.7311L37.6333 47.3901Z" fill="#F5F5F5"/>
</g>
<path fill-rule="evenodd" clip-rule="evenodd" d="M42.0949 2.84742L42.0874 2.85721C39.8447 3.08048 38.6484 3.90362 37.039 5.01098C36.7204 5.23017 36.3856 5.46049 36.0234 5.69951C33.6582 7.25998 31.0763 8.3928 28.3635 9.19745L24.9864 10.1271C15.4647 12.9514 12.6275 16.9153 9.97033 26.1443C8.91912 29.7954 8.05839 32.5978 5.88951 35.7927C5.67246 36.1125 5.44374 36.4203 5.21608 36.7267C4.62785 37.5184 4.04663 38.3007 3.69165 39.2549C2.16026 43.3713 3.59504 45.6259 5.60387 48.7826C5.79446 49.082 5.99021 49.3896 6.18909 49.7077C7.16866 51.2744 7.88226 52.9206 8.51759 54.6489L10.1593 59.6627C12.7236 68.1035 15.5472 71.9048 24.5753 74.6538C25.1945 74.8423 25.8187 75.024 26.444 75.206C29.4544 76.0824 32.4928 76.9669 35.152 78.6648C35.5652 78.9286 35.9561 79.1873 36.333 79.4368C38.6555 80.9738 40.4484 82.1604 43.6677 82.036C45.996 81.8195 47.2942 80.8322 48.7831 79.6998C49.2341 79.3568 49.7026 79.0005 50.2226 78.6482C52.4421 77.1446 55.9496 76.0436 58.478 75.2729C66.2597 72.901 71.0371 71.4038 74.2053 62.9969C74.7701 61.4981 75.2405 59.9989 75.7068 58.5124C76.7427 55.2103 77.759 51.9706 79.748 48.9374C79.9854 48.5753 80.2422 48.2271 80.4984 47.8796C81.0611 47.1166 81.6214 46.3568 81.9699 45.4591C82.9297 42.9867 82.4983 40.1711 81.0918 37.9496C80.8057 37.4979 80.4928 37.0652 80.1799 36.6325C79.8269 36.1443 79.4739 35.6562 79.1596 35.141C77.2817 32.0628 76.2752 28.6135 75.2875 25.1782C72.4894 15.4471 68.6663 12.3589 59.1636 9.71779L59.0127 9.67586C55.2857 8.64022 52.6571 7.90983 49.3862 5.67014C49.2461 5.57417 49.1088 5.47975 48.974 5.38703C46.6911 3.81658 45.1156 2.73275 42.0949 2.84742ZM41.9786 14.1386L41.6699 14.1513C34.2941 14.5547 27.0475 17.2592 22.0178 22.8639C18.3511 26.9497 16.1977 30.7912 14.9523 36.0908C13.3289 42.9983 14.3421 50.5712 17.9379 56.7235C18.5025 57.6898 19.1716 58.5954 19.8361 59.4947L19.8916 59.5699C25.191 66.7425 32.3351 70.5242 41.3661 71.0545C42.011 71.0924 42.6676 71.0847 43.3179 71.077C43.4828 71.075 43.6473 71.0731 43.8112 71.0719C57.3201 70.9983 69.37 59.8005 71.131 46.5058C72.4696 36.3999 68.1009 25.5464 59.7504 19.5901C54.1168 15.572 48.7443 14.0909 41.9786 14.1386Z" fill="#70C3FF"/>
<defs>
<clipPath id="clip0_9_5331">
<rect width="50.9466" height="50.9466" fill="white" transform="translate(17.5996 20.3245)"/>
</clipPath>
</defs>
</svg>
