<svg width="85" height="85" viewBox="0 0 85 85" fill="none" xmlns="http://www.w3.org/2000/svg">
<ellipse cx="44.3033" cy="68.4081" rx="38.4371" ry="11.8806" fill="#DDDDDC"/>
<path d="M16.0607 62.3682L13.8041 58.4533C11.7014 54.5753 9.21891 50.1953 10.3391 45.6423C11.3382 41.5813 14.5422 38.2026 18.6106 37.1371C26.8431 34.9811 34.7378 42.1646 32.7381 50.6775C31.8831 54.3169 29.6797 57.9153 27.7928 61.086L24.4566 66.2367C23.8575 67.1246 23.2495 68.4289 22.0841 68.6574C20.1182 69.0426 18.9186 66.7985 18.0526 65.4372L16.338 62.768C16.2908 62.6985 16.1228 62.4011 16.0607 62.3682ZM21.0114 42.8937C20.4009 42.9679 19.8429 43.1168 19.2925 43.3962L19.235 43.4249C15.0296 45.5511 16.2748 53.0733 22.2962 52.5733C23.7269 52.3128 24.7924 51.6305 25.6247 50.4248C27.9781 47.0152 25.1868 42.4386 21.0114 42.8937Z" fill="#1286D9"/>
<path d="M52.9219 61.1331L51.4603 59.0904C48.0621 54.2311 44.7164 49.371 41.7113 44.2546L38.9828 39.4632C35.6915 33.158 33.5285 27.7295 35.2815 20.6739C37.7732 10.6459 46.54 3.76367 56.8554 3.73325C69.9405 3.69466 80.5067 15.2809 78.5927 28.4468C77.9497 32.8704 76.1024 36.9328 74.0196 40.8452L72.2536 44.1478L67.0736 52.5173L60.3519 62.4479C60.3034 62.4639 60.1138 62.7473 60.0666 62.8092L59.0334 64.1526C58.255 65.1135 57.2852 65.8925 55.9765 65.1077C55.4509 64.7926 55.0581 64.2019 54.7192 63.707L53.6134 62.0785C53.4087 61.7806 53.2079 61.4523 52.9674 61.1831L52.9219 61.1331ZM55.8499 10.0134C51.1138 10.3989 47.2012 12.1729 44.1327 15.7885C38.7705 22.1069 39.3089 33.2186 45.7318 38.604C49.4019 41.6815 53.1348 42.94 57.9972 42.7201C71.1447 41.6571 77.6419 27.6836 70.2281 16.6364C67.1733 12.0846 61.2395 9.65549 55.8499 10.0134Z" fill="#1286D9"/>
<path d="M55.8499 10.0134C61.2396 9.65547 67.1734 12.0846 70.2281 16.6364C77.642 27.6836 71.1447 41.6571 57.9973 42.7201C53.1349 42.9399 49.402 41.6815 45.7318 38.604C39.309 33.2186 38.7706 22.1069 44.1327 15.7885C47.2013 12.1729 51.1138 10.3989 55.8499 10.0134ZM56.8158 15.2961C54.6185 15.4653 52.3806 16.1096 50.5861 17.4327C47.0389 20.0483 45.2452 24.7155 46.3154 29.0069C47.5426 33.9283 52.0686 37.6984 57.1731 37.5837C61.0576 37.3074 64.6137 35.1861 66.5536 31.7608C69.011 27.4217 67.861 21.2514 64.0953 18.0271C62.1368 16.3502 59.4287 15.1607 56.8158 15.2961Z" fill="#70C3FF"/>
<path d="M56.5947 16.6886C57.3847 16.6529 58.1593 16.658 58.9406 16.7974C63.1514 17.5493 66.4202 21.5682 66.7411 25.7551C67.1531 31.1295 62.8192 35.9757 57.482 36.3703C54.703 36.4519 52.6808 35.7755 50.4942 33.9147C45.1347 29.3535 46.3772 19.5972 53.4531 17.2307C54.4773 16.8881 55.5212 16.7542 56.5947 16.6886Z" fill="white"/>
</svg>
