<svg width="84" height="85" viewBox="0 0 84 85" fill="none" xmlns="http://www.w3.org/2000/svg">
<path d="M59.8313 35.3091C58.4032 34.9829 58.9236 32.6168 58.9183 31.3969C58.9137 30.3237 58.8348 29.2438 58.9182 28.1728C59.5142 20.5201 69.9628 17.6414 74.0701 24.4725C75.5037 26.8568 75.2622 29.5159 75.2624 32.1924L75.2606 33.7023C75.259 34.3639 75.297 34.8836 74.6431 35.278L74.6075 35.297C73.194 35.0824 73.4425 34.5056 73.4659 33.4196C73.5109 31.3383 73.4893 28.9781 71.5022 27.7505C71.2661 27.6047 70.724 28.1361 70.4847 28.2737C68.4466 29.4451 65.9164 29.2453 63.9494 28.0078C63.4106 28.3117 61.3128 30.0854 60.9846 30.5756C60.0246 32.0098 61.5333 34.6151 59.8739 35.2926L59.8313 35.3091Z" fill="#1286D9"/>
<path d="M9.62558 35.2082C9.33541 35.1159 8.94731 34.9675 8.80402 34.6765C8.69608 34.4572 8.73474 28.3884 8.80987 27.748C9.42535 22.5007 15.2424 19.0862 20.0987 21.1729C24.177 22.9252 25.5953 26.0576 25.6041 30.2254L25.5936 33.8904C25.5877 34.7341 25.5645 35.0881 24.6659 35.37L24.6055 35.3878C23.5396 34.9115 23.6202 34.8532 23.6579 33.8056C23.7213 32.0399 23.6774 30.2698 22.2486 28.9833C21.4483 28.2628 21.3012 28.1809 20.6343 28.7676C19.002 30.2036 16.0558 30.1402 14.4605 28.6954C13.9769 29.0192 13.5384 29.4423 13.074 29.797L11.6323 30.8073C11.0134 31.2451 10.7192 31.4509 10.673 32.2232L10.6431 33.808C10.6322 34.7312 10.6169 35.0591 9.62558 35.2082Z" fill="#1286D9"/>
<path d="M9.625 35.2082C10.6163 35.0591 10.6316 34.7312 10.6425 33.8081L10.6724 32.2232C10.7186 31.4509 11.0128 31.2452 11.6317 30.8073L13.0734 29.7971C13.5378 29.4423 13.9763 29.0192 14.4599 28.6954C16.0552 30.1402 19.0015 30.2036 20.6337 28.7676C21.3006 28.1809 21.4477 28.2628 22.248 28.9833C23.6768 30.2698 23.7207 32.0399 23.6573 33.8056C23.6196 34.8532 23.5391 34.9115 24.6049 35.3879L23.5371 38.5101C23.1717 39.4424 22.7489 40.3769 22.1108 41.1587L20.8804 42.5413C21.2898 43.5307 21.6132 43.9668 21.8123 45.0711C21.2638 46.8775 19.3967 49.5693 17.336 49.7037C15.1576 49.8458 12.6227 47.1419 12.4956 45.0799C12.4907 45.0008 12.4912 44.9467 12.4614 44.8714L12.4392 44.8282C12.3936 44.3133 13.4734 42.6792 13.4582 42.5919C13.4525 42.5596 13.3023 42.3989 13.2742 42.3653L12.3176 41.3223C11.0189 39.8144 10.3878 37.9647 9.88196 36.0643C9.82581 35.8534 9.75225 35.3762 9.625 35.2082Z" fill="#F9F9F9"/>
<path d="M59.8311 35.3093L59.8736 35.2927C61.533 34.6153 60.0243 32.01 60.9843 30.5758C61.3126 30.0856 63.4103 28.3118 63.9492 28.008C65.9162 29.2455 68.4463 29.4453 70.4844 28.2738C70.7237 28.1362 71.2659 27.6049 71.5019 27.7507C73.4891 28.9783 73.5107 31.3384 73.4656 33.4198C73.4422 34.5057 73.1937 35.0826 74.6073 35.2972C74.4581 35.5178 74.4461 35.745 74.3957 35.999C74.0219 37.8845 72.7928 39.9152 71.6492 41.42C71.3506 41.8127 70.9512 42.2206 70.7316 42.6576L70.7735 42.7244C71.2253 43.4563 71.4318 44.1655 71.5833 45.002C71.0225 47.1108 69.3154 49.2287 67.1142 49.7628L67.0562 49.7774C65.262 50.2023 62.873 47.1762 62.3994 45.6719C62.3487 45.5111 62.3104 45.1271 62.1656 45.0495C62.3188 44.8549 62.3804 44.2993 62.4708 44.0323C63.2193 41.8218 63.5213 43.0427 62.1168 41.0809C61.0743 39.6246 60.0872 37.2828 59.9115 35.4588C59.902 35.3601 59.8961 35.3756 59.8311 35.3093Z" fill="#F9F9F9"/>
<path d="M71.5837 45.0017C74.6229 46.3083 77.9486 46.8713 80.1567 49.5794C81.6651 51.4293 82.0489 53.1095 82.0552 55.3879L82.0628 60.2089C82.0639 60.7438 82.0813 61.2848 82.0351 61.8183C81.8284 64.202 78.7975 64.8395 76.9044 65.2184C76.4166 65.2849 75.8976 65.3958 75.4062 65.3964L67.159 65.5659C67.1802 65.38 67.1349 65.0497 67.1344 64.8371L67.11 62.3836C66.7716 55.9512 63.0148 51.4061 57.2383 48.6574L56.0584 48.1213C55.7952 48.0034 55.4986 47.8924 55.2857 47.695L55.2578 47.6683C56.0016 47.5027 56.7151 47.247 57.4327 46.9951L60.4575 45.8397C61.0289 45.5992 61.6412 45.3789 62.166 45.0492C62.3108 45.1268 62.3491 45.5108 62.3997 45.6716C62.8734 47.1759 65.2624 50.202 67.0566 49.7771L67.1146 49.7626C69.3158 49.2284 71.0229 47.1106 71.5837 45.0017Z" fill="#1286D9"/>
<path d="M75.4072 65.3969C75.4103 65.0192 75.3459 64.6377 75.3446 64.2579L75.3423 58.8317C75.3431 58.0833 75.2745 57.255 75.3615 56.5148C75.4639 55.6423 76.7013 55.5595 76.8772 56.4023C76.9513 56.7569 76.9415 57.1357 76.9447 57.4964L76.9419 65.2188C76.4176 65.2853 75.8986 65.3962 75.4072 65.3969Z" fill="#419BDD"/>
<path d="M12.4401 44.8276L12.4623 44.8709C12.4922 44.9462 12.4916 45.0003 12.4965 45.0794C12.6236 47.1414 15.1586 49.8453 17.337 49.7031C19.3977 49.5688 21.2647 46.877 21.8133 45.0705L28.6248 47.7738L28.5852 47.7994C28.1417 48.0786 27.6272 48.258 27.1487 48.4689L25.4454 49.3194C20.5418 52.0538 17.2392 56.1242 16.8564 61.7972C16.7771 62.9725 16.7692 64.4279 16.8382 65.6112L8.67683 65.3702C8.17511 65.363 7.64982 65.2792 7.15236 65.2128L5.17959 64.8197C4.09633 64.5175 2.71418 63.8568 2.15848 62.8264C1.79913 62.16 1.875 61.4821 1.87457 60.747L1.87705 55.7935C1.88532 49.4425 4.81447 47.8957 9.951 45.874C10.78 45.5477 11.661 45.2569 12.4401 44.8276Z" fill="#1286D9"/>
<path d="M7.15137 65.2132L7.15292 57.7216C7.15091 55.733 8.62722 55.0418 8.76351 56.6576C8.83663 57.5244 8.77079 58.4447 8.77013 59.317L8.76283 64.0608C8.75367 64.495 8.67887 64.9284 8.67584 65.3621C8.17412 65.3634 7.64883 65.2796 7.15137 65.2132Z" fill="#419BDD"/>
<path d="M30.7127 29.2768L30.6774 29.2969C30.2869 29.5138 29.74 29.4943 29.3193 29.3736C26.805 28.6521 26.9953 24.3343 29.0313 22.631L28.8608 20.3303C28.6351 16.7912 28.6035 12.4958 30.8809 9.55437C33.2492 6.49552 39.1967 2.83608 43.2213 3.50188C48.5456 4.38271 53.4419 7.0642 56.6351 11.435C57.1535 12.1447 57.6919 12.9107 57.5386 13.8343C57.3252 15.1201 55.9911 15.9837 54.7696 16.0921C54.9534 17.0416 55.0198 17.8842 55.0209 18.8491L55.0193 22.2058C55.0155 22.7853 55.0735 22.6249 55.4224 23.0811C56.4615 24.4401 56.9047 26.1483 56.2695 27.8021C55.7914 29.0473 54.8863 29.7467 53.5649 29.3985L53.4848 29.3162C53.1022 28.8486 53.1468 28.7308 53.1936 28.1544L53.2965 20.3503C53.2596 18.9482 52.28 17.2636 50.8574 16.8609C49.9202 16.5957 48.8231 17.0836 47.9648 17.4179L46.4232 17.9574C43.4108 18.8486 40.5148 18.7354 37.5103 17.7786L35.9811 17.2199C34.3273 16.5421 33.0888 16.1591 31.7557 17.6772C30.6265 18.9634 30.7628 20.5827 30.7613 22.1719L30.7583 28.5602C30.7564 28.798 30.6991 29.0448 30.7127 29.2768Z" fill="#1286D9"/>
<path d="M30.713 29.2767C30.6994 29.0448 30.7568 28.7979 30.7587 28.5601L30.7617 22.1718C30.7631 20.5826 30.6269 18.9634 31.7561 17.6771C33.0892 16.159 34.3276 16.542 35.9815 17.2198L37.5107 17.7785C40.5151 18.7354 43.4112 18.8485 46.4235 17.9573L47.9652 17.4178C48.8234 17.0835 49.9205 16.5956 50.8578 16.8609C52.2803 17.2635 53.26 18.9481 53.2968 20.3502L53.194 28.1544C53.1471 28.7308 53.1026 28.8485 53.4852 29.3162L53.5653 29.3984L53.5461 29.4646C53.4657 29.7474 53.466 30.0421 53.4275 30.3325L53.2066 31.6232C52.629 34.4862 51.3967 37.4684 49.488 39.6807C49.065 40.1707 48.4371 40.6262 48.3291 41.3043L48.2968 41.3177C48.0436 41.4279 47.815 41.6369 47.5889 41.797C44.7722 43.7913 40.0333 44.2349 37.1356 42.1463C36.8889 41.9686 36.6769 41.7162 36.3936 41.6035C36.4072 41.2406 36.3908 40.8997 36.3459 40.5394C35.9888 39.7002 35.6732 39.5628 35.0437 38.9086C33.1306 36.9205 31.8378 34.0872 31.182 31.4458L30.8799 30.0893C30.8337 29.8472 30.8247 29.5404 30.733 29.3167L30.713 29.2767Z" fill="#F9F9F9"/>
<path d="M53.484 29.3164L53.5641 29.3986L53.5449 29.4648C53.4645 29.7477 53.4649 30.0423 53.4264 30.3328L53.2054 31.6235C52.6279 34.4864 51.3955 37.4686 49.4868 39.681C49.0639 40.1709 48.4359 40.6264 48.3279 41.3045L48.2957 41.318C48.0424 41.4282 47.8138 41.6372 47.5877 41.7972C44.771 43.7916 40.0321 44.2351 37.1344 42.1466C36.8877 41.9689 36.6758 41.7165 36.3924 41.6038C36.406 41.2408 36.3896 40.9 36.3447 40.5396L36.433 40.5208C39.9526 42.9941 44.1836 41.7656 47.2385 39.194C49.2588 37.4935 50.6509 35.3965 51.7941 33.0234L52.6033 31.2179C52.8906 30.5332 53.1633 30.0142 53.4555 29.3755L53.484 29.3164Z" fill="#CDCDCA"/>
<path d="M36.3922 41.6035C36.6755 41.7161 36.8875 41.9686 37.1342 42.1463C40.0319 44.2348 44.7708 43.7913 47.5875 41.7969C47.8136 41.6369 48.0422 41.4279 48.2955 41.3176L48.3277 41.3042L48.2802 44.1826C49.1138 44.814 49.9116 45.3596 50.8159 45.8978L53.4832 47.0624C53.9967 47.2763 54.6985 47.6788 55.257 47.6684L55.2849 47.6951C55.4978 47.8925 55.7945 48.0036 56.0577 48.1215L57.2375 48.6576C63.014 51.4062 66.7708 55.9514 67.1092 62.3837L67.1336 64.8372C67.1341 65.0498 67.1795 65.3802 67.129 65.5813L67.148 65.6364C67.0907 66.2367 67.1271 66.8678 67.1272 67.4722L67.1282 71.9613C67.1281 72.2204 67.1475 72.4939 67.0493 72.7373L67.0262 72.7983C64.8302 78.4677 51.7199 80.6304 45.671 81.0062C38.9556 81.4232 30.2735 80.5967 24.1295 78.1699C21.8336 77.263 18.1474 75.4971 17.1267 73.1273L16.944 72.5816C16.7637 71.9855 16.8446 71.1608 16.843 70.541L16.8364 67.4795C16.8351 66.8589 16.8597 66.2296 16.8076 65.6115C16.7678 64.4282 16.7757 62.9727 16.8549 61.7975C17.2377 56.1245 20.5403 52.054 25.444 49.3196L27.1473 48.4692C27.6257 48.2583 28.1402 48.0789 28.5838 47.7996L28.6234 47.7741L33.0136 45.9709L36.0741 44.2428L36.1447 44.2091C36.2893 43.7888 36.2865 43.3742 36.3044 42.9351L36.3922 41.6035Z" fill="#70C3FF"/>
<path d="M36.3932 41.6035C36.6766 41.7161 36.8886 41.9686 37.1352 42.1463C40.0329 44.2348 44.7718 43.7913 47.5886 41.7969C47.8146 41.6369 48.0433 41.4279 48.2965 41.3176L48.3288 41.3042L48.2813 44.1826C49.1148 44.814 49.9127 45.3596 50.817 45.8978C50.7081 46.3209 50.2665 46.754 50.0219 47.1223L47.2803 51.1833C45.9099 53.1936 44.0912 56.5079 41.1534 55.7903L41.0859 55.7745C39.5306 55.3979 38.4443 53.787 37.5585 52.5751L35.0627 48.9804C34.4973 48.16 33.8466 47.3592 33.334 46.5086L33.0146 45.9709L36.0751 44.2428L36.1457 44.2091C36.2904 43.7888 36.2876 43.3742 36.3054 42.9351L36.3932 41.6035Z" fill="#419BDD"/>
<path d="M36.3933 41.6035C36.6766 41.7161 36.8886 41.9686 37.1353 42.1463C40.033 44.2348 44.7719 43.7913 47.5886 41.7969C47.8147 41.6369 48.0433 41.4279 48.2966 41.3176L48.3288 41.3042L48.2813 44.1826L48.2261 44.2284C48.0756 44.3678 47.9549 44.5565 47.826 44.716C46.1753 46.7569 44.2019 47.6206 41.5829 47.5838C39.4993 47.5544 36.8334 46.3425 36.0752 44.2428L36.1458 44.2091C36.2904 43.7888 36.2876 43.3742 36.3055 42.9351L36.3933 41.6035Z" fill="#F9F9F9"/>
</svg>
