<svg width="87" height="87" viewBox="0 0 87 87" fill="none" xmlns="http://www.w3.org/2000/svg">
<path d="M2.90234 42.4847C3.0554 30.2843 8.77105 19.253 18.1548 11.6455L20.0994 10.1169C25.7715 6.01544 32.6913 3.54376 39.6377 2.90225C40.0466 2.86448 40.4366 2.79672 40.8497 2.78599L44.4292 2.76978C60.9554 2.83651 75.9292 13.9112 81.5348 29.3629C83.0418 33.5163 83.9534 37.9087 84.0633 42.3301C83.6627 42.3417 83.2079 42.3824 82.8012 42.3839L71.5537 42.3837C71.0521 35.6167 69.1358 30.4744 64.8706 25.2838C62.5028 22.4024 59.8181 20.6305 56.6455 18.7715C55.2564 17.9322 53.73 17.3199 52.19 16.8199C42.4685 13.6634 32.7686 15.8976 25.0247 22.4098C19.1637 27.3388 15.5306 34.7084 15.4331 42.4061L2.90234 42.4847Z" fill="#915EBD"/>
<path d="M56.6339 18.7715C59.8186 20.6306 62.5033 22.4024 64.8711 25.2839C69.1363 30.4745 71.0526 35.6167 71.5541 42.3574C71.5869 50.0872 68.7814 57.3134 63.3062 62.8449C58.1453 68.0589 42.8698 81.4311 35.5815 81.5225L35.5617 75.7939C35.5644 75.3354 35.5212 74.8272 35.7043 74.3977C34.4091 74.5101 32.9125 73.7732 32.1957 72.7067L32.1541 72.6425C31.5988 71.8009 33.3151 66.6361 35.5618 63.6074C36.9839 61.6901 39.8621 59.4983 39.9997 59.404L40.0449 59.3721C40.5347 59.0398 40.9757 58.4655 41.3858 58.0303L43.1071 56.1365C43.8889 55.2867 44.673 54.4475 45.3699 53.5247L46.7542 51.4244C46.8663 51.2397 46.9949 50.94 47.2065 50.8794L47.2688 51.0264L47.2685 50.5512C47.5163 50.3479 47.7248 50.0739 47.9036 49.8076L51.1968 44.2485C54.2612 38.0866 56.0087 31.3063 56.5432 24.4586C56.644 23.1674 56.5813 21.8372 56.5786 20.5413L56.5726 19.4884C56.5702 19.2456 56.5467 19.0028 56.6339 18.7715Z" fill="#EADAF8"/>
<path d="M84.0646 42.3923C84.0576 43.479 84.0863 44.6375 84.01 45.7845L83.8748 47.0379C83.2476 53.5469 81.1857 59.8875 77.5862 65.373C70.4517 76.2455 58.501 83.4116 45.4078 84.0094L42.0191 84.04C20.4956 83.9644 2.70024 64.7485 2.85071 43.5213C2.85307 43.19 2.83028 42.817 2.89428 42.4914L15.4283 42.3935C15.3983 43.2816 15.403 44.188 15.476 45.0617L15.6048 46.0888C16.9193 58.2492 25.9619 68.2736 38.0876 70.5566C39.196 70.7652 40.3435 70.9591 41.4719 70.9976L43.6485 70.983C50.9367 70.8825 58.1449 68.0587 63.3057 62.8447C68.7809 57.3132 71.5864 50.087 71.5513 42.3572L82.8012 42.3837C83.2079 42.3822 83.6627 42.3416 84.0646 42.3923Z" fill="#CBA1F0"/>
<path d="M43.1676 24.8096L46.4498 24.8174C52.5842 24.9553 57.8857 29.3555 58.5987 35.5737C59.3613 42.2237 54.9286 48.0928 48.2838 49.1217C46.9159 49.3336 45.5526 49.3389 44.1724 49.3431L40.0727 49.3529C39.9067 49.3531 39.2463 49.3039 39.1461 49.3978L39.1331 50.0767C39.1558 51.2919 39.5377 50.8162 40.99 50.8177L45.6429 50.8264C46.5641 50.8298 47.6482 50.7486 48.5487 50.9372C50.7992 51.4087 50.8344 54.4722 48.7323 55.1149C48.2876 55.2509 47.7298 55.2005 47.2679 55.2022L44.843 55.2056L39.0946 55.2094L39.1859 59.557C39.3188 61.7016 37.2156 63.4452 35.438 61.5939C34.4785 60.5944 34.5803 59.3032 34.6006 58.0237L34.6875 55.2229C33.4101 55.1395 31.9294 55.5175 30.9131 54.5334C30.0496 53.6973 30.3033 52.3637 31.1015 51.571C32.1159 50.5643 33.4834 50.7609 34.7897 50.7651L34.6362 49.3355C33.8645 49.337 32.8325 49.4491 32.1043 49.1971L32.0201 49.1668C30.4114 48.603 29.3852 46.9793 30.8127 45.6274C31.8868 44.6105 33.2749 44.9197 34.6171 44.962L34.6142 28.3573C34.619 24.5486 35.544 24.8233 38.7234 24.8163L43.1676 24.8096Z" fill="#915EBD"/>
<path d="M43.9828 29.3429C45.9609 29.3351 47.9618 29.1421 49.8088 29.9622C56.0509 32.7336 55.4989 41.6173 48.8083 43.9065C47.0111 44.4076 45.1899 44.3409 43.3409 44.3415L39.166 44.3271L39.1494 29.4189C39.4721 29.2504 43.3096 29.3431 43.9828 29.3429Z" fill="#F7F7F7"/>
<path d="M12.797 34.9647C11.1243 35.5887 9.42994 34.1712 9.94141 32.4607C12.3291 24.4756 17.7681 17.8554 25.1 13.6076L26.8549 12.6257C31.9305 10.0471 37.8141 8.92377 43.4962 9.26573C43.8307 9.28586 44.1536 9.2797 44.4882 9.32194L44.9997 9.39758C46.1482 9.56742 46.7713 10.8344 46.2047 11.8478C45.9076 12.3792 45.3429 12.7048 44.734 12.6979C34.822 12.5861 30.7355 12.9996 24.0929 18.2065C18.6375 22.4828 15.541 27.5618 14.3106 33.1741C14.1325 33.9867 13.5764 34.674 12.797 34.9647Z" fill="#E4C9FC"/>
</svg>
