<svg width="87" height="87" viewBox="0 0 87 87" fill="none" xmlns="http://www.w3.org/2000/svg">
<path d="M2.4668 42.4847C2.61986 30.2843 8.33551 19.253 17.7193 11.6455L19.6638 10.1169C25.336 6.01544 32.2558 3.54376 39.2021 2.90225C39.6111 2.86448 40.001 2.79672 40.4142 2.78599L43.9937 2.76978C60.5198 2.83651 75.4937 13.9112 81.0993 29.3629C82.6062 33.5163 83.5179 37.9087 83.6277 42.3301C83.2272 42.3417 82.7724 42.3824 82.3656 42.3839L71.1181 42.3837C70.6166 35.6167 68.7002 30.4744 64.4351 25.2838C62.0672 22.4024 59.3826 20.6305 56.21 18.7715C54.8208 17.9322 53.2944 17.3199 51.7544 16.8199C42.033 13.6634 32.3331 15.8976 24.5892 22.4098C18.7282 27.3388 15.095 34.7084 14.9975 42.4061L2.4668 42.4847Z" fill="#915EBD"/>
<path d="M83.6291 42.3923C83.622 43.479 83.6507 44.6375 83.5745 45.7845L83.4392 47.0379C82.812 53.5469 80.7502 59.8875 77.1507 65.373C70.0161 76.2455 58.0655 83.4116 44.9722 84.0094L41.5835 84.04C20.06 83.9644 2.26469 64.7485 2.41517 43.5213C2.41752 43.19 2.39474 42.817 2.45873 42.4914L14.9928 42.3935C14.9627 43.2816 14.9674 44.188 15.0404 45.0617L15.1693 46.0888C16.4837 58.2492 25.5263 68.2736 37.652 70.5566C38.7604 70.7652 39.908 70.9591 41.0363 70.9976L43.2129 70.983C50.5012 70.8825 57.7093 68.0587 62.8702 62.8447C68.3454 57.3132 71.1509 50.087 71.1158 42.3572L82.3656 42.3837C82.7724 42.3822 83.2272 42.3416 83.6291 42.3923Z" fill="#CBA1F0"/>
<path d="M42.6913 23.7674C45.4537 23.6109 47.4709 25.9709 46.6875 28.6396L46.6666 28.7081C46.2076 30.2569 45.0112 31.2352 43.3823 31.3958C43.1066 31.398 42.8307 31.4058 42.557 31.3671L42.4865 31.3565C41.5657 31.2245 40.5241 30.6835 39.9321 29.9565L39.8871 29.9002C37.9143 27.4727 39.5047 24.1125 42.6913 23.7674Z" fill="#915EBD"/>
<path d="M39.1308 59.5665L39.1318 41.6265C39.1325 40.8503 39.0848 40.0334 39.1856 39.2641C39.412 37.5381 40.9655 36.4102 42.5929 36.1406C44.3846 35.8435 46.5561 37.3768 46.8372 39.1828L46.848 50.5512L46.8332 51.0264L46.7709 50.8794C46.5593 50.94 46.4306 51.2397 46.3186 51.4244L44.9343 53.5247C44.2374 54.4475 43.4533 55.2867 42.6715 56.1365L40.9502 58.0303C40.5401 58.4655 40.0991 59.0398 39.6093 59.3721L39.5641 59.404C39.4265 59.4983 39.2917 59.5322 39.1308 59.5665Z" fill="#915EBD"/>
<path d="M56.1976 18.7715C59.3823 20.6306 62.067 22.4024 64.4348 25.2839C68.7 30.4745 70.6163 35.6167 71.1179 42.3574C71.1506 50.0872 68.3451 57.3134 62.8699 62.8449C57.709 68.0589 50.5009 70.8827 43.2127 70.9741L43.1928 65.2455C43.1955 64.787 43.1524 64.2788 43.3355 63.8493C42.0403 63.9617 40.5436 63.2248 39.8269 62.1583L39.7852 62.0941C39.2299 61.2525 39.1464 60.5352 39.1279 59.5665C39.2911 59.5322 39.4258 59.4983 39.5634 59.404L39.6086 59.3721C40.0984 59.0398 40.5394 58.4655 40.9495 58.0303L42.6708 56.1365C43.4526 55.2867 44.2367 54.4474 44.9336 53.5247L46.3179 51.4244C46.43 51.2397 46.5587 50.94 46.7702 50.8793L46.8325 51.0264L46.8322 50.5512C47.08 50.3479 47.2885 50.0739 47.4673 49.8076L50.7605 44.2485C53.8249 38.0866 55.5724 31.3063 56.1069 24.4586C56.2077 23.1674 56.145 21.8372 56.1423 20.5413L56.1363 19.4884C56.1339 19.2456 56.1104 19.0028 56.1976 18.7715Z" fill="#EADAF8"/>
<path d="M39.1279 59.5665C39.2911 59.5323 39.4258 59.4983 39.5634 59.4041L39.6086 59.3721C40.0984 59.0398 40.5394 58.4655 40.9495 58.0304L42.6708 56.1365C43.4526 55.2867 44.2367 54.4475 44.9336 53.5248L46.3179 51.4244C46.43 51.2398 46.5587 50.94 46.7702 50.8794L46.8325 51.0264L46.8671 59.3703C46.876 59.8179 46.9211 60.3009 46.8174 60.7398C46.4266 62.3927 44.984 63.5955 43.3355 63.8494C42.0403 63.9618 40.5436 63.2249 39.8269 62.1583L39.7852 62.0941C39.2299 61.2525 39.1464 60.5353 39.1279 59.5665Z" fill="#915EBD"/>
<path d="M12.3605 34.9647C10.6877 35.5887 8.99342 34.1712 9.50489 32.4607C11.8926 24.4756 17.3316 17.8554 24.6634 13.6076L26.4184 12.6257C31.494 10.0471 37.3776 8.92377 43.0597 9.26573C43.3942 9.28586 43.7171 9.2797 44.0517 9.32194L44.5631 9.39758C45.7117 9.56742 46.3348 10.8344 45.7682 11.8478C45.471 12.3792 44.9064 12.7048 44.2975 12.6979C34.3855 12.5861 30.299 12.9996 23.6564 18.2065C18.201 22.4828 15.1045 27.5618 13.8741 33.1741C13.696 33.9867 13.1398 34.674 12.3605 34.9647Z" fill="#E4C9FC"/>
</svg>
