<svg width="87" height="87" viewBox="0 0 87 87" fill="none" xmlns="http://www.w3.org/2000/svg">
<path d="M43.1964 2.70631L43.2041 2.69627C46.4856 2.5717 48.1044 3.82595 50.6833 5.59169C54.0835 7.91995 56.807 8.65814 60.7125 9.74361C70.46 12.4527 74.3816 15.6204 77.2517 25.6022C78.2649 29.126 79.2973 32.6642 81.2236 35.8216C81.8318 36.8186 82.5811 37.7167 83.2055 38.7026C84.6482 40.9813 85.0907 43.8695 84.1062 46.4055C83.586 47.7457 82.6053 48.7864 81.8271 49.9734C78.8684 54.4854 78.008 59.4428 76.1417 64.395C72.8918 73.0185 67.9913 74.5543 60.0092 76.9873C57.4157 77.7778 53.8179 78.9072 51.5411 80.4495C49.2473 82.0035 47.9292 83.6352 44.8174 83.9246C40.9793 84.0729 39.1177 82.4045 36.0824 80.4665C32.7882 78.3631 28.9265 77.4767 25.2333 76.3522C15.9727 73.5324 13.0763 69.6332 10.446 60.9749L8.76195 55.832C8.11026 54.0592 7.37828 52.3706 6.37348 50.7636C4.01926 46.9982 2.09185 44.6645 3.81171 40.0415C4.31676 38.6839 5.26828 37.6656 6.06618 36.4902C8.29093 33.2129 9.17382 30.3384 10.2521 26.5932C12.9777 17.1266 15.888 13.0605 25.655 10.1634L29.1191 9.20986C31.9017 8.38448 34.5501 7.22248 36.9762 5.62182C39.2251 4.13804 40.4407 2.98066 43.1964 2.70631Z" fill="#CBA1F0"/>
<path d="M42.7682 14.2913L43.0849 14.2782C50.0249 14.2293 55.5357 15.7486 61.3144 19.8702C69.88 25.9799 74.3613 37.1129 72.9881 47.4792C71.1818 61.1164 58.8216 72.6026 44.9646 72.678C44.134 72.6841 43.2859 72.7089 42.4565 72.6602C33.193 72.1162 25.8649 68.2371 20.429 60.8798C19.7287 59.9319 19.0202 58.9789 18.4249 57.9601C14.7365 51.6493 13.6972 43.8814 15.3624 36.7959C16.64 31.3598 18.8488 27.4194 22.61 23.2283C27.7691 17.4792 35.2024 14.7051 42.7682 14.2913Z" fill="#915EBD"/>
<path d="M35.1065 18.9155L35.1685 18.9081C36.9814 18.7083 37.967 20.0195 38.1464 21.6956C38.389 23.9618 33.856 27.2395 32.3249 28.7061C30.1631 30.7767 25.9762 35.6579 23.1645 36.4831L22.9785 36.5199C22.6184 36.5915 22.2023 36.6325 21.84 36.5626L21.7888 36.5519C17.0645 35.6281 23.0598 27.4366 24.9253 25.3257C27.1997 22.7521 31.569 19.5302 35.1065 18.9155Z" fill="#CBA1F0"/>
<path d="M38.4514 54.368L35.7015 49.5974C33.1392 44.8717 30.114 39.5342 31.4791 33.9859C32.6966 29.0373 36.6009 24.9199 41.5588 23.6215C51.5908 20.9942 61.2113 29.748 58.7744 40.1218C57.7325 44.5567 55.0475 48.9417 52.7481 52.8056L48.6827 59.0822C47.9525 60.1642 47.2116 61.7536 45.7915 62.0321C43.3959 62.5015 41.934 59.7668 40.8787 58.1079L38.7893 54.8553C38.7318 54.7706 38.5271 54.4082 38.4514 54.368ZM44.4843 30.6365C43.7404 30.7269 43.0604 30.9083 42.3897 31.2488L42.3196 31.2838C37.1949 33.8748 38.7123 43.0414 46.05 42.432C47.7935 42.1146 49.0918 41.2831 50.106 39.8138C52.9739 35.659 49.5725 30.082 44.4843 30.6365Z" fill="white"/>
</svg>
