<svg width="87" height="87" viewBox="0 0 87 87" fill="none" xmlns="http://www.w3.org/2000/svg">
<path d="M42.6325 2.70607L42.6402 2.69602C45.9217 2.57146 47.5405 3.82571 50.1193 5.59145C53.5196 7.91971 56.2431 8.65789 60.1485 9.74336C69.896 12.4525 73.8176 15.6202 76.6878 25.602C77.7009 29.1257 78.7333 32.6639 80.6596 35.8214C81.2678 36.8184 82.0172 37.7164 82.6415 38.7023C84.0842 40.9811 84.5268 43.8692 83.5422 46.4052C83.022 47.7455 82.0414 48.7862 81.2631 49.9732C78.3044 54.4852 77.444 59.4426 75.5777 64.3948C72.3278 73.0182 67.4274 74.554 59.4452 76.987C56.8518 77.7775 53.2539 78.9069 50.9772 80.4493C48.6833 82.0033 47.3652 83.635 44.2534 83.9243C40.4153 84.0727 38.5538 82.4043 35.5184 80.4663C32.2242 78.3629 28.3626 77.4765 24.6693 76.3519C15.4087 73.5322 12.5124 69.6329 9.88201 60.9747L8.19799 55.8318C7.5463 54.0589 6.81432 52.3704 5.80951 50.7633C3.45529 46.998 1.52789 44.6643 3.24774 40.0412C3.75279 38.6837 4.70432 37.6653 5.50222 36.4899C7.72696 33.2127 8.60986 30.3381 9.68815 26.5929C12.4137 17.1263 15.324 13.0603 25.091 10.1632L28.5551 9.20962C31.3378 8.38423 33.9862 7.22224 36.4123 5.62157C38.6611 4.1378 39.8767 2.98042 42.6325 2.70607Z" fill="#CBA1F0"/>
<path d="M42.2042 14.2913L42.5209 14.2782C49.4609 14.2293 54.9717 15.7486 60.7504 19.8702C69.3161 25.9799 73.7973 37.1129 72.4241 47.4792C70.6178 61.1164 58.2576 72.6026 44.4007 72.678C43.57 72.6841 42.7219 72.7089 41.8926 72.6602C32.629 72.1162 25.3009 68.2371 19.865 60.8798C19.1647 59.9319 18.4562 58.9789 17.8609 57.9601C14.1725 51.6493 13.1332 43.8814 14.7984 36.7959C16.076 31.3598 18.2848 27.4194 22.046 23.2283C27.2052 17.4792 34.6384 14.7051 42.2042 14.2913Z" fill="#915EBD"/>
<path d="M34.5431 18.9157L34.6051 18.9083C36.4179 18.7086 37.4035 20.0197 37.5829 21.6958C37.8255 23.962 33.2925 27.2398 31.7614 28.7064C29.5996 30.777 25.4127 35.6581 22.601 36.4834L22.415 36.5202C22.055 36.5918 21.6388 36.6327 21.2766 36.5629L21.2253 36.5521C16.501 35.6284 22.4963 27.4369 24.3618 25.3259C26.6362 22.7523 31.0055 19.5305 34.5431 18.9157Z" fill="#CBA1F0"/>
<g clip-path="url(#clip0_9_5145)">
<path d="M36.6764 51.6891C36.4542 51.6192 36.1565 51.6541 35.9263 51.6546L34.4006 51.658C34.0541 51.6587 33.6881 51.6777 33.3461 51.6192C32.2481 51.4316 31.3699 50.4401 31.0319 49.4279C30.8275 48.8155 30.8856 48.1465 30.8854 47.509L30.8945 34.7629C31.1639 27.8011 36.9736 21.5372 44.1753 21.9011C50.7855 22.2351 55.8796 27.8405 56.3593 34.3529C56.4204 35.183 56.3735 36.0461 56.3733 36.8793L56.3785 47.9794C56.3795 48.2602 56.3924 48.5479 56.3713 48.8278C56.2799 50.0449 55.151 51.2181 54.0054 51.5017C53.6187 51.5974 53.2378 51.5921 52.8428 51.5903L51.016 51.5764C50.8687 51.5829 50.7146 51.5789 50.5736 51.6266L50.5524 51.6345C50.1643 51.6674 49.7414 51.5249 49.3467 51.5144L49.2286 50.2732L49.3358 48.4738C48.8249 48.846 48.3632 49.257 47.8183 49.5818C45.1913 51.1478 40.4917 51.2551 38.3825 48.6948L38.0598 48.3817L38.0645 49.7572C38.0649 49.9313 38.0926 50.1602 38.0622 50.3282L38.0577 51.1073C38.0554 51.2716 38.0686 51.4658 38.0178 51.6223L36.6764 51.6891Z" fill="#CBA1F0"/>
<path d="M38.0599 48.3818C37.7782 47.8443 37.3129 47.3705 36.964 46.8701C35.9562 45.4247 35.3458 43.6233 35.2441 41.8688L35.0982 41.9015C33.7761 42.1709 33.0597 40.0982 32.8732 39.1342C32.7326 38.4079 32.8167 37.5752 32.9655 36.8601C33.2848 35.3246 33.8356 35.1335 35.0238 35.9714C35.6983 35.7641 36.4067 35.7527 37.1033 35.6749C39.6142 35.394 41.7045 34.6835 43.7944 33.1943C44.1217 32.9611 46.2375 31.3619 46.5149 31.4636C46.6108 31.4988 46.8389 31.9769 46.9051 32.0809C47.7238 33.3656 48.3989 33.4999 49.7249 33.5373C51.1525 33.5775 51.874 34.8564 52.1813 36.1219C52.7727 35.5328 53.1864 35.0923 53.897 35.844C55.1582 37.1785 54.7695 40.26 53.4965 41.4493C53.037 41.8786 52.6207 41.823 52.0408 41.804C52.0284 43.6218 51.357 45.3874 50.3883 46.9075C50.0504 47.4376 49.6497 47.9298 49.3348 48.474C48.825 48.8461 48.3632 49.2572 47.8184 49.582C45.1914 51.148 40.4918 51.2553 38.3826 48.695L38.0599 48.3818Z" fill="#F8F8F8"/>
<path d="M38.3828 48.695C38.5576 48.688 38.7084 48.7835 38.8565 48.865L39.4514 49.1942C40.7278 49.8499 42.6667 50.0032 44.0693 49.6827C46.6246 49.0988 48.7935 46.751 50.0597 44.5331C50.418 43.9056 51.1767 41.7736 52.041 41.7981C52.0286 43.6218 51.3572 45.3874 50.3885 46.9075C50.0506 47.4376 49.6499 47.9298 49.335 48.474C48.8252 48.8462 48.3634 49.2572 47.8186 49.582C45.1916 51.148 40.4919 51.2553 38.3828 48.695Z" fill="#D3D2D2"/>
<path d="M38.0617 48.3818L38.3828 48.695C40.492 51.2553 45.1916 51.148 47.8186 49.582C48.3635 49.2572 48.8252 48.8461 49.335 48.474L49.2335 50.2734L49.347 51.5145C49.7417 51.525 50.1645 51.6675 50.5527 51.645C52.3851 52.0242 54.1086 52.7906 55.7616 53.6512L57.4972 54.5896C61.7565 56.7635 65.5129 58.3623 66.9626 63.3629C67.5657 65.4432 67.2299 66.0767 65.2025 67.0878C64.3116 67.5321 63.387 67.905 62.4479 68.2344L58.1855 69.5781C55.7033 70.2401 53.1062 71.9684 50.5527 72.2326L45.8516 72.9425L41.1688 72.9494C40.0797 72.9405 39.044 72.4492 37.9665 72.3537L33.9495 71.9041L28.9965 69.5711L25.788 68.5625C24.6471 68.164 23.5352 67.7495 22.4375 67.2416C21.4707 66.7943 20.2217 66.3426 20.0606 65.1461L20.0539 65.1008C19.9224 64.1711 20.5944 62.3952 21.0146 61.5658C22.8524 57.939 26.0073 56.5262 29.4089 54.7943C31.4661 53.7469 34.3657 51.9962 36.6767 51.6893L38.0151 51.6225C38.0689 51.4659 38.0557 51.2718 38.0579 51.1075L38.0728 50.3284C38.0928 50.1604 38.0652 49.9314 38.0648 49.7573L38.0617 48.3818Z" fill="#EADAF8"/>
<path d="M38.0616 48.3818L38.3827 48.695C40.4918 51.2553 45.1915 51.148 47.8185 49.582C48.3633 49.2572 48.8251 48.8461 49.3349 48.474L49.2334 50.2734L49.3469 51.5145C49.3607 51.8676 49.3489 52.2832 49.4856 52.6129C50.149 53.132 50.7754 53.378 50.4751 54.3153C49.7076 56.7113 46.9641 58.2035 44.6069 58.4614C41.63 58.787 38.4947 57.3654 37.0339 54.7097C36.6771 54.0612 36.5562 53.2632 37.3761 52.8713L37.8383 52.934C37.9413 52.5059 37.9783 52.0608 38.0149 51.6225C38.0687 51.4659 38.0556 51.2718 38.0578 51.1075L38.0727 50.3284C38.0927 50.1604 38.0651 49.9314 38.0647 49.7573L38.0616 48.3818Z" fill="#F8F8F8"/>
<path d="M38.062 48.3818L38.3831 48.695C40.4923 51.2553 45.1919 51.148 47.8189 49.582C48.3638 49.2572 48.8255 48.8461 49.3353 48.474L49.2338 50.2734C48.3888 51.3567 45.5946 52.1565 44.3439 52.3123C41.9949 52.6048 40.0248 51.4656 38.0792 50.3284C38.0931 50.1604 38.0655 49.9314 38.0651 49.7573L38.062 48.3818Z" fill="#F5F5F5"/>
</g>
<path fill-rule="evenodd" clip-rule="evenodd" d="M42.6382 2.69187L42.6305 2.70192C40.3301 2.93094 39.1029 3.77528 37.4521 4.91115C37.1253 5.13599 36.7819 5.37225 36.4103 5.61742C33.9842 7.21809 31.3358 8.38008 28.5532 9.20547L25.0891 10.159C15.3221 13.0561 12.4118 17.1222 9.6862 26.5888C8.60791 30.334 7.72501 33.2085 5.50026 36.4858C5.27762 36.8138 5.04301 37.1295 4.80948 37.4438C4.20611 38.2559 3.60991 39.0583 3.24579 40.0371C1.67496 44.2595 3.14669 46.5722 5.20727 49.8102C5.40276 50.1174 5.60356 50.4329 5.80756 50.7592C6.81236 52.3662 7.54435 54.0548 8.19604 55.8276L9.88005 60.9705C12.5104 69.6288 15.4067 73.528 24.6673 76.3478C25.3026 76.5412 25.9428 76.7276 26.5842 76.9143C29.6722 77.8132 32.7888 78.7205 35.5165 80.4621C35.9403 80.7327 36.3413 80.9981 36.7279 81.254C39.1102 82.8307 40.9493 84.0478 44.2515 83.9202C46.6398 83.6981 47.9715 82.6853 49.4987 81.5238C49.9613 81.172 50.4419 80.8064 50.9752 80.4451C53.252 78.9028 56.8498 77.7734 59.4433 76.9829C67.4254 74.5499 72.3259 73.0141 75.5758 64.3906C76.1551 62.8533 76.6375 61.3155 77.1159 59.7907C78.1784 56.4035 79.2209 53.0804 81.2612 49.969C81.5047 49.5976 81.7681 49.2404 82.0309 48.884C82.6081 48.1013 83.1829 47.3219 83.5403 46.4011C84.5248 43.8651 84.0823 40.9769 82.6395 38.6982C82.3462 38.2349 82.0252 37.791 81.7042 37.3471C81.3421 36.8464 80.98 36.3457 80.6576 35.8172C78.7314 32.6598 77.6989 29.1216 76.6858 25.5978C73.8156 15.6161 69.894 12.4483 60.1466 9.73921L59.9918 9.6962C56.1687 8.63388 53.4725 7.88468 50.1174 5.5873C49.9736 5.48886 49.8328 5.39201 49.6945 5.2969C47.3529 3.686 45.7368 2.57425 42.6382 2.69187ZM42.519 14.274L42.2023 14.287C34.6365 14.7008 27.2032 17.475 22.044 23.2241C18.2829 27.4152 16.074 31.3556 14.7964 36.7917C13.1312 43.8771 14.1706 51.6451 17.859 57.9558C18.4381 58.947 19.1244 59.8759 19.8061 60.7985L19.863 60.8756C25.2989 68.2329 32.627 72.112 41.8906 72.656C42.5521 72.6949 43.2256 72.6869 43.8927 72.679C44.0619 72.677 44.2306 72.675 44.3987 72.6738C58.2556 72.5984 70.6159 61.1121 72.4222 47.475C73.7953 37.1087 69.3141 25.9756 60.7484 19.866C54.9698 15.7443 49.4589 14.2251 42.519 14.274Z" fill="#CBA1F0"/>
<defs>
<clipPath id="clip0_9_5145">
<rect width="52.2589" height="52.2589" fill="white" transform="translate(17.5122 20.6191)"/>
</clipPath>
</defs>
</svg>
