<svg width="87" height="87" viewBox="0 0 87 87" fill="none" xmlns="http://www.w3.org/2000/svg">
<path d="M18.2241 64.7675L18.2252 59.6445C18.2238 58.2846 19.2586 57.8119 19.3541 58.9169C19.4054 59.5096 19.3592 60.139 19.3588 60.7354L19.3536 63.9794C19.3472 64.2764 19.2948 64.5728 19.2927 64.8694C18.941 64.8703 18.5728 64.8129 18.2241 64.7675Z" fill="#693596"/>
<path d="M56.5059 18.7715C59.6906 20.6306 62.3753 22.4024 64.7431 25.2839C69.0083 30.4745 70.9247 35.6167 71.4262 42.3574C71.459 50.0872 68.6535 57.3134 63.1783 62.8449C58.0174 68.0589 42.7419 81.4311 35.4536 81.5225L35.4338 75.7939C35.4365 75.3354 35.3933 74.8272 35.5764 74.3977C34.2812 74.5101 32.7845 73.7732 32.0678 72.7067L32.0261 72.6425C31.4708 71.8009 33.1872 66.6361 35.4339 63.6074C36.856 61.6901 39.7342 59.4983 39.8718 59.404L39.917 59.3721C40.4067 59.0398 40.8478 58.4655 41.2579 58.0303L42.9792 56.1365C43.761 55.2867 44.5451 54.4475 45.242 53.5247L46.6263 51.4244C46.7383 51.2397 46.867 50.94 47.0785 50.8794L47.1409 51.0264L47.1405 50.5512C47.3884 50.3479 47.5969 50.0739 47.7756 49.8076L51.0689 44.2485C54.1333 38.0866 55.8808 31.3063 56.4152 24.4586C56.516 23.1674 56.4534 21.8372 56.4507 20.5413L56.4446 19.4884C56.4423 19.2456 56.4188 19.0028 56.5059 18.7715Z" fill="#EADAF8"/>
<path d="M2.77441 42.4847C2.92747 30.2843 8.64312 19.253 18.0269 11.6455L19.9715 10.1169C25.6436 6.01544 32.5634 3.54376 39.5097 2.90225C39.9187 2.86448 40.3086 2.79672 40.7218 2.78599L44.3013 2.76978C60.8274 2.83651 75.8013 13.9112 81.4069 29.3629C82.9138 33.5163 83.8255 37.9087 83.9353 42.3301C83.5348 42.3417 83.08 42.3824 82.6732 42.3839L71.4257 42.3837C70.9242 35.6167 69.0079 30.4744 64.7427 25.2838C62.3749 22.4024 59.6902 20.6305 56.5176 18.7715C55.1284 17.9322 53.602 17.3199 52.062 16.8199C42.3406 13.6634 32.6407 15.8976 24.8968 22.4098C19.0358 27.3388 15.4026 34.7084 15.3051 42.4061L2.77441 42.4847Z" fill="#915EBD"/>
<path d="M42.7746 6.28589L43.0459 6.30514C43.1153 6.32003 43.0703 6.32114 43.1299 6.34184L43.1748 6.35108C43.6973 6.48539 44.2111 7.11428 44.4618 7.57227C45.2701 9.04879 44.1762 11.2603 42.7853 11.9817C42.3347 12.2155 41.8063 12.2954 41.3107 12.3702L36.6404 13.0128L24.2081 15.6313C23.6185 15.813 23.0661 16.0645 22.4351 15.9894L23.8575 14.6484L23.9584 14.5375C27.4093 11.744 31.8263 9.64873 36.2888 9.20571C37.7033 9.06528 39.1798 9.13407 40.5988 9.14988C41.7517 9.16273 42.867 9.43485 43.1825 7.92636C43.2887 7.41835 43.0664 6.71016 42.7746 6.28589Z" fill="#915EBD"/>
<path d="M12.6681 34.965C10.9954 35.589 9.30103 34.1714 9.81251 32.4609C12.2002 24.4758 17.6392 17.8557 24.971 13.6079L26.726 12.626C31.8016 10.0473 37.6852 8.92401 43.3673 9.26598C43.7018 9.28611 44.0247 9.27995 44.3593 9.32219L44.8707 9.39782C46.0193 9.56767 46.6424 10.8346 46.0758 11.848C45.7787 12.3795 45.214 12.705 44.6051 12.6982C34.6931 12.5863 30.6066 12.9998 23.964 18.2067C18.5086 22.483 15.4121 27.562 14.1817 33.1744C14.0036 33.9869 13.4474 34.6742 12.6681 34.965Z" fill="#E4C9FC"/>
<path d="M36.6764 51.6664C36.4542 51.5965 36.1565 51.6314 35.9263 51.6319L34.4006 51.6353C34.0541 51.636 33.6881 51.655 33.3461 51.5965C32.2481 51.4089 31.3699 50.4174 31.0319 49.4052C30.8275 48.7928 30.8856 48.1238 30.8854 47.4863L30.8945 34.7402C31.1639 27.7784 36.9736 21.5145 44.1753 21.8784C50.7855 22.2124 55.8796 27.8177 56.3593 34.3302C56.4204 35.1603 56.3735 36.0234 56.3733 36.8566L56.3785 47.9567C56.3795 48.2375 56.3924 48.5252 56.3713 48.8051C56.2799 50.0222 55.151 51.1953 54.0054 51.479C53.6187 51.5747 53.2378 51.5694 52.8428 51.5676L51.016 51.5537C50.8687 51.5602 50.7146 51.5562 50.5736 51.6039L50.5524 51.6118C50.1643 51.6446 49.7414 51.5022 49.3467 51.4916L49.2286 50.2505L49.3358 48.4511C48.8249 48.8233 48.3632 49.2343 47.8183 49.5591C45.1913 51.1251 40.4917 51.2324 38.3825 48.6721L38.0598 48.359L38.0645 49.7344C38.0649 49.9086 38.0926 50.1375 38.0622 50.3055L38.0577 51.0846C38.0554 51.2489 38.0686 51.4431 38.0178 51.5996L36.6764 51.6664Z" fill="#CBA1F0"/>
<path d="M38.0599 48.3589C37.7782 47.8214 37.3129 47.3476 36.964 46.8472C35.9562 45.4018 35.3458 43.6004 35.2441 41.8458L35.0982 41.8786C33.7761 42.1479 33.0597 40.0752 32.8732 39.1112C32.7326 38.385 32.8167 37.5522 32.9655 36.8371C33.2848 35.3016 33.8356 35.1105 35.0238 35.9484C35.6983 35.7411 36.4067 35.7298 37.1033 35.6519C39.6142 35.371 41.7045 34.6605 43.7944 33.1714C44.1217 32.9381 46.2375 31.3389 46.5149 31.4407C46.6108 31.4759 46.8389 31.954 46.9051 32.058C47.7238 33.3426 48.3989 33.4769 49.7249 33.5143C51.1525 33.5545 51.874 34.8334 52.1813 36.099C52.7727 35.5098 53.1864 35.0693 53.897 35.821C55.1582 37.1556 54.7695 40.237 53.4965 41.4263C53.037 41.8556 52.6207 41.8001 52.0408 41.781C52.0284 43.5988 51.357 45.3644 50.3883 46.8845C50.0504 47.4147 49.6497 47.9068 49.3348 48.4511C48.825 48.8232 48.3632 49.2342 47.8184 49.559C45.1914 51.125 40.4918 51.2323 38.3826 48.672L38.0599 48.3589Z" fill="#F8F8F8"/>
<path d="M38.3828 48.6721C38.5576 48.665 38.7084 48.7606 38.8565 48.842L39.4514 49.1713C40.7278 49.827 42.6667 49.9803 44.0693 49.6598C46.6246 49.0758 48.7935 46.7281 50.0597 44.5101C50.418 43.8826 51.1767 41.7506 52.041 41.7751C52.0286 43.5989 51.3572 45.3644 50.3885 46.8845C50.0506 47.4147 49.6499 47.9069 49.335 48.4511C48.8252 48.8232 48.3634 49.2343 47.8186 49.559C45.1916 51.1251 40.4919 51.2323 38.3828 48.6721Z" fill="#D3D2D2"/>
<path d="M38.0617 48.3589L38.3828 48.672C40.492 51.2323 45.1916 51.125 47.8186 49.559C48.3635 49.2342 48.8252 48.8232 49.335 48.4511L49.2335 50.2504L49.347 51.4916C49.7417 51.5021 50.1645 51.6446 50.5527 51.622C52.3851 52.0013 54.1086 52.7676 55.7616 53.6283L57.4972 54.5667C61.7565 56.7405 65.5129 58.3393 66.9626 63.3399C67.5657 65.4203 67.2299 66.0537 65.2025 67.0648C64.3116 67.5091 63.387 67.8821 62.4479 68.2114L58.1855 69.5552C55.7033 70.2172 53.1596 70.6419 50.6062 70.906L46.2319 71.2273L41.5491 71.2342C40.4599 71.2253 39.0975 71.1226 38.02 71.0272L34.003 70.5776L28.9965 69.5481L25.788 68.5396C24.6471 68.141 23.5352 67.7265 22.4375 67.2186C21.4707 66.7714 20.2217 66.3196 20.0606 65.1232L20.0539 65.0779C19.9224 64.1481 20.5944 62.3722 21.0146 61.5428C22.8524 57.916 26.0073 56.5032 29.4089 54.7713C31.4661 53.724 34.3657 51.9732 36.6767 51.6663L38.0151 51.5996C38.0689 51.443 38.0557 51.2488 38.0579 51.0845L38.0728 50.3054C38.0928 50.1374 38.0652 49.9085 38.0648 49.7344L38.0617 48.3589Z" fill="#915EBD"/>
<path d="M38.0616 48.3589L38.3827 48.672C40.4918 51.2323 45.1915 51.125 47.8185 49.559C48.3633 49.2342 48.8251 48.8232 49.3349 48.4511L49.2334 50.2504L49.3469 51.4916C49.3607 51.8446 49.3489 52.2602 49.4856 52.5899C50.149 53.109 50.7754 53.355 50.4751 54.2923C49.7076 56.6884 46.9641 58.1806 44.6069 58.4384C41.63 58.764 38.4947 57.3424 37.0339 54.6867C36.6771 54.0383 36.5562 53.2403 37.3761 52.8484L37.8383 52.911C37.9413 52.4829 37.9783 52.0378 38.0149 51.5996C38.0687 51.443 38.0556 51.2488 38.0578 51.0845L38.0727 50.3054C38.0927 50.1374 38.0651 49.9085 38.0647 49.7344L38.0616 48.3589Z" fill="#F8F8F8"/>
<path d="M38.062 48.3589L38.3831 48.672C40.4923 51.2323 45.1919 51.125 47.8189 49.559C48.3638 49.2342 48.8255 48.8232 49.3353 48.4511L49.2338 50.2504C48.3888 51.3338 45.5946 52.1336 44.3439 52.2893C41.9949 52.5819 40.0248 51.4427 38.0792 50.3054C38.0931 50.1374 38.0655 49.9085 38.0651 49.7344L38.062 48.3589Z" fill="#F5F5F5"/>
<path d="M83.9372 42.3923C83.9301 43.479 83.9589 44.6375 83.8826 45.7845L83.7473 47.0379C83.1201 53.5469 81.0583 59.8875 77.4588 65.373C70.3242 76.2455 58.3736 83.4116 45.2803 84.0094L41.8917 84.04C20.3681 83.9644 2.5728 64.7485 2.72327 43.5213C2.72562 43.19 2.70284 42.817 2.76684 42.4914L15.3009 42.3935C15.2708 43.2816 15.2755 44.188 15.3485 45.0617L15.4774 46.0888C16.7918 58.2492 25.8344 68.2736 37.9601 70.5566C39.0685 70.7652 40.2161 70.9591 41.3444 70.9976L43.521 70.983C50.8093 70.8825 58.0174 68.0587 63.1783 62.8447C68.6535 57.3132 71.459 50.087 71.4239 42.3572L82.6737 42.3837C83.0805 42.3822 83.5353 42.3416 83.9372 42.3923Z" fill="#CBA1F0"/>
</svg>
