<svg width="87" height="87" viewBox="0 0 87 87" fill="none" xmlns="http://www.w3.org/2000/svg">
<path d="M57.0699 18.7715C60.2546 20.6306 62.9393 22.4024 65.3071 25.2839C69.5723 30.4745 71.4887 35.6167 71.9902 42.3574C72.0229 50.0872 69.2175 57.3134 63.7422 62.8449C58.5814 68.0589 43.3058 81.4311 36.0176 81.5225L35.9977 75.7939C36.0004 75.3354 35.9572 74.8272 36.1404 74.3977C34.8452 74.5101 33.3485 73.7732 32.6318 72.7067L32.5901 72.6425C32.0348 71.8009 33.7512 66.6361 35.9978 63.6074C37.42 61.6901 40.2981 59.4983 40.4357 59.404L40.4809 59.3721C40.9707 59.0398 41.4117 58.4655 41.8219 58.0303L43.5432 56.1365C44.3249 55.2867 45.109 54.4475 45.806 53.5247L47.1902 51.4244C47.3023 51.2397 47.431 50.94 47.6425 50.8794L47.7048 51.0264L47.7045 50.5512C47.9523 50.3479 48.1608 50.0739 48.3396 49.8076L51.6328 44.2485C54.6972 38.0866 56.4447 31.3063 56.9792 24.4586C57.08 23.1674 57.0173 21.8372 57.0146 20.5413L57.0086 19.4884C57.0062 19.2456 56.9827 19.0028 57.0699 18.7715Z" fill="#EADAF8"/>
<path d="M3.33838 42.4847C3.49144 30.2843 9.20709 19.253 18.5908 11.6455L20.5354 10.1169C26.2076 6.01544 33.1274 3.54376 40.0737 2.90225C40.4827 2.86448 40.8726 2.79672 41.2858 2.78599L44.8653 2.76978C61.3914 2.83651 76.3653 13.9112 81.9709 29.3629C83.4778 33.5163 84.3894 37.9087 84.4993 42.3301C84.0988 42.3417 83.644 42.3824 83.2372 42.3839L71.9897 42.3837C71.4882 35.6167 69.5718 30.4744 65.3066 25.2838C62.9388 22.4024 60.2541 20.6305 57.0815 18.7715C55.6924 17.9322 54.166 17.3199 52.626 16.8199C42.9046 13.6634 33.2046 15.8976 25.4607 22.4098C19.5998 27.3388 15.9666 34.7084 15.8691 42.4061L3.33838 42.4847Z" fill="#915EBD"/>
<path d="M84.5011 42.3923C84.4941 43.479 84.5228 44.6375 84.4465 45.7845L84.3113 47.0379C83.6841 53.5469 81.6222 59.8875 78.0227 65.373C70.8882 76.2455 58.9376 83.4116 45.8443 84.0094L42.4556 84.04C20.9321 83.9644 3.13676 64.7485 3.28724 43.5213C3.28959 43.19 3.26681 42.817 3.3308 42.4914L15.8648 42.3935C15.8348 43.2816 15.8395 44.188 15.9125 45.0617L16.0414 46.0888C17.3558 58.2492 26.3984 68.2736 38.5241 70.5566C39.6325 70.7652 40.78 70.9591 41.9084 70.9976L44.085 70.983C51.3733 70.8825 58.5814 68.0587 63.7422 62.8447C69.2175 57.3132 72.023 50.087 71.9878 42.3572L83.2377 42.3837C83.6444 42.3822 84.0993 42.3416 84.5011 42.3923Z" fill="#CBA1F0"/>
<path d="M39.0606 53.2767L36.5608 48.9398C34.2313 44.6437 31.4812 39.7914 32.7221 34.7475C33.829 30.2487 37.3784 26.5056 41.8855 25.3253C51.0056 22.9368 59.7515 30.8948 57.5362 40.3256C56.589 44.3573 54.148 48.3437 52.0577 51.8563L48.3618 57.5623C47.6981 58.546 47.0245 59.9909 45.7334 60.244C43.5556 60.6708 42.2267 58.1847 41.2673 56.6766L39.3678 53.7196C39.3156 53.6427 39.1294 53.3132 39.0606 53.2767ZM44.5451 31.7025C43.8688 31.7847 43.2506 31.9496 42.6409 32.2592L42.5772 32.291C37.9184 34.6464 39.2978 42.9797 45.9684 42.4257C47.5534 42.1372 48.7338 41.3813 49.6558 40.0456C52.2629 36.2684 49.1707 31.1984 44.5451 31.7025Z" fill="#915EBD"/>
<path d="M13.2316 34.9647C11.5588 35.5887 9.86451 34.1712 10.376 32.4607C12.7637 24.4756 18.2027 17.8554 25.5345 13.6076L27.2895 12.6257C32.3651 10.0471 38.2487 8.92377 43.9308 9.26573C44.2653 9.28586 44.5882 9.2797 44.9228 9.32194L45.4342 9.39758C46.5828 9.56742 47.2059 10.8344 46.6393 11.8478C46.3421 12.3792 45.7775 12.7048 45.1686 12.6979C35.2566 12.5861 31.1701 12.9996 24.5275 18.2065C19.0721 22.4828 15.9756 27.5618 14.7452 33.1741C14.5671 33.9867 14.0109 34.674 13.2316 34.9647Z" fill="#E4C9FC"/>
</svg>
