<svg width="87" height="87" viewBox="0 0 87 87" fill="none" xmlns="http://www.w3.org/2000/svg">
<path d="M42.3248 2.70582L42.3326 2.69578C45.614 2.57121 47.2328 3.82547 49.8117 5.5912C53.2119 7.91947 55.9354 8.65765 59.8409 9.74312C69.5884 12.4522 73.51 15.62 76.3801 25.6017C77.3933 29.1255 78.4257 32.6637 80.352 35.8212C80.9602 36.8181 81.7095 37.7162 82.3339 38.7021C83.7766 40.9808 84.2192 43.869 83.2346 46.405C82.7144 47.7452 81.7337 48.7859 80.9555 49.9729C77.9968 54.4849 77.1364 59.4423 75.2701 64.3945C72.0202 73.018 67.1198 74.5538 59.1376 76.9868C56.5442 77.7773 52.9463 78.9067 50.6696 80.4491C48.3757 82.003 47.0576 83.6348 43.9458 83.9241C40.1077 84.0724 38.2461 82.4041 35.2108 80.466C31.9166 78.3627 28.055 77.4762 24.3617 76.3517C15.1011 73.5319 12.2047 69.6327 9.57439 60.9744L7.89037 55.8316C7.23868 54.0587 6.5067 52.3701 5.50189 50.7631C3.14767 46.9977 1.22027 44.664 2.94013 40.041C3.44518 38.6834 4.3967 37.6651 5.1946 36.4897C7.41935 33.2124 8.30224 30.3379 9.38053 26.5927C12.1061 17.1261 15.0164 13.06 24.7834 10.1629L28.2475 9.20937C31.0301 8.38399 33.6785 7.22199 36.1046 5.62133C38.3535 4.13755 39.5691 2.98017 42.3248 2.70582Z" fill="#CBA1F0"/>
<path d="M41.8971 14.2913L42.2138 14.2782C49.1538 14.2293 54.6646 15.7486 60.4433 19.8702C69.0089 25.9799 73.4902 37.1129 72.117 47.4792C70.3107 61.1164 57.9505 72.6026 44.0936 72.678C43.2629 72.6841 42.4148 72.7089 41.5854 72.6602C32.3219 72.1162 24.9938 68.2371 19.5579 60.8798C18.8576 59.9319 18.1491 58.9789 17.5538 57.9601C13.8654 51.6493 12.8261 43.8814 14.4913 36.7959C15.7689 31.3598 17.9777 27.4194 21.7389 23.2283C26.8981 17.4792 34.3313 14.7051 41.8971 14.2913Z" fill="#915EBD"/>
<path d="M42.2934 19.9692L42.313 19.9674L42.3325 19.9645L42.3458 19.9625C44.06 19.8368 45.343 20.3856 46.2292 21.2499C47.1329 22.1313 47.6643 23.382 47.7686 24.6955C47.8729 26.009 47.546 27.3363 46.7971 28.3623C46.0587 29.3737 44.883 30.1319 43.1909 30.2908L43.1802 30.2918L43.1695 30.2931L43.1033 30.3014C39.6718 30.7002 36.9219 27.312 37.6204 23.8332L37.6204 23.8332C38.0446 21.7202 40.1086 20.174 42.2934 19.9692Z" fill="#FAFAFA" stroke="#915EBD" stroke-width="1.43371"/>
<path d="M34.235 18.9157L34.2969 18.9083C36.1098 18.7086 37.0954 20.0197 37.2748 21.6958C37.5174 23.962 32.9844 27.2398 31.4533 28.7064C29.2915 30.777 25.1046 35.6581 22.2929 36.4834L22.1069 36.5202C21.7468 36.5918 21.3307 36.6327 20.9684 36.5629L20.9172 36.5521C16.1929 35.6284 22.1882 27.4369 24.0537 25.3259C26.3281 22.7523 30.6974 19.5305 34.235 18.9157Z" fill="#CBA1F0"/>
<path d="M42.209 36.2568L42.1678 36.2622C40.1028 36.5335 38.3941 38.1223 38.1549 40.1676L38.1549 40.1676C38.1206 40.4606 38.1237 40.7564 38.1271 41.0955C38.1283 41.2096 38.1295 41.3285 38.1294 41.4539M42.209 36.2568L37.4125 41.4536M42.209 36.2568L42.2303 36.2514C44.7329 35.9728 47.1837 37.5032 47.6499 39.9486L48.3541 39.8143L42.209 36.2568ZM38.1294 41.4539C38.1294 41.4541 38.1294 41.4543 38.1294 41.4544L37.4125 41.4536M38.1294 41.4539L38.1294 41.4534L37.4125 41.4536M38.1294 41.4539L38.1351 62.0801L37.4182 62.0806M37.4125 41.4536L37.4182 62.0806M37.4182 62.0806L38.1351 62.0804M37.4182 62.0806L38.1351 62.0804M38.1351 62.0804C38.1359 63.1701 38.1731 64.0689 38.4138 64.8602C38.6449 65.62 39.072 66.303 39.9133 66.93C40.3533 67.2578 41.023 67.5511 41.755 67.7232C42.4385 67.8838 43.105 67.9221 43.6191 67.8293M38.1351 62.0804L39.485 67.5048C40.5624 68.3077 42.5544 68.8117 43.892 68.505M43.6191 67.8293L43.5218 67.8909L43.5085 67.8993L43.892 68.505M43.6191 67.8293L43.6391 67.8166L43.7755 67.7915C45.8326 67.4131 47.5937 65.9923 47.8254 64.0104L47.8254 64.0103C47.8566 63.7431 47.8547 63.4688 47.8524 63.1532C47.8518 63.0566 47.851 62.9562 47.8513 62.8509C47.8513 62.8501 47.8513 62.8493 47.8513 62.8485L48.5681 62.85L48.5374 64.0936C48.2575 66.4881 46.16 68.0817 43.9052 68.4966L43.892 68.505M43.6191 67.8293C43.6575 67.8223 43.6951 67.8146 43.7317 67.8062L43.8814 68.4589L43.892 68.505" fill="#FAFAFA" stroke="#915EBD" stroke-width="1.43371"/>
</svg>
