<svg width="87" height="87" viewBox="0 0 87 87" fill="none" xmlns="http://www.w3.org/2000/svg">
<path d="M42.7604 2.70582L42.7681 2.69578C46.0496 2.57121 47.6684 3.82547 50.2472 5.5912C53.6475 7.91947 56.371 8.65765 60.2765 9.74312C70.0239 12.4522 73.9455 15.62 76.8157 25.6017C77.8288 29.1255 78.8613 32.6637 80.7875 35.8212C81.3957 36.8181 82.1451 37.7162 82.7694 38.7021C84.2122 40.9808 84.6547 43.869 83.6701 46.405C83.15 47.7452 82.1693 48.7859 81.391 49.9729C78.4323 54.4849 77.5719 59.4423 75.7056 64.3945C72.4557 73.018 67.5553 74.5538 59.5732 76.9868C56.9797 77.7773 53.3819 78.9067 51.1051 80.4491C48.8112 82.003 47.4932 83.6348 44.3814 83.9241C40.5433 84.0724 38.6817 82.4041 35.6464 80.466C32.3521 78.3627 28.4905 77.4762 24.7972 76.3517C15.5366 73.5319 12.6403 69.6327 10.0099 60.9744L8.32592 55.8316C7.67423 54.0587 6.94225 52.3701 5.93744 50.7631C3.58322 46.9977 1.65581 44.664 3.37567 40.041C3.88072 38.6834 4.83225 37.6651 5.63014 36.4897C7.85489 33.2124 8.73779 30.3379 9.81608 26.5927C12.5417 17.1261 15.452 13.06 25.2189 10.1629L28.683 9.20937C31.4657 8.38399 34.1141 7.22199 36.5402 5.62133C38.7891 4.13755 40.0046 2.98017 42.7604 2.70582Z" fill="#CBA1F0"/>
<path d="M42.3327 14.2913L42.6494 14.2782C49.5893 14.2293 55.1002 15.7486 60.8788 19.8702C69.4445 25.9799 73.9257 37.1129 72.5526 47.4792C70.7462 61.1164 58.386 72.6026 44.5291 72.678C43.6984 72.6841 42.8503 72.7089 42.021 72.6602C32.7574 72.1162 25.4293 68.2371 19.9934 60.8798C19.2932 59.9319 18.5846 58.9789 17.9894 57.9601C14.301 51.6493 13.2616 43.8814 14.9268 36.7959C16.2044 31.3598 18.4133 27.4194 22.1744 23.2283C27.3336 17.4792 34.7669 14.7051 42.3327 14.2913Z" fill="#915EBD"/>
<path d="M34.6715 18.9157L34.7335 18.9083C36.5463 18.7086 37.5319 20.0197 37.7113 21.6958C37.954 23.962 33.421 27.2398 31.8898 28.7064C29.728 30.777 25.5411 35.6581 22.7294 36.4834L22.5434 36.5202C22.1834 36.5918 21.7672 36.6327 21.405 36.5629L21.3537 36.5521C16.6294 35.6284 22.6247 27.4369 24.4902 25.3259C26.7646 22.7523 31.134 19.5305 34.6715 18.9157Z" fill="#CBA1F0"/>
<path d="M42.8612 24.5615L46.3061 24.5698C52.7444 24.7144 58.3086 29.3326 59.0569 35.8589C59.8573 42.8384 55.2049 48.9981 48.2309 50.078C46.7952 50.3004 45.3644 50.306 43.9158 50.3104L39.613 50.3206C39.4388 50.3209 38.7457 50.2693 38.6404 50.3678L38.6269 51.0803C38.6507 52.3557 39.0515 51.8565 40.5757 51.858L45.4592 51.8671C46.426 51.8707 47.5638 51.7855 48.509 51.9834C50.871 52.4783 50.9079 55.6936 48.7016 56.3681C48.2349 56.5108 47.6494 56.4579 47.1647 56.4597L44.6197 56.4633L38.5864 56.4673L38.6823 61.0302C38.8217 63.281 36.6144 65.1111 34.7487 63.1681C33.7416 62.1191 33.8484 60.7638 33.8698 59.421L33.961 56.4815C32.6203 56.3939 31.0662 56.7906 29.9996 55.7578C29.0933 54.8803 29.3596 53.4806 30.1973 52.6486C31.262 51.592 32.6972 51.7984 34.0682 51.8029L33.9071 50.3024C33.0972 50.304 32.0141 50.4216 31.2498 50.1572L31.1614 50.1254C29.4731 49.5336 28.3959 47.8294 29.8941 46.4106C31.0215 45.3433 32.4784 45.6678 33.8871 45.7123L33.884 28.285C33.8891 24.2877 34.8599 24.5759 38.1969 24.5686L42.8612 24.5615Z" fill="white"/>
<path d="M43.7174 29.3195C45.7935 29.3113 47.8935 29.1088 49.8321 29.9694C56.3834 32.8781 55.8041 42.202 48.782 44.6045C46.8957 45.1305 44.9843 45.0604 43.0437 45.0611L38.662 45.046L38.6445 29.3993C38.9832 29.2224 43.0108 29.3197 43.7174 29.3195Z" fill="#915EBD"/>
</svg>
