<svg width="87" height="87" viewBox="0 0 87 87" fill="none" xmlns="http://www.w3.org/2000/svg">
<ellipse cx="45.598" cy="70.1048" rx="39.4272" ry="12.1866" fill="#DDDDDC"/>
<path d="M16.6264 63.9089L14.3117 59.8932C12.1548 55.9153 9.60837 51.4225 10.7574 46.7522C11.7822 42.5866 15.0687 39.1209 19.242 38.0279C27.6865 35.8164 35.7846 43.1849 33.7333 51.9171C32.8563 55.6502 30.5962 59.3413 28.6607 62.5937L25.2386 67.877C24.624 68.7878 24.0003 70.1257 22.8049 70.3601C20.7884 70.7553 19.5579 68.4533 18.6696 67.0569L16.9108 64.319C16.8624 64.2478 16.6901 63.9427 16.6264 63.9089ZM21.7046 43.9328C21.0784 44.0089 20.506 44.1616 19.9414 44.4482L19.8825 44.4776C15.5687 46.6586 16.846 54.3746 23.0225 53.8617C24.4901 53.5945 25.583 52.8946 26.4367 51.6578C28.8507 48.1605 25.9876 43.466 21.7046 43.9328Z" fill="#915EBD"/>
<path d="M54.4363 62.6421L52.9371 60.5468C49.4513 55.5623 46.0195 50.577 42.9369 45.3288L40.1382 40.4141C36.7621 33.9464 34.5433 28.3781 36.3416 21.1408C38.8974 10.8545 47.89 3.79497 58.4711 3.76377C71.8932 3.72419 82.7316 15.6089 80.7684 29.1138C80.1087 33.6514 78.2139 37.8184 76.0774 41.8316L74.2659 45.2193L68.9525 53.8044L62.0577 63.9907C62.008 64.0072 61.8134 64.2979 61.765 64.3614L60.7052 65.7394C59.9068 66.725 58.912 67.5241 57.5696 66.7191C57.0304 66.3958 56.6275 65.79 56.2799 65.2823L55.1456 63.6119C54.9356 63.3062 54.7296 62.9695 54.483 62.6933L54.4363 62.6421ZM57.4397 10.2057C52.5816 10.6011 48.5682 12.4208 45.4207 16.1296C39.9204 22.6107 40.4727 34.0086 47.061 39.5327C50.8257 42.6895 54.6547 43.9803 59.6423 43.7549C73.1284 42.6645 79.793 28.3311 72.1882 16.9993C69.0548 12.3303 62.9682 9.83855 57.4397 10.2057Z" fill="#915EBD"/>
<path d="M57.4412 10.2057C62.9697 9.83855 69.0563 12.3303 72.1898 16.9993C79.7946 28.3311 73.13 42.6645 59.6439 43.7549C54.6562 43.9803 50.8272 42.6895 47.0625 39.5327C40.4742 34.0086 39.922 22.6107 45.4222 16.1296C48.5698 12.4208 52.5831 10.6011 57.4412 10.2057ZM58.432 15.6244C56.1781 15.798 53.8825 16.4589 52.0418 17.8161C48.4033 20.4991 46.5634 25.2865 47.6612 29.6884C48.9199 34.7366 53.5625 38.6037 58.7984 38.4861C62.783 38.2027 66.4308 36.0268 68.4206 32.5133C70.9413 28.0624 69.7616 21.7332 65.899 18.4258C63.8901 16.7057 61.1121 15.4856 58.432 15.6244Z" fill="#CBA1F0"/>
<path d="M58.2035 17.0529C59.0138 17.0162 59.8083 17.0214 60.6098 17.1645C64.929 17.9357 68.2821 22.0581 68.6112 26.3529C69.0338 31.8657 64.5883 36.8367 59.1136 37.2415C56.2631 37.3252 54.1888 36.6314 51.9458 34.7226C46.4482 30.044 47.7228 20.0364 54.981 17.6089C56.0316 17.2575 57.1023 17.1201 58.2035 17.0529Z" fill="white"/>
</svg>
