<svg width="87" height="87" viewBox="0 0 87 87" fill="none" xmlns="http://www.w3.org/2000/svg">
<path d="M61.3727 36.1529C59.9078 35.8182 60.4416 33.3912 60.4362 32.1399C60.4315 31.039 60.3505 29.9313 60.4361 28.8327C61.0475 20.9829 71.7652 18.0301 75.9783 25.0371C77.4488 27.4829 77.2011 30.2104 77.2013 32.9559L77.1994 34.5047C77.1978 35.1833 77.2367 35.7164 76.566 36.1209L76.5296 36.1404C75.0796 35.9203 75.3345 35.3286 75.3585 34.2147C75.4047 32.0797 75.3825 29.6588 73.3442 28.3996C73.1021 28.25 72.546 28.7951 72.3005 28.9362C70.2099 30.1378 67.6146 29.9328 65.5969 28.6635C65.0442 28.9752 62.8924 30.7946 62.5557 31.2975C61.571 32.7686 63.1186 35.441 61.4164 36.1359L61.3727 36.1529Z" fill="#915EBD"/>
<path d="M9.87307 36.0493C9.57542 35.9547 9.17733 35.8025 9.03035 35.5039C8.91963 35.279 8.95928 29.0539 9.03635 28.397C9.66768 23.0145 15.6345 19.5121 20.6159 21.6526C24.7993 23.45 26.2541 26.6631 26.2632 30.9382L26.2524 34.6976C26.2464 35.5631 26.2225 35.9261 25.3008 36.2153L25.2388 36.2336C24.1455 35.745 24.2282 35.6852 24.2668 34.6106C24.3319 32.7994 24.2868 30.9837 22.8212 29.6641C22.0003 28.925 21.8495 28.841 21.1653 29.4428C19.4911 30.9158 16.4689 30.8508 14.8325 29.3687C14.3365 29.7009 13.8867 30.1349 13.4103 30.4988L11.9315 31.5351C11.2966 31.9842 10.9949 32.1952 10.9475 32.9874L10.9168 34.6131C10.9056 35.56 10.8899 35.8964 9.87307 36.0493Z" fill="#915EBD"/>
<path d="M9.87402 36.0491C10.8909 35.8962 10.9065 35.5599 10.9177 34.6129L10.9485 32.9872C10.9958 32.1951 11.2975 31.984 11.9325 31.5349L13.4113 30.4986C13.8876 30.1347 14.3374 29.7007 14.8335 29.3686C16.4698 30.8506 19.492 30.9156 21.1663 29.4427C21.8504 28.8408 22.0013 28.9248 22.8222 29.6639C24.2878 30.9835 24.3328 32.7992 24.2678 34.6104C24.2291 35.685 24.1465 35.7448 25.2397 36.2334L24.1445 39.4361C23.7696 40.3924 23.336 41.3509 22.6814 42.1529L21.4193 43.5711C21.8393 44.586 22.171 45.0333 22.3753 46.166C21.8126 48.0191 19.8974 50.7802 17.7836 50.918C15.5491 51.0638 12.9489 48.2902 12.8185 46.1751C12.8135 46.094 12.8141 46.0385 12.7835 45.9612L12.7607 45.9169C12.7139 45.3888 13.8216 43.7125 13.8059 43.623C13.8001 43.5899 13.646 43.4251 13.6172 43.3906L12.636 42.3207C11.3039 40.774 10.6565 38.8766 10.1376 36.9273C10.08 36.7109 10.0046 36.2215 9.87402 36.0491Z" fill="#F9F9F9"/>
<path d="M61.373 36.1531L61.4167 36.1361C63.1189 35.4412 61.5713 32.7688 62.556 31.2976C62.8927 30.7948 65.0445 28.9754 65.5972 28.6637C67.6149 29.933 70.2102 30.138 72.3008 28.9364C72.5463 28.7953 73.1024 28.2502 73.3445 28.3998C75.3828 29.659 75.405 32.0799 75.3588 34.2149C75.3348 35.3288 75.0799 35.9205 76.5299 36.1406C76.3768 36.3669 76.3645 36.6 76.3128 36.8606C75.9294 38.7946 74.6686 40.8776 73.4956 42.4211C73.1893 42.824 72.7796 43.2424 72.5543 43.6907L72.5974 43.7592C73.0607 44.5099 73.2726 45.2374 73.428 46.0954C72.8527 48.2586 71.1017 50.431 68.8438 50.9789L68.7843 50.9939C66.9439 51.4297 64.4934 48.3256 64.0075 46.7826C63.9556 46.6176 63.9163 46.2238 63.7677 46.1442C63.9248 45.9446 63.988 45.3747 64.0808 45.1008C64.8486 42.8333 65.1584 44.0857 63.7177 42.0734C62.6483 40.5795 61.6358 38.1775 61.4555 36.3065C61.4458 36.2052 61.4397 36.2211 61.373 36.1531Z" fill="#F9F9F9"/>
<path d="M73.428 46.0952C76.5455 47.4355 79.9569 48.0129 82.2219 50.7909C83.7691 52.6884 84.1628 54.4119 84.1693 56.7489L84.177 61.6941C84.1782 62.2428 84.196 62.7978 84.1486 63.345C83.9366 65.7901 80.8277 66.444 78.8858 66.8326C78.3854 66.9008 77.853 67.0146 77.349 67.0152L68.8893 67.1891C68.9112 66.9984 68.8646 66.6596 68.8641 66.4415L68.8391 63.9248C68.492 57.3267 64.6384 52.6645 58.7131 49.8451L57.5029 49.2952C57.2329 49.1742 56.9286 49.0603 56.7102 48.8579L56.6816 48.8305C57.4446 48.6606 58.1765 48.3983 58.9125 48.1399L62.0152 46.9548C62.6014 46.7081 63.2295 46.4822 63.7678 46.1439C63.9163 46.2236 63.9556 46.6174 64.0075 46.7824C64.4934 48.3254 66.9439 51.4295 68.7843 50.9936L68.8438 50.9787C71.1017 50.4308 72.8528 48.2584 73.428 46.0952Z" fill="#915EBD"/>
<path d="M77.349 67.0153C77.3522 66.6279 77.2861 66.2366 77.2848 65.8469L77.2824 60.281C77.2833 59.5133 77.2129 58.6637 77.3021 57.9045C77.4071 57.0094 78.6764 56.9246 78.8569 57.789C78.9328 58.1528 78.9227 58.5414 78.9261 58.9114L78.9232 66.8327C78.3854 66.9009 77.853 67.0146 77.349 67.0153Z" fill="#693596"/>
<path d="M12.7603 45.9167L12.7831 45.9611C12.8137 46.0384 12.8131 46.0938 12.8181 46.175C12.9485 48.2901 15.5487 51.0637 17.7832 50.9178C19.897 50.7801 21.8122 48.0189 22.3749 46.1659L29.3619 48.9388L29.3212 48.965C28.8662 49.2515 28.3385 49.4355 27.8477 49.6519L26.1006 50.5242C21.0706 53.329 17.6829 57.5043 17.2903 63.3234C17.209 64.5289 17.2009 66.0219 17.2716 67.2356L8.90005 66.9885C8.38541 66.9811 7.84659 66.8951 7.33632 66.827L5.31273 66.4238C4.20158 66.1138 2.78383 65.436 2.21381 64.3791C1.8452 63.6956 1.92303 63.0002 1.92259 62.2461L1.92513 57.1651C1.93361 50.6505 4.93821 49.0638 10.207 46.99C11.0574 46.6553 11.9611 46.3571 12.7603 45.9167Z" fill="#915EBD"/>
<path d="M7.33594 66.8271L7.33753 59.1425C7.33547 57.1026 8.84981 56.3936 8.98961 58.0511C9.06461 58.9402 8.99707 59.8843 8.9964 60.7789L8.9889 65.6449C8.97951 66.0904 8.90278 66.5349 8.89967 66.9798C8.38503 66.9812 7.84621 66.8951 7.33594 66.8271Z" fill="#693596"/>
<path d="M31.5042 29.9652L31.4681 29.9858C31.0675 30.2083 30.5065 30.1883 30.0749 30.0645C27.4959 29.3244 27.6911 24.8954 29.7796 23.1482L29.6047 20.7883C29.3731 17.1581 29.3407 12.7519 31.6768 9.73477C34.1061 6.59713 40.2068 2.84343 44.3351 3.52639C49.7965 4.4299 54.8189 7.18046 58.0944 11.6638C58.6261 12.3918 59.1784 13.1776 59.0211 14.125C58.8022 15.4438 57.4337 16.3297 56.1808 16.4409C56.3694 17.4149 56.4374 18.2792 56.4386 19.2689L56.4369 22.712C56.433 23.3065 56.4925 23.142 56.8504 23.6099C57.9163 25.0039 58.3709 26.7561 57.7193 28.4525C57.2289 29.7298 56.3005 30.4472 54.9451 30.09L54.863 30.0057C54.4705 29.526 54.5162 29.4052 54.5642 28.8139L54.6697 20.8088C54.6319 19.3706 53.627 17.6426 52.1678 17.2295C51.2065 16.9574 50.0811 17.4579 49.2007 17.8008L47.6194 18.3543C44.5295 19.2684 41.5588 19.1523 38.4769 18.1708L36.9084 17.5977C35.2119 16.9025 33.9416 16.5096 32.5741 18.0668C31.4158 19.3862 31.5556 21.0472 31.5541 22.6772L31.5511 29.2301C31.5491 29.4741 31.4903 29.7273 31.5042 29.9652Z" fill="#915EBD"/>
<path d="M31.5041 29.9651C31.4901 29.7272 31.5489 29.474 31.551 29.2301L31.554 22.6772C31.5555 21.0471 31.4157 19.3862 32.574 18.0667C33.9415 16.5095 35.2118 16.9025 36.9082 17.5977L38.4768 18.1707C41.5587 19.1523 44.5293 19.2684 47.6193 18.3542L49.2006 17.8008C50.081 17.4579 51.2064 16.9574 52.1677 17.2295C53.6269 17.6425 54.6318 19.3705 54.6696 20.8087L54.5641 28.8139C54.516 29.4051 54.4703 29.5259 54.8628 30.0056L54.945 30.09L54.9253 30.1578C54.8428 30.448 54.8432 30.7502 54.8037 31.0481L54.577 32.3721C53.9846 35.3088 52.7205 38.3678 50.7626 40.6372C50.3288 41.1397 49.6847 41.6069 49.5739 42.3025L49.5408 42.3163C49.2811 42.4294 49.0465 42.6437 48.8147 42.8079C45.9254 44.8536 41.0644 45.3086 38.0921 43.1663C37.839 42.984 37.6216 42.7251 37.331 42.6095C37.3449 42.2372 37.3281 41.8875 37.2821 41.5179C36.9158 40.6572 36.592 40.5162 35.9464 39.8452C33.984 37.8058 32.6578 34.8995 31.9851 32.1901L31.6753 30.7986C31.6279 30.5503 31.6187 30.2356 31.5246 30.0061L31.5041 29.9651Z" fill="#F9F9F9"/>
<path d="M54.862 30.0056L54.9442 30.09L54.9245 30.1578C54.842 30.448 54.8423 30.7503 54.8029 31.0481L54.5762 32.3721C53.9838 35.3088 52.7197 38.3678 50.7618 40.6372C50.328 41.1397 49.6838 41.6069 49.5731 42.3025L49.54 42.3163C49.2803 42.4294 49.0457 42.6438 48.8139 42.8079C45.9245 44.8536 41.0636 45.3086 38.0912 43.1663C37.8382 42.984 37.6208 42.7251 37.3301 42.6095C37.3441 42.2372 37.3273 41.8875 37.2812 41.5179L37.3718 41.4986C40.9821 44.0356 45.322 42.7755 48.4557 40.1377C50.5279 38.3934 51.9559 36.2423 53.1286 33.8081L53.9586 31.9561C54.2533 31.2538 54.533 30.7214 54.8328 30.0663L54.862 30.0056Z" fill="#CDCDCA"/>
<path d="M37.3299 42.6095C37.6205 42.725 37.8379 42.984 38.091 43.1662C41.0633 45.3086 45.9242 44.8536 48.8136 42.8079C49.0454 42.6437 49.28 42.4293 49.5397 42.3163L49.5728 42.3025L49.5241 45.255C50.3791 45.9027 51.1975 46.4623 52.1251 47.0144L54.861 48.209C55.3878 48.4284 56.1077 48.8412 56.6806 48.8307L56.7092 48.858C56.9276 49.0605 57.2319 49.1744 57.5019 49.2954L58.7121 49.8453C64.6374 52.6647 68.491 57.3269 68.8381 63.925L68.8631 66.4417C68.8636 66.6597 68.9102 66.9986 68.8584 67.2049L68.8779 67.2614C68.8191 67.8772 68.8564 68.5245 68.8566 69.1445L68.8576 73.7492C68.8574 74.015 68.8774 74.2956 68.7766 74.5453L68.7529 74.6078C66.5003 80.4232 53.0524 82.6417 46.8476 83.0271C39.9593 83.4549 31.0535 82.6071 24.7514 80.1178C22.3963 79.1875 18.6152 77.3761 17.5681 74.9453L17.3808 74.3855C17.1958 73.7741 17.2788 72.9281 17.2771 72.2924L17.2704 69.152C17.269 68.5154 17.2943 67.8699 17.2408 67.2358C17.2 66.0221 17.2081 64.5292 17.2894 63.3237C17.682 57.5045 21.0697 53.3292 26.0997 50.5244L27.8468 49.6521C28.3376 49.4357 28.8653 49.2517 29.3203 48.9652L29.361 48.939L33.8642 47.0894L37.0036 45.3168L37.076 45.2822C37.2243 44.8511 37.2215 44.4258 37.2398 43.9754L37.3299 42.6095Z" fill="#CBA1F0"/>
<path d="M37.3308 42.6095C37.6215 42.725 37.8389 42.984 38.0919 43.1662C41.0643 45.3086 45.9252 44.8536 48.8146 42.8079C49.0464 42.6437 49.281 42.4293 49.5407 42.3163L49.5738 42.3025L49.5251 45.255C50.3801 45.9027 51.1985 46.4623 52.1261 47.0144C52.0144 47.4484 51.5614 47.8926 51.3106 48.2705L48.4984 52.4361C47.0926 54.4981 45.2271 57.8978 42.2137 57.1618L42.1444 57.1455C40.549 56.7592 39.4347 55.1068 38.5261 53.8637L35.9661 50.1764C35.3861 49.3349 34.7186 48.5134 34.1929 47.6409L33.8652 47.0894L37.0046 45.3168L37.077 45.2822C37.2253 44.8511 37.2225 44.4258 37.2408 43.9754L37.3308 42.6095Z" fill="#693596"/>
<path d="M37.3302 42.6095C37.6209 42.725 37.8383 42.984 38.0913 43.1662C41.0636 45.3086 45.9246 44.8536 48.8139 42.8079C49.0458 42.6437 49.2803 42.4293 49.5401 42.3163L49.5732 42.3025L49.5244 45.255L49.4678 45.302C49.3134 45.445 49.1896 45.6386 49.0574 45.8022C47.3641 47.8957 45.3399 48.7816 42.6535 48.7438C40.5162 48.7137 37.7816 47.4706 37.0039 45.3168L37.0763 45.2822C37.2247 44.8511 37.2218 44.4258 37.2401 43.9754L37.3302 42.6095Z" fill="#F9F9F9"/>
</svg>
