<svg width="84" height="84" viewBox="0 0 84 84" fill="none" xmlns="http://www.w3.org/2000/svg">
<path d="M2.89648 41.1272C3.04434 29.3412 8.56581 18.6847 17.6308 11.3357L19.5093 9.85899C24.9887 5.89687 31.6734 3.50917 38.3838 2.88945C38.7788 2.85297 39.1555 2.78751 39.5547 2.77714L43.0126 2.76147C58.9773 2.82594 73.4424 13.5244 78.8576 28.4511C80.3133 32.4635 81.194 36.7066 81.3001 40.9778C80.9132 40.989 80.4738 41.0283 80.0809 41.0298L69.2155 41.0296C68.731 34.4924 66.8797 29.5249 62.7595 24.5107C60.4721 21.7271 57.8786 20.0155 54.8138 18.2195C53.4719 17.4088 51.9973 16.8173 50.5096 16.3343C41.1185 13.285 31.7481 15.4433 24.2673 21.7343C18.6054 26.4958 15.0957 33.615 15.0015 41.0512L2.89648 41.1272Z" fill="#E21F5A"/>
<path d="M54.8016 18.2197C57.8781 20.0156 60.4716 21.7273 62.7589 24.5108C66.8792 29.5251 68.7305 34.4926 69.2149 41.0043C69.2466 48.4715 66.5364 55.4523 61.2472 60.7958C56.2617 65.8327 41.5051 78.7506 34.4644 78.8389L34.4453 73.3049C34.4479 72.862 34.4062 72.371 34.5831 71.9562C33.3319 72.0647 31.8861 71.3529 31.1937 70.3226L31.1534 70.2606C30.617 69.4476 32.275 64.4582 34.4454 61.5324C35.8192 59.6803 38.5996 57.5629 38.7325 57.4718L38.7762 57.441C39.2493 57.12 39.6754 56.5652 40.0715 56.1448L41.7344 54.3153C42.4896 53.4944 43.247 52.6837 43.9203 51.7923L45.2575 49.7633C45.3658 49.5849 45.4901 49.2954 45.6945 49.2368L45.7547 49.3788L45.7543 48.9198C45.9937 48.7234 46.1952 48.4587 46.3679 48.2014L49.5492 42.8312C52.5095 36.8787 54.1976 30.3287 54.7139 23.7136C54.8113 22.4663 54.7508 21.1813 54.7482 19.9295L54.7423 18.9123C54.7401 18.6778 54.7173 18.4432 54.8016 18.2197Z" fill="#F4CED9"/>
<path d="M81.3006 41.0383C81.2937 42.0881 81.3215 43.2072 81.2478 44.3153L81.1171 45.5261C80.5113 51.8139 78.5195 57.9392 75.0422 63.2383C68.1501 73.7414 56.6055 80.664 43.957 81.2415L40.6835 81.2711C19.8912 81.198 2.7004 62.635 2.84576 42.129C2.84803 41.8089 2.82602 41.4486 2.88785 41.1341L14.996 41.0395C14.9671 41.8974 14.9716 42.773 15.0421 43.617L15.1666 44.6092C16.4364 56.3565 25.1718 66.0403 36.8855 68.2457C37.9562 68.4473 39.0648 68.6346 40.1548 68.6718L42.2575 68.6577C49.2981 68.5606 56.2614 65.8327 61.2469 60.7959C66.5361 55.4523 69.2463 48.4716 69.2124 41.0044L80.08 41.03C80.473 41.0286 80.9123 40.9893 81.3006 41.0383Z" fill="#FF70A6"/>
<path d="M41.7931 24.053L44.9639 24.0606C50.8899 24.1937 56.0113 28.4445 56.7 34.4514C57.4367 40.8755 53.1546 46.5452 46.7356 47.5391C45.4141 47.7438 44.0972 47.749 42.7638 47.7531L38.8034 47.7625C38.6431 47.7627 38.0051 47.7152 37.9082 47.8059L37.8958 48.4617C37.9177 49.6356 38.2866 49.1761 39.6896 49.1775L44.1844 49.1859C45.0742 49.1892 46.1215 49.1108 46.9915 49.293C49.1655 49.7484 49.1995 52.7079 47.1688 53.3287C46.7392 53.4601 46.2003 53.4114 45.7542 53.413L43.4117 53.4163L37.8585 53.42L37.9467 57.6199C38.0751 59.6916 36.0434 61.3761 34.3262 59.5876C33.3993 58.6221 33.4976 57.3747 33.5172 56.1388L33.6012 53.4331C32.3671 53.3525 30.9368 53.7176 29.955 52.767C29.1209 51.9593 29.3659 50.671 30.137 49.9052C31.117 48.9327 32.438 49.1227 33.6999 49.1268L33.5516 47.7457C32.8061 47.7471 31.8092 47.8554 31.1057 47.612L31.0244 47.5827C29.4704 47.0381 28.479 45.4695 29.858 44.1635C30.8956 43.1812 32.2365 43.4799 33.5332 43.5208L33.5303 27.4802C33.535 23.8009 34.4285 24.0662 37.5 24.0594L41.7931 24.053Z" fill="#E21F5A"/>
<path d="M42.5803 28.4323C44.4912 28.4248 46.4241 28.2384 48.2084 29.0306C54.2384 31.7078 53.7052 40.2898 47.2419 42.5012C45.5057 42.9853 43.7464 42.9208 41.9602 42.9214L37.9272 42.9075L37.9111 28.5058C38.2228 28.343 41.93 28.4325 42.5803 28.4323Z" fill="#F7F7F7"/>
<path d="M12.4538 33.8633C10.8379 34.4661 9.2011 33.0967 9.6952 31.4443C12.0018 23.7305 17.256 17.3352 24.3388 13.2317L26.0341 12.2832C30.9372 9.79211 36.621 8.70699 42.11 9.03734C42.4332 9.05679 42.7451 9.05083 43.0683 9.09164L43.5624 9.1647C44.6719 9.32878 45.2739 10.5527 44.7265 11.5316C44.4395 12.0451 43.894 12.3596 43.3058 12.3529C33.7305 12.2449 29.7828 12.6443 23.366 17.6743C18.0959 21.8054 15.1046 26.7118 13.916 32.1335C13.7439 32.9184 13.2066 33.5824 12.4538 33.8633Z" fill="#FFD9E4"/>
</svg>
