<svg width="84" height="84" viewBox="0 0 84 84" fill="none" xmlns="http://www.w3.org/2000/svg">
<path d="M54.3157 18.2202C57.3922 20.0161 59.9857 21.7278 62.2731 24.5113C66.3934 29.5256 68.2446 34.4931 68.7291 41.0048C68.7608 48.472 66.0506 55.4528 60.7614 60.7963C55.7758 65.8332 41.0192 78.7511 33.9786 78.8394L33.9595 73.3054C33.962 72.8625 33.9203 72.3715 34.0972 71.9566C32.846 72.0652 31.4002 71.3534 30.7078 70.323L30.6676 70.261C30.1312 69.4481 31.7892 64.4587 33.9595 61.5329C35.3334 59.6808 38.1138 57.5634 38.2467 57.4723L38.2903 57.4415C38.7635 57.1204 39.1895 56.5657 39.5857 56.1453L41.2485 54.3158C42.0037 53.4949 42.7612 52.6842 43.4345 51.7928L44.7717 49.7638C44.8799 49.5854 45.0043 49.2959 45.2086 49.2373L45.2688 49.3793L45.2685 48.9203C45.5079 48.7239 45.7093 48.4592 45.882 48.2019L49.0634 42.8317C52.0237 36.8792 53.7118 30.3292 54.2281 23.7141C54.3255 22.4668 54.2649 21.1818 54.2623 19.9299L54.2565 18.9128C54.2542 18.6782 54.2315 18.4437 54.3157 18.2202Z" fill="#F4CED9"/>
<path d="M2.41016 41.1277C2.55802 29.3417 8.07948 18.6852 17.1444 11.3362L19.023 9.85948C24.5024 5.89736 31.1871 3.50966 37.8975 2.88994C38.2925 2.85345 38.6692 2.788 39.0683 2.77763L42.5262 2.76196C58.4909 2.82643 72.9561 13.5249 78.3712 28.4516C79.827 32.464 80.7076 36.7071 80.8138 40.9783C80.4268 40.9895 79.9875 41.0288 79.5945 41.0303L68.7292 41.0301C68.2447 34.4929 66.3934 29.5254 62.2731 24.5112C59.9858 21.7276 57.3923 20.0159 54.3275 18.22C52.9855 17.4093 51.511 16.8178 50.0233 16.3348C40.6321 13.2855 31.2618 15.4438 23.7809 21.7348C18.1191 26.4963 14.6093 33.6155 14.5152 41.0517L2.41016 41.1277Z" fill="#E21F5A"/>
<path d="M80.8152 41.0388C80.8084 42.0886 80.8361 43.2077 80.7625 44.3158L80.6318 45.5265C80.0259 51.8144 78.0341 57.9397 74.5569 63.2388C67.6647 73.7419 56.1201 80.6645 43.4716 81.242L40.1981 81.2716C19.4058 81.1985 2.21505 62.6355 2.36041 42.1295C2.36268 41.8094 2.34067 41.4491 2.40249 41.1346L14.5107 41.0399C14.4817 41.8979 14.4862 42.7735 14.5568 43.6175L14.6812 44.6097C15.951 56.357 24.6864 66.0408 36.4002 68.2462C37.4709 68.4478 38.5794 68.6351 39.6695 68.6723L41.7721 68.6582C48.8128 68.5611 55.776 65.8332 60.7616 60.7964C66.0508 55.4528 68.7609 48.4721 68.727 41.0049L79.5947 41.0305C79.9876 41.0291 80.427 40.9898 80.8152 41.0388Z" fill="#FF70A6"/>
<path d="M36.9183 51.5533L34.5034 47.3637C32.2531 43.2135 29.5964 38.5261 30.7951 33.6536C31.8644 29.3076 35.2932 25.6917 39.6472 24.5515C48.4575 22.2441 56.9063 29.9318 54.7662 39.0421C53.8511 42.9369 51.4931 46.7878 49.4738 50.1811L45.9035 55.6933C45.2623 56.6435 44.6116 58.0394 43.3644 58.2839C41.2606 58.6962 39.9768 56.2945 39.05 54.8377L37.2151 51.9812C37.1646 51.9068 36.9848 51.5885 36.9183 51.5533ZM42.2165 30.712C41.5631 30.7914 40.9659 30.9508 40.377 31.2498L40.3154 31.2805C35.8149 33.5559 37.1474 41.6061 43.5914 41.0709C45.1226 40.7922 46.2628 40.062 47.1535 38.7717C49.6721 35.1228 46.6849 30.2251 42.2165 30.712Z" fill="#E21F5A"/>
<path d="M11.9674 33.8635C10.3515 34.4663 8.71478 33.0969 9.20887 31.4445C11.5155 23.7307 16.7697 17.3355 23.8524 13.232L25.5478 12.2834C30.4509 9.79236 36.1346 8.70723 41.6237 9.03758C41.9469 9.05703 42.2588 9.05108 42.582 9.09188L43.0761 9.16495C44.1856 9.32902 44.7875 10.5529 44.2402 11.5319C43.9531 12.0453 43.4077 12.3598 42.8195 12.3532C33.2442 12.2451 29.2965 12.6446 22.8796 17.6746C17.6095 21.8056 14.6183 26.712 13.4297 32.1337C13.2576 32.9187 12.7203 33.5826 11.9674 33.8635Z" fill="#FFD9E4"/>
</svg>
