<svg width="84" height="84" viewBox="0 0 84 84" fill="none" xmlns="http://www.w3.org/2000/svg">
<path d="M40.8873 2.77795L40.8947 2.76824C44.0647 2.64791 45.6285 3.85955 48.1198 5.5653C51.4045 7.81446 54.0355 8.52757 57.8083 9.57616C67.2246 12.1932 71.013 15.2533 73.7856 24.896C74.7643 28.3 75.7617 31.718 77.6225 34.7682C78.2101 35.7314 78.9339 36.5989 79.5371 37.5513C80.9308 39.7526 81.3583 42.5427 80.4072 44.9925C79.9047 46.2872 78.9573 47.2925 78.2055 48.4392C75.3473 52.7979 74.5162 57.5869 72.7133 62.3709C69.5738 70.7014 64.8398 72.185 57.1289 74.5353C54.6235 75.299 51.1479 76.39 48.9485 77.88C46.7325 79.3811 45.4593 80.9574 42.4532 81.2369C38.7455 81.3802 36.9471 79.7686 34.0149 77.8964C30.8326 75.8645 27.1022 75.0081 23.5344 73.9218C14.5884 71.1979 11.7905 67.4311 9.24947 59.067L7.62266 54.0988C6.99311 52.3862 6.286 50.755 5.31533 49.2025C3.04109 45.5651 1.17916 43.3107 2.84059 38.8447C3.32848 37.5333 4.24768 36.5495 5.01847 35.414C7.16764 32.2481 8.02054 29.4712 9.0622 25.8533C11.6952 16.7083 14.5066 12.7804 23.9418 9.9817L27.2882 9.06055C29.9763 8.26321 32.5347 7.14069 34.8784 5.5944C37.0509 4.16103 38.2251 3.04298 40.8873 2.77795Z" fill="#FF70A6"/>
<path d="M40.4731 13.9697L40.779 13.9572C47.4832 13.9099 52.8068 15.3775 58.3892 19.3592C66.6638 25.2612 70.9928 36.0161 69.6663 46.0302C67.9214 59.204 55.981 70.3 42.5949 70.3729C41.7924 70.3787 40.9731 70.4028 40.172 70.3557C31.2231 69.8302 24.144 66.0828 18.8928 58.9755C18.2163 58.0598 17.5318 57.1392 16.9568 56.1549C13.3937 50.0586 12.3897 42.5546 13.9983 35.7098C15.2325 30.4584 17.3663 26.6519 20.9997 22.6032C25.9836 17.0494 33.1643 14.3695 40.4731 13.9697Z" fill="#E21F5A"/>
<path d="M40.8576 19.4548L40.8766 19.453L40.8954 19.4502L40.9082 19.4483C42.5642 19.3268 43.8036 19.857 44.6597 20.6919C45.5327 21.5434 46.0461 22.7516 46.1468 24.0204C46.2476 25.2893 45.9318 26.5716 45.2083 27.5627C44.495 28.5398 43.3592 29.2722 41.7246 29.4257L41.7143 29.4267L41.7039 29.428L41.64 29.4359C38.325 29.8211 35.6686 26.5481 36.3434 23.1875L36.3434 23.1874C36.7532 21.1462 38.747 19.6526 40.8576 19.4548Z" fill="#FAFAFA" stroke="#E21F5A" stroke-width="1.38501"/>
<path d="M33.0718 18.437L33.1317 18.4299C34.883 18.2369 35.8351 19.5035 36.0084 21.1227C36.2428 23.3119 31.8638 26.4783 30.3847 27.895C28.2963 29.8953 24.2517 34.6106 21.5355 35.4078L21.3558 35.4434C21.008 35.5125 20.606 35.5521 20.256 35.4846L20.2065 35.4742C15.6427 34.5819 21.4344 26.6687 23.2364 24.6295C25.4336 22.1433 29.6545 19.0309 33.0718 18.437Z" fill="#FFD9E4"/>
<path d="M40.7744 35.1892L40.7346 35.1944C38.7398 35.4564 37.0892 36.9913 36.8581 38.9671L36.8581 38.9672C36.825 39.2502 36.8279 39.5359 36.8312 39.8635C36.8324 39.9737 36.8335 40.0886 36.8334 40.2097M40.7744 35.1892L36.1409 40.2094M40.7744 35.1892L40.795 35.184L40.7744 35.1892ZM36.8334 40.2097C36.8334 40.2099 36.8334 40.2101 36.8334 40.2102L36.1409 40.2094M36.8334 40.2097L36.8334 40.2093L36.1409 40.2094M36.8334 40.2097L36.8389 60.1351L36.1464 60.1357M36.1409 40.2094L36.1464 60.1357M36.1464 60.1357L36.8389 60.1355M36.1464 60.1357L36.8389 60.1355M36.8389 60.1355C36.8397 61.1881 36.8756 62.0564 37.1081 62.8208C37.3314 63.5549 37.744 64.2146 38.5567 64.8203C38.9818 65.137 39.6287 65.4203 40.3358 65.5865C40.9961 65.7417 41.64 65.7787 42.1366 65.689M36.8389 60.1355L38.1429 65.3755C39.1838 66.1512 41.1081 66.6381 42.4002 66.3418M42.1366 65.689L42.0426 65.7486L42.0297 65.7567L42.4002 66.3418M42.1366 65.689C42.1737 65.6823 42.21 65.6749 42.2454 65.6668L42.39 66.2973L42.4002 66.3418M42.1366 65.689L42.1559 65.6768L42.2877 65.6526C44.2749 65.287 45.9762 63.9145 46.2 61.9999L46.2 61.9998C46.2302 61.7417 46.2283 61.4767 46.2261 61.1718C46.2255 61.0785 46.2248 60.9815 46.225 60.8797L46.225 60.882L46.9175 60.8789L46.225 60.8774L42.413 66.3336L42.4002 66.3418" fill="#FAFAFA" stroke="#E21F5A" stroke-width="1.38501"/>
</svg>
