<svg width="84" height="84" viewBox="0 0 84 84" fill="none" xmlns="http://www.w3.org/2000/svg">
<path d="M41.4 2.77795L41.4074 2.76824C44.5774 2.64791 46.1412 3.85955 48.6325 5.5653C51.9172 7.81446 54.5482 8.52757 58.321 9.57616C67.7373 12.1932 71.5257 15.2533 74.2983 24.896C75.277 28.3 76.2744 31.718 78.1352 34.7682C78.7228 35.7314 79.4466 36.5989 80.0498 37.5513C81.4435 39.7526 81.871 42.5427 80.9199 44.9925C80.4174 46.2872 79.47 47.2925 78.7182 48.4392C75.86 52.7979 75.0288 57.5869 73.226 62.3709C70.0865 70.7014 65.3525 72.185 57.6416 74.5353C55.1362 75.299 51.6606 76.39 49.4612 77.88C47.2452 79.3811 45.972 80.9574 42.9659 81.2369C39.2582 81.3802 37.4598 79.7686 34.5276 77.8964C31.3453 75.8645 27.6149 75.0081 24.0471 73.9218C15.1011 71.1979 12.3032 67.4311 9.76216 59.067L8.13536 54.0988C7.50581 52.3862 6.79869 50.755 5.82803 49.2025C3.55379 45.5651 1.69186 43.3107 3.35329 38.8447C3.84118 37.5333 4.76038 36.5495 5.53117 35.414C7.68034 32.2481 8.53323 29.4712 9.57489 25.8533C12.2079 16.7083 15.0193 12.7804 24.4545 9.9817L27.8009 9.06055C30.489 8.26321 33.0474 7.14069 35.3911 5.5944C37.5636 4.16103 38.7378 3.04298 41.4 2.77795Z" fill="#FF70A6"/>
<path d="M40.9867 13.9697L41.2927 13.9572C47.9969 13.9099 53.3205 15.3775 58.9028 19.3592C67.1775 25.2612 71.5065 36.0161 70.18 46.0302C68.435 59.204 56.4947 70.3 43.1086 70.3729C42.3061 70.3787 41.4868 70.4028 40.6857 70.3557C31.7368 69.8302 24.6577 66.0828 19.4064 58.9755C18.73 58.0598 18.0455 57.1392 17.4705 56.1549C13.9074 50.0586 12.9034 42.5546 14.512 35.7098C15.7462 30.4584 17.88 26.6519 21.5133 22.6032C26.4972 17.0494 33.678 14.3695 40.9867 13.9697Z" fill="#E21F5A"/>
<path d="M33.5855 18.437L33.6454 18.4299C35.3967 18.2369 36.3487 19.5035 36.5221 21.1227C36.7565 23.3119 32.3775 26.4783 30.8984 27.895C28.81 29.8953 24.7653 34.6106 22.0491 35.4078L21.8695 35.4434C21.5217 35.5125 21.1196 35.5521 20.7697 35.4846L20.7202 35.4742C16.1564 34.5819 21.948 26.6687 23.7501 24.6295C25.9472 22.1433 30.1682 19.0309 33.5855 18.437Z" fill="#FFD9E4"/>
<path d="M41.497 23.8914L44.8249 23.8993C51.0445 24.0391 56.4196 28.5004 57.1425 34.8049C57.9157 41.5473 53.4214 47.4977 46.6843 48.541C45.2974 48.7558 43.9152 48.7612 42.5158 48.7655L38.3592 48.7754C38.1909 48.7756 37.5213 48.7257 37.4197 48.8209L37.4066 49.5092C37.4296 50.7413 37.8168 50.259 39.2892 50.2605L44.0068 50.2693C44.9407 50.2727 46.0399 50.1905 46.9529 50.3817C49.2347 50.8597 49.2703 53.9657 47.139 54.6173C46.6882 54.7553 46.1226 54.7041 45.6544 54.7058L43.1958 54.7093L37.3675 54.7131L37.4601 59.1211C37.5948 61.2954 35.4624 63.0633 33.6601 61.1863C32.6873 60.1729 32.7905 58.8637 32.8111 57.5666L32.8992 54.7269C31.604 54.6423 30.1028 55.0255 29.0724 54.0278C28.1969 53.1801 28.4541 51.8279 29.2634 51.0242C30.2919 50.0036 31.6784 50.2029 33.0028 50.2072L32.8472 48.7577C32.0648 48.7592 31.0185 48.8729 30.2801 48.6174L30.1948 48.5867C28.5637 48.0151 27.5232 46.3688 28.9705 44.9981C30.0596 43.9671 31.4669 44.2806 32.8279 44.3236L32.8248 27.4883C32.8298 23.6268 33.7676 23.9053 36.9912 23.8981L41.497 23.8914Z" fill="white"/>
<path d="M42.3234 28.4878C44.3289 28.4798 46.3576 28.2842 48.2303 29.1156C54.5591 31.9255 53.9994 40.9326 47.2159 43.2535C45.3937 43.7616 43.5472 43.6939 41.6725 43.6945L37.4397 43.68L37.4229 28.5648C37.75 28.394 41.6408 28.488 42.3234 28.4878Z" fill="#E21F5A"/>
</svg>
