<svg width="84" height="84" viewBox="0 0 84 84" fill="none" xmlns="http://www.w3.org/2000/svg">
<path d="M41.4273 2.77795L41.4348 2.76824C44.6048 2.64791 46.1686 3.85955 48.6598 5.5653C51.9445 7.81446 54.5755 8.52757 58.3483 9.57616C67.7646 12.1932 71.553 15.2533 74.3257 24.896C75.3044 28.3 76.3017 31.718 78.1626 34.7682C78.7501 35.7314 79.474 36.5989 80.0771 37.5513C81.4708 39.7526 81.8983 42.5427 80.9472 44.9925C80.4447 46.2872 79.4974 47.2925 78.7456 48.4392C75.8874 52.7979 75.0562 57.5869 73.2533 62.3709C70.1138 70.7014 65.3799 72.185 57.6689 74.5353C55.1636 75.299 51.6879 76.39 49.4885 77.88C47.2726 79.3811 45.9993 80.9574 42.9932 81.2369C39.2855 81.3802 37.4872 79.7686 34.555 77.8964C31.3727 75.8645 27.6422 75.0081 24.0744 73.9218C15.1284 71.1979 12.3305 67.4311 9.78951 59.067L8.1627 54.0988C7.53315 52.3862 6.82604 50.755 5.85537 49.2025C3.58113 45.5651 1.7192 43.3107 3.38063 38.8447C3.86852 37.5333 4.78772 36.5495 5.55851 35.414C7.70768 32.2481 8.56058 29.4712 9.60224 25.8533C12.2352 16.7083 15.0466 12.7804 24.4818 9.9817L27.8282 9.06055C30.5163 8.26321 33.0748 7.14069 35.4184 5.5944C37.5909 4.16103 38.7652 3.04298 41.4273 2.77795Z" fill="#FF70A6"/>
<path d="M41.0136 13.9697L41.3195 13.9572C48.0237 13.9099 53.3474 15.3775 58.9297 19.3592C67.2043 25.2612 71.5333 36.0161 70.2068 46.0302C68.4619 59.204 56.5216 70.3 43.1354 70.3729C42.333 70.3787 41.5137 70.4028 40.7125 70.3557C31.7636 69.8302 24.6845 66.0828 19.4333 58.9755C18.7568 58.0598 18.0724 57.1392 17.4973 56.1549C13.9342 50.0586 12.9302 42.5546 14.5388 35.7098C15.773 30.4584 17.9068 26.6519 21.5402 22.6032C26.5241 17.0494 33.7048 14.3695 41.0136 13.9697Z" fill="#E21F5A"/>
<path d="M33.6124 18.437L33.6722 18.4299C35.4235 18.2369 36.3756 19.5035 36.5489 21.1227C36.7833 23.3119 32.4043 26.4783 30.9252 27.895C28.8368 29.8953 24.7922 34.6106 22.076 35.4078L21.8963 35.4434C21.5485 35.5125 21.1465 35.5521 20.7966 35.4846L20.747 35.4742C16.1832 34.5819 21.9749 26.6687 23.777 24.6295C25.9741 22.1433 30.195 19.0309 33.6124 18.437Z" fill="#FFD9E4"/>
<g clip-path="url(#clip0_9_5238)">
<path d="M35.6732 50.097C35.4586 50.0295 35.1711 50.0632 34.9486 50.0637L33.4747 50.0669C33.1401 50.0676 32.7865 50.0859 32.4561 50.0295C31.3954 49.8482 30.5471 48.8904 30.2205 47.9126C30.023 47.321 30.0792 46.6748 30.079 46.0589L30.0878 33.7459C30.348 27.0205 35.9604 20.9695 42.9174 21.321C49.303 21.6437 54.224 27.0586 54.6875 33.3498C54.7465 34.1517 54.7012 34.9855 54.701 35.7903L54.706 46.5134C54.707 46.7846 54.7194 47.0626 54.6991 47.3329C54.6107 48.5086 53.5202 49.642 52.4135 49.916C52.0399 50.0084 51.6721 50.0033 51.2905 50.0015L49.5257 49.9881C49.3834 49.9944 49.2345 49.9905 49.0983 50.0366L49.0779 50.0442C48.7029 50.076 48.2944 49.9383 47.9131 49.9282L47.799 48.7292L47.9026 46.991C47.4091 47.3505 46.963 47.7475 46.4367 48.0613C43.8989 49.5741 39.3589 49.6777 37.3214 47.2044L37.0097 46.9019L37.0142 48.2307C37.0146 48.3989 37.0413 48.6201 37.0119 48.7824L37.0076 49.535C37.0054 49.6937 37.0181 49.8813 36.969 50.0325L35.6732 50.097Z" fill="#FF70A6"/>
<path d="M37.0096 46.9021C36.7375 46.3829 36.2881 45.9252 35.951 45.4418C34.9774 44.0455 34.3878 42.3053 34.2896 40.6103L34.1486 40.642C32.8714 40.9022 32.1793 38.8999 31.9992 37.9686C31.8634 37.2671 31.9446 36.4626 32.0883 35.7718C32.3968 34.2885 32.9289 34.1039 34.0767 34.9133C34.7283 34.713 35.4126 34.7021 36.0856 34.6269C38.5111 34.3555 40.5305 33.6691 42.5493 32.2306C42.8655 32.0053 44.9094 30.4604 45.1774 30.5587C45.2701 30.5927 45.4904 31.0546 45.5544 31.155C46.3452 32.396 46.9974 32.5258 48.2784 32.5619C49.6574 32.6007 50.3544 33.8362 50.6513 35.0587C51.2226 34.4896 51.6222 34.064 52.3087 34.7902C53.5271 36.0794 53.1515 39.0562 51.9218 40.2051C51.4779 40.6198 51.0758 40.5662 50.5156 40.5477C50.5036 42.3038 49.855 44.0094 48.9192 45.4778C48.5928 45.99 48.2057 46.4654 47.9016 46.9912C47.409 47.3507 46.963 47.7477 46.4366 48.0615C43.8989 49.5743 39.3589 49.6779 37.3214 47.2046L37.0096 46.9021Z" fill="#F8F8F8"/>
<path d="M37.3213 47.2046C37.4901 47.1978 37.6358 47.2901 37.7789 47.3688L38.3535 47.6868C39.5866 48.3203 41.4597 48.4683 42.8146 48.1587C45.2831 47.5946 47.3782 45.3266 48.6015 43.1841C48.9476 42.5779 49.6806 40.5183 50.5154 40.542C50.5035 42.3037 49.8549 44.0093 48.9191 45.4778C48.5927 45.9899 48.2056 46.4654 47.9014 46.9911C47.4089 47.3506 46.9628 47.7477 46.4365 48.0614C43.8987 49.5743 39.3588 49.6779 37.3213 47.2046Z" fill="#D3D2D2"/>
<path d="M37.0114 46.9021L37.3216 47.2046C39.359 49.6779 43.899 49.5743 46.4368 48.0614C46.9631 47.7477 47.4092 47.3506 47.9017 46.9911L47.8036 48.7294L47.9132 49.9283C48.2945 49.9385 48.703 50.0761 49.078 50.0544C50.8482 50.4208 52.5131 51.1611 54.1099 51.9925L55.7866 52.899C59.9012 54.999 63.53 56.5435 64.9304 61.3742C65.513 63.3839 65.1886 63.9958 63.23 64.9725C62.3695 65.4017 61.4762 65.762 60.5691 66.0802L56.4515 67.3783C54.0536 68.0178 51.5447 69.6874 49.078 69.9425L44.5366 70.6283L40.0129 70.635C38.9608 70.6265 37.9603 70.1518 36.9194 70.0596L33.0389 69.6252L28.2542 67.3715L25.1546 66.3972C24.0525 66.0122 22.9783 65.6118 21.918 65.1211C20.984 64.689 19.7774 64.2526 19.6218 63.0968L19.6153 63.0531C19.4883 62.1549 20.1374 60.4394 20.5435 59.6381C22.3187 56.1346 25.3665 54.7697 28.6525 53.0967C30.6398 52.0849 33.4409 50.3936 35.6734 50.0972L36.9663 50.0327C37.0183 49.8814 37.0056 49.6939 37.0077 49.5351L37.0221 48.7825C37.0414 48.6202 37.0147 48.3991 37.0143 48.2308L37.0114 46.9021Z" fill="#FFE7EE"/>
<path d="M37.011 46.9021L37.3212 47.2046C39.3587 49.6779 43.8987 49.5743 46.4364 48.0614C46.9628 47.7477 47.4088 47.3506 47.9014 46.9911L47.8032 48.7294L47.9129 49.9283C47.9263 50.2694 47.9149 50.6709 48.0469 50.9894C48.6878 51.4909 49.2929 51.7285 49.0028 52.6339C48.2613 54.9486 45.6111 56.3901 43.334 56.6392C40.4582 56.9537 37.4294 55.5804 36.0182 53.0149C35.6736 52.3885 35.5568 51.6177 36.3488 51.239L36.7953 51.2996C36.8948 50.8861 36.9306 50.4561 36.966 50.0327C37.0179 49.8814 37.0052 49.6939 37.0074 49.5351L37.0218 48.7825C37.0411 48.6202 37.0144 48.3991 37.014 48.2308L37.011 46.9021Z" fill="#F8F8F8"/>
<path d="M37.0112 46.9019L37.3214 47.2044C39.3589 49.6777 43.8989 49.574 46.4367 48.0612C46.963 47.7475 47.4091 47.3504 47.9016 46.9909L47.8035 48.7291C46.9871 49.7757 44.288 50.5483 43.0797 50.6988C40.8105 50.9814 38.9073 49.8809 37.0278 48.7823C37.0413 48.62 37.0146 48.3988 37.0142 48.2306L37.0112 46.9019Z" fill="#F5F5F5"/>
</g>
<path fill-rule="evenodd" clip-rule="evenodd" d="M41.4328 2.76434L41.4254 2.77404C39.2031 2.99528 38.0176 3.81094 36.4228 4.90822C36.1072 5.12542 35.7755 5.35365 35.4165 5.5905C33.0728 7.13678 30.5144 8.2593 27.8263 9.05664L24.4799 9.97779C15.0447 12.7765 12.2333 16.7044 9.60029 25.8494C8.55863 29.4673 7.70573 32.2442 5.55656 35.4101C5.34148 35.727 5.11484 36.032 4.88925 36.3356C4.30637 37.1201 3.73043 37.8953 3.37868 38.8408C1.86122 42.9198 3.28295 45.1539 5.27352 48.2819C5.46237 48.5786 5.65635 48.8834 5.85342 49.1986C6.82408 50.7511 7.5312 52.3823 8.16075 54.0949L9.78755 59.0631C12.3285 67.4272 15.1265 71.1939 24.0725 73.9179C24.6861 74.1047 25.3045 74.2848 25.9241 74.4651C28.9072 75.3335 31.918 76.21 34.553 77.8924C34.9625 78.1539 35.3498 78.4102 35.7233 78.6574C38.0247 80.1805 39.8013 81.3563 42.9913 81.233C45.2984 81.0185 46.5849 80.0401 48.0602 78.9181C48.5071 78.5782 48.9714 78.2251 49.4866 77.8761C51.686 76.3861 55.1616 75.2951 57.6669 74.5314C65.3779 72.1811 70.1119 70.6974 73.2514 62.367C73.811 60.8819 74.2771 59.3963 74.7392 57.9233C75.7656 54.6512 76.7727 51.4409 78.7436 48.4353C78.9789 48.0765 79.2333 47.7315 79.4872 47.3871C80.0448 46.6311 80.6 45.8781 80.9453 44.9886C81.8964 42.5388 81.4689 39.7487 80.0752 37.5474C79.7917 37.0998 79.4817 36.671 79.1716 36.2422C78.8218 35.7585 78.4721 35.2749 78.1606 34.7643C76.2998 31.7141 75.3024 28.2961 74.3237 24.8921C71.551 15.2494 67.7627 12.1893 58.3464 9.57225L58.1968 9.5307C54.5037 8.50447 51.899 7.78072 48.6579 5.56139C48.519 5.4663 48.383 5.37274 48.2494 5.28086C45.9873 3.72469 44.4261 2.65071 41.4328 2.76434ZM41.3176 13.953L41.0117 13.9656C33.7029 14.3653 26.5222 17.0453 21.5383 22.599C17.9049 26.6477 15.7711 30.4543 14.5369 35.7057C12.9283 42.5504 13.9323 50.0545 17.4954 56.1508C18.0548 57.1083 18.7178 58.0056 19.3763 58.8968L19.4314 58.9713C24.6826 66.0787 31.7617 69.826 40.7106 70.3516C41.3495 70.3891 42.0001 70.3814 42.6444 70.3738C42.8079 70.3719 42.971 70.3699 43.1335 70.3688C56.5196 70.2959 68.4599 59.1999 70.2049 46.026C71.5314 36.0119 67.2024 25.2571 58.9277 19.355C53.3454 15.3734 48.0218 13.9058 41.3176 13.953Z" fill="#FF70A6"/>
<defs>
<clipPath id="clip0_9_5238">
<rect width="50.4835" height="50.4835" fill="white" transform="translate(17.1602 20.0825)"/>
</clipPath>
</defs>
</svg>
