<svg width="84" height="84" viewBox="0 0 84 84" fill="none" xmlns="http://www.w3.org/2000/svg">
<path d="M40.9141 2.77819L40.9216 2.76849C44.0916 2.64815 45.6554 3.8598 48.1466 5.56554C51.4314 7.81471 54.0623 8.52781 57.8351 9.5764C67.2514 12.1935 71.0398 15.2536 73.8125 24.8963C74.7912 28.3003 75.7885 31.7183 77.6494 34.7685C78.2369 35.7316 78.9608 36.5991 79.5639 37.5515C80.9576 39.7529 81.3852 42.5429 80.434 44.9927C79.9315 46.2875 78.9842 47.2928 78.2324 48.4395C75.3742 52.7982 74.543 57.5872 72.7401 62.3711C69.6006 70.7016 64.8667 72.1852 57.1557 74.5356C54.6504 75.2992 51.1748 76.3903 48.9754 77.8802C46.7594 79.3814 45.4861 80.9577 42.4801 81.2372C38.7723 81.3805 36.974 79.7688 34.0418 77.8966C30.8595 75.8647 27.129 75.0084 23.5612 73.9221C14.6152 71.1981 11.8173 67.4313 9.27632 59.0672L7.64952 54.0991C7.01997 52.3864 6.31285 50.7552 5.34219 49.2028C3.06795 45.5654 1.20602 43.3109 2.86745 38.8449C3.35534 37.5335 4.27454 36.5498 5.04533 35.4143C7.1945 32.2484 8.04739 29.4715 9.08906 25.8535C11.722 16.7085 14.5335 12.7806 23.9686 9.98194L27.315 9.06079C30.0031 8.26345 32.5616 7.14093 34.9053 5.59465C37.0777 4.16128 38.252 3.04322 40.9141 2.77819Z" fill="#FF70A6"/>
<path d="M40.5004 13.9697L40.8064 13.9572C47.5105 13.9099 52.8342 15.3775 58.4165 19.3592C66.6912 25.2612 71.0202 36.0161 69.6936 46.0302C67.9487 59.204 56.0084 70.3 42.6222 70.3729C41.8198 70.3787 41.0005 70.4028 40.1993 70.3557C31.2505 69.8302 24.1714 66.0828 18.9201 58.9755C18.2436 58.0598 17.5592 57.1392 16.9841 56.1549C13.421 50.0586 12.417 42.5546 14.0257 35.7098C15.2598 30.4584 17.3936 26.6519 21.027 22.6032C26.0109 17.0494 33.1916 14.3695 40.5004 13.9697Z" fill="#E21F5A"/>
<path d="M33.0992 18.437L33.1591 18.4299C34.9103 18.2369 35.8624 19.5035 36.0358 21.1227C36.2701 23.3119 31.8911 26.4783 30.412 27.895C28.3237 29.8953 24.279 34.6106 21.5628 35.4078L21.3831 35.4434C21.0353 35.5125 20.6333 35.5521 20.2834 35.4846L20.2339 35.4742C15.6701 34.5819 21.4617 26.6687 23.2638 24.6295C25.4609 22.1433 29.6818 19.0309 33.0992 18.437Z" fill="#FFD9E4"/>
<path d="M36.33 52.6849L33.6735 48.0764C31.1982 43.5112 28.2758 38.355 29.5945 32.9953C30.7706 28.2147 34.5423 24.2372 39.3317 22.983C49.023 20.4449 58.3166 28.9013 55.9625 38.9227C54.956 43.2069 52.3622 47.4429 50.1409 51.1755L46.2136 57.2389C45.5083 58.2842 44.7926 59.8196 43.4207 60.0886C41.1064 60.5421 39.6942 57.9003 38.6748 56.2978L36.6564 53.1556C36.6009 53.0738 36.403 52.7237 36.33 52.6849ZM42.1579 29.7596C41.4393 29.8469 40.7823 30.0222 40.1344 30.3511L40.0668 30.3849C35.1162 32.8879 36.582 41.743 43.6704 41.1544C45.3546 40.8478 46.6089 40.0445 47.5886 38.6252C50.359 34.6115 47.0732 29.2239 42.1579 29.7596Z" fill="white"/>
</svg>
