<svg width="84" height="84" viewBox="0 0 84 84" fill="none" xmlns="http://www.w3.org/2000/svg">
<path d="M2.38281 41.1277C2.53067 29.3417 8.05214 18.6852 17.1171 11.3362L18.9956 9.85948C24.475 5.89736 31.1598 3.50966 37.8701 2.88994C38.2652 2.85345 38.6419 2.788 39.041 2.77763L42.4989 2.76196C58.4636 2.82643 72.9287 13.5249 78.3439 28.4516C79.7996 32.464 80.6803 36.7071 80.7864 40.9783C80.3995 40.9895 79.9601 41.0288 79.5672 41.0303L68.7018 41.0301C68.2173 34.4929 66.3661 29.5254 62.2458 24.5112C59.9584 21.7276 57.3649 20.0159 54.3001 18.22C52.9582 17.4093 51.4836 16.8178 49.996 16.3348C40.6048 13.2855 31.2344 15.4438 23.7536 21.7348C18.0917 26.4963 14.582 33.6155 14.4878 41.0517L2.38281 41.1277Z" fill="#E21F5A"/>
<path d="M80.7879 41.0388C80.781 42.0886 80.8088 43.2077 80.7351 44.3158L80.6045 45.5265C79.9986 51.8144 78.0068 57.9397 74.5295 63.2388C67.6374 73.7419 56.0928 80.6645 43.4443 81.242L40.1708 81.2716C19.3785 81.1985 2.1877 62.6355 2.33306 42.1295C2.33534 41.8094 2.31333 41.4491 2.37515 41.1346L14.4833 41.0399C14.4544 41.8979 14.4589 42.7735 14.5294 43.6175L14.6539 44.6097C15.9237 56.357 24.6591 66.0408 36.3728 68.2462C37.4435 68.4478 38.5521 68.6351 39.6421 68.6723L41.7448 68.6582C48.7854 68.5611 55.7487 65.8332 60.7342 60.7964C66.0234 55.4528 68.7336 48.4721 68.6997 41.0049L79.5673 41.0305C79.9603 41.0291 80.3996 40.9898 80.7879 41.0388Z" fill="#FF70A6"/>
<path d="M41.2414 23.0464C43.91 22.8953 45.8586 25.1751 45.1018 27.7531L45.0817 27.8193C44.6382 29.3155 43.4825 30.2606 41.9089 30.4157C41.6426 30.4178 41.3761 30.4253 41.1117 30.388L41.0435 30.3778C40.1541 30.2502 39.1478 29.7276 38.576 29.0253L38.5325 28.9709C36.6267 26.6259 38.1631 23.3798 41.2414 23.0464Z" fill="#E21F5A"/>
<path d="M37.8014 57.6292L37.8023 40.2988C37.803 39.5489 37.7569 38.7598 37.8543 38.0166C38.0731 36.3492 39.5737 35.2597 41.1458 34.9992C42.8766 34.7122 44.9744 36.1934 45.246 37.938L45.2564 48.9203L45.2421 49.3793L45.1819 49.2372C44.9775 49.2958 44.8532 49.5854 44.7449 49.7638L43.4077 51.7927C42.7345 52.6841 41.977 53.4948 41.2218 54.3158L39.559 56.1453C39.1628 56.5657 38.7367 57.1204 38.2636 57.4415L38.2199 57.4723C38.087 57.5633 37.9568 57.5961 37.8014 57.6292Z" fill="#E21F5A"/>
<path d="M54.2886 18.2202C57.3651 20.0161 59.9586 21.7278 62.2459 24.5113C66.3662 29.5256 68.2175 34.4931 68.7019 41.0048C68.7336 48.472 66.0234 55.4528 60.7342 60.7963C55.7487 65.8332 48.7854 68.561 41.7448 68.6493L41.7256 63.1154C41.7282 62.6724 41.6865 62.1814 41.8634 61.7666C40.6122 61.8752 39.1664 61.1633 38.474 60.133L38.4338 60.071C37.8973 59.258 37.8167 58.5651 37.7988 57.6293C37.9564 57.5962 38.0866 57.5634 38.2195 57.4723L38.2632 57.4415C38.7363 57.1204 39.1624 56.5657 39.5585 56.1453L41.2214 54.3158C41.9766 53.4949 42.734 52.6841 43.4073 51.7928L44.7445 49.7638C44.8528 49.5854 44.9771 49.2959 45.1815 49.2373L45.2417 49.3793L45.2413 48.9203C45.4807 48.7239 45.6822 48.4592 45.8549 48.2019L49.0362 42.8317C51.9965 36.8792 53.6846 30.3292 54.2009 23.7141C54.2983 22.4668 54.2378 21.1818 54.2352 19.9299L54.2293 18.9128C54.2271 18.6782 54.2043 18.4437 54.2886 18.2202Z" fill="#F4CED9"/>
<path d="M37.7988 57.6291C37.9564 57.596 38.0866 57.5632 38.2195 57.4721L38.2632 57.4413C38.7363 57.1202 39.1624 56.5655 39.5585 56.1451L41.2214 54.3156C41.9766 53.4947 42.734 52.6839 43.4073 51.7926L44.7445 49.7636C44.8528 49.5852 44.9771 49.2957 45.1815 49.2371L45.2417 49.3791L45.2751 57.4395C45.2837 57.8719 45.3272 58.3385 45.2271 58.7624C44.8495 60.3592 43.456 61.5212 41.8634 61.7664C40.6122 61.875 39.1664 61.1631 38.474 60.1328L38.4338 60.0708C37.8973 59.2578 37.8167 58.5649 37.7988 57.6291Z" fill="#E21F5A"/>
<path d="M11.9411 33.8635C10.3252 34.4663 8.68841 33.0969 9.1825 31.4445C11.4891 23.7307 16.7433 17.3355 23.8261 13.232L25.5214 12.2834C30.4245 9.79236 36.1083 8.70723 41.5974 9.03758C41.9205 9.05703 42.2324 9.05108 42.5556 9.09188L43.0497 9.16495C44.1592 9.32902 44.7612 10.5529 44.2138 11.5319C43.9268 12.0453 43.3813 12.3598 42.7931 12.3532C33.2178 12.2451 29.2701 12.6446 22.8533 17.6746C17.5832 21.8056 14.5919 26.712 13.4033 32.1337C13.2312 32.9187 12.694 33.5826 11.9411 33.8635Z" fill="#FFD9E4"/>
</svg>
