<svg width="84" height="84" viewBox="0 0 84 84" fill="none" xmlns="http://www.w3.org/2000/svg">
<path d="M17.8477 62.6531L17.8487 57.7041C17.8473 56.3904 18.847 55.9338 18.9393 57.0012C18.9888 57.5738 18.9442 58.1818 18.9438 58.758L18.9388 61.8918C18.9326 62.1787 18.882 62.465 18.8799 62.7515C18.5402 62.7524 18.1845 62.697 17.8477 62.6531Z" fill="#AB3E5F"/>
<path d="M54.8289 18.2202C57.9054 20.0161 60.4989 21.7278 62.7863 24.5113C66.9066 29.5256 68.7578 34.4931 69.2423 41.0048C69.2739 48.472 66.5638 55.4528 61.2746 60.7963C56.289 65.8332 41.5324 78.7511 34.4918 78.8394L34.4726 73.3054C34.4752 72.8625 34.4335 72.3715 34.6104 71.9566C33.3592 72.0652 31.9134 71.3534 31.221 70.323L31.1808 70.261C30.6443 69.4481 32.3024 64.4587 34.4727 61.5329C35.8465 59.6808 38.6269 57.5634 38.7599 57.4723L38.8035 57.4415C39.2767 57.1204 39.7027 56.5657 40.0989 56.1453L41.7617 54.3158C42.5169 53.4949 43.2744 52.6842 43.9476 51.7928L45.2849 49.7638C45.3931 49.5854 45.5175 49.2959 45.7218 49.2373L45.782 49.3793L45.7817 48.9203C46.0211 48.7239 46.2225 48.4592 46.3952 48.2019L49.5766 42.8317C52.5368 36.8792 54.225 30.3292 54.7413 23.7141C54.8387 22.4668 54.7781 21.1818 54.7755 19.9299L54.7697 18.9128C54.7674 18.6782 54.7447 18.4437 54.8289 18.2202Z" fill="#F4CED9"/>
<path d="M2.92285 41.1277C3.07071 29.3417 8.59218 18.6852 17.6571 11.3362L19.5357 9.85948C25.0151 5.89736 31.6998 3.50966 38.4102 2.88994C38.8052 2.85345 39.1819 2.788 39.581 2.77763L43.0389 2.76196C59.0036 2.82643 73.4688 13.5249 78.8839 28.4516C80.3397 32.464 81.2203 36.7071 81.3265 40.9783C80.9395 40.9895 80.5002 41.0288 80.1072 41.0303L69.2419 41.0301C68.7574 34.4929 66.9061 29.5254 62.7858 24.5112C60.4985 21.7276 57.905 20.0159 54.8402 18.22C53.4982 17.4093 52.0237 16.8178 50.536 16.3348C41.1448 13.2855 31.7745 15.4438 24.2936 21.7348C18.6318 26.4963 15.122 33.6155 15.0279 41.0517L2.92285 41.1277Z" fill="#E21F5A"/>
<path d="M41.5641 6.15845L41.8262 6.17705C41.8932 6.19143 41.8497 6.1925 41.9073 6.2125L41.9507 6.22142C42.4554 6.35117 42.9518 6.95869 43.1939 7.40112C43.9748 8.82748 42.918 10.9639 41.5744 11.6608C41.1391 11.8866 40.6287 11.9638 40.1499 12.0361L35.6383 12.6568L23.6283 15.1863C23.0588 15.3619 22.5251 15.6049 21.9155 15.5323L23.2896 14.2369L23.3872 14.1298C26.7207 11.4311 30.9878 9.40704 35.2986 8.97907C36.665 8.84342 38.0914 8.90987 39.4622 8.92514C40.5759 8.93755 41.6533 9.20042 41.9581 7.74318C42.0607 7.25243 41.846 6.5683 41.5641 6.15845Z" fill="#E21F5A"/>
<path d="M12.4806 33.8635C10.8647 34.4663 9.22796 33.0969 9.72206 31.4445C12.0287 23.7307 17.2828 17.3355 24.3656 13.232L26.061 12.2834C30.9641 9.79236 36.6478 8.70723 42.1369 9.03758C42.4601 9.05703 42.7719 9.05108 43.0952 9.09188L43.5893 9.16495C44.6988 9.32902 45.3007 10.5529 44.7534 11.5319C44.4663 12.0453 43.9208 12.3598 43.3327 12.3532C33.7574 12.2451 29.8097 12.6446 23.3928 17.6746C18.1227 21.8056 15.1314 26.712 13.9429 32.1337C13.7708 32.9187 13.2335 33.5826 12.4806 33.8635Z" fill="#FFD9E4"/>
<path d="M35.6732 49.9969C35.4586 49.9294 35.1711 49.9631 34.9486 49.9636L33.4747 49.9668C33.1401 49.9675 32.7865 49.9859 32.4561 49.9294C31.3954 49.7481 30.5471 48.7903 30.2205 47.8125C30.023 47.2209 30.0792 46.5747 30.079 45.9588L30.0878 33.6458C30.348 26.9204 35.9604 20.8694 42.9174 21.2209C49.303 21.5436 54.224 26.9585 54.6875 33.2497C54.7465 34.0516 54.7012 34.8854 54.701 35.6903L54.706 46.4133C54.707 46.6845 54.7194 46.9625 54.6991 47.2328C54.6107 48.4085 53.5202 49.5419 52.4135 49.8159C52.0399 49.9084 51.6721 49.9032 51.2905 49.9015L49.5257 49.888C49.3834 49.8944 49.2345 49.8904 49.0983 49.9366L49.0779 49.9441C48.7029 49.9759 48.2944 49.8382 47.9131 49.8281L47.799 48.6291L47.9026 46.8909C47.4091 47.2504 46.963 47.6474 46.4367 47.9612C43.8989 49.474 39.3589 49.5776 37.3214 47.1043L37.0097 46.8018L37.0142 48.1306C37.0146 48.2988 37.0413 48.52 37.0119 48.6823L37.0076 49.4349C37.0054 49.5936 37.0181 49.7812 36.969 49.9324L35.6732 49.9969Z" fill="#FF70A6"/>
<path d="M37.0096 46.802C36.7375 46.2828 36.2881 45.8251 35.951 45.3417C34.9774 43.9454 34.3878 42.2052 34.2896 40.5102L34.1486 40.5419C32.8714 40.8021 32.1793 38.7998 31.9992 37.8685C31.8634 37.167 31.9446 36.3625 32.0883 35.6717C32.3968 34.1884 32.9289 34.0038 34.0767 34.8132C34.7283 34.6129 35.4126 34.602 36.0856 34.5268C38.5111 34.2554 40.5305 33.569 42.5493 32.1305C42.8655 31.9052 44.9094 30.3603 45.1774 30.4586C45.2701 30.4926 45.4904 30.9545 45.5544 31.0549C46.3452 32.2959 46.9974 32.4257 48.2784 32.4618C49.6574 32.5006 50.3544 33.7361 50.6513 34.9586C51.2226 34.3895 51.6222 33.9639 52.3087 34.6901C53.5271 35.9793 53.1515 38.9561 51.9218 40.105C51.4779 40.5197 51.0758 40.4661 50.5156 40.4476C50.5036 42.2037 49.855 43.9093 48.9192 45.3777C48.5928 45.8899 48.2057 46.3653 47.9016 46.8911C47.409 47.2506 46.963 47.6476 46.4366 47.9614C43.8989 49.4742 39.3589 49.5778 37.3214 47.1045L37.0096 46.802Z" fill="#F8F8F8"/>
<path d="M37.3213 47.1045C37.4901 47.0977 37.6358 47.19 37.7789 47.2687L38.3535 47.5867C39.5866 48.2202 41.4597 48.3683 42.8146 48.0586C45.2831 47.4946 47.3782 45.2265 48.6015 43.084C48.9476 42.4778 49.6806 40.4182 50.5154 40.4419C50.5035 42.2036 49.8549 43.9092 48.9191 45.3777C48.5927 45.8898 48.2056 46.3653 47.9014 46.891C47.4089 47.2505 46.9628 47.6476 46.4365 47.9613C43.8987 49.4742 39.3588 49.5778 37.3213 47.1045Z" fill="#D3D2D2"/>
<path d="M37.0114 46.802L37.3216 47.1045C39.359 49.5778 43.899 49.4742 46.4368 47.9613C46.9631 47.6476 47.4092 47.2505 47.9017 46.891L47.8036 48.6293L47.9132 49.8283C48.2945 49.8384 48.703 49.9761 49.078 49.9543C50.8482 50.3207 52.5131 51.061 54.1099 51.8924L55.7866 52.7989C59.9012 54.8989 63.53 56.4434 64.9304 61.2741C65.513 63.2838 65.1886 63.8957 63.23 64.8724C62.3695 65.3016 61.4762 65.6619 60.5691 65.9801L56.4515 67.2782C54.0536 67.9177 51.5964 68.328 49.1297 68.5832L44.9039 68.8935L40.3803 68.9002C39.3281 68.8916 38.012 68.7924 36.971 68.7002L33.0905 68.2659L28.2542 67.2714L25.1546 66.2971C24.0525 65.9121 22.9783 65.5117 21.918 65.021C20.984 64.5889 19.7774 64.1525 19.6218 62.9967L19.6153 62.953C19.4883 62.0548 20.1374 60.3393 20.5435 59.538C22.3187 56.0345 25.3665 54.6696 28.6525 52.9966C30.6398 51.9848 33.4409 50.2935 35.6734 49.9971L36.9663 49.9326C37.0183 49.7813 37.0056 49.5938 37.0077 49.435L37.0221 48.6824C37.0414 48.5201 37.0147 48.299 37.0143 48.1307L37.0114 46.802Z" fill="#E21F5A"/>
<path d="M37.011 46.802L37.3212 47.1045C39.3587 49.5778 43.8987 49.4742 46.4364 47.9613C46.9628 47.6476 47.4088 47.2505 47.9014 46.891L47.8032 48.6293L47.9129 49.8283C47.9263 50.1693 47.9149 50.5708 48.0469 50.8893C48.6878 51.3908 49.2929 51.6284 49.0028 52.5338C48.2613 54.8485 45.6111 56.29 43.334 56.5391C40.4582 56.8536 37.4294 55.4803 36.0182 52.9148C35.6736 52.2884 35.5568 51.5176 36.3488 51.1389L36.7953 51.1995C36.8948 50.786 36.9306 50.356 36.966 49.9326C37.0179 49.7813 37.0052 49.5938 37.0074 49.435L37.0218 48.6824C37.0411 48.5201 37.0144 48.299 37.014 48.1307L37.011 46.802Z" fill="#F8F8F8"/>
<path d="M37.0112 46.8018L37.3214 47.1043C39.3589 49.5776 43.8989 49.4739 46.4367 47.9611C46.963 47.6474 47.4091 47.2503 47.9016 46.8908L47.8035 48.629C46.9871 49.6756 44.288 50.4482 43.0797 50.5987C40.8105 50.8813 38.9073 49.7808 37.0278 48.6822C37.0413 48.5199 37.0146 48.2987 37.0142 48.1305L37.0112 46.8018Z" fill="#F5F5F5"/>
<path d="M81.3284 41.0388C81.3216 42.0886 81.3493 43.2077 81.2756 44.3158L81.145 45.5265C80.5391 51.8144 78.5473 57.9397 75.0701 63.2388C68.1779 73.7419 56.6333 80.6645 43.9848 81.242L40.7113 81.2716C19.919 81.1985 2.72823 62.6355 2.87359 42.1295C2.87586 41.8094 2.85386 41.4491 2.91568 41.1346L15.0239 41.0399C14.9949 41.8979 14.9994 42.7735 15.0699 43.6175L15.1944 44.6097C16.4642 56.357 25.1996 66.0408 36.9133 68.2462C37.9841 68.4478 39.0926 68.6351 40.1827 68.6723L42.2853 68.6582C49.326 68.5611 56.2892 65.8332 61.2747 60.7964C66.5639 55.4528 69.2741 48.4721 69.2402 41.0049L80.1078 41.0305C80.5008 41.0291 80.9402 40.9898 81.3284 41.0388Z" fill="#FF70A6"/>
</svg>
