<svg width="84" height="84" viewBox="0 0 84 84" fill="none" xmlns="http://www.w3.org/2000/svg">
<ellipse cx="44.1404" cy="67.9662" rx="38.0877" ry="11.7726" fill="#DDDDDC"/>
<path d="M16.1536 61.9805L13.9175 58.1012C11.8339 54.2585 9.37403 49.9183 10.484 45.4067C11.474 41.3826 14.6489 38.0346 18.6804 36.9788C26.838 34.8424 34.661 41.9606 32.6794 50.3961C31.8321 54.0024 29.6488 57.5681 27.7791 60.71L24.4732 65.8138C23.8795 66.6937 23.277 67.9861 22.1222 68.2125C20.1742 68.5943 18.9855 66.3705 18.1274 65.0216L16.4284 62.3767C16.3816 62.3079 16.2151 62.0131 16.1536 61.9805ZM21.0593 42.683C20.4544 42.7566 19.9014 42.9041 19.3561 43.181L19.2991 43.2094C15.1319 45.3163 16.3657 52.7702 22.3324 52.2746C23.7502 52.0166 24.8059 51.3404 25.6306 50.1457C27.9626 46.7671 25.1968 42.2321 21.0593 42.683Z" fill="#E21F5A"/>
<path d="M52.6797 60.7568L51.2314 58.7327C47.8641 53.9176 44.5488 49.1016 41.571 44.0317L38.8673 39.2839C35.6059 33.036 33.4625 27.6569 35.1997 20.6654C37.6687 10.7286 46.3558 3.9089 56.5774 3.87876C69.5435 3.84052 80.0137 15.3214 78.1171 28.3676C77.4799 32.751 75.6495 36.7765 73.5856 40.6533L71.8356 43.9259L66.7027 52.2194L60.0422 62.0596C59.9941 62.0755 59.8062 62.3563 59.7594 62.4177L58.7356 63.7489C57.9643 64.701 57.0033 65.4729 55.7065 64.6953C55.1857 64.383 54.7965 63.7977 54.4606 63.3073L53.3649 61.6936C53.162 61.3984 52.9631 61.0731 52.7248 60.8063L52.6797 60.7568ZM55.581 10.1018C50.888 10.4838 47.011 12.2417 43.9704 15.8245C38.657 22.0854 39.1905 33.096 45.5549 38.4325C49.1917 41.482 52.8907 42.729 57.7089 42.5112C70.7368 41.4579 77.175 27.6114 69.8285 16.6646C66.8015 12.1542 60.9217 9.74715 55.581 10.1018Z" fill="#E21F5A"/>
<path d="M55.5813 10.102C60.9219 9.74728 66.8018 12.1544 69.8288 16.6648C77.1752 27.6115 70.737 41.458 57.7091 42.5113C52.8909 42.7292 49.1919 41.4822 45.5552 38.4326C39.1907 33.0962 38.6572 22.0855 43.9706 15.8246C47.0112 12.2418 50.8882 10.4839 55.5813 10.102ZM56.5384 15.3366C54.361 15.5043 52.1435 16.1427 50.3652 17.4538C46.8504 20.0457 45.073 24.6704 46.1335 28.9228C47.3495 33.7994 51.8343 37.5352 56.8924 37.4216C60.7416 37.1478 64.2654 35.0458 66.1876 31.6516C68.6227 27.352 67.4831 21.2378 63.7517 18.0428C61.811 16.3811 59.1275 15.2025 56.5384 15.3366Z" fill="#FF70A6"/>
<path d="M56.3187 16.7163C57.1015 16.6809 57.869 16.6859 58.6432 16.8241C62.8157 17.5692 66.0549 21.5515 66.3728 25.7003C66.781 31.0259 62.4866 35.828 57.1979 36.219C54.4442 36.2998 52.4404 35.6297 50.2736 33.7857C44.9628 29.266 46.194 19.5985 53.2056 17.2535C54.2205 16.914 55.2549 16.7813 56.3187 16.7163Z" fill="white"/>
</svg>
