<svg width="84" height="84" viewBox="0 0 84 84" fill="none" xmlns="http://www.w3.org/2000/svg">
<path d="M59.2871 35.1678C57.8719 34.8444 58.3876 32.4999 58.3824 31.2911C58.3778 30.2277 58.2996 29.1576 58.3822 28.0963C58.9728 20.5132 69.3265 17.6607 73.3964 24.4296C74.8169 26.7923 74.5777 29.4272 74.5779 32.0794L74.5761 33.5755C74.5744 34.2311 74.6121 34.7461 73.9642 35.1369L73.929 35.1557C72.5283 34.9431 72.7745 34.3715 72.7977 33.2954C72.8423 31.233 72.8209 28.8943 70.8518 27.6778C70.6179 27.5334 70.0807 28.0599 69.8436 28.1963C67.824 29.3571 65.3169 29.159 63.3677 27.9328C62.8338 28.2339 60.7551 29.9915 60.4299 30.4773C59.4786 31.8984 60.9736 34.4801 59.3293 35.1514L59.2871 35.1678Z" fill="#E21F5A"/>
<path d="M9.53743 35.0676C9.24989 34.9762 8.86532 34.8292 8.72334 34.5407C8.61638 34.3234 8.65468 28.3098 8.72913 27.6752C9.33901 22.4756 15.1031 19.0922 19.9153 21.16C23.9565 22.8963 25.3619 26.0002 25.3707 30.1301L25.3603 33.7618C25.3545 34.5979 25.3314 34.9486 24.441 35.2279L24.3811 35.2456C23.325 34.7737 23.4049 34.7159 23.4422 33.6778C23.505 31.9281 23.4615 30.1741 22.0457 28.8993C21.2527 28.1854 21.1069 28.1042 20.446 28.6856C18.8287 30.1085 15.9092 30.0457 14.3284 28.614C13.8492 28.9349 13.4147 29.3541 12.9545 29.7057L11.5259 30.7068C10.9126 31.1406 10.6211 31.3445 10.5754 32.1097L10.5457 33.6802C10.5349 34.595 10.5198 34.9199 9.53743 35.0676Z" fill="#E21F5A"/>
<path d="M9.53809 35.0677C10.5204 34.92 10.5355 34.5951 10.5463 33.6803L10.576 32.1099C10.6218 31.3446 10.9132 31.1407 11.5266 30.7069L12.9552 29.7058C13.4154 29.3542 13.8498 28.935 14.329 28.6141C15.9098 30.0458 18.8293 30.1086 20.4467 28.6857C21.1076 28.1043 21.2533 28.1855 22.0464 28.8995C23.4622 30.1742 23.5057 31.9282 23.4428 33.6779C23.4055 34.716 23.3257 34.7738 24.3818 35.2458L23.3237 38.3396C22.9616 39.2635 22.5427 40.1894 21.9104 40.9641L20.6911 42.3341C21.0969 43.3146 21.4173 43.7467 21.6146 44.8409C21.0711 46.631 19.221 49.2983 17.179 49.4314C15.0204 49.5723 12.5085 46.893 12.3826 44.8497C12.3777 44.7713 12.3782 44.7178 12.3487 44.6431L12.3267 44.6002C12.2815 44.0901 13.3515 42.4708 13.3364 42.3843C13.3308 42.3523 13.182 42.1931 13.1541 42.1598L12.2062 41.1263C10.9194 39.6321 10.294 37.7992 9.79271 35.9161C9.73707 35.707 9.66418 35.2342 9.53809 35.0677Z" fill="#F9F9F9"/>
<path d="M59.2871 35.1678L59.3293 35.1514C60.9736 34.4802 59.4786 31.8985 60.4299 30.4774C60.7552 29.9916 62.8338 28.234 63.3678 27.9329C65.3169 29.1591 67.824 29.3571 69.8436 28.1963C70.0807 28.06 70.618 27.5335 70.8519 27.6779C72.8209 28.8944 72.8424 31.2331 72.7977 33.2955C72.7745 34.3716 72.5283 34.9432 73.929 35.1558C73.7811 35.3745 73.7693 35.5996 73.7193 35.8513C73.3489 37.7196 72.131 39.7319 70.9978 41.223C70.7019 41.6122 70.3062 42.0163 70.0885 42.4493L70.1301 42.5156C70.5777 43.2407 70.7824 43.9435 70.9325 44.7724C70.3768 46.8621 68.6852 48.9607 66.504 49.49L66.4466 49.5044C64.6687 49.9255 62.3014 46.9269 61.8321 45.4363C61.7819 45.2769 61.7439 44.8964 61.6004 44.8195C61.7522 44.6267 61.8132 44.0761 61.9028 43.8116C62.6446 41.6211 62.9438 42.8309 61.5521 40.887C60.519 39.4439 59.541 37.1235 59.3668 35.316C59.3574 35.2182 59.3515 35.2336 59.2871 35.1678Z" fill="#F9F9F9"/>
<path d="M70.9333 44.7722C73.9449 46.0669 77.2404 46.6248 79.4284 49.3083C80.9231 51.1414 81.3033 52.8063 81.3097 55.064L81.3171 59.8411C81.3183 60.3712 81.3355 60.9073 81.2897 61.436C81.0849 63.798 78.0816 64.4297 76.2057 64.8051C75.7223 64.871 75.208 64.9809 74.7211 64.9815L66.5488 65.1495C66.5699 64.9653 66.525 64.6379 66.5245 64.4272L66.5003 61.9961C66.165 55.6222 62.4423 51.1184 56.7183 48.3947L55.5492 47.8635C55.2884 47.7466 54.9945 47.6366 54.7835 47.441L54.7559 47.4145C55.4929 47.2505 56.1999 46.9971 56.911 46.7475L59.9082 45.6026C60.4745 45.3643 61.0812 45.146 61.6013 44.8193C61.7447 44.8962 61.7827 45.2767 61.8329 45.436C62.3022 46.9267 64.6695 49.9253 66.4474 49.5042L66.5048 49.4898C68.686 48.9605 70.3776 46.8619 70.9333 44.7722Z" fill="#E21F5A"/>
<path d="M74.7208 64.9816C74.7239 64.6074 74.6601 64.2293 74.6588 63.853L74.6566 58.4761C74.6574 57.7345 74.5894 56.9138 74.6755 56.1803C74.777 55.3157 76.0032 55.2337 76.1775 56.0688C76.2509 56.4202 76.2411 56.7956 76.2444 57.153L76.2416 64.8052C75.7221 64.8711 75.2077 64.981 74.7208 64.9816Z" fill="#AB3E5F"/>
<path d="M12.3264 44.5999L12.3484 44.6427C12.378 44.7174 12.3775 44.7709 12.3823 44.8493C12.5083 46.8926 15.0202 49.5719 17.1787 49.431C19.2207 49.2979 21.0708 46.6306 21.6144 44.8405L28.364 47.5192L28.3247 47.5446C27.8852 47.8213 27.3754 47.999 26.9013 48.2081L25.2135 49.0508C20.3544 51.7603 17.0819 55.7937 16.7025 61.4152C16.624 62.5797 16.6162 64.022 16.6845 65.1945L8.59735 64.9557C8.10019 64.9486 7.57968 64.8655 7.08674 64.7997L5.1319 64.4102C4.0585 64.1108 2.68892 63.456 2.13826 62.4349C1.78218 61.7747 1.85736 61.1029 1.85694 60.3745L1.85939 55.466C1.86759 49.1728 4.77011 47.64 9.85994 45.6367C10.6814 45.3133 11.5544 45.0253 12.3264 44.5999Z" fill="#E21F5A"/>
<path d="M7.08691 64.7999L7.08846 57.3764C7.08646 55.4058 8.54935 54.7209 8.68441 56.322C8.75686 57.1809 8.69161 58.0929 8.69096 58.9572L8.68372 63.6579C8.67465 64.0882 8.60053 64.5176 8.59752 64.9474C8.10037 64.9487 7.57985 64.8656 7.08691 64.7999Z" fill="#AB3E5F"/>
<path d="M30.4332 29.1904L30.3983 29.2104C30.0113 29.4253 29.4694 29.4059 29.0524 29.2863C26.561 28.5714 26.7496 24.2928 28.7671 22.605L28.5981 20.3253C28.3745 16.8184 28.3432 12.562 30.5998 9.64731C32.9466 6.61627 38.8401 2.99009 42.8281 3.64984C48.104 4.52266 52.9558 7.17978 56.1199 11.5108C56.6336 12.2141 57.1671 12.9732 57.0152 13.8883C56.8037 15.1624 55.4818 16.0182 54.2714 16.1256C54.4536 17.0665 54.5193 17.9014 54.5204 18.8576L54.5188 22.1837C54.5151 22.7579 54.5725 22.599 54.9182 23.051C55.9479 24.3977 56.3871 26.0904 55.7577 27.7292C55.2839 28.963 54.387 29.6561 53.0777 29.311L52.9983 29.2295C52.6192 28.7661 52.6633 28.6494 52.7097 28.0783L52.8117 20.3451C52.7752 18.9557 51.8044 17.2864 50.3948 16.8874C49.4661 16.6246 48.3789 17.1081 47.5285 17.4393L46.0008 17.974C43.0159 18.8571 40.1462 18.7449 37.169 17.7967L35.6537 17.2431C34.0149 16.5715 32.7877 16.1919 31.4667 17.6963C30.3478 18.9708 30.4828 20.5754 30.4814 22.1501L30.4784 28.4803C30.4765 28.716 30.4197 28.9606 30.4332 29.1904Z" fill="#E21F5A"/>
<path d="M30.4337 29.1902C30.4202 28.9604 30.477 28.7158 30.479 28.4801L30.4819 22.1499C30.4834 20.5752 30.3483 18.9707 31.4673 17.6961C32.7883 16.1918 34.0155 16.5714 35.6543 17.2429L37.1695 17.7966C40.1467 18.7447 43.0164 18.8569 46.0014 17.9738L47.529 17.4392C48.3795 17.1079 49.4666 16.6244 50.3953 16.8873C51.8049 17.2863 52.7757 18.9556 52.8122 20.3449L52.7103 28.0781C52.6639 28.6493 52.6197 28.766 52.9989 29.2294L53.0782 29.3108L53.0592 29.3764C52.9795 29.6567 52.9799 29.9487 52.9417 30.2365L52.7228 31.5154C52.1505 34.3524 50.9293 37.3075 49.038 39.4997C48.6189 39.9852 47.9966 40.4365 47.8897 41.1085L47.8577 41.1218C47.6068 41.231 47.3802 41.4381 47.1562 41.5967C44.365 43.5729 39.6692 44.0125 36.7979 41.9429C36.5534 41.7668 36.3434 41.5167 36.0626 41.405C36.0761 41.0453 36.0599 40.7076 36.0154 40.3505C35.6616 39.519 35.3488 39.3829 34.7251 38.7346C32.8293 36.7645 31.5483 33.957 30.8984 31.3396L30.5991 29.9954C30.5533 29.7555 30.5444 29.4515 30.4535 29.2298L30.4337 29.1902Z" fill="#F9F9F9"/>
<path d="M52.9981 29.2292L53.0775 29.3107L53.0585 29.3763C52.9788 29.6566 52.9791 29.9486 52.941 30.2364L52.722 31.5153C52.1498 34.3523 50.9286 37.3074 49.0372 39.4996C48.6182 39.9851 47.9959 40.4364 47.8889 41.1084L47.8569 41.1217C47.606 41.2309 47.3794 41.438 47.1555 41.5966C44.3643 43.5728 39.6685 44.0124 36.7971 41.9428C36.5527 41.7667 36.3427 41.5166 36.0619 41.4049C36.0754 41.0452 36.0591 40.7075 36.0146 40.3504L36.1021 40.3318C39.5898 42.7826 43.7823 41.5653 46.8094 39.0171C48.8113 37.332 50.1907 35.254 51.3236 32.9025L52.1254 31.1135C52.4101 30.435 52.6803 29.9207 52.9699 29.2878L52.9981 29.2292Z" fill="#CDCDCA"/>
<path d="M36.0616 41.4049C36.3424 41.5166 36.5524 41.7667 36.7968 41.9428C39.6682 44.0124 44.364 43.5728 47.1552 41.5966C47.3791 41.438 47.6057 41.2309 47.8566 41.1217L47.8886 41.1084L47.8415 43.9606C48.6675 44.5863 49.4581 45.1269 50.3542 45.6603L52.9972 46.8142C53.506 47.0262 54.2015 47.425 54.7549 47.4148L54.7825 47.4412C54.9935 47.6368 55.2875 47.7469 55.5483 47.8637L56.7174 48.3949C62.4414 51.1186 66.164 55.6224 66.4994 61.9963L66.5236 64.4275C66.524 64.6381 66.569 64.9655 66.519 65.1648L66.5378 65.2194C66.481 65.8142 66.5171 66.4396 66.5172 67.0385L66.5182 71.4868C66.518 71.7436 66.5373 72.0146 66.44 72.2558L66.4171 72.3162C64.2411 77.934 51.25 80.0771 45.256 80.4494C38.6017 80.8627 29.9985 80.0437 23.9104 77.639C21.6354 76.7403 17.9827 74.9905 16.9712 72.6422L16.7902 72.1014C16.6115 71.5108 16.6917 70.6936 16.6901 70.0794L16.6836 67.0458C16.6823 66.4308 16.7067 65.8072 16.655 65.1947C16.6156 64.0222 16.6234 62.5799 16.702 61.4154C17.0813 55.794 20.3538 51.7605 25.2129 49.051L26.9007 48.2083C27.3748 47.9992 27.8846 47.8215 28.3242 47.5448L28.3634 47.5195L32.7137 45.7326L35.7464 44.0203L35.8163 43.9869C35.9597 43.5704 35.9569 43.1596 35.9746 42.7245L36.0616 41.4049Z" fill="#FF70A6"/>
<path d="M36.0627 41.4049C36.3435 41.5166 36.5535 41.7667 36.798 41.9428C39.6693 44.0124 44.3651 43.5728 47.1563 41.5966C47.3803 41.438 47.6069 41.2309 47.8578 41.1217L47.8898 41.1084L47.8427 43.9606C48.6687 44.5863 49.4592 45.1269 50.3553 45.6603C50.2474 46.0795 49.8098 46.5086 49.5675 46.8737L46.8508 50.8977C45.4928 52.8897 43.6907 56.1739 40.7796 55.4629L40.7128 55.4471C39.1715 55.074 38.0951 53.4777 37.2174 52.2768L34.7443 48.7148C34.184 47.9019 33.5392 47.1083 33.0313 46.2655L32.7148 45.7326L35.7475 44.0203L35.8175 43.9869C35.9608 43.5704 35.958 43.1596 35.9757 42.7245L36.0627 41.4049Z" fill="#AB3E5F"/>
<path d="M36.0623 41.4049C36.3431 41.5166 36.5531 41.7667 36.7975 41.9428C39.6689 44.0124 44.3647 43.5728 47.1558 41.5966C47.3798 41.438 47.6064 41.2309 47.8573 41.1217L47.8893 41.1084L47.8422 43.9606L47.7875 44.006C47.6384 44.1442 47.5188 44.3311 47.391 44.4892C45.7553 46.5115 43.7999 47.3674 41.2048 47.3309C39.1401 47.3018 36.4984 46.1009 35.7471 44.0203L35.817 43.9869C35.9603 43.5704 35.9576 43.1596 35.9753 42.7245L36.0623 41.4049Z" fill="#F9F9F9"/>
</svg>
