<svg width="60" height="60" viewBox="0 0 60 60" fill="none" xmlns="http://www.w3.org/2000/svg">
<g clip-path="url(#clip0_9_5406)">
<path d="M31.3614 0.653809H32.983C33.5106 0.848116 33.8562 1.05987 34.1173 1.57836C34.5202 2.37864 35.0582 4.70109 35.1114 5.66527L35.274 7.5101C35.3274 7.84452 35.3151 8.20936 35.3173 8.54798L35.3219 16.6456C35.3233 17.2078 35.2547 17.1044 35.6633 17.4785C36.5227 18.2658 36.6935 18.7183 36.6945 19.8769L36.694 21.2936C36.6935 21.7398 36.7012 21.5836 37.0876 21.7561C38.2348 22.2685 38.2371 23.2802 38.2382 24.3757L38.2416 32.6462C38.2427 32.891 38.1664 33.0503 38.4399 33.1411L38.4923 33.1574C39.0652 33.3378 39.9533 34.1232 40.023 34.7826C40.0806 35.3276 40.0362 35.9215 40.0364 36.4717L40.037 39.8267C40.0371 41.0278 39.9976 55.4008 40.0579 55.4906C40.1277 55.5945 40.1768 55.6925 40.2209 55.8094L40.2373 55.8521C40.3658 56.2122 40.2153 56.7955 40.0448 57.1279C39.172 58.8295 35.4338 59.4523 33.7652 59.6272L32.6377 59.7345C32.3971 59.756 32.1511 59.7646 31.9165 59.8254H27.0539C26.8554 59.7624 26.6353 59.7532 26.4286 59.7347L23.5043 59.3281C22.4001 59.1375 21.1742 58.783 20.2215 58.177C19.4516 57.6875 18.5626 56.6695 19.0451 55.6965C19.1012 55.5831 19.1639 55.501 19.1695 55.3685L19.156 36.5948C19.1561 35.9092 18.9704 34.8269 19.3629 34.2308L19.3851 34.1979C19.7699 33.6159 20.8978 33.1462 20.8964 32.9572L20.8888 24.2884C20.8646 22.9487 21.0894 22.2839 22.448 21.6291C22.5326 20.9378 22.3496 19.3157 22.5231 18.8267C22.8099 18.0185 24.0259 17.4085 24.02 17.2306L23.9998 13.2485C23.993 10.3232 23.8991 9.04693 25.2524 6.28951C26.2422 4.27302 27.872 2.11441 29.9378 1.12772C30.4039 0.905096 30.8812 0.818198 31.3614 0.653809ZM20.8886 36.1517L20.8683 56.2456C20.8648 57.2177 25.4734 57.8311 26.2121 57.9079C29.014 58.1989 35.7088 58.2572 38.0349 56.6368L38.1494 56.5466C38.2307 56.4794 38.3238 56.3842 38.3647 56.2861L38.3532 56.2569C38.0979 55.5887 38.2255 54.7909 38.2339 54.0929L38.1924 36.3101C38.0739 36.4214 37.1223 36.8145 36.9586 36.8745C34.554 37.7551 32.0507 38.0728 29.5005 38.0706C26.9437 38.0683 23.0608 37.6959 20.8886 36.1517ZM36.3767 24.9956L35.6322 25.4107C33.8047 26.3307 31.6613 26.5747 29.6442 26.5807L28.2266 26.5665C26.3604 26.4579 24.2157 26.0917 22.6282 25.0379L22.6231 34.8118C22.6198 34.9008 22.6052 34.9855 22.6543 35.0642C25.6568 36.6711 32.8393 36.6991 36.0993 35.1502C36.2251 35.0904 36.3782 35.047 36.4813 34.9525L36.4613 25.7147C36.4612 25.5062 36.4984 25.1929 36.4397 24.9977L36.3767 24.9956ZM33.3838 6.32959C32.2509 8.45486 30.6603 10.5517 28.2571 11.2863C27.515 11.5131 26.4311 11.629 25.6954 11.2785L25.6866 15.7007C25.6877 16.9007 25.6474 18.1139 25.7317 19.3108C25.7662 19.8023 25.7906 19.8549 26.2853 20.0249C27.7223 20.5505 29.3321 20.6434 30.843 20.4564C31.4949 20.3757 33.1226 20.0871 33.4907 19.4339L33.5074 19.405C33.618 19.1931 33.5519 18.417 33.5508 18.1349L33.5355 8.3083C33.5187 7.6601 33.4922 6.96815 33.3838 6.32959ZM34.907 20.7485C32.4033 22.7811 27.9572 22.6891 25.1076 21.4346C24.7936 21.2964 24.4404 21.1397 24.1731 20.9212L24.2158 23.4858C24.3397 24.6281 28.7712 24.7806 29.5609 24.7795C31.2767 24.7772 33.2145 24.6193 34.7576 23.7918C35.0998 23.6082 34.9503 23.1116 34.945 22.6983L34.907 20.7485ZM31.8243 2.3987C29.2549 2.73294 27.0567 6.08611 26.1622 8.31415C25.8578 9.07249 25.8685 9.54413 26.84 9.72565C29.5251 9.68357 31.9519 6.11723 32.5048 3.77419C32.6173 3.29714 32.8867 2.59213 32.3165 2.41611L32.2888 2.40665C32.173 2.36961 31.9407 2.36532 31.8243 2.3987Z" fill="black"/>
<path d="M22.4778 39.9769C22.8697 39.9683 23.3394 40.1108 23.4881 40.5221L23.4984 40.5524C23.5614 40.7336 23.5361 45.9484 23.4891 46.1041L23.4045 46.3618C23.2923 46.6124 23.0621 46.7722 22.813 46.8634L22.7382 46.8719C22.3645 46.9125 21.9856 46.6885 21.8185 46.3522L21.7753 46.2669C21.7199 46.1494 21.7288 45.9916 21.7284 45.864L21.7139 40.7278C21.7283 40.3197 22.1378 40.1031 22.4778 39.9769Z" fill="black"/>
<path d="M36.8014 53.6482C37.1627 53.6128 37.6285 53.9312 37.7093 54.2857L37.7165 54.3215C38.1421 56.3537 30.937 56.5045 29.7969 56.5051L28.4004 56.4993C26.5291 56.4287 24.0999 56.1662 22.3263 55.5349L21.9012 55.333C21.078 54.8561 21.421 53.5982 22.3624 53.6713C22.66 53.6944 23.0004 53.845 23.2846 53.934C24.2943 54.2503 25.3437 54.4304 26.3929 54.5471L28.159 54.7187C30.608 54.858 33.5551 54.7278 35.9127 53.9333C36.1962 53.8377 36.4779 53.7022 36.7739 53.6524L36.8014 53.6482Z" fill="black"/>
</g>
<defs>
<clipPath id="clip0_9_5406">
<rect width="59.1716" height="59.1716" fill="white" transform="translate(0 0.653809)"/>
</clipPath>
</defs>
</svg>
