<svg width="60" height="60" viewBox="0 0 60 60" fill="none" xmlns="http://www.w3.org/2000/svg">
<g clip-path="url(#clip0_9_5380)">
<path d="M27.4412 0.482422H32.7979L32.829 0.493547C33.2333 0.634912 33.6939 0.672167 34.1143 0.7569C36.8911 1.31668 39.5598 2.55731 41.8916 4.14237C42.8183 4.77226 44.4531 5.89341 44.9585 6.9307L45.0736 7.21694C45.175 7.4462 45.1981 7.8461 45.1525 8.09273C45.0788 8.81777 44.5843 9.3889 44.21 9.99265L39.3277 17.4033C38.967 17.9172 38.6353 18.4907 38.2239 18.9621C37.7941 19.4543 37.9738 19.4845 37.9754 20.189L37.9586 21.787C37.9536 22.0219 37.9056 22.2527 37.8985 22.4891L37.8331 25.0205C37.8245 25.1793 37.7845 25.3318 37.7707 25.4888L37.7066 26.5398C37.6275 27.4977 37.5045 28.5009 37.2991 29.44L36.5048 32.8419C36.388 33.4337 36.2739 34.0171 36.2147 34.6188L35.9812 38.1147L34.7127 53.4855C34.547 55.3337 34.6658 57.2268 33.0993 58.5568L32.9888 58.6391C32.9591 58.6914 32.8818 58.7378 32.8343 58.7751C31.5863 59.756 29.6275 59.8067 28.2146 59.2001C26.4903 58.4597 25.8042 56.9748 25.6318 55.2089L24.6919 43.7343L23.9789 35.5078C23.8846 34.4742 23.8525 33.4732 23.6181 32.4542L23.1748 30.7121L22.4966 26.8329C22.3399 25.7968 22.1952 24.1913 22.16 23.1404L22.138 19.1974C22.1126 19.1565 22.092 19.1207 22.0533 19.091C21.7397 18.8505 21.4899 18.3867 21.2654 18.0633L15.4894 9.23596C15.3369 8.97397 15.1634 8.69078 15.0957 8.39249L15.0869 8.35309C14.7724 7.07498 15.4508 6.40902 16.3461 5.62242C19.0935 3.20863 22.7073 1.39801 26.3169 0.72184L26.9168 0.612438C27.0667 0.589821 27.2708 0.589228 27.4029 0.507938L27.4412 0.482422ZM28.758 2.05473C25.1723 2.4098 21.7258 3.86013 18.7951 5.91645C18.1434 6.37366 17.0716 7.02546 16.6896 7.73887C17.4201 9.14701 18.3173 10.4776 19.1807 11.8075L23.5455 18.3611L24.8979 18.3609L22.3116 9.99146C22.088 9.05636 23.5182 8.38731 23.9045 9.2946L25.7458 14.9476C25.7788 15.0822 25.824 15.2319 25.8717 15.362L25.9207 15.5433C25.9964 15.8741 26.0986 16.2608 26.2164 16.5755L26.4216 17.3477C26.5253 17.674 26.5164 18.0588 26.6336 18.3643L29.1234 18.355C29.1559 18.32 29.1443 18.3039 29.1443 18.2559L29.1425 8.69608C29.1435 8.1659 29.1183 7.6913 29.7478 7.50618L29.7816 7.49583C30.2351 7.36586 30.6832 7.70393 30.7951 8.13403L30.8279 8.25236L30.8438 18.3473L33.4368 18.366C33.4985 18.2531 33.6586 17.2361 33.7284 16.9829L35.7747 10.6058C35.9217 10.1677 36.0443 9.69138 36.276 9.28988C36.6552 8.633 37.6479 8.77607 37.805 9.50869C37.8781 9.8502 37.7442 10.1927 37.6443 10.5154L35.3313 17.6751C35.2837 17.884 35.2111 18.0887 35.194 18.3036C35.2932 18.3833 36.5304 18.4678 36.6789 18.2128C36.9269 17.7869 37.2205 17.3973 37.5013 16.9903L41.3876 11.2118L43.4944 7.80694C43.129 7.27716 42.6101 6.84203 42.1113 6.44193C39.5939 4.42261 36.5848 3.01831 33.4117 2.42923L31.9436 2.21097C31.6377 2.17461 31.3234 2.128 31.0148 2.13167C30.7055 2.13534 30.412 2.26391 30.1082 2.24913C29.6542 2.22708 29.2273 2.02227 28.758 2.05473ZM25.7872 34.9074C25.7253 35.5372 25.8104 36.3146 25.9104 36.9366L26.0739 39.7481C26.1853 40.6716 26.2091 41.6202 26.2724 42.5497L26.4105 44.8611L27.3076 54.6971C27.3413 55.0325 27.3829 55.3881 27.4899 55.7102L27.7109 56.3952L27.8491 56.6348C28.3118 57.4154 29.8041 58.1072 30.7278 57.82C31.6796 57.5241 32.4998 56.6388 32.7881 55.6977C32.9587 55.1408 32.9518 54.5383 32.9919 53.9622L34.2962 37.0914C34.3564 36.3804 34.3856 35.6322 34.5221 34.9322C33.6863 34.8389 32.8059 34.8892 31.9634 34.8882L26.3674 34.8926C26.182 34.8953 25.9962 34.9239 25.8112 34.9095L25.7872 34.9074ZM23.8525 20.0253L24.4212 28.4115L30.1958 28.4219L33.7138 28.4261C34.3671 28.4269 35.075 28.3769 35.7223 28.4654L35.7584 28.4707C35.8074 28.2589 35.8026 28.0311 35.8144 27.8146L36.2662 21.9061C36.308 21.3082 36.2495 20.6996 36.3142 20.1039L23.8525 20.0253ZM29.7256 30.2351L24.9429 30.1859L24.8072 30.19C24.7891 30.2853 24.8377 30.3816 24.8665 30.4727L25.3381 32.0022C25.369 32.0955 25.38 32.1968 25.4077 32.2929L25.5667 33.1179C25.7097 33.176 26.0467 33.1352 26.2139 33.1353L34.6751 33.1633C34.8355 32.3018 34.9898 31.0213 35.3682 30.2275L29.7256 30.2351ZM32.9888 58.6391L33.0993 58.5568C34.6658 57.2268 34.547 55.3337 34.7127 53.4855L35.9812 38.1147L36.2147 34.6188C36.2739 34.0171 36.388 33.4337 36.5048 32.8419L37.2991 29.44C37.5045 28.5009 37.6275 27.4977 37.7066 26.5398L37.7707 25.4888C37.7845 25.3318 37.8245 25.1793 37.8331 25.0205L37.8985 22.4891C37.9056 22.2527 37.9536 22.0219 37.9586 21.787L37.9754 20.189C37.9738 19.4845 37.7941 19.4543 38.2239 18.9621C38.6353 18.4907 38.967 17.9172 39.3277 17.4033L44.21 9.99265C44.5843 9.3889 45.0788 8.81777 45.1525 8.09273C45.1074 8.15 45.0794 8.18384 45.0609 8.25461L44.9896 8.47313C44.9687 8.53572 44.9345 8.63316 44.9021 8.68786L44.7937 8.90642C44.7619 8.97007 44.7194 9.02861 44.6853 9.09249L44.5835 9.25123C44.464 9.43042 44.3601 9.60757 44.2376 9.78577L44.1509 9.93023C44.1098 9.98661 44.082 10.0426 44.0497 10.1037L43.7726 10.5243C43.7173 10.6074 43.6676 10.7083 43.6163 10.7971L43.5731 10.8548C43.5324 10.911 43.5044 10.9678 43.4718 11.0283L43.0792 11.6231C43.0432 11.6773 42.9379 11.8523 42.8507 11.9816L42.0413 13.2095C41.9256 13.3811 41.8132 13.5649 41.7094 13.7441L41.0596 14.7119C40.9939 14.8075 40.9299 14.9152 40.8715 15.0154L40.7125 15.2322C40.6693 15.2916 40.6407 15.3591 40.5971 15.4198L40.2502 15.9256C40.199 15.996 40.1595 16.0708 40.106 16.1421L39.6463 16.8183C39.529 16.9943 39.4043 17.1944 39.2681 17.3556L39.0287 17.6883C38.9915 17.7333 38.9799 17.7706 38.9503 17.8179L38.8636 17.9334C38.7938 18.0296 38.7337 18.128 38.6614 18.2223L38.2569 18.8002C38.1565 18.938 38.0196 19.0651 37.926 19.2047C37.9008 19.2424 37.8488 20.8171 37.8504 20.996L37.8171 20.8806C37.7806 21.2592 37.7205 21.7425 37.7711 22.1157L37.7421 22.6284C37.7449 22.9475 37.817 23.5259 37.6745 23.813C37.6683 23.8256 37.5654 25.5956 37.5526 25.9511C37.5467 26.1148 37.5685 26.2786 37.5634 26.4422L37.5632 26.7745L37.5343 26.7167C37.4286 26.8415 37.4268 27.8983 37.3685 28.118L37.3901 28.1613C37.4038 28.2095 37.4007 28.2277 37.3754 28.2698L37.3307 28.3133C37.3072 28.5743 37.1418 29.0403 37.2165 29.2881L37.1878 29.317C37.1436 29.3775 37.1573 29.4914 37.1587 29.5628L37.1209 29.5772C37.0468 29.7333 37.0479 29.9778 37.0119 30.1474L37.003 30.1967C36.9837 30.2912 36.9137 30.4383 36.9131 30.5206L36.8987 30.6319C36.7706 30.8073 36.8247 30.9325 36.7542 31.123L36.6406 31.5157C36.6354 31.676 36.5152 31.8905 36.5231 32.1774L36.5074 32.1981C36.4462 32.3014 36.2584 33.2198 36.2919 33.3188L36.2702 33.3462C36.2046 33.4515 36.2768 33.6367 36.2055 33.7087L36.2013 33.7305C36.1801 33.8313 36.1861 33.9421 36.1368 34.0265L36.1415 34.06C36.1445 34.1336 36.1169 34.2028 36.0948 34.2721L36.1113 34.4816L36.0638 34.3876C36.0648 34.5558 36.0321 34.7159 36.0321 34.8788L36.0516 35.0883L36.0173 35.0404C36.0373 35.2146 36.0696 35.4829 36.0057 35.6445L36.0319 35.8903L35.9741 35.9912C35.9153 36.0589 35.9489 36.4028 35.9166 36.5257L35.9044 36.7495C35.9014 36.8508 35.7889 38.1093 35.7796 38.1292C35.7288 38.2404 35.7816 38.5173 35.7768 38.651C35.7733 38.7497 35.7263 38.8293 35.7179 38.9237C35.6994 39.1295 35.7393 39.3272 35.6854 39.5305L35.6733 39.7254C35.608 40.0622 35.6147 40.4193 35.5717 40.7584L35.5706 40.8136C35.5659 40.9976 35.4886 41.1966 35.5593 41.3873L35.5121 41.6107L35.5335 41.8491L35.5118 41.7985C35.4628 41.8533 35.4738 42.2268 35.4543 42.333L35.4686 42.3692C35.4941 42.4455 35.4841 42.5279 35.483 42.6075L35.4766 42.5741C35.4667 42.5241 35.4713 42.5435 35.4541 42.4919L35.4254 42.5208C35.4291 42.7875 35.2192 43.7736 35.3676 43.9221L35.3601 44.0739L35.3237 44.2887C35.3237 44.403 35.2954 44.5547 35.3098 44.6589L35.2572 44.9566C35.2598 45.0802 35.2485 45.1882 35.2232 45.309L35.2375 45.3451C35.259 45.4095 35.25 45.4519 35.2445 45.5185L35.1943 45.4679C35.1962 45.5756 35.1187 46.6062 35.0993 46.7104C35.0443 47.0038 35.1172 47.2989 35.0529 47.5915L35.0496 47.7215C34.9974 47.7767 35.0159 48.1223 34.992 48.2271L35.0143 48.4393C34.9577 48.156 34.9467 48.8708 34.9361 48.9061L34.9071 49.01C34.8984 49.0417 34.8366 50.4753 34.8476 50.4951L34.8058 50.7046C34.7746 50.8432 34.8064 50.976 34.7609 51.1163L34.7606 51.2752C34.6826 51.365 34.6528 52.4093 34.6742 52.5321L34.6451 52.5754C34.5826 52.7268 34.6425 53.2052 34.6089 53.4061L34.5754 53.3915C34.5448 53.5441 34.5606 53.7035 34.5297 53.8611L34.5295 54.0489C34.4628 54.2105 34.5225 54.4557 34.4555 54.6695C34.3703 54.9421 34.4225 55.365 34.4143 55.6633C34.4082 55.8848 34.2709 56.2729 34.2746 56.4325L34.2712 56.5136C34.241 56.5731 34.2119 56.6944 34.1874 56.7648L34.1114 56.9967C34.0863 57.0684 34.0517 57.131 34.0137 57.1962L33.9529 57.3196C33.8073 57.645 33.0114 58.5603 32.9888 58.6391ZM27.7109 56.3952L27.4899 55.7102C27.3829 55.3881 27.3413 55.0325 27.3076 54.6971L26.4105 44.8611L26.2724 42.5497C26.2091 41.6202 26.1853 40.6716 26.0739 39.7481L25.9104 36.9366C25.8104 36.3146 25.7253 35.5372 25.7872 34.9074L25.6599 34.9887C25.6424 35.2756 25.5151 35.5228 25.6075 35.8323L25.6309 36.0201C25.6545 36.1033 25.6639 36.1658 25.6681 36.2512L25.6437 36.2801C25.6554 36.3542 25.6638 36.4267 25.6927 36.4965L25.7176 36.4679C25.7149 36.6585 25.6966 36.8661 25.7342 37.053C25.7629 37.0044 25.7596 36.9781 25.7619 36.9229L25.8042 36.9013C25.804 37.045 25.7465 37.1497 25.7465 37.3058L25.7753 37.3347C25.7765 37.4328 25.7964 37.5637 25.7548 37.6525L25.7751 37.7508C25.8239 37.6889 25.8167 37.6317 25.8545 37.5657L25.8331 37.8981C25.8776 38.0092 25.8365 38.7767 25.8331 39.0104L25.862 39.0393C25.862 39.1343 25.8749 39.6679 25.9073 39.74L25.934 39.7183C25.934 39.6185 25.9252 39.5486 25.9629 39.4582L25.9918 39.4005C25.9772 39.6163 25.8866 40.0179 25.9776 40.2094L25.9367 40.3277C25.9151 40.4035 25.945 40.5186 25.9487 40.5995L25.9776 40.6428C25.9776 40.7147 25.9655 40.7546 26.0065 40.8162L25.9902 40.9511C25.9785 41.0583 25.9735 41.1978 26.0135 41.2988C26.0713 41.2431 26.055 41.1669 26.0929 41.0904C26.1188 41.1686 26.1111 41.4336 26.0643 41.4807L26.0675 41.512C26.0837 41.6837 26.057 41.8525 26.0828 42.0225C26.1328 42.3525 26.0388 42.9987 26.1509 43.3298L26.1798 43.4887C26.1796 43.7597 26.1387 43.9824 26.2087 44.2544L26.2376 44.3988C26.2374 44.5624 26.202 44.6741 26.2409 44.8467H26.2807C26.2827 44.7594 26.2915 44.6981 26.3096 44.6155L26.3385 44.5722C26.3193 44.847 26.3823 45.3108 26.2748 45.5401L26.28 45.5681C26.3019 45.7048 26.4124 46.0723 26.3243 46.1613L26.4094 46.6343C26.4214 46.7062 26.4139 46.7821 26.4107 46.8547L26.3821 46.8836C26.3908 47.0908 26.4723 47.2757 26.4685 47.4903L26.4859 47.7432C26.4965 47.7908 26.4977 47.8315 26.4977 47.8804L26.5265 47.9093C26.5284 48.0189 26.4732 48.2314 26.5554 48.3138L26.578 48.4202C26.5875 48.4671 26.5851 48.5118 26.5841 48.5593L26.5554 48.5882C26.5698 48.6622 26.5843 48.7292 26.5843 48.8049L26.6132 48.8338C26.6132 48.9526 26.6222 49.3331 26.671 49.4261L26.6935 49.5172C26.7031 49.5643 26.7007 49.6095 26.6997 49.6573L26.671 49.6861C26.671 49.7978 26.7432 50.3796 26.7577 50.394L26.8091 50.5842C26.8222 50.6487 26.8164 50.7184 26.8152 50.7841L26.8481 51.1331C26.8571 51.2272 26.8439 51.1185 26.8733 51.2174V51.4197C26.8008 51.5548 26.9338 51.8845 26.9308 52.0553L26.9021 52.0842C26.9231 52.22 26.9624 52.335 26.9599 52.4743L26.9888 52.5176C26.9886 52.6986 26.9249 52.8608 27.0177 53.0377L27.0403 53.1258C27.055 53.1991 27.0475 53.2808 27.0464 53.3555L27.0826 53.5576C27.086 53.4668 27.078 53.4067 27.1186 53.3266L27.1331 53.2688C27.1599 53.3702 27.1318 53.5068 27.1331 53.6155L27.1044 53.6444C27.1097 53.7682 27.0817 54.0685 27.1331 54.1645L27.1836 54.4102C27.1521 54.3544 27.1428 54.3225 27.1403 54.2583L27.094 54.2872C27.088 54.3908 27.0917 54.5038 27.1333 54.5979L27.1558 54.686C27.1681 54.7466 27.1609 54.8085 27.1609 54.8698C27.1609 55.1058 27.4658 56.0754 27.5956 56.2881L27.7109 56.3952ZM30.1958 28.4236L24.4212 28.4115L23.8496 20.0253L23.832 19.9919C23.732 20.0795 23.7108 20.2255 23.6984 20.3604L23.7382 22.3684C23.7404 22.2354 23.7421 22.11 23.7632 21.9784L23.7818 21.805C23.7834 22.3805 23.6723 23.5769 23.7818 24.0297L23.8051 24.1967C23.7962 24.2603 23.8027 24.3132 23.8104 24.3764L23.8333 24.7341C23.8874 25.108 23.9029 26.0175 24.0127 26.3558L24.0003 26.3822C23.9715 26.466 23.9782 26.5811 24.0129 26.6589L24.0449 26.7573C24.0975 26.8985 24.0431 27.0292 24.1318 27.1934L24.1269 27.2244C24.1185 27.283 24.0996 27.3624 24.1355 27.41L24.1863 27.309C24.1856 27.4846 24.1053 27.6631 24.2152 27.8435C24.3432 28.0534 24.076 28.2535 24.3305 28.4217L30.1958 28.4236ZM24.9429 30.233L29.7256 30.2231C29.4923 30.0619 29.0103 30.1726 28.7353 30.1714L25.6162 30.1188C25.438 30.1121 25.1824 30.152 25.0149 30.0972L24.9429 30.233Z" fill="black"/>
<path d="M24.9434 30.233L25.0154 30.0972C25.1828 30.1519 25.4385 30.1121 25.6167 30.1188L28.7358 30.1714C29.0107 30.1725 29.4928 30.0618 29.7261 30.223L24.9434 30.233Z" fill="black"/>
<path d="M30.1956 28.4238L24.3303 28.4219C24.0758 28.2538 24.343 28.0536 24.215 27.8438C24.105 27.6633 24.1854 27.4848 24.1861 27.3092L24.1353 27.4102C24.0994 27.3626 24.1183 27.2832 24.1267 27.2246L24.1316 27.1937C24.0429 27.0294 24.0973 26.8987 24.0447 26.7575L24.0127 26.6592C23.978 26.5814 23.9713 26.4663 24.0001 26.3825L24.0125 26.356C23.9027 26.0178 23.8872 25.1082 23.8331 24.7344L23.8102 24.3767C23.8025 24.3134 23.796 24.2605 23.8049 24.197L23.7816 24.03C23.6721 23.5772 23.7832 22.3808 23.7816 21.8052L23.763 21.9786C23.7419 22.1102 23.7402 22.2356 23.738 22.3686L23.6982 20.3606C23.7106 20.2258 23.7318 20.0798 23.8318 19.9922L23.8494 20.0256L24.421 28.4118L30.1956 28.4238Z" fill="black"/>
<path d="M27.7109 56.3951L27.5956 56.2879C27.4658 56.0753 27.1609 55.1057 27.1609 54.8697C27.1609 54.8084 27.1681 54.7465 27.1558 54.6859L27.1333 54.5977C27.0917 54.5037 27.088 54.3906 27.094 54.2871L27.1404 54.2582C27.1428 54.3223 27.1521 54.3542 27.1836 54.41L27.1331 54.1643C27.0818 54.0684 27.1097 53.7681 27.1044 53.6443L27.1331 53.6154C27.1318 53.5066 27.1599 53.37 27.1331 53.2687L27.1186 53.3265C27.0781 53.4066 27.086 53.4667 27.0826 53.5575L27.0464 53.3554C27.0475 53.2807 27.0551 53.199 27.0403 53.1257L27.0177 53.0375C26.9249 52.8607 26.9886 52.6985 26.9888 52.5175L26.9599 52.4741C26.9624 52.3349 26.9231 52.2199 26.9022 52.0841L26.9308 52.0552C26.9338 51.8844 26.8008 51.5547 26.8733 51.4196V51.2173C26.8439 51.1184 26.8571 51.227 26.8481 51.133L26.8153 50.7839C26.8164 50.7183 26.8222 50.6486 26.8091 50.5841L26.7577 50.3939C26.7433 50.3794 26.671 49.7977 26.671 49.686L26.6997 49.6571C26.7007 49.6094 26.7032 49.5642 26.6936 49.5171L26.671 49.426C26.6223 49.333 26.6132 48.9525 26.6132 48.8337L26.5843 48.8048C26.5843 48.7291 26.5698 48.6621 26.5555 48.5881L26.5841 48.5592C26.5852 48.5117 26.5875 48.467 26.578 48.4201L26.5555 48.3136C26.4732 48.2312 26.5284 48.0188 26.5266 47.9091L26.4977 47.8803C26.4977 47.8314 26.4965 47.7907 26.4859 47.7431L26.4685 47.4902C26.4724 47.2756 26.3908 47.0907 26.3821 46.8835L26.4108 46.8546C26.4139 46.782 26.4214 46.7061 26.4094 46.6342L26.3243 46.1612C26.4124 46.0722 26.3019 45.7047 26.2801 45.5679L26.2749 45.54C26.3823 45.3107 26.3193 44.8469 26.3385 44.5721L26.3096 44.6154C26.2915 44.6979 26.2827 44.7593 26.2807 44.8466H26.2409C26.202 44.674 26.2374 44.5623 26.2376 44.3987L26.2087 44.2543C26.1387 43.9823 26.1796 43.7596 26.1799 43.4886L26.151 43.3297C26.0389 42.9986 26.1328 42.3523 26.0828 42.0224C26.057 41.8524 26.0837 41.6835 26.0675 41.5119L26.0643 41.4806C26.1111 41.4334 26.1188 41.1684 26.0929 41.0903C26.055 41.1668 26.0713 41.243 26.0135 41.2987C25.9736 41.1977 25.9785 41.0582 25.9902 40.9509L26.0065 40.8161C25.9655 40.7545 25.9776 40.7146 25.9776 40.6427L25.9487 40.5994C25.945 40.5185 25.9151 40.4034 25.9367 40.3276L25.9776 40.2093C25.8867 40.0178 25.9773 39.6162 25.9918 39.4003L25.9629 39.4581C25.9253 39.5485 25.934 39.6184 25.934 39.7182L25.9073 39.7399C25.8749 39.6678 25.862 39.1342 25.862 39.0392L25.8331 39.0103C25.8365 38.7766 25.8776 38.0091 25.8331 37.8979L25.8545 37.5656C25.8167 37.6315 25.8239 37.6888 25.7751 37.7507L25.7548 37.6523C25.7964 37.5636 25.7765 37.4327 25.7754 37.3345L25.7465 37.3056C25.7465 37.1496 25.804 37.0449 25.8043 36.9011L25.762 36.9228C25.7596 36.978 25.7629 37.0042 25.7342 37.0529C25.6967 36.866 25.7149 36.6583 25.7176 36.4678L25.6927 36.4964C25.6638 36.4266 25.6554 36.354 25.6437 36.28L25.6681 36.2511C25.664 36.1657 25.6545 36.1031 25.6309 36.0199L25.6076 35.8321C25.5151 35.5226 25.6425 35.2754 25.6599 34.9886L25.7873 34.9072C25.7253 35.5371 25.8104 36.3145 25.9105 36.9365L26.0739 39.748C26.1853 40.6715 26.2091 41.6201 26.2724 42.5496L26.4105 44.861L27.3076 54.697C27.3413 55.0324 27.3829 55.388 27.4899 55.7101L27.7109 56.3951Z" fill="black"/>
<path d="M32.9893 58.6391C33.0118 58.5603 33.8077 57.645 33.9533 57.3197L34.0141 57.1962C34.0521 57.1311 34.0867 57.0684 34.1118 56.9968L34.1878 56.7648C34.2123 56.6944 34.2415 56.5731 34.2716 56.5137L34.275 56.4326C34.2713 56.273 34.4086 55.8849 34.4147 55.6633C34.4229 55.365 34.3707 54.9422 34.4559 54.6695C34.5229 54.4557 34.4632 54.2105 34.5299 54.0489L34.5301 53.8611C34.561 53.7035 34.5452 53.5441 34.5758 53.3916L34.6093 53.4061C34.6429 53.2053 34.583 52.7268 34.6455 52.5754L34.6746 52.5321C34.6532 52.4094 34.683 51.3651 34.7611 51.2753L34.7613 51.1164C34.8068 50.9761 34.775 50.8433 34.8062 50.7046L34.848 50.4952C34.837 50.4753 34.8988 49.0418 34.9075 49.01L34.9365 48.9061C34.9471 48.8708 34.9581 48.1561 35.0147 48.4393L34.9924 48.2271C35.0163 48.1223 34.9979 47.7768 35.05 47.7215L35.0533 47.5915C35.1176 47.299 35.0447 47.0038 35.0997 46.7104C35.1191 46.6063 35.1966 45.5756 35.1947 45.4679L35.2449 45.5185C35.2504 45.452 35.2594 45.4095 35.2379 45.3452L35.2236 45.309C35.2489 45.1882 35.2602 45.0803 35.2577 44.9566L35.3102 44.6589C35.2958 44.5548 35.3241 44.403 35.3241 44.2887L35.3605 44.0739L35.368 43.9222C35.2196 43.7737 35.4295 42.7875 35.4258 42.5209L35.4545 42.492C35.4717 42.5435 35.4671 42.5241 35.477 42.5742L35.4834 42.6076C35.4845 42.5279 35.4945 42.4455 35.469 42.3693L35.4547 42.3331C35.4742 42.2269 35.4633 41.8534 35.5123 41.7986L35.5339 41.8492L35.5125 41.6108L35.5598 41.3874C35.489 41.1967 35.5663 40.9977 35.571 40.8137L35.5721 40.7584C35.6151 40.4194 35.6084 40.0623 35.6737 39.7255L35.6858 39.5305C35.7397 39.3272 35.6998 39.1295 35.7183 38.9238C35.7268 38.8294 35.7737 38.7497 35.7773 38.651C35.782 38.5173 35.7292 38.2404 35.78 38.1292C35.7893 38.1094 35.9018 36.8508 35.9048 36.7496L35.917 36.5257C35.9493 36.4029 35.9157 36.0589 35.9745 35.9912L36.0323 35.8903L36.0061 35.6445C36.07 35.4829 36.0377 35.2147 36.0178 35.0404L36.052 35.0884L36.0326 34.8788C36.0326 34.7159 36.0653 34.5558 36.0642 34.3877L36.1117 34.4816L36.0952 34.2721C36.1173 34.2029 36.1449 34.1337 36.1419 34.06L36.1373 34.0265C36.1865 33.9422 36.1805 33.8313 36.2017 33.7305L36.2059 33.7087C36.2772 33.6367 36.205 33.4516 36.2706 33.3463L36.2923 33.3189C36.2588 33.2198 36.4466 32.3014 36.5078 32.1981L36.5235 32.1774C36.5156 31.8906 36.6358 31.6761 36.641 31.5158L36.7546 31.1231C36.8251 30.9325 36.771 30.8073 36.8991 30.6319L36.9135 30.5206C36.9141 30.4383 36.9842 30.2912 37.0035 30.1968L37.0123 30.1474C37.0483 29.9779 37.0473 29.7333 37.1213 29.5772L37.1591 29.5629C37.1577 29.4915 37.144 29.3775 37.1882 29.3171L37.2169 29.2882C37.1422 29.0404 37.3076 28.5743 37.3311 28.3133L37.3758 28.2699C37.4011 28.2277 37.4042 28.2096 37.3905 28.1614L37.3689 28.118C37.4272 27.8983 37.429 26.8416 37.5347 26.7167L37.5636 26.7745L37.5638 26.4423C37.5689 26.2786 37.5471 26.1149 37.553 25.9511C37.5658 25.5956 37.6687 23.8257 37.6749 23.8131C37.8174 23.526 37.7453 22.9476 37.7425 22.6285L37.7715 22.1157C37.7209 21.7425 37.781 21.2592 37.8175 20.8806L37.8508 20.9961C37.8492 20.8172 37.9012 19.2424 37.9264 19.2047C38.02 19.0651 38.1569 18.938 38.2573 18.8002L38.6618 18.2224C38.7341 18.1281 38.7942 18.0296 38.864 17.9335L38.9507 17.8179C38.9803 17.7706 38.9919 17.7333 39.0292 17.6883L39.2685 17.3556C39.4048 17.1944 39.5295 16.9943 39.6468 16.8183L40.1064 16.1421C40.1599 16.0708 40.1994 15.9961 40.2506 15.9257L40.5975 15.4198C40.6411 15.3591 40.6697 15.2917 40.7129 15.2323L40.8719 15.0154C40.9303 14.9152 40.9943 14.8075 41.0601 14.712L41.7098 13.7442C41.8136 13.5649 41.926 13.3812 42.0417 13.2096L42.8512 11.9816C42.9383 11.8523 43.0436 11.6773 43.0796 11.6232L43.4722 11.0283C43.5048 10.9678 43.5328 10.911 43.5735 10.8548L43.6167 10.7972C43.668 10.7083 43.7177 10.6074 43.7731 10.5244L44.0501 10.1038C44.0824 10.0427 44.1102 9.98665 44.1513 9.93027L44.238 9.78581C44.3605 9.60761 44.4644 9.43046 44.5839 9.25127L44.6857 9.09253C44.7198 9.02866 44.7623 8.97011 44.7941 8.90646L44.9025 8.6879C44.9349 8.6332 44.9691 8.53576 44.99 8.47317L45.0613 8.25465C45.0798 8.18388 45.1078 8.15004 45.153 8.09277C45.0792 8.81781 44.5847 9.38894 44.2104 9.99269L39.3281 17.4033C38.9674 17.9173 38.6358 18.4907 38.2243 18.9621C37.7945 19.4544 37.9742 19.4845 37.9758 20.189L37.959 21.787C37.954 22.022 37.906 22.2528 37.8989 22.4891L37.8335 25.0205C37.8249 25.1793 37.7849 25.3319 37.7711 25.4888L37.707 26.5398C37.6279 27.4978 37.5049 28.5009 37.2995 29.44L36.5052 32.8419C36.3884 33.4338 36.2743 34.0172 36.2151 34.6188L35.9816 38.1148L34.7131 53.4855C34.5474 55.3337 34.6662 57.2269 33.0997 58.5568L32.9893 58.6391Z" fill="black"/>
<path d="M29.6106 53.1868C30.3627 53.1811 31.2661 53.269 31.5832 54.0855L31.631 54.203C31.9145 55.0898 31.3319 55.7586 30.5067 55.9948C28.4248 56.5331 27.6478 53.6147 29.6106 53.1868Z" fill="black"/>
</g>
<defs>
<clipPath id="clip0_9_5380">
<rect width="59.1716" height="59.1716" fill="white" transform="translate(0.508789 0.482422)"/>
</clipPath>
</defs>
</svg>
