<svg width="60" height="60" viewBox="0 0 60 60" fill="none" xmlns="http://www.w3.org/2000/svg">
<path d="M30.3596 3.70237C28.5368 3.62158 26.6874 3.85706 24.8808 4.08381C18.4222 4.89446 12.1619 6.5306 6.35071 9.53438L4.62448 10.4671C4.26349 10.6691 3.86975 10.8694 3.54687 11.1278C4.10238 15.1978 7.34197 21.051 9.60392 24.3001L11.4994 26.8053C11.9603 27.3675 13.1612 28.5381 13.2132 29.2913C13.2423 29.714 12.6605 30.0821 12.2946 30.0964C11.6501 30.1218 11.2197 29.4121 10.8693 28.9684L9.81858 27.6306C6.44476 23.3429 3.70976 18.5347 2.13957 13.2906L1.73229 11.8387C1.37536 10.3895 1.60196 10.2048 2.75137 9.47307L5.34946 7.98686C7.21546 7.03152 9.14975 6.15052 11.1169 5.4223L14.1362 4.44844C18.5889 3.11499 24.444 1.91617 29.1674 1.88281L30.8349 1.89126L34.0484 2.18728C38.3487 2.66024 42.671 3.54823 46.7743 4.92802L52.8735 7.46452C53.9068 7.97388 54.9274 8.4951 55.9079 9.10192L56.8836 9.73047C57.7263 10.2904 57.9086 10.299 57.6748 11.2573C56.2012 17.2946 53.1512 22.8872 49.3259 27.7536L48.2835 29.0552C47.768 29.6857 46.757 30.8208 46.1356 29.5734C45.7568 28.8133 46.6326 28.1792 47.0567 27.6625L49.7099 24.1173C51.6173 21.3657 53.3021 18.4114 54.4881 15.2728L55.2585 13.0121L55.7582 11.15C55.5925 11.0121 55.3143 10.9029 55.1231 10.7921L53.4621 9.82314C52.2602 9.15536 51.0354 8.62365 49.7728 8.08543L46.3521 6.72411L42.4787 5.57796C38.7964 4.62922 34.2013 3.82 30.3596 3.70237Z" fill="black"/>
<path d="M30.5603 29.3395L17.4789 29.34C17.0232 29.34 16.5044 29.3887 16.0569 29.3105L16.0045 29.3006C15.5078 29.2124 15.3398 28.8569 15.0379 28.4874L13.874 27.0404C10.9118 23.2258 8.24466 19.2855 6.59205 14.7238L6.12617 13.3389C5.73322 12.0607 5.85592 11.9372 7.08686 11.2602L8.59162 10.4882C14.7634 7.4646 21.9708 6.01755 28.7688 5.54639L30.7526 5.54673L34.2902 5.9033C39.6996 6.57482 44.5384 7.81706 49.5257 9.94783L51.9807 11.1369C52.3925 11.3583 52.8477 11.5836 53.1961 11.8986C53.6691 12.3264 53.015 13.8021 52.8266 14.3355C51.3121 18.6216 48.868 22.4542 46.1566 26.0738L44.6621 27.9741C43.3878 29.531 43.5994 29.332 41.6885 29.3356L30.5603 29.3395ZM29.1969 7.36376C22.2775 7.62418 13.9371 9.67043 7.91205 12.8679C9.12631 17.351 12.3053 21.9736 15.0868 25.6008L16.373 27.1824C16.4695 27.2946 16.508 27.4111 16.6374 27.4936L30.1269 27.5066L42.3641 27.5076C42.4743 27.5062 42.5966 27.52 42.6994 27.479L44.8857 24.6832C47.4874 21.203 50.1338 17.097 51.3537 12.8716C50.0589 12.144 48.6506 11.5295 47.2687 10.9842L43.0562 9.52306C39.4108 8.45799 34.692 7.57974 30.8379 7.37633L29.1969 7.36376Z" fill="black"/>
<path d="M43.6972 57.5025L41.2775 57.9433L35.8043 58.4677L33.2621 58.5934L25.9073 58.5991C25.5897 58.5889 25.2825 58.5331 24.9697 58.5125L18.7378 58.014C16.0896 57.673 12.1241 57.0753 10.0951 55.2099C8.5193 53.7612 8.13869 51.7369 8.3791 49.719L10.2299 36.1165C10.3393 35.3194 10.3903 34.4722 10.5897 33.6954C11.0713 31.8194 12.7577 31.2033 14.4799 31.1424L44.1858 31.1407C44.6953 31.141 45.2123 31.1234 45.72 31.17C47.0873 31.2954 48.4072 32.5893 48.7003 33.8877C48.8955 34.7526 48.9513 35.6769 49.0673 36.5572L50.6836 48.0805C51.0022 50.5322 51.388 51.95 49.935 54.2556C48.639 56.3123 45.914 56.9915 43.6972 57.5025ZM30.3373 32.9809L15.6392 32.9817C14.1713 32.9803 12.6526 32.7709 12.2837 34.5498C12.1062 35.4066 12.0531 36.3222 11.9518 37.1914L10.2271 49.5279C10.2028 49.7328 10.1379 49.9795 10.1413 50.1817L10.1471 50.2333C13.0624 51.7104 16.7743 52.2103 19.9775 52.5768L22.8488 52.8816L28.1257 53.1672C28.3821 53.168 28.6669 53.1941 28.9208 53.1684L31.1781 53.1673C32.2655 53.1656 33.3451 53.0937 34.4319 53.0506L36.3823 52.9043C40.2732 52.6112 45.6373 51.9117 49.1305 50.2271L47.2144 36.4925C47.1155 35.7451 47.0695 34.9406 46.8807 34.2122C46.4974 32.7331 45.1705 32.9756 44.0599 32.9805L30.3373 32.9809ZM10.2877 52.2664C11.4796 54.9999 14.3361 55.4564 17.013 55.9277C19.5423 56.373 22.091 56.5628 24.6519 56.6935L26.1156 56.7883L33.2913 56.7888L35.082 56.6828C38.2851 56.523 46.1236 56.0584 48.2539 53.486C48.5295 53.12 48.7176 52.7395 48.8979 52.32C44.7763 54.1034 37.9253 54.7121 33.4987 54.8983L26.7899 54.9725L25.841 54.9014C21.3819 54.703 15.0334 54.157 10.8042 52.4837L10.2877 52.2664Z" fill="black"/>
<path d="M18.8805 41.1346C18.2085 41.1642 17.5901 41.1201 16.9375 40.9582C15.1871 40.5241 13.3537 38.7283 14.8589 37.0353C15.7333 36.0519 17.0087 35.7951 18.259 35.7137C19.4942 35.6062 20.9086 35.9221 21.8637 36.7415C22.8815 37.6148 22.9755 38.8625 22.0721 39.8482C21.2522 40.7429 20.0559 41.0782 18.8805 41.1346ZM18.4853 37.5331C17.968 37.5568 15.3102 37.8897 16.5476 38.8118C17.0913 39.217 17.918 39.2855 18.5717 39.2868C19.3759 39.2746 20.412 39.1671 20.7972 38.3532C20.3162 37.6601 19.2767 37.4882 18.4853 37.5331Z" fill="black"/>
<path d="M29.967 41.1891C29.7844 41.2189 29.5392 41.1901 29.3431 41.1865C28.2035 41.1653 26.903 40.7544 26.1027 39.9157C25.1728 38.9413 25.2949 37.6429 26.2739 36.7549C27.0605 36.0415 28.3512 35.6792 29.3987 35.7245C30.6146 35.7144 31.808 35.8744 32.8072 36.6465C33.8033 37.4163 34.1957 38.6757 33.3506 39.7134C32.5234 40.7295 31.214 41.0713 29.967 41.1891ZM29.1202 37.5581C27.9302 37.6984 26.2377 38.5082 28.2798 39.1288C28.9459 39.3313 29.5412 39.2743 30.222 39.2835C30.6833 39.2066 32.6186 38.6968 31.6153 38.0351C30.8937 37.559 29.9551 37.5159 29.1202 37.5581Z" fill="black"/>
<path d="M41.2362 41.128C40.7794 41.1519 40.3046 41.1692 39.8493 41.1213C37.8762 40.9135 35.4093 39.0155 37.1101 37.031C37.9086 36.0992 39.1625 35.7948 40.332 35.7129C41.4682 35.5726 43.0157 35.9468 43.9084 36.6198C44.939 37.3967 45.2895 38.5754 44.4677 39.6438C43.6848 40.6617 42.4487 40.979 41.2362 41.128ZM40.7261 37.5371C40.0618 37.5296 39.1114 37.6173 38.6147 38.106C38.2987 38.4166 38.4677 38.6628 38.7936 38.8813C39.3649 39.2643 40.1122 39.3105 40.7785 39.3052C41.5025 39.2797 42.3959 39.166 42.9138 38.5897L43.0662 38.3894C42.7056 37.8917 42.0615 37.6631 41.4699 37.5736L40.7261 37.5371Z" fill="black"/>
<path d="M41.2391 49.4786C39.8965 49.4703 38.4938 49.444 37.4412 48.4459C36.5419 47.5931 36.2744 46.176 37.2047 45.2426C38.0251 44.4194 39.3938 44.0141 40.5357 44.0132C42.2353 44.0259 44.9069 44.4425 45.0891 46.5412C45.263 48.5459 42.827 49.3442 41.2391 49.4786ZM40.5918 45.8543C39.8202 45.892 38.9039 45.9751 38.4519 46.6825C38.9179 47.698 40.2986 47.6668 41.2328 47.6615C41.8724 47.5871 42.7847 47.4288 43.2147 46.8919L43.3063 46.7679C42.7104 45.9769 41.5193 45.8038 40.5918 45.8543Z" fill="black"/>
<path d="M18.9906 49.4787C18.515 49.4838 18.0269 49.5067 17.5534 49.4606C16.0829 49.3174 14.3174 48.4847 14.1209 46.843C13.895 44.9547 16.3685 44.1726 17.8232 44.0333C19.1191 43.9465 20.5789 44.0635 21.6309 44.9035C22.6334 45.704 23.0179 47.0256 22.1374 48.0753C21.3371 49.0293 20.1881 49.3705 18.9906 49.4787ZM17.8463 45.8783C17.1864 45.9572 16.413 46.1039 15.9781 46.6554L15.9578 46.6831C16.629 47.6537 17.9415 47.7714 19.0191 47.6548C19.6389 47.566 20.3435 47.3791 20.7382 46.8529L20.8249 46.722C20.2271 45.9925 18.7398 45.7194 17.8463 45.8783Z" fill="black"/>
<path d="M30.2355 49.4758C29.7676 49.4833 29.2908 49.5023 28.8242 49.461C24.4151 49.0712 24.0099 44.4392 29.0478 44.033C30.7368 43.8652 33.6714 44.5015 33.8569 46.5219C34.035 48.4615 31.8236 49.3508 30.2355 49.4758ZM29.2044 45.8545C28.5608 45.9136 27.7317 46.0358 27.2879 46.5606L27.2073 46.6622C27.7099 47.6306 29.1391 47.7437 30.0908 47.6848C30.5789 47.6268 31.9686 47.3619 32.0341 46.7218C31.625 45.8837 29.9823 45.8003 29.2044 45.8545Z" fill="black"/>
</svg>
