<svg width="60" height="60" viewBox="0 0 60 60" fill="none" xmlns="http://www.w3.org/2000/svg">
<path d="M30.2344 29.0199C26.2361 29.0005 22.1007 29.3304 18.1985 30.2541L15.153 31.0777C14.5986 31.2459 14.0337 31.4803 13.4679 31.5949C12.6961 31.7512 12.1831 30.8142 12.6389 30.212C13.3366 29.2902 17.7794 28.437 18.899 28.2197L21.9327 27.6877L24.695 27.3772L24.6994 25.5978L23.1994 25.4991C18.3479 25.1106 4.1008 22.9209 4.05268 16.5609C4.04221 15.1763 4.21887 13.7105 4.8063 12.444C7.68596 6.23525 19.2692 4.09255 25.298 3.63337L29.0738 3.48145L31.7914 3.49806L34.3234 3.68711C39.6238 4.15433 45.8012 5.3265 50.3772 8.22505C53.6017 10.2676 55.1688 12.5005 55.1539 16.3917C55.1454 18.6018 53.9026 19.9747 52.0925 21.1251C47.5693 23.9998 39.7141 25.3212 34.5349 25.6112L34.5332 27.2511C34.5407 27.4804 34.6697 27.4013 34.8777 27.4213L35.9746 27.5398C37.6848 27.7477 45.3317 28.9398 46.5054 30.0842C47.0641 30.6289 46.7343 31.4447 46.0337 31.6127L45.9955 31.6206C45.8669 31.6417 45.7275 31.609 45.6031 31.5754L40.8564 30.2233C37.3754 29.475 33.7961 29.0333 30.2344 29.0199ZM28.5355 5.31459L25.511 5.47433C19.853 5.88031 9.8112 7.7026 6.48478 12.9876L7.22272 12.4962C11.9394 9.47163 20.1624 8.35185 25.6375 8.00511L30.7159 7.89766L32.2316 7.9062L39.5808 8.61214L44.2443 9.53111C46.9003 10.1647 49.6296 10.9534 51.9331 12.4676L52.6986 13.0061C49.3486 7.43493 38.5832 5.72599 32.7777 5.40357L28.5355 5.31459ZM28.6693 9.72888L23.9195 9.96714C21.1712 10.2182 18.4618 10.6068 15.7708 11.2279C12.4002 12.0059 1.1997 15.3207 8.22322 19.6323C11.2891 21.5145 15.8498 22.5897 19.3806 23.1402L24.8989 23.8262C25.2667 23.2293 25.6618 23.0889 26.3168 23.0951L30.5821 23.1052L32.5625 23.0975C33.4566 23.0878 33.8265 22.9647 34.3023 23.7885C35.4523 23.7693 36.6273 23.619 37.768 23.4681C40.6786 23.083 53.3459 20.9833 53.2677 16.6857C53.2215 14.15 46.8797 12.125 44.9165 11.6032C41.8964 10.8003 38.8192 10.29 35.71 9.98296L33.114 9.81375C32.9216 9.79997 32.7361 9.75398 32.5416 9.74437L28.6693 9.72888ZM26.6052 24.9614L26.6361 27.1961L32.6117 27.1807L32.6336 24.9585L26.6052 24.9614Z" fill="black"/>
<path d="M30.8312 56.4342L26.0483 56.2872C19.0806 55.7581 6.97972 53.5208 4.55208 45.9226C4.07259 44.4218 4.01246 42.228 4.19737 40.6717C5.15149 32.6412 21.2674 30.09 28.4352 29.9321L31.8869 29.9662C37.995 30.3088 45.8261 31.6561 50.9836 35.039C53.4767 36.6743 55.038 38.4095 55.0853 41.506C55.0981 42.347 55.1302 43.2271 55.0529 44.0635C54.1781 53.5304 38.8785 56.3045 30.8312 56.4342ZM28.4294 31.7786L23.0752 32.2136C18.4836 32.8198 10.5089 34.6022 7.2188 38.2578C6.77053 38.7557 6.16163 39.5453 6.19993 40.2578C6.28465 41.8341 8.93417 43.4671 10.1923 44.1437C14.6083 46.5188 20.4153 47.5224 25.3956 47.8126C26.3666 47.8692 27.36 47.8326 28.3332 47.834L29.9145 47.8359C30.1809 47.8362 30.4575 47.8521 30.7228 47.8336L33.7329 47.8016C38.8008 47.5106 44.5352 46.5394 49.0575 44.1206C50.2925 43.4601 52.9897 41.8412 52.983 40.197C52.9791 39.2877 52.2012 38.4168 51.5908 37.8223C47.9192 34.2468 39.0854 32.3755 33.8594 31.9501L30.9243 31.7861L28.4294 31.7786ZM53.287 43.2997C49.487 47.3935 40.1565 49.3575 34.4047 49.575L32.4283 49.6876L26.346 49.6877L24.9561 49.5839C19.0263 49.1883 10.6639 47.801 6.10258 43.5577L5.92849 43.3855C6.0504 44.728 6.38228 45.969 7.16085 47.0928C10.9673 52.3545 20.427 54.1984 26.5695 54.4997L33.1615 54.4376C39.3958 54.0537 52.0363 51.659 53.1743 44.3643L53.287 43.2997Z" fill="black"/>
<path d="M31.3153 53.2008L29.0968 53.2088C28.6317 53.2086 28.1006 53.2554 27.6441 53.1689L27.5955 53.1588C26.6624 52.9733 26.5413 51.45 27.9751 51.3451L30.1431 51.3332C30.6081 51.333 31.1329 51.2846 31.5915 51.3608C32.5109 51.5133 32.9132 53.0525 31.3153 53.2008Z" fill="black"/>
</svg>
