<svg width="60" height="60" viewBox="0 0 60 60" fill="none" xmlns="http://www.w3.org/2000/svg">
<g clip-path="url(#clip0_9_5410)">
<path d="M31.6956 0.901756C32.0283 0.876888 32.4469 0.865473 32.7734 0.933042L33.1668 1.01354C34.9758 1.4991 35.3036 2.70491 35.3087 4.3245L35.3191 10.5035C37.5242 10.5004 37.9571 10.8286 37.9508 13.2116L37.9453 14.979C38.0144 15.0649 38.441 15.1091 38.5739 15.1433C42.3853 16.124 44.5964 17.9683 44.6003 21.9475C44.6016 23.2685 44.4499 24.5515 44.2941 25.8604L43.0213 36.3518L42.6228 42.2541L42.6042 44.8398C42.6043 47.6175 42.7031 50.9882 44.8615 53.044C45.1875 53.3546 45.5788 53.659 45.7998 54.0594L45.8891 54.2229C46.1082 54.6588 46.1676 55.2596 46.0137 55.7227C45.1599 58.2927 39.0914 59.1132 36.8266 59.3343L33.075 59.6275L27.8671 59.6407L26.488 59.5521C24.8097 59.4745 23.119 59.3847 21.4555 59.1406L20.0475 58.8994C18.5536 58.6344 16.9306 58.1213 15.6631 57.2946C14.4576 56.5084 13.4475 55.0362 14.5786 53.7425C14.8957 53.3798 15.3142 53.1153 15.6478 52.7623C17.1255 51.199 17.5342 48.3887 17.5799 46.2597C17.687 41.2589 17.2208 36.2644 16.5979 31.3086L15.9018 25.9057C15.6071 23.4188 15.0515 20.5294 16.522 18.2926C17.807 16.3379 20.0392 15.4363 22.2511 14.9925C22.2177 14.5723 22.2364 14.1383 22.2361 13.7161C22.2346 11.887 22.1107 10.4483 24.5379 10.447L24.52 7.42285C24.4695 7.34391 23.0352 7.66287 22.5896 7.80722C21.6447 8.11333 20.4949 8.79368 19.497 8.38431L19.3178 8.31015C18.4754 7.95971 17.9519 6.90373 18.2034 6.02251L18.219 5.96997C18.5372 4.86245 19.8076 4.418 20.7464 3.97441C23.831 2.51694 28.2218 1.01922 31.6956 0.901756ZM24.267 16.6181C22.7058 16.6701 21.1533 17.0265 19.7751 17.7789C17.894 18.8057 17.2913 20.3425 17.387 22.4799C17.4706 24.3459 17.8252 26.1785 18.0466 28.0293L19.0289 36.6392L19.3916 42.201L19.4053 45.0515C19.402 48.4634 19.2009 51.4944 16.848 54.1018L15.8514 55.0981C16.4307 55.6144 16.9628 56.0215 17.6854 56.3252C20.2408 57.3994 24.4443 57.705 27.2942 57.7896L33.5184 57.783L35.7704 57.6224L38.0248 57.4147C40.2205 57.1765 42.6199 56.5809 44.3216 55.117C43.8074 54.5603 43.2022 54.0433 42.764 53.4236C40.8919 50.7765 40.7492 47.488 40.7577 44.3455L40.7759 42.389L41.3345 35.0148C41.3893 34.3727 41.4208 33.7003 41.5267 33.0657L42.7884 22.9876C43.3328 17.1439 38.3479 16.6003 33.6806 16.6033L24.267 16.6181ZM31.2445 2.7729C28.9508 3.00284 26.7132 3.55011 24.5491 4.34002L21.6003 5.56738C21.2089 5.74159 20.8071 5.90955 20.4301 6.1131C19.6319 6.54406 19.9723 6.76192 20.6469 6.58294L22.9711 5.89768C24.7848 5.45126 26.6477 5.17259 28.4917 4.88651C29.0464 4.80046 29.9689 4.46398 30.463 4.79056C30.6709 4.991 30.8497 5.21387 30.8688 5.51769C30.9334 6.54618 29.7112 6.58793 29.0495 6.6718L27.2324 6.92777C26.9569 6.96639 26.6151 6.97871 26.362 7.09092L26.3648 10.4983L33.5034 10.5053L33.5051 4.23251C33.5047 3.8879 33.59 3.35847 33.3052 3.09582C32.8352 2.66238 31.9021 2.71976 31.3122 2.76587L31.2445 2.7729ZM24.3991 12.2836L24.0755 12.2994L24.0581 14.7967L35.8014 14.7821L36.1114 14.7834L36.1199 12.9483C36.1211 12.777 36.1639 12.4827 36.1138 12.3265L24.3991 12.2836Z" fill="black"/>
<path d="M19.2542 53.5585C19.3729 53.5555 19.5271 53.5349 19.6409 53.5674C20.5746 53.8349 21.5916 53.962 22.5541 54.0757L26.4888 54.4257C26.6995 54.437 26.9099 54.4885 27.1247 54.4987L33.8184 54.4806C35.6087 54.3829 37.4158 54.2272 39.1762 53.8747C39.5696 53.7959 40.6781 53.4645 41.0008 53.5962L41.0452 53.616C41.8598 53.9731 41.7381 54.9044 40.908 55.3368L40.7886 55.3839C40.4268 55.5301 40.0404 55.5764 39.6583 55.6417L38.2715 55.8669L33.7176 56.3108L26.9599 56.3037L24.0194 56.0861L20.2683 55.5786C19.7716 55.4975 19.0298 55.3591 18.719 54.9201L18.7014 54.8946C18.3065 54.3502 18.7271 53.7573 19.2542 53.5585Z" fill="black"/>
<path d="M21.4482 27.4202C21.8816 27.4191 22.333 27.4609 22.7545 27.5659L23.0673 27.6295C26.3147 28.3927 28.3643 29.6413 30.1447 32.5277C30.3377 32.2562 30.4813 31.9282 30.6625 31.6436C32.2203 29.1966 34.9664 28.0637 37.7224 27.5327C38.0497 27.4697 38.5037 27.3546 38.8309 27.4475L38.8783 27.4652C39.0616 27.5315 39.2359 27.6337 39.3479 27.798L39.3671 27.8268C39.6485 28.2431 39.5742 28.7582 39.5736 29.2315C39.5709 31.3621 39.0281 33.8097 37.8692 35.5991L37.5953 36.0028C37.5649 36.061 37.5315 36.1115 37.4917 36.164C35.9376 38.2171 33.5759 39.1682 31.0557 38.9089L31.0628 40.2275C31.0637 40.6288 31.1161 41.0735 30.9608 41.4495C30.7935 41.8545 30.2497 42.2133 29.8107 42.0151L29.7772 41.9995C28.7703 41.5732 29.2204 39.8561 29.083 39.0163C28.8883 38.8754 27.9379 38.9435 27.6446 38.9371C26.2817 38.9069 24.8066 38.2351 23.7854 37.3405C21.5248 35.3601 20.6653 31.8931 20.5843 28.9969C20.5662 28.3542 20.4955 27.6492 21.2684 27.4478L21.4482 27.4202ZM22.4316 29.3631C22.6428 32.2096 23.6977 36.2338 26.8943 37.032C27.3861 37.1547 27.6124 37.2094 27.8015 36.6831C26.787 36.1214 25.1116 35.5619 24.7674 34.3639L24.7634 34.3351C24.7063 33.9048 24.9885 33.5412 25.4256 33.4971C26.3224 33.4066 27.6317 34.6427 28.4956 35.0674C28.6357 34.8895 28.737 34.7424 28.9354 34.6283C28.4764 32.1183 26.0307 30.4263 23.7287 29.7303L22.4316 29.3631ZM37.6503 29.5003C34.8273 29.9069 32.0494 31.6622 31.3189 34.5461C31.531 35.3657 32.2795 34.6798 32.6763 34.3976C33.1522 34.0591 33.6569 33.6869 34.2267 33.5316L34.2598 33.5222C34.971 33.3287 35.5982 33.8906 35.3204 34.591C34.9247 35.3754 34.0038 35.8544 33.2358 36.2077C32.8266 36.3959 32.3369 36.4286 32.3974 36.9712C32.5805 37.1477 33.2655 36.9508 33.4697 36.8921C36.2614 36.0894 37.5088 32.6302 37.6991 30.0175C37.7115 29.8457 37.779 29.6625 37.7371 29.4917L37.6503 29.5003ZM30.0585 36.1664C28.9457 36.3579 29.6078 37.4547 30.0517 37.4746C30.7897 37.3548 30.8384 36.0637 30.0585 36.1664Z" fill="black"/>
</g>
<defs>
<clipPath id="clip0_9_5410">
<rect width="59.1716" height="59.1716" fill="white" transform="translate(0.508789 0.653809)"/>
</clipPath>
</defs>
</svg>
