<svg width="60" height="60" viewBox="0 0 60 60" fill="none" xmlns="http://www.w3.org/2000/svg">
<g clip-path="url(#clip0_9_5423)">
<path d="M42.8033 55.3529L42.4967 56.1589C41.3721 58.4954 38.9733 59.0487 36.6341 59.3032L34.2161 59.5103L25.9506 59.5051C25.7422 59.497 25.5381 59.464 25.3308 59.4481L23.6207 59.3107C20.8237 58.9823 18.2785 58.1971 17.3637 55.1962C17.29 54.9548 17.2934 54.6623 17.2909 54.4119L17.2873 49.0143C17.288 48.1489 17.2063 47.4728 17.8412 46.8193C17.7862 46.703 17.6518 46.5938 17.5727 46.4873C16.9172 45.6029 16.799 44.4355 16.704 43.3748L16.4869 41.0572L14.7115 30.4241L12.2209 18.018L9.79734 7.01973C9.42143 5.23419 9.19509 3.6612 10.5483 2.15396C11.2866 1.3316 12.2085 0.960046 13.2968 0.897027L46.1088 0.881844C46.6051 0.882301 47.1652 0.837983 47.6455 0.977171C49.8581 1.61831 51.0107 3.52585 50.641 5.84441L48.4003 16.2322L44.9109 33.5043L43.6125 42.4133C43.4943 44.3448 43.5222 45.2492 42.3989 46.9288C43.0789 47.8766 42.9554 47.8954 42.9575 49.1145L42.9612 53.2132C42.9613 53.9361 43.0045 54.65 42.8033 55.3529ZM24.5403 2.64668L14.9328 2.64739C13.4805 2.64824 11.3445 2.69223 11.3482 4.74844C11.3491 5.25666 11.3987 5.75267 11.5763 6.23272C11.6518 6.28976 11.8411 6.27806 11.9345 6.27797L12.807 6.26958C13.0072 6.26742 13.2257 6.24831 13.4234 6.27774C14.3879 6.42126 14.6708 8.21863 12.2795 8.07183C12.2013 8.06703 11.9006 8.01735 11.8657 8.04602L13.4849 15.4457L17.1746 33.7806L18.4021 41.9588C18.5183 43.4567 18.404 45.2318 19.8647 46.1225C20.4406 46.4737 21.1135 46.6815 21.7854 46.6873L35.5587 46.6874L37.4509 46.6865C40.4586 46.6823 41.644 46.1609 41.759 43.0469L42.5473 36.6124L43.3184 32.0597L48.2398 8.55654C48.2775 8.39299 48.279 8.23147 48.3552 8.07911C47.6915 8.07763 46.8606 8.17639 46.3491 7.66515C46.0157 7.33188 46.0543 6.90565 46.3837 6.58166C46.7469 6.2246 47.1667 6.26016 47.6312 6.26513L48.4505 6.26636C48.7967 6.26255 48.6949 6.17014 48.7785 5.83518C49.2585 3.91234 48.1864 2.66951 46.3003 2.64985L24.5403 2.64668ZM19.0607 48.4614L19.086 54.0494L23.0267 54.0507C24.7029 54.0401 24.7369 53.1127 25.1854 51.8056C25.7251 50.2323 27.1578 49.5727 28.7087 49.5672L30.8061 49.5659C31.3798 49.5665 32.0395 49.514 32.5972 49.6609C35.9203 50.536 34.6276 53.4945 36.5353 53.9795L36.696 54.012C37.5329 54.1062 38.4272 54.0449 39.2704 54.0427C39.8833 54.0411 40.5352 54.0907 41.1417 54.025L41.1421 48.4724L19.0607 48.4614ZM30.9565 51.3542L29.1771 51.3553C28.3622 51.3575 27.7568 51.3104 27.137 51.9232C26.6742 52.3807 26.7084 52.8566 26.567 53.4434C26.2498 54.7601 25.0548 55.602 23.7588 55.7652C23.079 55.8508 22.4055 55.8503 21.7216 55.8517L19.641 55.8859C19.7364 55.9457 19.772 56.0376 19.8322 56.1267C20.5505 57.1906 24.4291 57.6523 25.6499 57.7076L29.3156 57.7133L34.3642 57.7086L36.0521 57.5775C37.3314 57.4639 39.4944 57.1994 40.4048 56.163L40.6503 55.9002L38.2122 55.8512C36.2258 55.8458 34.5292 55.8367 33.6956 53.5123C33.3839 52.6431 33.4536 51.435 32.0539 51.3593L30.9565 51.3542Z" fill="black"/>
<path d="M39.0259 8.07505L17.4544 8.07553C16.8102 8.07557 15.7027 8.19182 15.6334 7.22454C15.5802 6.48282 16.5831 6.28022 17.1382 6.27928L21.2 6.27703L42.901 6.27877C43.1769 6.27873 43.4682 6.26219 43.7424 6.28504C44.7581 6.36967 45.1107 8.08558 43.3146 8.07739L39.0259 8.07505Z" fill="black"/>
<path d="M22.9779 30.2376C20.554 26.7985 19.1719 22.1492 18.6561 18.032L18.4095 14.765C18.4062 14.4257 18.3236 13.8767 18.5031 13.5833C19.0153 12.7458 20.0179 13.3118 20.7191 13.5101L25.9261 14.5969C26.6771 14.7127 27.4434 14.8223 28.2014 14.8707L31.4061 14.8914C32.5403 14.8309 33.6723 14.6751 34.7932 14.4965L38.2194 13.8372L40.8456 13.1108C41.8084 13.0543 41.8187 13.8251 41.8162 14.5817C41.7974 20.7415 39.7014 27.7277 35.5966 32.3836C30.5102 38.1528 26.52 35.3584 22.9779 30.2376ZM20.2562 15.2261C20.3894 21.0693 22.5451 27.9913 26.8076 32.0891C27.7804 33.0244 28.8981 33.8245 30.2989 33.7956C32.6487 33.7471 35.0105 30.361 36.1586 28.5501C38.274 25.0835 39.4165 21.2274 39.829 17.1895C39.8938 16.5552 39.873 15.918 39.9246 15.2852C36.8985 16.2172 31.7344 16.8566 28.6844 16.6981C26.2506 16.5717 22.5605 15.9699 20.2562 15.2261Z" fill="black"/>
<path d="M34.7224 21.1626C33.6496 21.1644 33.6649 21.8385 33.0337 21.9673C31.8062 22.2174 31.3296 19.7151 34.3555 19.3296C35.2503 19.1735 36.2728 19.5803 36.8386 20.2733C37.5555 21.151 36.5068 22.2939 35.6641 21.7502C35.2634 21.4918 35.2423 21.2526 34.7224 21.1626Z" fill="black"/>
<path d="M26.1581 21.2796C25.5636 20.9947 25.2724 21.1857 24.7911 21.5517C23.7612 22.335 22.6199 21.3617 23.4253 20.2965C23.8637 19.7167 24.5189 19.4542 25.2175 19.3571C25.8818 19.3018 26.5151 19.344 27.1197 19.6515C28.0029 20.1007 28.7846 21.5932 27.5641 21.9121C26.943 22.0743 26.6404 21.5566 26.1581 21.2796Z" fill="black"/>
<path d="M32.1222 27.787C29.1797 29.698 25.8817 26.5122 28.2261 25.9119C29.0877 25.892 29.4813 26.9563 30.7294 26.478C31.1535 26.3154 31.6354 25.8899 32.1064 25.9393C32.5995 25.9909 32.8711 26.4119 32.8074 26.8879C32.7544 27.2852 32.4226 27.5605 32.1222 27.787Z" fill="black"/>
</g>
<defs>
<clipPath id="clip0_9_5423">
<rect width="59.1716" height="59.1716" fill="white" transform="translate(0.526855 0.653809)"/>
</clipPath>
</defs>
</svg>
