<svg width="60" height="60" viewBox="0 0 60 60" fill="none" xmlns="http://www.w3.org/2000/svg">
<path d="M2.77738 57.1227L56.5525 57.1201C56.9804 57.1327 57.5075 57.355 57.5995 57.817L57.6075 57.8607C57.7468 58.5547 57.0101 58.811 56.4759 58.8415L4.38297 58.8249C3.32576 58.8245 2.14618 59.0991 1.63672 57.8976C1.84621 57.3064 2.15164 57.1543 2.77738 57.1227Z" fill="black"/>
<path d="M38.505 55.0479L38.5018 55.0575C37.5061 55.6865 36.254 55.7413 35.1176 55.8813L32.9838 56.1195C32.0974 56.1764 31.1809 56.1307 30.2919 56.131L25.053 56.0183C24.066 55.9256 22.0057 55.7439 21.1075 55.3011L21.0801 55.2875C19.7717 54.6644 19.5281 52.6688 19.2166 51.4352L18.6013 49.076L17.1482 41.7746C17.1177 41.5906 17.1198 41.4035 17.0922 41.219L16.036 32.9227C15.9336 31.7521 15.9609 30.5741 15.9625 29.4L15.9939 26.088C16.0047 25.8689 16.0434 25.6613 16.0646 25.4448L16.1966 24.0135C16.7106 20.2128 17.917 17.0058 21.4747 15.2188L21.4141 14.9926C21.3142 14.5612 21.3671 14.0238 21.367 13.5776C21.3663 11.1663 21.1235 9.78183 23.9563 9.73256C24.007 9.5899 24.0274 9.44132 24.0653 9.29513L24.2801 8.56906C24.5716 7.59113 24.9287 6.67317 25.0031 5.64341C25.0659 4.77645 24.5568 3.22349 24.7848 2.59741L24.8594 2.41649C25.2079 1.77993 26.1928 1.80001 26.8153 1.75128C28.7292 1.60142 33.5519 1.77074 34.1342 4.10723L34.1653 4.22226C34.4854 5.0681 34.3749 6.64403 34.6131 7.56867L34.8361 8.42405C34.8767 8.57043 34.9073 8.72635 34.9553 8.86891L35.1587 9.68957C35.9957 9.71549 37.3203 9.87672 37.6758 10.7832L37.6905 10.8242C37.9234 11.3926 37.727 12.3339 37.9626 13.159L38.1357 13.8305C38.3673 14.7131 38.5303 15.1497 37.6108 15.1331C38.1033 15.3575 38.7095 15.6668 39.1115 16.0355C40.677 17.0895 42.1893 19.6875 42.5501 21.5833C42.7951 22.8703 42.9785 23.8164 43.1031 25.1692L43.2606 26.7537C43.3039 27.4735 43.2612 28.2236 43.258 28.9456L43.2044 31.5912C43.1936 31.8982 43.2008 32.2101 43.1761 32.516L42.8307 35.6861C42.7265 36.6317 42.6879 37.6014 42.5362 38.5398L41.3192 45.6662C41.2128 46.5375 40.915 47.3681 40.7125 48.2184L39.3645 53.8816C39.331 54.0322 39.2805 54.1659 39.2101 54.3028L39.1903 54.342C39.0443 54.6231 38.7843 54.8973 38.505 55.0479ZM19.5699 19.2039L18.8191 20.5953C18.0201 22.5347 17.5606 25.802 17.6219 27.9832L17.6312 28.0099L17.6421 29.5665C17.6436 29.7419 17.6838 30.0356 17.624 30.1954C17.4118 30.7622 17.9301 35.1315 18.032 35.7952L18.3747 38.7198L19.4092 44.5409C19.5151 44.9876 19.6095 45.4749 19.714 45.9366L20.4528 49.5062L21.2679 52.6157C21.316 52.8227 21.4004 53.0252 21.4745 53.2237L21.4932 53.2778C21.8265 54.2161 24.2882 54.2128 25.154 54.2885L30.3111 54.4224C31.4717 54.4216 32.6265 54.4933 33.7783 54.3437L34.3502 54.2911C35.1827 54.205 36.1183 54.2121 36.9132 53.9333C38.0097 53.5488 38.1192 51.8092 38.3604 50.8469L39.2077 47.3118L40.9028 37.9569C40.9853 37.3656 40.9933 36.7705 41.0442 36.1772L41.5057 31.4678C41.6349 29.9819 41.6902 28.0097 41.6023 26.5094L41.5076 25.6171C41.1682 22.186 40.1236 17.597 36.3335 16.4687C35.3559 16.1776 34.289 16.3164 33.2816 16.3159L25.0972 16.3166C24.5255 16.317 23.9085 16.2712 23.3414 16.33C21.8407 16.4858 20.3702 17.9868 19.5699 19.2039ZM23.0722 11.4131L23.0574 14.0431C23.0867 14.9628 23.7685 14.6422 24.4408 14.641L36.1588 14.6391L36.1898 12.6157C36.1897 12.2346 36.2155 11.8325 36.1732 11.454C35.596 11.3821 34.9968 11.412 34.4157 11.4116L23.0722 11.4131ZM26.5318 4.42964C26.7675 4.97991 26.8035 5.79853 26.6564 6.3603L25.8967 9.51201C25.8818 9.60495 25.8382 9.66563 25.8783 9.75304L33.3906 9.72042C33.2064 8.64816 32.9239 7.5902 32.7785 6.51231L32.6777 5.71075C32.6498 5.38706 32.696 5.02541 32.5493 4.7255L32.5285 4.68454C32.4236 4.47275 32.1 4.31442 31.8994 4.18995C30.6374 3.40723 29.2905 3.36677 27.866 3.36736C27.4686 3.36752 27.0241 3.32635 26.6388 3.42091C26.1132 3.54996 26.5317 3.85945 26.5318 4.42964ZM39.1115 16.0355L39.1478 16.145C39.2133 16.1942 39.2701 16.2416 39.3384 16.2848L39.4269 16.3684C39.5197 16.4715 39.6288 16.5474 39.7358 16.6327L40.0276 16.9205C40.1663 17.0365 40.4525 17.4104 40.5472 17.5616L40.7903 17.8802C40.9609 18.0879 41.0636 18.4468 41.2615 18.6177L41.2671 18.642C41.4006 19.0962 41.7942 19.6102 41.9355 20.0841L41.9681 20.1853C41.9831 20.2304 41.9987 20.2518 42.0295 20.2864L42.0339 20.3243C42.0626 20.5268 42.1576 20.7774 42.244 20.9654L42.2829 21.0585C42.3062 21.1159 42.302 21.1525 42.3111 21.2109L42.3307 21.2688C42.3521 21.3256 42.3596 21.3514 42.3596 21.4132L42.3885 21.4421C42.4286 21.5023 42.4114 21.5754 42.4266 21.6397L42.4463 21.6877C42.4638 21.7371 42.4675 21.7951 42.4844 21.842L42.533 21.9188C42.533 22.0118 42.5289 22.0524 42.5619 22.1355L42.6485 22.3956C42.6579 22.4527 42.6526 22.4968 42.6483 22.5545L42.6196 22.5834C42.5977 22.6703 42.6117 22.7445 42.6615 22.8225L42.6774 22.8434C42.6773 22.9072 42.6951 22.9408 42.6485 22.9879L42.6862 23.0747C42.7202 23.1457 42.7401 23.1973 42.735 23.2768L42.7135 23.332C42.7517 23.4848 42.7936 23.6388 42.7928 23.7969L42.7641 23.8257C42.7677 23.8962 42.7766 23.9463 42.793 24.0135L42.8219 24.1147C42.8568 24.2046 42.8538 24.2809 42.8505 24.3747L42.8219 24.4036C42.8253 24.472 42.831 24.5115 42.8508 24.5769L42.8567 24.6388C42.8653 24.7608 42.9138 24.8525 42.9083 24.9814L42.8797 25.0103C42.8797 25.1963 42.9742 25.3354 42.9661 25.5304L42.9375 25.5593C42.9509 25.6899 42.9915 25.8368 43.0241 25.9638L42.9952 26.1371C43.0038 26.3056 43.0873 26.458 43.0817 26.6283L43.053 26.6572C43.1004 26.946 43.1122 27.1971 43.1133 27.4924L43.0647 29.5175C43.0571 29.8565 43.0441 30.3884 43.0576 30.7166L43.0137 31.5075C42.9882 31.6884 42.9681 32.4045 42.9633 32.6526C42.9566 33.0096 42.9009 33.9019 42.8255 34.2559L42.8385 34.2769C42.8618 34.3297 42.8483 34.3949 42.8433 34.451L42.804 34.5266C42.7759 35.202 42.5439 35.8905 42.6196 36.5673L42.5815 36.6395C42.5937 36.9713 42.5405 37.3336 42.4788 37.6363L42.4919 37.6584C42.5132 37.7069 42.502 37.7518 42.4966 37.8025L42.4655 38.0065C42.467 38.0938 42.4279 38.1459 42.4463 38.243L42.4316 38.3733C42.3873 38.4211 42.3954 38.3983 42.3917 38.4429L42.3054 38.9446C42.1601 39.5166 42.0928 40.2463 42.002 40.8335L41.6564 42.8346C41.6034 43.137 41.4886 43.5164 41.5289 43.8193L41.5072 43.8553C41.3711 44.1048 41.1037 46.0169 41.0719 46.3474L41.0731 46.3835C41.0695 46.5441 40.8688 47.1902 40.7853 47.373C40.6554 47.6577 40.7008 48.0803 40.5446 48.3409L40.5263 48.4812C40.4749 48.5514 40.4191 48.8216 40.4399 48.9043L40.4272 48.9283C40.3361 49.106 40.3846 49.3456 40.2617 49.54L40.2684 49.586C40.2975 49.8685 40.0755 50.4918 39.9848 50.7534C39.9732 50.7871 39.9968 50.8475 39.9879 50.8835C39.961 50.9908 39.8761 51.1493 39.8641 51.2446C39.8506 51.3519 39.8101 51.6357 39.75 51.7213L39.7543 51.7782C39.7682 52.0401 39.6073 52.2693 39.5699 52.4292C39.5039 52.7113 39.3728 53.277 39.3548 53.5178C39.2796 54.5209 38.669 54.6217 38.505 55.0479C38.7843 54.8973 39.0443 54.6231 39.1903 54.342L39.2101 54.3028C39.2805 54.1659 39.331 54.0322 39.3645 53.8816L40.7125 48.2184C40.915 47.3681 41.2128 46.5375 41.3192 45.6662L42.5362 38.5398C42.6879 37.6014 42.7265 36.6317 42.8307 35.6861L43.1761 32.516C43.2008 32.2101 43.1936 31.8982 43.2044 31.5912L43.258 28.9456C43.2612 28.2236 43.3039 27.4735 43.2606 26.7537L43.1031 25.1692C42.9785 23.8164 42.7951 22.8703 42.5501 21.5833C42.1893 19.6875 40.677 17.0895 39.1115 16.0355ZM26.5318 4.42964C26.5287 4.53205 26.5099 5.15509 26.5469 5.21092L26.5653 5.23349C26.5766 5.45753 26.4874 5.87062 26.5841 6.07195L26.5557 6.11471C26.5554 6.24509 26.5052 6.32511 26.498 6.44697L26.5263 6.47701C26.4255 6.63282 26.3822 7.00469 26.3484 7.19124L26.3099 7.2707C26.2364 7.42705 26.2544 7.62649 26.1654 7.80492L26.1796 7.94967C26.1032 8.04015 25.916 8.63732 25.9341 8.78526C25.9532 8.94266 25.7901 9.32632 25.804 9.62543L25.791 9.72612C25.8181 9.73537 25.8498 9.75047 25.8783 9.75225C25.8382 9.66563 25.8818 9.60495 25.8967 9.51201L26.6564 6.3603C26.8035 5.79853 26.7675 4.97991 26.5318 4.42964Z" fill="black"/>
<path d="M18.8193 20.5953C18.5867 20.7492 18.5422 21.1488 18.4077 21.3841L18.3862 21.3554C18.4676 20.9047 19.1746 19.4465 19.5056 19.1387L19.57 19.2039L18.8193 20.5953Z" fill="#353536"/>
<path d="M17.621 28.0098L17.6429 29.5664C17.5162 29.7218 17.5913 29.9137 17.5103 30.0942L17.4689 29.7947C17.4035 29.4657 17.3393 28.2027 17.621 28.0098Z" fill="#353536"/>
<path d="M26.5318 4.4292C26.7676 4.97947 26.8035 5.79809 26.6564 6.35986L25.8968 9.51157C25.8819 9.60451 25.8383 9.66519 25.8784 9.75181C25.8498 9.75003 25.8182 9.73493 25.791 9.72568L25.8041 9.62499C25.7901 9.32588 25.9533 8.94222 25.9341 8.78482C25.9161 8.63688 26.1033 8.03971 26.1797 7.94923L26.1655 7.80448C26.2545 7.62605 26.2364 7.42661 26.3099 7.27026L26.3484 7.1908C26.3823 7.00425 26.4255 6.63238 26.5264 6.47657L26.4981 6.44653C26.5052 6.32467 26.5554 6.24465 26.5557 6.11427L26.5842 6.07151C26.4874 5.87018 26.5767 5.45709 26.5653 5.23305L26.547 5.21048C26.51 5.15465 26.5287 4.53161 26.5318 4.4292Z" fill="black"/>
<path d="M39.1114 16.0352C40.6769 17.0892 42.1891 19.6872 42.5499 21.583C42.7949 22.8699 42.9783 23.816 43.1029 25.1688L43.2605 26.7533C43.3038 27.4731 43.261 28.2232 43.2579 28.9452L43.2043 31.5908C43.1934 31.8978 43.2007 32.2097 43.176 32.5156L42.8305 35.6857C42.7264 36.6313 42.6878 37.601 42.5361 38.5394L41.3191 45.6658C41.2127 46.5371 40.9149 47.3677 40.7124 48.218L39.3644 53.8812C39.3309 54.0318 39.2804 54.1655 39.21 54.3024L39.1902 54.3416C39.0441 54.6227 38.7842 54.8969 38.5049 55.0475C38.6689 54.6213 39.2794 54.5205 39.3547 53.5174C39.3727 53.2766 39.5038 52.7109 39.5697 52.4288C39.6072 52.2689 39.7681 52.0397 39.7542 51.7778L39.7499 51.7209C39.81 51.6353 39.8505 51.3515 39.864 51.2442C39.876 51.1489 39.9608 50.9904 39.9878 50.8831C39.9967 50.8471 39.9731 50.7867 39.9846 50.753C40.0754 50.4914 40.2974 49.8681 40.2682 49.5856L40.2615 49.5396C40.3845 49.3452 40.336 49.1056 40.427 48.9279L40.4397 48.9039C40.4189 48.8212 40.4748 48.551 40.5262 48.4808L40.5445 48.3405C40.7007 48.0799 40.6553 47.6573 40.7852 47.3726C40.8686 47.1898 41.0694 46.5437 41.073 46.3831L41.0718 46.347C41.1036 46.0165 41.371 44.1045 41.507 43.8549L41.5288 43.8189C41.4884 43.516 41.6033 43.1366 41.6562 42.8342L42.0019 40.8331C42.0926 40.2459 42.16 39.5162 42.3053 38.9442L42.3916 38.4425C42.3953 38.3979 42.3872 38.4207 42.4315 38.3729L42.4462 38.2426C42.4278 38.1455 42.4668 38.0934 42.4653 38.0061L42.4964 37.8021C42.5019 37.7514 42.5131 37.7065 42.4918 37.658L42.4786 37.6359C42.5403 37.3332 42.5936 36.9709 42.5814 36.6391L42.6195 36.5669C42.5438 35.8901 42.7758 35.2016 42.8038 34.5262L42.8431 34.4506C42.8482 34.3945 42.8616 34.3293 42.8384 34.2765L42.8253 34.2555C42.9008 33.9015 42.9565 33.0092 42.9632 32.6522C42.9679 32.4041 42.9881 31.688 43.0136 31.5071L43.0575 30.7162C43.044 30.388 43.0569 29.8561 43.0646 29.5171L43.1132 27.492C43.1121 27.1967 43.1003 26.9456 43.0529 26.6568L43.0816 26.6279C43.0872 26.4576 43.0037 26.3052 42.9951 26.1367L43.024 25.9634C42.9914 25.8364 42.9507 25.6895 42.9373 25.5589L42.966 25.53C42.9741 25.335 42.8795 25.1959 42.8795 25.0099L42.9082 24.981C42.9136 24.8521 42.8652 24.7604 42.8565 24.6384L42.8506 24.5766C42.8309 24.5111 42.8252 24.4716 42.8218 24.4032L42.8504 24.3743C42.8537 24.2805 42.8567 24.2042 42.8218 24.1143L42.7929 24.0132C42.7765 23.9459 42.7676 23.8958 42.764 23.8254L42.7926 23.7965C42.7934 23.6384 42.7516 23.4844 42.7133 23.3316L42.7348 23.2764C42.7399 23.1969 42.7201 23.1453 42.6861 23.0743L42.6484 22.9875C42.695 22.9404 42.6772 22.9068 42.6773 22.843L42.6613 22.8221C42.6115 22.7441 42.5975 22.6699 42.6195 22.583L42.6482 22.5541C42.6524 22.4964 42.6578 22.4523 42.6484 22.3952L42.5617 22.1351C42.5288 22.0521 42.5328 22.0114 42.5328 21.9185L42.4843 21.8416C42.4674 21.7947 42.4637 21.7367 42.4462 21.6873L42.4265 21.6394C42.4112 21.575 42.4285 21.5019 42.3884 21.4417L42.3595 21.4128C42.3595 21.351 42.352 21.3252 42.3306 21.2684L42.3109 21.2105C42.3019 21.1521 42.3061 21.1155 42.2827 21.0582L42.2439 20.965C42.1575 20.777 42.0625 20.5264 42.0338 20.3239L42.0294 20.286C41.9986 20.2514 41.983 20.23 41.9679 20.1849L41.9353 20.0837C41.7941 19.6098 41.4005 19.0958 41.267 18.6416L41.2613 18.6173C41.0635 18.4464 40.9607 18.0876 40.7902 17.8798L40.5471 17.5613C40.4523 17.41 40.1662 17.0361 40.0275 16.9201L39.7357 16.6323C39.6287 16.547 39.5196 16.4711 39.4268 16.368L39.3383 16.2844C39.27 16.2412 39.2132 16.1938 39.1477 16.1446L39.1114 16.0352Z" fill="black"/>
<path d="M28.0264 4.89579C28.2822 4.83517 28.3703 4.83559 28.6273 4.88222L28.7379 4.902C29.219 4.9878 29.5361 5.2738 29.6892 5.72419L29.705 5.76243C29.7733 5.96447 29.7569 6.35625 29.6604 6.54762L29.6395 6.59089C29.5254 6.82298 29.3654 7.02095 29.1356 7.14524C29.1997 6.98586 29.4709 6.82454 29.4678 6.6343L29.5193 6.51873C29.5742 6.46776 29.5497 6.49648 29.5921 6.43205L29.5538 6.3851C29.5612 6.24526 29.5307 6.02302 29.5567 5.89754C29.7369 5.0286 28.5732 4.9843 28.0621 4.90181L28.0264 4.89579Z" fill="black"/>
<path d="M29.1359 7.14545C29.1336 7.15332 29.0749 7.18373 29.0719 7.18535C27.7811 7.87586 26.3158 5.67903 28.0267 4.896L28.0624 4.90202C28.5736 4.98451 29.7372 5.02881 29.5571 5.89775C29.5311 6.02323 29.5616 6.24547 29.5542 6.38531L29.5924 6.43226C29.55 6.49669 29.5745 6.46797 29.5196 6.51894L29.4681 6.63451C29.4712 6.82475 29.2001 6.98607 29.1359 7.14545Z" fill="black"/>
</svg>
