<svg width="60" height="60" viewBox="0 0 60 60" fill="none" xmlns="http://www.w3.org/2000/svg">
<g clip-path="url(#clip0_9_5369)">
<path d="M34.0333 30.3265C34.1253 30.2771 33.9858 29.9167 34.1215 29.7642L34.2015 33.1016C34.5381 33.242 34.8704 33.1356 35.3416 33.4334C35.2739 33.4368 35.2175 33.4404 35.152 33.4172L34.6566 33.2692C34.087 33.0782 34.0946 33.3565 34.0647 32.7116C34.0281 31.9239 33.9166 31.1102 34.0333 30.3265Z" fill="black"/>
<path d="M35.6878 55.8516C35.849 56.2064 36.0895 56.811 35.958 57.1973L35.9422 57.2414C35.3638 58.9431 33.1924 58.9508 31.8214 59.3485L31.7711 59.3644C31.2982 59.4853 30.6786 59.423 30.1946 59.424L28.2102 59.4157C26.9042 59.3458 23.6539 58.8731 23.2863 57.3598L23.2768 57.3191C23.1449 56.8023 23.3053 56.3864 23.4925 55.9096C23.8781 54.9278 23.0293 52.3581 22.8473 51.2122L22.1758 44.9251C22.1404 44.6418 22.0849 44.3543 22.0742 44.0689L22.103 38.9669C22.146 38.0496 22.228 37.2338 22.251 36.2944C22.2706 35.4893 22.543 34.6568 23.0443 34.023C23.6621 33.2421 24.1468 33.2199 25.0519 33.113C24.9663 32.5113 24.9911 31.8922 24.9917 31.2861L25.0424 29.7433C25.0821 29.2415 25.1592 28.7513 25.1943 28.2479C25.2568 27.3501 25.2196 26.4357 25.2167 25.5351C25.2116 23.9531 25.1731 23.5018 26.7986 23.1766C27.0593 23.1245 26.9847 23.12 26.9837 22.864C26.9782 21.4115 27.0515 20.45 28.6657 20.173L28.6909 17.8053C28.5646 17.7349 28.1662 17.7654 28.0032 17.7488C25.9931 17.5448 26.6529 16.2446 27.6789 16.1722C27.8592 16.1595 28.0341 16.1749 28.2134 16.1419L28.2507 16.0698C28.2282 15.9762 28.2295 15.9602 28.1556 15.8924C27.7331 15.8792 26.9887 15.7781 26.5836 15.6124L26.5521 15.5987C26.2076 15.4526 26.1532 15.1148 26.2207 14.7642L26.2321 14.7118C26.3689 14.0572 27.4721 14.1083 27.9983 14.1943C28.158 14.2204 28.5259 13.8122 27.7732 13.8103L26.8352 13.8078C26.518 13.805 26.2138 13.8184 26.1443 13.4487L26.1365 13.404C26.0704 13.0615 26.1278 12.7891 26.2595 12.4744C26.8313 12.2414 27.5221 12.3331 28.1267 12.323C28.2388 11.9831 28.0806 11.9428 27.7986 11.9484L27.2557 11.9531C26.8884 11.9548 26.365 12.0835 26.3293 11.5955C26.3029 11.2351 26.3394 10.856 26.4151 10.5041C26.5723 10.4419 26.7704 10.4332 26.9374 10.4244L28.0111 10.4184C28.3906 9.94476 26.8487 10.317 26.5382 10.0146C26.3913 9.87167 26.3682 8.91885 26.5364 8.77231C26.9561 8.40652 27.8986 8.79305 28.1147 8.58665C28.2047 8.17856 27.7825 8.34597 27.538 8.3769C27.1727 8.4231 26.8128 8.40423 26.4529 8.33029C26.264 8.0819 26.2533 7.14421 26.4191 6.9484C26.6332 6.69536 27.6837 6.7693 28.0111 6.7281C28.0277 6.63345 28.0213 6.61433 27.989 6.52289L27.6099 6.49965C26.8497 6.48128 26.2442 6.4665 26.3675 5.54691L26.375 5.49516C26.4032 5.28348 26.4285 5.06498 26.6594 4.99702L26.6965 4.98654C27.1432 4.85154 27.6098 4.98764 28.0397 4.87574L28.0291 4.83072C27.9514 4.56514 27.1783 4.74524 26.9277 4.59067C26.5413 4.35246 26.5493 3.66512 26.8189 3.34853C27.1214 2.99319 27.7552 3.06789 28.1759 3.02275L28.0203 2.68004C27.232 0.531728 30.589 0.587213 30.9704 1.80305L31.0092 1.91103C31.0667 2.0521 31.0517 2.37294 30.9898 2.5143L30.9739 2.54814C30.8789 2.76469 30.7212 2.94772 30.5801 3.13632C30.9 3.14954 31.3907 3.08719 31.68 3.20851L31.7418 3.23626C32.0609 3.38587 32.1206 4.01733 32.0598 4.31078C31.9628 4.77832 30.8726 4.39145 30.8372 4.86754C31.1231 5.08168 31.7358 4.81743 32.0704 4.96581L32.2153 5.03288C32.2455 5.0849 32.2782 5.13584 32.2944 5.19418L32.3042 5.23513C32.9403 7.08773 30.88 6.0348 30.9246 6.74691C31.6874 6.94444 32.5059 6.33521 32.554 7.5489C32.5574 7.63623 32.5483 8.01425 32.5068 8.07747C32.32 8.3617 31.2507 8.14291 30.9784 8.44218L31.0251 8.55097C31.1205 8.6375 31.2929 8.61431 31.4143 8.61539L32.2168 8.62049C32.5513 8.62423 32.778 8.61199 32.9198 8.96117L32.9374 9.00559C33.5339 10.4883 31.6616 9.95901 30.9185 10.1971C30.3845 10.7859 32.2598 10.0884 32.4383 10.8193L32.4465 10.8547C32.4911 11.0233 32.5039 11.281 32.4328 11.4417L32.4164 11.4759C32.1431 12.0707 31.248 11.7553 30.9793 12.0393C30.9118 12.8599 32.6863 11.8899 32.8703 12.4737L32.9158 12.6211C32.9709 12.8504 32.9957 13.4623 32.8715 13.6717C32.3481 13.8804 31.4781 13.7917 30.9194 13.8255C30.7505 14.3978 31.7586 14.0338 32.3109 14.2157L32.5846 14.3076C32.7249 14.3679 32.8248 14.4682 32.8718 14.6171L32.9024 14.7019C32.9708 14.8698 32.971 15.2815 32.8962 15.445L32.8802 15.4775C32.5006 16.271 31.1093 15.6108 30.8053 15.9975L30.8349 16.0816C31.1738 16.4032 32.7786 16.3864 32.2662 17.3598L32.2517 17.3858C31.8637 18.1238 30.6037 17.7444 30.439 17.9026L30.4163 20.0718C30.4587 20.0931 30.496 20.1126 30.5433 20.1203C31.8612 20.3317 32.3568 21.4401 32.2902 22.6428C32.2462 23.4403 32.4046 22.9326 33.0435 23.2647C33.2254 23.3635 33.3562 23.4609 33.4834 23.6251L33.507 23.6553C34.0664 24.3857 33.8884 25.3109 33.9506 26.161L34.0528 27.9036C34.0743 28.2903 34.1147 28.6991 34.0893 29.0851L34.1213 29.7643C33.9856 29.9169 34.1251 30.2772 34.0331 30.3267C33.9164 31.1103 34.0279 31.9241 34.0644 32.7118C34.0944 33.3567 34.0867 33.0784 34.6564 33.2693L35.1518 33.4173C35.2172 33.4406 35.2736 33.437 35.3414 33.4335L35.4103 33.4667C35.8123 33.6618 36.4625 34.3608 36.6376 34.8065L36.7187 35.0283C36.8509 35.3428 36.818 35.7089 36.8207 36.0397L36.8415 37.4046L37.1483 40.667L37.1098 43.2544C37.0383 45.3641 36.8538 47.4543 36.5596 49.5454L35.6952 54.3711C35.6397 54.7109 35.5673 55.2091 35.6434 55.5495L35.6878 55.8516ZM23.8921 37.4788C23.8621 37.8435 23.8086 38.3237 23.7916 38.6768L23.7902 43.7189C23.8013 43.904 23.8496 44.0872 23.861 44.2758L23.8937 45.453C23.9417 46.2034 24.054 46.9369 24.1553 47.6806C24.216 48.1264 24.223 48.6036 24.3101 49.0406L25.1421 53.8708C25.2159 54.1884 25.1911 54.6223 25.3153 54.9129C25.4735 54.8209 25.6266 54.6431 25.7708 54.5252C28.6596 52.1616 31.289 52.99 34.0264 54.8779C34.2362 53.9873 34.2817 53.0333 34.4224 52.1279C35.0457 48.1128 35.7253 43.6993 35.4003 39.6171C35.3447 38.9196 35.2571 38.2233 35.2497 37.5223C35.1221 37.4825 34.9127 37.5065 34.7765 37.5048L33.5497 37.4988C32.8894 37.4954 31.1439 37.2707 31.7758 36.2414C32.2137 35.5283 33.5609 35.6968 34.2558 35.6861C34.5842 35.681 34.873 35.6276 35.1948 35.5946C35.1106 35.4247 35.0542 35.2569 34.9164 35.1188C34.4933 34.6944 32.9605 34.803 32.3841 34.8036L24.6446 34.8301C24.569 34.9595 24.2135 35.5269 24.2506 35.6713C24.9847 35.7228 25.7365 35.6915 26.4728 35.6944C27.0876 35.6968 27.9305 35.5275 28.2017 36.2357L28.3889 36.7581C27.9042 37.6838 26.9734 37.5032 26.1074 37.5005L23.8921 37.4788ZM27.1265 24.7199C27.0238 24.7521 26.9737 24.7515 26.9073 24.8386L26.7489 30.5063L26.7531 30.5308L26.7463 31.3362C26.722 31.7573 26.7284 32.8084 26.6576 33.0818L32.6186 33.0999L32.6191 33.0577C32.486 31.9228 32.5239 30.7573 32.3761 29.6212C32.3061 29.0829 32.3296 28.5238 32.3289 27.9819L32.3013 24.7555C32.0606 24.6677 31.7408 24.6806 31.4854 24.6735L28.2493 24.6623C27.8749 24.6628 27.5103 24.6516 27.1265 24.7199ZM29.5495 54.7827C28.3485 54.9224 26.8541 55.7695 25.8511 56.4993C25.632 56.6588 25.4448 56.854 25.2287 57.0153L25.2071 57.0362C26.5283 57.554 28.4048 57.7299 29.7953 57.7183C30.2721 57.7146 30.8221 57.7425 31.2867 57.6364L34.0351 57.0213L32.8901 56.2219C31.8717 55.4864 30.8721 54.662 29.5495 54.7827ZM35.4103 33.4667L35.4264 33.5435C35.4765 33.5648 35.4948 33.5945 35.536 33.6261L35.5985 33.6607C35.9949 33.8755 36.4625 34.574 36.6015 35.0277L36.6362 35.554C36.6452 35.6761 36.6232 35.8096 36.6213 35.9333L36.6257 36.8951C36.6331 37.0629 36.7117 37.1913 36.7077 37.3779L36.6791 37.4068L36.7369 38.1002C36.7717 38.2545 36.8509 38.9131 36.8611 38.9308C37.0004 39.1713 36.7993 39.6218 36.9389 39.9204L36.9326 39.9935C36.9639 40.1602 36.8879 40.3326 36.9969 40.4983C37.0736 41.6429 37.0699 43.0959 36.8902 44.2281C36.8304 44.6055 36.873 45.063 36.8811 45.4536C36.7881 45.5475 36.7865 45.9112 36.8523 46.0385L36.7834 46.1747C36.7669 46.5741 36.6893 46.9664 36.659 47.3602L36.6406 47.8179C36.636 47.9036 36.6672 47.9763 36.6427 48.0609L36.6186 47.9635C36.4431 48.5055 36.4651 49.1205 36.4262 49.6861L36.3812 49.7151C36.3599 49.828 36.3356 49.9334 36.361 50.0475L36.3234 50.0618C36.2754 50.3514 36.1418 50.7703 36.2021 51.0584C36.0558 51.4683 35.8558 52.2336 35.8988 52.6478L35.8803 52.668C35.8438 52.7214 35.6889 53.6363 35.6501 53.861L35.5917 54.2471C35.5269 54.5248 35.4267 55.6416 35.6878 55.8516L35.6434 55.5495C35.5673 55.2091 35.6397 54.7109 35.6952 54.3711L36.5596 49.5454C36.8538 47.4543 37.0383 45.3641 37.1098 43.2544L37.1483 40.667L36.8415 37.4046L36.8207 36.0397C36.818 35.7089 36.8509 35.3428 36.7187 35.0283L36.6376 34.8065C36.4625 34.3608 35.8123 33.6618 35.4103 33.4667ZM25.3153 54.9129C25.1911 54.6223 25.2159 54.1884 25.1421 53.8708L24.3101 49.0406C24.223 48.6036 24.216 48.1264 24.1553 47.6806C24.054 46.9369 23.9417 46.2034 23.8937 45.453L23.861 44.2758C23.8496 44.0872 23.8013 43.904 23.7902 43.7189L23.7916 38.6768C23.8086 38.3237 23.8621 37.8435 23.8931 37.4788C23.8248 37.4706 23.835 37.4753 23.7807 37.5079V37.5503C23.7666 37.9046 23.6945 38.2858 23.7043 38.635L23.6608 38.6347C23.6515 39.1921 23.6261 39.7494 23.6196 40.3059L23.633 41.5435C23.6263 41.7758 23.5816 42.0465 23.6293 42.269L23.6775 42.3041C23.6769 42.4743 23.6559 42.6891 23.6917 42.853L23.6587 42.7975C23.6508 42.698 23.6285 42.6042 23.6234 42.5024L23.5808 42.4774C23.5825 42.7092 23.5581 42.9944 23.6486 43.2142L23.6354 43.2502C23.5964 43.3664 23.6415 43.5725 23.6435 43.7007L23.6728 43.7475C23.7057 43.6716 23.7252 43.6154 23.7351 43.532C23.7647 43.6343 23.7333 43.7697 23.7351 43.8787L23.7188 44.0556C23.792 44.5114 23.5778 45.1392 23.764 45.5545L23.7519 45.6044C23.8264 45.7796 23.8165 47.0454 23.9167 47.1231L23.9664 47.0135C23.9662 47.0862 23.9657 47.3668 23.9501 47.3996L23.9341 47.4278C23.9669 47.6126 23.9906 47.8319 24.047 48.0068C24.1028 48.1795 24.0179 48.6518 24.1687 48.9926C24.1735 49.0034 24.2277 49.5137 24.2262 49.5705L24.2243 49.6075C24.2274 49.7285 24.3424 49.8637 24.3129 49.9897C24.2762 50.1468 24.3586 50.2691 24.3494 50.4373L24.4287 50.3939C24.3991 50.4966 24.4774 51.0349 24.5443 51.1018L24.5297 51.1378C24.5112 51.2057 24.5627 51.4131 24.6021 51.4629L24.6208 51.7572C24.6585 51.8978 24.6866 52.2974 24.7465 52.3875L24.7456 52.4129C24.7404 52.6225 24.9215 53.372 24.968 53.6059L24.9767 53.6597C24.9971 53.7784 25.0152 53.9397 25.0641 54.0488L25.0355 54.0777C25.083 54.342 25.1766 54.6076 25.1964 54.8722L25.3153 54.9129ZM28.7541 21.7905C28.6405 21.8945 28.6109 22.0881 28.6048 22.2396L28.6031 22.7307L30.5537 22.7311L30.6542 22.715C30.659 22.4923 30.6924 22.0191 30.4959 21.8628C29.929 21.7491 29.3294 21.7713 28.7541 21.7905ZM33.0435 23.2647L33.1319 23.3971C33.1915 23.4213 33.1917 23.4309 33.2262 23.4782L33.2898 23.5344C33.5209 23.7347 33.6625 24.0937 33.7124 24.3907L33.7249 24.425C33.7424 24.4842 33.7236 24.5481 33.7128 24.6075L33.7608 24.5569C33.8 24.6055 33.7898 24.6063 33.7896 24.6653L33.761 24.6942C33.7643 24.8167 33.7225 25.4376 33.8186 25.2792C33.8761 25.3506 33.8475 25.6053 33.8474 25.7054L33.8187 25.7343C33.8239 25.8066 33.8714 26.2561 33.8041 25.951L33.7611 25.6856C33.74 25.8594 33.8185 26.9172 33.8673 27.1694L33.8669 27.2656C33.8675 27.3771 33.9072 27.5491 33.8493 27.6412L33.862 27.8146C33.8355 27.9 33.8466 28.0005 33.8476 28.089L33.8836 28.2054C34.0305 28.6648 33.8822 29.2521 33.9655 29.7359L33.9827 29.8854C34.0069 29.9794 34.0049 30.086 34.021 30.1837L34.0331 30.3267C34.1251 30.2772 33.9856 29.9169 34.1213 29.7643L34.0893 29.0851C34.1147 28.6991 34.0743 28.2903 34.0528 27.9036L33.9506 26.161C33.8884 25.3109 34.0664 24.3857 33.507 23.6553L33.4834 23.6251C33.3562 23.4609 33.2254 23.3635 33.0435 23.2647ZM26.5985 31.3793C26.4461 31.5421 26.5457 32.4957 26.5294 32.7262C26.4793 33.4306 26.9066 33.1678 27.5995 33.1678L31.6542 33.1692C31.9184 33.1692 32.2194 33.2005 32.475 33.1449L32.6186 33.0828L26.6576 33.0818C26.7284 32.8084 26.722 31.7573 26.7463 31.3362L26.7482 30.5308L26.6865 30.5629C26.6858 30.7524 26.6763 31.0673 26.6236 31.2389L26.5985 31.3793ZM26.7161 27.4431L26.6836 29.8576C26.6845 29.9909 26.6414 30.407 26.7533 30.5063L26.9073 24.8386C26.9737 24.7515 27.0238 24.7521 27.14 24.7199C26.794 24.6389 26.7039 24.8746 26.769 25.1853L26.7688 25.4165L26.7047 25.2576L26.7161 27.4431ZM26.5985 31.3793L26.6236 31.2389C26.6763 31.0673 26.6858 30.7524 26.6865 30.5629L26.7482 30.5308L26.701 30.5063C26.6414 30.407 26.6845 29.9909 26.6836 29.8576L26.7161 27.4431L26.6924 27.4105C26.6396 27.331 26.6616 27.1515 26.6627 27.0564L26.5668 29.1147C26.5644 29.7961 26.6661 30.4949 26.5738 31.1745C26.564 31.2467 26.5765 31.3088 26.5985 31.3793Z" fill="black"/>
<path d="M26.5982 31.3795C26.5762 31.309 26.5637 31.247 26.5735 31.1747C26.6658 30.4952 26.5641 29.7963 26.5664 29.1149L26.6624 27.0566C26.6613 27.1518 26.6393 27.3312 26.6921 27.4107L26.7158 27.4433L26.6833 29.8578C26.6842 29.9912 26.6411 30.4072 26.7007 30.5065L26.7479 30.531L26.6862 30.5631C26.6855 30.7527 26.676 31.0676 26.6233 31.2391L26.5982 31.3795Z" fill="black"/>
<path d="M26.7157 27.4434L26.7043 25.2578L26.7684 25.4167L26.7686 25.1856C26.7035 24.8748 26.7936 24.6392 27.1396 24.7202C27.0234 24.7523 26.9733 24.7517 26.9069 24.8389L26.7529 30.5065C26.641 30.4073 26.6841 29.9912 26.6832 29.8578L26.7157 27.4434Z" fill="black"/>
<path d="M26.5989 31.3793L26.624 31.2389C26.6767 31.0674 26.6861 30.7524 26.6868 30.5629L26.7486 30.5308L26.7467 31.3362C26.7223 31.7573 26.7288 32.8084 26.6579 33.0818L32.6189 33.0828L32.4754 33.1449C32.2197 33.2005 31.9188 33.1692 31.6546 33.1692L27.5998 33.1678C26.907 33.1678 26.4796 33.4306 26.5298 32.7262C26.5461 32.4957 26.4465 31.5421 26.5989 31.3793Z" fill="black"/>
<path d="M33.0439 23.2646C33.2259 23.3635 33.3567 23.4609 33.4838 23.6251L33.5075 23.6553C34.0668 24.3857 33.8889 25.3109 33.9511 26.1609L34.0532 27.9036C34.0747 28.2903 34.1152 28.6991 34.0897 29.0851L34.1217 29.7643C33.9861 29.9168 34.1256 30.2772 34.0336 30.3266L34.0214 30.1837C34.0054 30.086 34.0073 29.9794 33.9832 29.8854L33.966 29.7358C33.8826 29.2521 34.0309 28.6648 33.884 28.2054L33.8481 28.089C33.847 28.0005 33.8359 27.9 33.8624 27.8146L33.8497 27.6412C33.9076 27.549 33.868 27.3771 33.8674 27.2656L33.8677 27.1694C33.819 26.9172 33.7405 25.8594 33.7615 25.6856L33.8045 25.9509C33.8719 26.2561 33.8244 25.8066 33.8192 25.7343L33.8478 25.7054C33.848 25.6053 33.8765 25.3506 33.8191 25.2791C33.7229 25.4376 33.7648 24.8166 33.7614 24.6941L33.7901 24.6652C33.7903 24.6063 33.8005 24.6055 33.7613 24.5568L33.7132 24.6075C33.7241 24.548 33.7428 24.4841 33.7253 24.425L33.7129 24.3906C33.6629 24.0936 33.5214 23.7347 33.2902 23.5344L33.2267 23.4782C33.1921 23.4308 33.192 23.4212 33.1324 23.3971L33.0439 23.2646ZM33.9386 26.1609L33.9536 28.4501C33.9617 28.6607 34.0165 28.8161 34.0503 29.0135L34.0897 29.0851C34.1152 28.6991 34.0747 28.2903 34.0532 27.9036L33.9386 26.1609Z" fill="black"/>
<path d="M33.9385 26.1611L34.0531 27.9038C34.0746 28.2905 34.1151 28.6993 34.0896 29.0853L34.0502 29.0137C34.0164 28.8163 33.9616 28.6609 33.9535 28.4503L33.9385 26.1611Z" fill="black"/>
<path d="M25.3153 54.9132L25.1965 54.8726C25.1766 54.6079 25.083 54.3423 25.0355 54.078L25.0642 54.0491C25.0153 53.94 24.9972 53.7787 24.9768 53.66L24.968 53.6063C24.9216 53.3723 24.7405 52.6228 24.7457 52.4132L24.7466 52.3878C24.6866 52.2977 24.6585 51.8981 24.6209 51.7575L24.6021 51.4633C24.5627 51.4134 24.5113 51.206 24.5298 51.1382L24.5444 51.1021C24.4774 51.0352 24.3992 50.4969 24.4288 50.3942L24.3495 50.4376C24.3586 50.2694 24.2762 50.1471 24.313 49.99C24.3425 49.864 24.2275 49.7288 24.2243 49.6078L24.2263 49.5708C24.2278 49.5141 24.1736 49.0037 24.1688 48.993C24.0179 48.6521 24.1029 48.1798 24.0471 48.0071C23.9907 47.8322 23.967 47.6129 23.9341 47.4281L23.9502 47.3999C23.9658 47.3671 23.9663 47.0865 23.9665 47.0138L23.9168 47.1234C23.8166 47.0457 23.8264 45.7799 23.752 45.6047L23.764 45.5548C23.5778 45.1395 23.7921 44.5117 23.7188 44.0559L23.7351 43.879C23.7334 43.77 23.7647 43.6346 23.7351 43.5323C23.7253 43.6157 23.7058 43.6719 23.6728 43.7478L23.6436 43.701C23.6415 43.5729 23.5965 43.3667 23.6355 43.2505L23.6487 43.2145C23.5582 42.9947 23.5826 42.7096 23.5809 42.4777L23.6235 42.5027C23.6286 42.6045 23.6509 42.6983 23.6587 42.7978L23.6918 42.8533C23.656 42.6894 23.677 42.4746 23.6776 42.3044L23.6294 42.2694C23.5817 42.0468 23.6264 41.7761 23.6331 41.5438L23.6197 40.3062C23.6262 39.7497 23.6516 39.1924 23.6608 38.635L23.7044 38.6353C23.6946 38.2861 23.7667 37.9049 23.7808 37.5506V37.5082C23.8351 37.4756 23.8248 37.4709 23.8931 37.4791C23.8621 37.8438 23.8086 38.324 23.7917 38.6771L23.7903 43.7192C23.8014 43.9043 23.8497 44.0875 23.8611 44.2761L23.8938 45.4533C23.9418 46.2037 24.0541 46.9372 24.1553 47.6809C24.216 48.1268 24.2231 48.6039 24.3102 49.0409L25.1422 53.8711C25.2159 54.1887 25.1912 54.6226 25.3153 54.9132Z" fill="black"/>
<path d="M35.4102 33.4668C35.8122 33.6619 36.4624 34.361 36.6375 34.8066L36.7186 35.0284C36.8508 35.343 36.8179 35.709 36.8206 36.0398L36.8414 37.4047L37.1482 40.6671L37.1097 43.2545C37.0382 45.3642 36.8537 47.4544 36.5595 49.5455L35.6952 54.3712C35.6396 54.711 35.5672 55.2092 35.6433 55.5496L35.6878 55.8517C35.4266 55.6417 35.5268 54.525 35.5916 54.2472L35.65 53.8611C35.6888 53.6365 35.8437 52.7215 35.8802 52.6681L35.8987 52.6479C35.8557 52.2337 36.0557 51.4684 36.202 51.0586C36.1417 50.7704 36.2753 50.3515 36.3233 50.0619L36.3609 50.0476C36.3355 49.9335 36.3598 49.8281 36.3811 49.7152L36.4261 49.6862C36.465 49.1206 36.443 48.5056 36.6186 47.9636L36.6426 48.061C36.6671 47.9764 36.6359 47.9037 36.6405 47.818L36.6589 47.3603C36.6892 46.9665 36.7668 46.5742 36.7834 46.1748L36.8522 46.0386C36.7864 45.9113 36.788 45.5476 36.881 45.4537C36.8729 45.0632 36.8303 44.6056 36.8901 44.2282C37.0699 43.0961 37.0735 41.643 36.9968 40.4984C36.8878 40.3327 36.9638 40.1604 36.9326 39.9936L36.9388 39.9205C36.7992 39.6219 37.0003 39.1714 36.861 38.9309C36.8508 38.9132 36.7716 38.2546 36.7368 38.1003L36.679 37.4069L36.7077 37.378C36.7116 37.1914 36.633 37.063 36.6256 36.8952L36.6212 35.9334C36.6231 35.8097 36.6451 35.6763 36.6361 35.5541L36.6014 35.0278C36.4624 34.5741 35.9948 33.8756 35.5984 33.6608L35.5359 33.6262C35.4948 33.5946 35.4764 33.5649 35.4263 33.5436L35.4102 33.4668ZM36.7186 35.0284C36.6864 35.7629 36.6574 36.581 36.7812 37.3057L36.8088 37.3324C36.8324 37.3563 36.8535 37.3829 36.8414 37.4047L36.8206 36.0398C36.8179 35.709 36.8508 35.343 36.7186 35.0284Z" fill="black"/>
<path d="M36.7194 35.0283C36.8516 35.3429 36.8186 35.7089 36.8213 36.0398L36.8421 37.4047C36.8542 37.3828 36.8331 37.3562 36.8095 37.3323L36.7819 37.3056C36.6581 36.581 36.6871 35.7629 36.7194 35.0283Z" fill="black"/>
</g>
<defs>
<clipPath id="clip0_9_5369">
<rect width="59.1716" height="59.1716" fill="white" transform="translate(0 0.482422)"/>
</clipPath>
</defs>
</svg>
