<svg width="60" height="60" viewBox="0 0 60 60" fill="none" xmlns="http://www.w3.org/2000/svg">
<path d="M53.9235 54.7603C53.8158 55.136 50.3488 56.5067 49.9351 56.6438C46.2381 57.8687 42.5503 58.3246 38.6703 58.5697L34.2998 58.8271L26.9193 58.8308C26.4039 58.8315 25.8786 58.8588 25.3645 58.8328C24.9106 58.8098 24.4582 58.7034 24.0021 58.675L21.7418 58.6072L14.8427 57.7435C12.2119 57.289 8.82667 56.5093 6.62462 54.9854C4.60696 53.5891 4.59859 52.7161 4.59912 50.5807L4.60289 46.2174C4.60235 45.9109 4.58323 45.5903 4.61776 45.2857C5.02704 41.6746 11.772 39.534 14.6664 38.7249C15.6733 38.4434 16.7266 38.2747 17.7209 37.9595L13.7118 35.8938C8.43438 33.0239 3.75281 27.1309 3.75684 20.9164C3.76173 13.4004 9.88096 7.17561 16.3831 4.27512C19.085 3.06986 22.1437 2.19217 25.0566 1.75594L28.075 1.42246C28.8345 1.34709 29.6177 1.37796 30.381 1.37726C34.2837 1.37371 37.716 2.01658 41.4183 3.35778L43.3668 4.1041C45.7517 5.13029 48.107 6.54097 50.0919 8.20293L50.2538 8.3502C52.9296 10.6204 54.9575 13.6498 55.8723 17.0492L56.1151 17.9044C57.521 23.468 54.773 29.129 50.6733 32.835C50.3862 33.0947 50.0822 33.3928 49.7641 33.6129C48.8056 34.432 47.7197 35.198 46.6273 35.8266L44.3099 37.0717C43.7568 37.3347 43.1017 37.4737 42.6691 37.9282C43.504 38.3111 44.49 38.4516 45.3749 38.6997C47.7372 39.3618 52.0629 40.7512 53.894 42.5199L53.8953 42.5264C55.0974 43.5112 55.6923 44.6876 55.6784 46.2061L55.669 50.9446C55.6554 51.3073 55.5423 52.801 55.4789 52.9508C55.2031 53.6037 54.5574 54.3982 53.9235 54.7603ZM29.1263 7.37784C27.0968 7.42431 23.8043 7.9664 21.8207 8.52307C17.1922 9.82188 11.1969 13.2598 9.8023 18.2041C9.21795 20.2758 9.3414 21.8349 10.0012 23.9063C11.0008 27.0449 14.4758 29.7528 17.3772 31.2263C17.8521 31.4675 18.3683 31.6374 18.8648 31.8296C21.1587 32.7175 22.9134 33.1838 25.404 33.5264L27.0737 33.7031C27.4611 33.7449 27.8398 33.8332 28.2291 33.8679C29.0445 33.9405 30.4679 33.9168 31.2757 33.8785L31.2998 33.8702C31.4384 33.8341 31.6272 33.8578 31.7722 33.8538C35.4492 33.751 39.0807 32.8665 42.4256 31.3477C45.9774 29.7349 48.7745 27.4553 50.2929 23.7638C52.324 18.8257 48.9739 14.4185 45.0882 11.5533C41.6389 9.00995 36.6116 7.75012 32.4152 7.45726L29.1263 7.37784ZM28.081 38.4848L25.2254 38.6666C22.0176 38.9283 18.9929 39.4357 15.8897 40.2821L13.6454 40.9204C11.6133 41.5819 6.32311 43.5949 6.35446 45.9219C6.37815 47.6802 9.79528 49.1158 11.1247 49.6257C13.7862 50.6464 16.6138 51.2729 19.4374 51.6362L25.0662 52.2365L32.0971 52.3234L33.7925 52.2645C38.7314 52.1107 49.6281 50.9299 53.4018 47.1436C53.8734 46.6705 53.8901 46.1886 53.7612 45.5388L53.7508 45.4836C53.3383 43.3895 48.5578 41.5456 46.8134 40.9607C42.4251 39.4892 37.3894 38.7285 32.755 38.504L28.081 38.4848ZM48.1459 11.7277C49.7805 13.1168 51.5088 15.5874 52.1007 17.6299L52.1506 17.7689C52.8605 19.5167 52.6974 21.7102 52.2385 23.4947C51.501 26.3627 49.7282 28.6273 47.4071 30.447C47.3871 30.4627 47.3164 30.5268 47.2956 30.5305C46.1081 31.5129 44.587 32.5267 43.0555 32.8996C42.9385 33.1299 42.9444 35.525 43.2444 35.7232L43.3163 35.6935C43.8092 35.477 44.2819 35.1053 44.7412 34.8209C45.8938 34.1072 47.0627 33.4494 48.1386 32.6165C51.0611 30.354 53.454 27.3374 54.328 23.6888C54.565 22.6991 54.8204 20.6153 54.6331 19.5657L54.4395 18.3667C52.8582 10.7966 45.3283 6.20628 38.3765 4.26235C35.0254 3.32528 32.6834 3.06031 29.2894 3.18458C23.3998 3.40024 17.2038 5.10281 12.4748 8.72555C8.77198 11.5622 6.2574 14.9235 5.60152 19.5723L5.58603 19.6813C5.35819 21.2269 5.79515 23.2734 6.20289 24.7458L6.51643 25.5896C7.76029 29.1159 11.4307 32.4176 14.5436 34.2878L17.166 35.7662C17.164 35.0871 17.1318 34.3859 17.1872 33.7099C17.2434 33.0228 17.3809 33.1517 16.9401 32.9339L15.836 32.3528C13.7292 31.1112 11.7211 29.7683 10.1983 27.8207C6.35159 22.901 6.92743 16.7216 11.392 12.3731C15.901 7.98137 22.3594 6.00074 28.5382 5.64917C34.6139 5.30347 41.5172 6.67916 46.4934 10.3565C47.0599 10.7751 47.6542 11.2212 48.1459 11.7277ZM6.3776 49.1804C6.33719 49.6452 6.28568 51.8233 6.37642 52.2863C6.47848 52.8071 7.7715 53.6288 8.19472 53.8694C10.2624 55.045 12.7048 55.5431 15.024 55.9529L21.1851 56.708L25.7496 56.9494C25.9807 56.9578 26.2079 57.0051 26.4399 57.0135L33.5825 57.0163C33.8173 57.0088 34.0505 56.9648 34.286 56.9549L35.3857 56.9352C35.6058 56.9266 35.8279 56.8841 36.0491 56.8703L42.4042 56.4484C45.0586 56.1302 53.3613 54.6474 53.7675 52.1792L53.7887 52.1735C53.8552 51.6938 53.9054 49.6844 53.8291 49.1417L53.8093 49.1603C51.7503 51.0624 46.6507 52.2677 43.7933 52.8394L38.2605 53.6928L33.2765 53.997L28.1048 54.0385L24.2188 53.8779L21.4707 53.6068L15.8111 52.6877C12.6204 52.0189 9.45806 51.092 6.68646 49.319C6.61154 49.271 6.48525 49.1577 6.3776 49.1804ZM18.9773 33.6905L18.988 37.248C18.9818 37.7406 18.9278 37.713 19.4188 37.6561L26.0761 36.8387C26.4541 36.8071 26.9816 36.7681 27.3553 36.7539L32.2565 36.7504L40.6262 37.6106C40.8521 37.642 41.108 37.653 41.3207 37.7293L41.3145 36.9203L41.1425 33.7551C38.6674 34.8253 35.3361 35.4735 32.5967 35.5832C31.6768 35.62 30.7715 35.5349 29.8538 35.5291L27.3151 35.5146C24.9473 35.4168 21.8868 34.8391 19.7322 33.9889L18.9773 33.6905ZM50.2538 8.3502L50.286 8.45968C50.4228 8.5739 50.5352 8.70134 50.6848 8.81141L50.7986 8.90961C50.8262 8.93118 50.8349 8.95298 50.8575 8.97688L51.5782 9.64389C52.1578 10.2235 52.7755 11.0351 53.2209 11.7262L54.2889 13.4128C54.4647 13.7314 54.7685 14.4445 54.9232 14.6684L55.2812 15.593C55.302 15.6577 55.3258 15.7178 55.34 15.785L55.3831 15.8241C55.4507 16.068 55.5877 16.7222 55.7268 16.8498L55.7284 16.9022C55.7312 16.9626 55.7475 16.9992 55.7776 17.0521L55.755 17.1532C55.8321 17.2604 55.8855 17.4018 55.8798 17.5386C55.9196 17.604 56.1118 18.2778 56.106 18.3359L56.0978 18.4167C56.081 18.5771 56.1028 18.6688 56.1707 18.8145L56.163 18.841C56.1086 19.0414 56.2589 19.5967 56.2649 19.8451C56.2873 20.775 56.3014 22.0649 56.1743 22.9461L56.0877 23.5528C56.0888 23.6172 56.0645 23.6562 56.0345 23.7118L56.0378 23.7472C56.0702 24.1472 55.8625 24.5004 55.7535 24.8591C55.6897 25.0692 55.6643 25.2179 55.5873 25.4453L55.584 25.5232C55.4395 26.1621 54.5359 27.9927 54.1931 28.506L52.0062 31.419C51.8683 31.5973 51.6863 31.7571 51.5267 31.9171L50.2551 33.1177C50.0923 33.2774 49.8512 33.3899 49.7641 33.6129C50.0822 33.3928 50.3862 33.0947 50.6733 32.835C54.773 29.129 57.521 23.468 56.1151 17.9044L55.8723 17.0492C54.9575 13.6498 52.9296 10.6204 50.2538 8.3502ZM48.1459 11.7277L48.1856 11.8514C48.242 11.8798 48.2239 11.87 48.2575 11.9177L48.3294 11.9827C48.5979 12.2236 48.8326 12.4893 49.0889 12.7397L49.1796 12.8371C49.3087 12.9437 49.3871 13.1024 49.4974 13.2241L49.6816 13.4595C49.7252 13.519 49.7742 13.5731 49.8174 13.6336L51.2134 15.7588C51.2746 15.8558 51.3157 15.9686 51.3731 16.0697L52.0799 17.8402C52.1653 18.1059 52.2055 18.3632 52.2683 18.6365L52.2879 18.6845C52.3078 18.7534 52.2922 18.8596 52.2811 18.9301C52.3774 19.1735 52.4462 20.0466 52.4278 20.2749C52.3775 20.9005 52.5321 21.6327 52.3827 22.2382L52.4033 22.2844C52.3364 22.3839 52.3124 22.4975 52.3366 22.619L52.325 22.7031C52.3026 22.7536 52.3001 22.7902 52.2946 22.845L52.2364 23.1536C52.1862 23.4606 52.074 23.8176 51.9777 24.1119C51.2994 26.1861 49.8923 28.2138 48.2303 29.6491L48.1994 29.6907C47.9469 30.0009 47.4979 30.1774 47.283 30.4992L47.2956 30.5305C47.3164 30.5268 47.3871 30.4627 47.4071 30.447C49.7282 28.6273 51.501 26.3627 52.2385 23.4947C52.6974 21.7102 52.8605 19.5167 52.1506 17.7689L52.1007 17.6299C51.5088 15.5874 49.7805 13.1168 48.1459 11.7277ZM53.8953 42.5264L53.9127 42.5764C53.9301 42.6241 53.9429 42.6432 53.9779 42.6796L54.5323 43.2836C54.8243 43.576 55.3712 44.5071 55.4372 44.8899C55.4879 45.1838 55.4851 45.4899 55.5232 45.7837L55.5817 45.4533C55.6383 45.7179 55.5802 46.0597 55.5814 46.3345L55.5258 49.5576C55.4617 49.6429 55.4533 52.0979 55.4698 52.3377C55.4772 52.4447 55.3204 52.9676 55.3214 52.9939L55.2494 53.1386C55.1483 53.3189 55.0873 53.4884 54.9603 53.6696L54.6408 54.0343C54.6073 54.0736 54.558 54.099 54.5259 54.1354L54.2976 54.3797C54.2612 54.4196 54.2215 54.4511 54.1803 54.4855L54.079 54.5641C53.9969 54.6224 53.9569 54.6646 53.9235 54.7603C54.5574 54.3982 55.2031 53.6037 55.4789 52.9508C55.5423 52.801 55.6554 51.3073 55.669 50.9446L55.6784 46.2061C55.6923 44.6876 55.0974 43.5112 53.8953 42.5264ZM43.3163 35.6935L43.2444 35.7232C42.9444 35.525 42.9385 33.1299 43.0613 32.8996L42.9764 32.8751C42.8541 33.0338 42.8426 33.5672 42.8911 33.7374L42.8432 34.5048C42.8458 34.9153 43.0002 35.2558 43.0566 35.6588L43.0323 35.6895L43.3303 35.7428L43.3163 35.6935Z" fill="black"/>
<path d="M43.3163 35.6939L43.3303 35.7431L43.0323 35.6898L43.0566 35.6591C43.0002 35.2561 42.8458 34.9156 42.8433 34.5051L42.8911 33.7378C42.8426 33.5675 42.8541 33.0342 42.9764 32.8755L43.0613 32.9C42.9385 33.1302 42.9444 35.5254 43.2444 35.7236L43.3163 35.6939Z" fill="black"/>
<path d="M53.895 42.5264C55.0972 43.5113 55.692 44.6876 55.6781 46.2061L55.6688 50.9446C55.6551 51.3073 55.542 52.801 55.4787 52.9509C55.2028 53.6037 54.5571 54.3982 53.9232 54.7603C53.9566 54.6646 53.9966 54.6225 54.0788 54.5641L54.18 54.4855C54.2213 54.4511 54.2609 54.4196 54.2973 54.3798L54.5257 54.1354C54.5577 54.099 54.607 54.0736 54.6406 54.0343L54.96 53.6696C55.087 53.4884 55.148 53.3189 55.2491 53.1387L55.3211 52.994C55.3201 52.9676 55.4769 52.4447 55.4695 52.3378C55.453 52.0979 55.4614 49.6429 55.5256 49.5576L55.5812 46.3345C55.5799 46.0597 55.638 45.7179 55.5814 45.4533L55.5229 45.7837C55.4848 45.4899 55.4877 45.1838 55.4369 44.8899C55.371 44.5071 54.8241 43.576 54.532 43.2836L53.9777 42.6796C53.9426 42.6432 53.9298 42.6241 53.9125 42.5764L53.895 42.5264Z" fill="black"/>
<path d="M48.1457 11.728C49.7803 13.1171 51.5085 15.5878 52.1005 17.6302L52.1504 17.7693C52.8602 19.517 52.6971 21.7105 52.2382 23.4951C51.5008 26.363 49.7279 28.6276 47.4068 30.4474C47.3868 30.4631 47.3161 30.5271 47.2953 30.5308L47.2827 30.4995C47.4977 30.1777 47.9467 30.0013 48.1992 29.6911L48.23 29.6495C49.892 28.2141 51.2991 26.1864 51.9775 24.1122C52.0738 23.818 52.186 23.461 52.2361 23.1539L52.2944 22.8453C52.2998 22.7905 52.3024 22.7539 52.3248 22.7034L52.3363 22.6194C52.3122 22.4978 52.3361 22.3842 52.403 22.2847L52.3824 22.2386C52.5319 21.633 52.3773 20.9009 52.4275 20.2753C52.4459 20.0469 52.3771 19.1738 52.2809 18.9304C52.292 18.8599 52.3076 18.7537 52.2877 18.6848L52.268 18.6369C52.2053 18.3635 52.1651 18.1063 52.0797 17.8406L51.3728 16.0701C51.3154 15.9689 51.2744 15.8561 51.2131 15.7592L49.8172 13.634C49.7739 13.5734 49.7249 13.5193 49.6814 13.4598L49.4971 13.2244C49.3869 13.1027 49.3084 12.944 49.1793 12.8375L49.0886 12.74C48.8324 12.4896 48.5977 12.2239 48.3292 11.9831L48.2572 11.9181C48.2237 11.8703 48.2417 11.8801 48.1853 11.8518L48.1457 11.728Z" fill="black"/>
<path d="M50.2538 8.3501C52.9296 10.6203 54.9575 13.6497 55.8724 17.0491L56.1152 17.9043C57.5211 23.4679 54.7731 29.1289 50.6733 32.8349C50.3863 33.0946 50.0822 33.3927 49.7642 33.6128C49.8512 33.3898 50.0924 33.2773 50.2551 33.1176L51.5267 31.917C51.6863 31.757 51.8683 31.5972 52.0062 31.4189L54.1931 28.5059C54.5359 27.9926 55.4395 26.162 55.584 25.5231L55.5874 25.4452C55.6643 25.2178 55.6898 25.0691 55.7536 24.859C55.8625 24.5003 56.0702 24.1471 56.0379 23.7471L56.0345 23.7117C56.0645 23.6561 56.0888 23.6171 56.0878 23.5527L56.1743 22.946C56.3015 22.0648 56.2874 20.7749 56.2649 19.845C56.2589 19.5966 56.1086 19.0413 56.163 18.8409L56.1708 18.8144C56.1028 18.6687 56.0811 18.577 56.0978 18.4166L56.106 18.3358C56.1118 18.2777 55.9196 17.6039 55.8799 17.5385C55.8855 17.4017 55.8321 17.2603 55.7551 17.1531L55.7776 17.052C55.7475 16.9991 55.7312 16.9625 55.7285 16.9021L55.7269 16.8497C55.5877 16.7221 55.4508 16.0679 55.3832 15.824L55.34 15.7849C55.3258 15.7177 55.302 15.6576 55.2812 15.5929L54.9232 14.6683C54.7685 14.4444 54.4647 13.7313 54.2889 13.4127L53.221 11.7261C52.7756 11.035 52.1578 10.2234 51.5783 9.64379L50.8576 8.97679C50.8349 8.95289 50.8262 8.93108 50.7986 8.90951L50.6848 8.81131C50.5352 8.70124 50.4228 8.57381 50.2861 8.45958L50.2538 8.3501Z" fill="black"/>
<path d="M28.0573 41.875L37.8444 41.8864C38.0689 41.8923 38.2893 41.9323 38.5124 41.9404L41.6838 42.1372C43.2975 42.2715 48.7872 42.6261 49.3715 44.6364L49.3856 44.6878C49.479 44.9992 49.4888 45.341 49.3697 45.6473L49.3545 45.6846C48.524 47.8 42.7034 48.5839 40.8094 48.86L34.1297 49.5054L32.1565 49.527L20.6236 49.043C18.6727 48.8413 10.3806 47.8207 10.7706 45.0395L10.7778 44.9912C11.1136 42.6348 15.4798 42.4488 17.2553 42.257L19.9954 42.0073L22.8171 41.9386C23.0289 41.9269 23.2412 41.8891 23.4527 41.8839L28.0573 41.875ZM28.3877 43.6106L22.587 43.6181C22.3493 43.6259 22.117 43.6845 21.8774 43.6928L18.3916 43.8681C17.0323 43.9929 13.5292 44.3164 12.4049 45.1071C13.5462 46.395 19.2925 47.1863 20.9102 47.3507L23.0377 47.5736L31.8218 47.8183L35.0451 47.7427L41.0915 47.1242C42.4038 46.9347 46.8003 46.1082 47.8277 45.2199C46.7689 44.3248 44.2745 44.1113 42.9406 43.9652L39.5057 43.6959C39.2393 43.6824 38.9789 43.6311 38.7132 43.6225L28.3877 43.6106Z" fill="black"/>
<path d="M28.4933 9.45348C29.0943 9.30036 29.9254 9.9931 29.4964 10.8147L29.4345 10.9319C29.2739 11.2152 28.9841 11.4688 28.7551 11.6997L24.6466 16.0409C24.2194 16.486 23.8529 17.0848 23.2278 17.2633C22.6561 17.3182 22.2888 17.1397 22.1649 16.5471L22.156 16.5032C22.0938 16.2145 22.1278 16.0062 22.3301 15.7889L27.8993 10.0004C28.0774 9.80863 28.2591 9.57638 28.4933 9.45348Z" fill="black"/>
<path d="M31.5707 12.3106C32.3695 12.1595 32.912 12.594 32.5074 13.3496C32.1048 14.1011 31.4944 14.6502 30.9152 15.258L26.4096 19.9249C25.8811 20.5538 25.3415 21.3665 24.5146 21.6192C23.9586 21.7751 23.3967 21.4735 23.4847 20.8474L23.4909 20.8083C23.5844 20.1812 24.05 19.7676 24.4837 19.3553L29.3568 14.2648C30.0505 13.5166 30.5523 12.4189 31.5707 12.3106Z" fill="black"/>
</svg>
