<svg width="60" height="60" viewBox="0 0 60 60" fill="none" xmlns="http://www.w3.org/2000/svg">
<path d="M30.3582 58.8134L24.8687 58.7975C24.6391 58.7876 24.4223 58.7195 24.1969 58.709L20.9524 58.5693L16.8468 58.1313C13.3643 57.6658 6.12178 56.5085 4.38488 53.1372C4.05553 52.498 4.10655 51.9217 4.10694 51.2259L4.10838 45.3666C4.11648 45.2171 4.13534 45.0628 4.18224 44.9201L4.32375 44.5015C5.58529 41.3683 11.306 39.5494 14.1956 38.7305L15.9463 38.2701C16.3186 38.1749 16.6947 38.1029 17.0502 37.9528C16.6204 37.5368 16.0344 37.3066 15.5 37.0542L13.7795 36.211C7.7896 32.9701 2.62076 26.7633 3.3111 19.6212C3.99223 12.5744 9.69734 7.11406 15.8597 4.28167C19.675 2.52805 24.6758 1.38468 28.8345 1.3637C30.0731 1.36092 31.3149 1.34565 32.5498 1.45041C38.9579 1.99406 45.9125 4.62945 50.5571 9.08266C54.064 12.445 56.3675 17.2304 55.9376 22.1509C55.4128 28.1583 51.0675 32.9504 46.0597 35.8736L43.808 37.0813C43.4142 37.2802 42.5898 37.5564 42.3325 37.9124C42.4356 38.0742 43.7073 38.3442 43.9665 38.4173C47.3222 39.3651 53.8467 41.1295 55.0466 44.8905L55.0679 44.956C55.2714 45.4559 55.1672 46.191 55.1681 46.7253L55.1752 51.2319C55.1761 51.6466 55.2076 52.093 55.1379 52.5021C54.83 54.3099 52.2919 55.5896 50.793 56.1757C47.0381 57.644 42.9177 58.2139 38.9176 58.53L36.4178 58.685C35.3261 58.7282 34.2482 58.8048 33.1563 58.8091L30.3582 58.8134ZM28.8482 3.152C22.7203 3.25543 15.7581 5.48945 11.0798 9.41807C1.06874 17.825 4.27332 29.4408 15.4944 35.084C15.725 35.1999 16.5685 35.5587 16.697 35.6768L16.7349 33.0372C16.4495 32.8753 16.137 32.7629 15.8431 32.6112L14.7353 32.0009C12.8456 30.9021 10.9845 29.4828 9.63848 27.7486C5.69716 22.6705 6.60893 16.7353 10.938 12.367C15.17 8.09665 21.3192 6.15811 27.191 5.71541C28.2366 5.63658 29.2868 5.57264 30.3365 5.61825C36.6978 5.65068 43.6991 7.6973 48.2402 12.2918C50.2116 14.2864 51.7297 16.7992 52.0796 19.6235C52.8263 25.6509 47.8783 30.727 42.7051 32.9245C42.6433 32.9508 42.5628 32.9672 42.5314 33.0277L42.6075 35.6631C42.7187 35.5848 42.8526 35.5365 42.9746 35.4768L45.7884 33.9273C56.5702 27.1664 57.0481 15.5054 46.6714 8.2519C41.9102 4.92367 34.7403 2.84109 28.8482 3.152ZM28.4148 7.39645C22.4019 7.68683 15.856 9.60234 11.7165 14.1599C7.58932 18.7037 8.20153 24.2814 12.5811 28.2514C16.0095 31.3591 20.5093 32.9041 25.0276 33.5372L27.5597 33.8231C28.6565 33.8934 29.7742 33.8543 30.8737 33.8533C36.4442 33.7336 43.3315 31.8029 47.2063 27.7492C48.7383 26.1464 50.0231 24.0708 50.3135 21.8382C50.911 17.2463 47.3445 13.2188 43.6596 10.9818C39.1514 8.24525 33.7041 7.25849 28.4836 7.39387L28.4148 7.39645ZM18.5085 33.7519L18.5056 37.663C18.6455 37.6854 18.8395 37.6335 18.982 37.612L23.6263 37.0125L27.326 36.7313L31.6728 36.7349L40.1094 37.5716C40.3085 37.6006 40.578 37.6023 40.7592 37.6816L40.7669 36.894L40.7254 33.8531C40.6024 33.9307 40.422 33.94 40.2815 33.983L38.3547 34.5624C36.2665 35.1161 34.0556 35.4804 31.8968 35.5959L26.9586 35.535C24.879 35.3975 22.7966 35.0838 20.784 34.5368L18.5085 33.7519ZM28.9784 38.5316L26.7171 38.5581C21.7818 38.7839 16.3578 39.7328 11.7316 41.4129C7.22941 43.048 2.79049 45.9107 8.96029 48.9161C11.968 50.3812 15.3523 50.9671 18.6413 51.4174L23.0196 51.8942L25.9632 52.0699L30.3156 52.0831L33.5136 52.0711L38.3616 51.723L42.0855 51.2246C44.6246 50.8236 47.1319 50.2574 49.5058 49.2507C55.8065 46.5786 53.3928 43.8995 48.8107 41.944C45.2128 40.4086 41.4174 39.5315 37.5502 39.011L34.8651 38.7344C33.8363 38.6555 32.8217 38.5488 31.7901 38.5355L28.9784 38.5316ZM5.89222 49.0667L5.89523 51.2205C5.89661 52.0475 5.79008 52.3348 6.41376 52.956C8.90398 55.4364 16.9965 56.4189 20.2691 56.6982L25.1865 56.949C25.5134 56.9606 25.8385 57.0274 26.1688 57.0372L33.0163 57.0432C33.4222 57.0397 33.8147 56.9663 34.2184 56.9528L41.5554 56.467C44.0573 56.1683 52.1256 54.9433 53.3062 52.2406C53.455 51.7989 53.3809 51.2633 53.3767 50.7985L53.3794 49.1201C48.8881 52.6113 39.4308 53.6242 33.7717 53.8394L25.5043 53.7847C25.0065 53.7675 24.4829 53.8037 23.9907 53.7396L23.5714 53.6916C23.1859 53.6289 22.7638 53.6316 22.3713 53.6015L20.0229 53.3829C16.3796 52.9713 8.67192 51.813 5.89222 49.0667Z" fill="black"/>
<path d="M22.7435 17.2927C21.8737 17.4339 21.2616 16.4325 21.8717 15.7893L26.8158 10.5755C27.1906 10.1789 27.5239 9.69551 28.039 9.47392C28.7266 9.39383 29.4128 10.0522 29.0722 10.7249C28.9367 10.9925 28.7111 11.1984 28.5025 11.4079L24.129 16.0393C23.7076 16.478 23.3484 17.0944 22.7435 17.2927Z" fill="black"/>
<path d="M23.9368 21.6852C23.0383 21.7074 22.7302 20.8169 23.2476 20.1601C23.6259 19.6798 24.1114 19.2567 24.5276 18.806L29.7462 13.3203C30.1705 12.8728 30.469 12.3594 31.1257 12.2798C31.3194 12.2724 31.5435 12.2895 31.7044 12.4085C32.458 12.9659 31.9669 13.6602 31.4947 14.1287L25.831 20.0366C25.3612 20.5383 24.6565 21.5675 23.9368 21.6852Z" fill="black"/>
<path d="M46.6889 47.0405C41.0277 48.9287 35.0436 47.8662 30.5459 43.8241C30.0739 43.4 28.6777 42.0841 28.6676 41.4594C28.6524 40.5158 29.7858 40.3512 30.4813 40.3325L34.7786 40.4212C37.5607 40.6167 40.2939 41.0181 42.9985 41.7116C46.0352 42.4902 53.1778 44.6608 46.6889 47.0405ZM31.4531 42.1203L31.393 42.1686C32.2121 43.057 33.4722 43.9393 34.533 44.5134C38.1273 46.4583 42.3596 46.5579 46.217 45.3603L47.1313 45.0085L45.1654 44.225C41.2 42.8554 36.8426 42.1121 32.6435 42.1154L31.4531 42.1203Z" fill="black"/>
<path d="M19.2293 49.3924C17.0279 49.4 14.8929 49.2786 12.8059 48.4726C10.4565 47.5654 8.37277 45.26 11.4987 43.5229C12.5609 42.9327 13.8422 42.6135 15.0329 42.4081L15.9841 42.2749C16.5306 42.1815 17.1 42.1936 17.653 42.1899L19.1343 42.1925C21.2358 42.2104 24.2868 42.7701 25.8697 44.1246C26.9928 45.0857 27.2315 46.2297 26.1853 47.3475C24.653 48.9845 21.3161 49.3273 19.2293 49.3924ZM16.9153 43.9699C15.4414 44.0802 12.8086 44.4571 11.7377 45.6397C11.7637 45.8044 12.1291 46.082 12.2679 46.1825C13.3683 46.9786 14.8599 47.2935 16.1832 47.4814L17.0278 47.5747C17.9025 47.7094 19.0071 47.6714 19.8917 47.6106L21.2446 47.4555C22.3666 47.2897 24.3233 46.8868 25.0364 45.9245L25.0717 45.8758C23.7203 43.9501 19.0319 43.919 16.9153 43.9699Z" fill="black"/>
</svg>
