<svg width="82" height="81" viewBox="0 0 82 81" fill="none" xmlns="http://www.w3.org/2000/svg">
<circle cx="40.9095" cy="40.6091" r="40" stroke="#D9DDDD" stroke-width="0.606061"/>
<g clip-path="url(#clip0_9_4591)">
<path d="M27.0896 41.5161C30.043 40.7959 33.0328 40.3083 36.057 40.0109L38.5044 39.7971L42.7035 39.7922C45.3716 39.8872 48.0396 40.2191 50.6545 40.7493L52.5097 41.1374C53.0593 41.2514 53.654 41.3631 54.1854 41.5435C54.7157 41.763 55.2833 41.8936 55.8344 42.0519L57.89 42.7121C62.1595 44.2336 68.9581 47.5727 68.9673 52.8933L68.9181 54.4677L68.8974 54.5128C68.8004 54.6893 68.7503 54.8901 68.6805 55.0798C68.0819 56.7093 66.9575 57.9433 65.6765 59.0872C62.1657 62.2225 56.6896 63.9369 52.0764 64.8489L47.7983 65.5218L44.4079 65.8027L40.3284 65.895L35.187 65.6954C32.3019 65.4556 29.4753 64.9842 26.6726 64.2618C21.8152 63.0096 14.0975 59.9757 12.5274 54.9084C12.4865 54.7763 12.4476 54.5224 12.3524 54.4288L12.3193 54.3991C12.2325 53.0487 12.1921 51.7551 12.757 50.488C14.5387 46.4922 19.6563 44.0341 23.6387 42.6131L25.6733 41.9477C26.1449 41.8073 26.63 41.6922 27.0896 41.5161Z" fill="#A56ED5"/>
<path d="M27.0893 41.516L27.0561 41.5099C25.9406 41.313 25.6312 41.2381 24.5304 40.7596L22.8362 40.0121C19.6364 38.533 16.3852 36.7143 14.3035 33.7755C11.0295 29.1535 11.746 24.0582 15.5244 19.8953C20.4554 14.4625 29.2798 11.9498 36.5012 11.2351L39.6667 11.0473C41.4362 10.9938 43.197 11.0757 44.9562 11.2554L47.3384 11.5565C49.7164 11.9744 52.0727 12.4762 54.3769 13.2087C60.4453 15.1379 68.1126 19.5035 68.9219 26.3582C69.8107 33.8861 62.6596 38.5282 56.4407 40.8575L54.8891 41.3708C54.6831 41.428 54.3633 41.4441 54.185 41.5435C53.6537 41.3631 53.059 41.2514 52.5094 41.1374L50.6541 40.7492C48.0392 40.219 45.3712 39.8871 42.7031 39.7922L38.504 39.797L36.0566 40.0108C33.0324 40.3083 30.0426 40.7959 27.0893 41.516Z" fill="#F2EEF1"/>
<path d="M56.5346 18.792C59.3018 20.2488 61.9973 22.1779 62.9651 25.3024C64.235 29.4027 60.7866 32.8543 57.5335 34.7222C54.2505 36.6072 50.7769 37.4914 47.0635 38.0233L44.8086 38.3594C42.9724 38.5679 39.9561 38.7332 38.0908 38.4838C38.1154 38.3569 38.1755 38.2501 38.2632 38.1555L45.6111 30.4961L55.5899 19.7941C55.9073 19.4717 56.2743 19.1631 56.5346 18.792Z" fill="#D9DDDD"/>
<path d="M33.561 37.9018L28.4347 36.7156C25.8877 35.925 23.399 34.7858 21.3583 33.0448C15.0319 27.6478 18.6023 22.051 24.5488 18.9864C27.8213 17.2998 31.5453 16.3042 35.195 15.8816L39.8462 15.5667L42.8529 15.5672L45.9555 15.8316L48.1092 16.1901C49.6073 16.4614 51.0767 16.7744 52.5292 17.2396C53.914 17.6412 55.2434 18.1487 56.5339 18.792C56.2736 19.1631 55.9066 19.4718 55.5892 19.7941L45.6104 30.4961L38.2625 38.1556C38.1748 38.2501 38.1147 38.3569 38.0901 38.4838C36.5977 38.4161 35.017 38.269 33.561 37.9018Z" fill="#D9DDDD"/>
<path d="M33.5615 37.9018L52.5297 17.2396C53.9145 17.6412 55.2439 18.1487 56.5344 18.792C56.2741 19.1631 55.9072 19.4718 55.5897 19.7941L45.6109 30.4961L38.263 38.1556C38.1753 38.2502 38.1153 38.3569 38.0906 38.4838C36.5982 38.4161 35.0175 38.269 33.5615 37.9018Z" fill="white"/>
<path d="M12.3156 54.3992L12.3518 54.4289C12.447 54.5224 12.4859 54.7763 12.5268 54.9084C14.0969 59.9758 21.8146 63.0096 26.672 64.2619C29.4747 64.9843 32.3013 65.4556 35.1865 65.6955L40.3278 65.895L44.4073 65.8027L47.7977 65.5218L52.0758 64.849C56.6891 63.9369 62.1651 62.2226 65.6759 59.0873C66.9569 57.9433 68.0813 56.7093 68.6799 55.0798C68.7497 54.8902 68.7999 54.6893 68.8968 54.5128L68.9175 54.4677C68.9238 54.5979 68.9472 54.7597 68.9486 54.8954L68.954 57.8793C68.9541 58.2848 68.9811 58.7112 68.9258 59.1135C68.1408 64.8169 59.5296 67.9923 54.6992 69.2437C52.4502 69.8264 50.181 70.3635 47.8672 70.5987L46.1131 70.768C45.6185 70.8077 45.109 70.8251 44.623 70.9324C44.0528 71.0584 43.3809 70.9991 42.7955 70.9995L37.8832 70.9993C36.8225 70.9972 35.82 70.8477 34.7504 70.76C32.1225 70.5445 29.54 70.0477 26.9877 69.3974L24.5167 68.7366C20.2846 67.4469 12.8495 64.023 12.2963 59.0607C12.1717 57.9438 12.2175 55.5214 12.3156 54.3992Z" fill="#E1E1E1"/>
<path d="M35.6743 44.6046C38.5498 43.9963 41.4979 43.9415 44.4027 44.371C44.9222 44.4479 45.5215 44.5102 46.0219 44.6652C46.215 44.5802 46.3816 44.6687 46.5824 44.6941L48.451 44.9264C51.7503 45.4242 55.8699 46.6142 58.688 48.3088C62.5485 50.6301 63.7714 53.7277 59.4853 56.8096C55.8255 59.4411 51.3305 60.5698 46.913 61.1364L43.1762 61.4642L38.7305 61.4738C37.8377 61.4689 36.971 61.378 36.0838 61.2963L30.1991 60.3329C27.8181 59.8107 25.6208 59.0815 23.4745 57.8888C19.7498 55.8192 17.0204 52.9687 20.9232 49.5182C23.9684 46.8258 29.4679 45.4558 33.3647 44.8876L34.5402 44.7316C34.8935 44.679 35.2932 44.5766 35.6496 44.6024L35.6743 44.6046Z" fill="#F2EEF1"/>
<path d="M52.7049 50.0041C54.5808 49.9781 57.9606 50.387 58.174 52.681C58.3548 54.6225 55.5292 55.4607 54.0452 55.5867C52.2128 55.7671 49.7499 55.2547 48.7516 53.5517C48.3527 52.8711 48.396 52.0071 48.9223 51.4103C49.7472 50.4749 51.5048 50.0731 52.7049 50.0041Z" fill="#CBA1F0"/>
<path d="M39.8984 53.0346C42.0087 53.0053 45.811 53.4654 46.0512 56.0461C46.2545 58.2304 43.0757 59.1733 41.4062 59.315C39.3447 59.5181 36.574 58.9416 35.4508 57.0257C35.0021 56.2601 35.0509 55.288 35.643 54.6166C36.571 53.5643 38.5482 53.1123 39.8984 53.0346Z" fill="#CBA1F0"/>
<path d="M27.8563 50.0041C29.7321 49.9781 33.1119 50.387 33.3254 52.681C33.5062 54.6225 30.6806 55.4607 29.1965 55.5867C27.3641 55.7671 24.9012 55.2547 23.9029 53.5517C23.504 52.8711 23.5474 52.0071 24.0737 51.4103C24.8986 50.4749 26.6561 50.0731 27.8563 50.0041Z" fill="#CBA1F0"/>
</g>
<defs>
<clipPath id="clip0_9_4591">
<rect width="60.6061" height="60.6061" fill="white" transform="translate(10.3027 10.609)"/>
</clipPath>
</defs>
</svg>
