<svg width="81" height="82" viewBox="0 0 81 82" fill="none" xmlns="http://www.w3.org/2000/svg">
<circle cx="40.303" cy="41.003" r="40" stroke="#D9DDDD" stroke-width="0.606061"/>
<path d="M29.7119 60.095L50.3124 60.1132L50.2677 67.2646C50.266 69.0181 49.6473 70.2582 47.598 70.2697L33.5348 70.2709C32.9421 70.2711 32.2996 70.3205 31.7157 70.2208C30.094 69.9439 29.7175 68.5553 29.7122 67.1748L29.7119 60.095Z" fill="#CBA1F0"/>
<path d="M39.6252 64.0157C41.8248 63.7315 43.96 65.451 44.158 67.6542C44.2093 68.2233 44.1474 68.82 44.1083 69.3889C43.7171 67.4745 42.6734 65.9097 40.687 65.3921C39.8674 65.2446 39.0456 65.2859 38.2836 65.643C37.1326 66.1824 36.0497 67.72 35.8344 68.9867C35.8021 68.5483 35.7281 68.0577 35.7863 67.6211C36.0471 65.6694 37.6901 64.2106 39.6252 64.0157Z" fill="#915FBD"/>
<path d="M48.3444 43.6174C48.6953 43.7165 49.0112 43.7085 49.3728 43.7092L50.8215 43.7098C51.1407 43.7098 51.4769 43.6868 51.7913 43.7449L51.8196 43.7497L51.445 47.4702L51.0119 51.1494L50.3181 60.1284L29.7332 60.0979L28.7985 49.1185L28.1982 43.6638L31.7317 43.7463C31.9602 44.1559 32.1291 44.584 32.3572 44.9831C35.0493 49.6934 42.6604 50.4828 46.3693 46.7278C47.2735 45.8123 47.7507 44.7299 48.3444 43.6174Z" fill="#F2EEF1"/>
<path d="M48.3444 43.6174C48.6953 43.7165 49.0112 43.7085 49.3728 43.7092L50.8215 43.7098C51.1407 43.7098 51.4769 43.6868 51.7913 43.7449L51.8196 43.7497L51.4248 47.6696C51.3518 47.6753 51.3079 47.4912 51.2396 47.4609C50.9926 47.4747 50.9724 47.7769 50.9052 47.975L50.5903 48.8501C49.2148 52.2822 45.1982 54.3377 41.6861 54.7251C37.1245 55.2282 32.6885 53.6726 29.8856 49.9804C29.566 49.5593 29.2833 49.0783 28.8932 48.7186C28.8804 48.8461 28.8926 49.0307 28.7985 49.1185L28.1982 43.6638L31.7317 43.7463C31.9602 44.1559 32.1291 44.584 32.3572 44.9831C35.0493 49.6934 42.6604 50.4828 46.3693 46.7278C47.2735 45.8123 47.7507 44.7299 48.3444 43.6174Z" fill="#CBA1F0"/>
<path d="M28.1946 43.67L25.0244 15.7971C24.9764 15.3633 24.9055 14.9296 24.9149 14.4914C24.9401 13.3234 25.8647 12.2278 27.0452 12.1002C27.3911 12.0629 27.7549 12.0825 28.1034 12.0822L52.8057 12.0708C54.3415 12.0972 55.1944 13.6196 55.119 14.9981C55.0656 15.9757 54.8677 16.9613 54.7754 17.9388L52.1751 40.4063C52.0506 41.5165 51.9965 42.6493 51.8187 43.7524L51.7904 43.745C51.476 43.6869 51.1398 43.7099 50.8206 43.7099L49.372 43.7093C49.0103 43.7086 48.6944 43.7166 48.3435 43.6176C47.7498 44.73 47.2726 45.8124 46.3684 46.7279C42.6595 50.483 35.0484 49.6936 32.3563 44.9832C32.1282 44.5842 31.9593 44.156 31.7309 43.7604L28.1946 43.67Z" fill="#F2EEF1"/>
<path d="M31.7022 43.7604C31.4903 43.3419 31.3043 42.651 31.2317 42.2008C30.3762 36.8961 36.5369 33.8497 41.1336 34.315C44.5559 34.6615 48.6342 37.2568 48.936 40.9545C49.0082 41.8395 48.7059 42.8307 48.3149 43.6175C47.7211 44.7299 47.244 45.8123 46.3397 46.7278C42.6308 50.4829 35.0198 49.6935 32.3277 44.9831C32.0996 44.5841 31.9306 44.156 31.7022 43.7604Z" fill="#D9DDDD"/>
<path d="M37.2119 38.2758H43.8786" stroke="#693596" stroke-width="0.606061" stroke-linecap="round"/>
<path d="M36 40.0939H44.4848" stroke="#693596" stroke-width="0.606061" stroke-linecap="round"/>
<path d="M35.3936 41.9121H45.6966" stroke="#693596" stroke-width="0.606061" stroke-linecap="round"/>
<path d="M36 43.7302H44.4848" stroke="#693596" stroke-width="0.606061" stroke-linecap="round"/>
<path d="M37.2119 45.2455H43.8786" stroke="#693596" stroke-width="0.606061" stroke-linecap="round"/>
</svg>
