<svg width="82" height="82" viewBox="0 0 82 82" fill="none" xmlns="http://www.w3.org/2000/svg">
<circle cx="41.1214" cy="41.2151" r="40" stroke="#D9DDDD" stroke-width="0.606061"/>
<path d="M34.3603 32.1916L30.967 18.8311C30.7903 18.1476 30.4016 17.0661 30.5463 16.261L30.5626 16.1697C30.7655 14.9816 31.3439 14.8294 31.8779 14.4739L34.2001 13.0694C35.7009 12.2836 37.2555 11.7497 38.8009 11.4344L39.8065 11.237L40.9468 11.2198C41.3294 11.2199 41.7167 11.1988 42.0986 11.2451L44.1078 11.6031C45.3026 11.9059 46.4981 12.3536 47.6623 12.956L50.6818 14.7822C51.0257 14.993 51.264 15.2304 51.4367 15.8906L51.4703 16.0249C51.7056 16.9608 51.4279 17.7134 51.2122 18.5286L48.5744 28.86C48.2831 30.0156 47.9287 31.1084 47.7005 32.318C47.5241 31.9811 46.9725 32.1208 46.7506 32.1203L45.4825 32.12L44.403 32.1204L42.8466 32.1209L41.8671 32.1203L40.2871 32.1204L39.2739 32.1203L37.6942 32.121L36.6768 32.1201L35.2592 32.1209C34.9949 32.1214 34.6945 32.0697 34.4353 32.1686C34.4122 32.1775 34.3834 32.1919 34.3603 32.1916Z" fill="#CBA1F0"/>
<path d="M39.2738 32.1203L38.6908 22.6851C38.6367 21.857 38.4655 20.2997 39.1351 20.1718C39.7112 20.0618 39.7153 21.6911 39.7388 22.3604L40.287 32.1218L39.2738 32.1203Z" fill="#693596"/>
<path d="M41.8672 32.1204C41.8663 31.3131 41.9155 30.5205 41.9624 29.7104L42.3508 22.99C42.3816 22.3283 42.3404 21.5291 42.4668 20.9071C42.5558 20.4696 42.8481 19.9374 43.1124 20.1663L43.1307 20.1831C43.63 20.6307 43.4844 21.769 43.4358 22.5874L42.8466 32.1263L41.8672 32.1204Z" fill="#693596"/>
<path d="M36.6772 32.12C36.6138 31.5632 36.5062 31.0318 36.4123 30.4977L35.141 22.8375C35.0198 22.1998 34.7827 21.3397 35.004 20.6895C35.3313 19.7278 35.8061 20.2082 35.9899 21.1464C36.0803 21.6082 36.1351 22.1055 36.2016 22.5817L36.6 25.3086L37.4614 30.6231C37.534 31.1131 37.6489 31.6259 37.6946 32.1239L36.6772 32.12Z" fill="#693596"/>
<path d="M44.4038 32.1205C44.361 31.8905 44.589 30.9166 44.6357 30.6353L46.0425 22.0069C46.1365 21.3135 46.2963 19.6835 46.883 20.2502C47.4525 20.8003 47.1209 22.0879 46.9935 22.8629L45.4832 32.1118L44.4038 32.1205Z" fill="#693596"/>
<path d="M45.4828 32.1203H46.7509C46.9728 32.1208 47.5244 31.9811 47.7008 32.318L47.7408 32.3953C47.9344 32.602 47.8707 34.979 47.8708 35.4837L47.8711 39.5661C47.9512 40.2062 47.6347 42.2217 47.5486 42.8824L46.3502 51.742L44.5755 64.3567C44.1318 67.3867 43.6836 69.6909 41.9786 70.9627C41.5997 71.2453 41.2094 71.4572 40.7982 71.3326L40.6688 71.2909C39.3631 70.7172 38.2952 68.6909 37.8865 66.2674L36.9532 59.8334L34.4318 41.5509L34.2913 40.3144C34.2666 40.0623 34.2309 39.7696 34.2624 39.515C34.277 39.349 34.2693 39.1678 34.2688 38.9998L34.2677 34.6114C34.2679 33.8917 34.2409 33.1227 34.3047 32.4126L34.3081 32.377C34.3167 32.2804 34.3254 32.2574 34.3606 32.1916C34.3837 32.192 34.4125 32.1775 34.4356 32.1686C34.6948 32.0697 34.9952 32.1214 35.2595 32.1209L36.6771 32.1201L37.6945 32.1203H39.2742H40.2874H41.8674L42.8469 32.122L44.4033 32.1218L45.4828 32.1203Z" fill="#F2EEF1"/>
<path d="M41.0486 62.9587C41.6897 62.8806 42.415 64.1873 42.2329 65.4699L42.2254 65.5209C42.0881 66.5088 41.7426 67.0745 41.2174 67.2832C39.8433 67.4983 39.3505 63.2678 41.0486 62.9587Z" fill="#D9DDDD"/>
<path d="M40.8606 43.338C41.7849 43.1153 42.6787 44.2736 43.0486 45.8709C43.6751 48.5769 42.7741 51.3077 41.2992 51.8172L41.2389 51.8329C39.3301 52.268 38.1586 47.7387 39.3759 44.8807C39.7534 43.9944 40.2685 43.4464 40.8606 43.338Z" fill="#D9DDDD"/>
<path d="M45.4823 32.1203H46.7504C46.9723 32.1208 47.5239 31.9811 47.7003 32.318L47.7403 32.3953C47.9339 32.602 47.8702 34.979 47.8703 35.4837L47.8706 39.5661L47.8646 39.5474C47.7675 39.579 47.6398 39.5381 47.5399 39.5343L34.2619 39.5273C34.2765 39.349 34.2688 39.1678 34.2684 38.9998L34.2672 34.6114C34.2674 33.8917 34.2404 33.1227 34.3042 32.4126L34.3076 32.377C34.3162 32.2804 34.3249 32.2574 34.3601 32.1916C34.3832 32.192 34.412 32.1775 34.4351 32.1686C34.6943 32.0697 34.9947 32.1214 35.259 32.1209L36.6766 32.1201L37.694 32.1203H39.2737H40.2869H41.8669L42.8464 32.122L44.4028 32.1218L45.4823 32.1203Z" fill="#D9DDDD"/>
</svg>
