<svg width="81" height="81" viewBox="0 0 81 81" fill="none" xmlns="http://www.w3.org/2000/svg">
<circle cx="40.5149" cy="40.6091" r="40" stroke="#D9DDDD" stroke-width="0.606061"/>
<path d="M33.0652 39.6765L33.0357 37.8741C32.6901 37.7665 32.2469 37.7856 31.8804 37.724L29.1842 37.1672C25.5624 36.3073 21.3861 34.7389 18.4863 32.3069C15.8324 30.081 14.0988 26.7938 15.2054 23.3017C16.799 18.2728 22.7705 15.3371 27.5392 13.9354L30.2732 13.2157C31.976 12.8511 33.7158 12.6282 35.4474 12.4549L38.1872 12.2312L42.6503 12.2314L45.6597 12.4941C52.2265 13.2387 61.4846 15.7837 64.7135 22.0319C67.153 26.7527 64.4833 30.5988 60.6605 33.2508C57.2947 35.5856 52.2909 37.1473 48.3203 37.7163L47.6262 37.7927C47.5522 37.8005 47.4436 37.7946 47.3835 37.8379L47.386 39.6658L46.5815 39.4937L46.5942 37.7843C46.5969 37.2229 46.5722 36.5483 46.7729 36.0195C46.9613 35.9725 47.0366 35.9697 47.1786 35.8348C47.2381 35.9108 47.2174 35.9869 47.2993 36.0412C52.815 35.2724 60.8107 32.8465 62.4214 26.927C63.2101 24.0281 60.8771 21.2801 58.6803 19.7321L57.372 18.9027C56.7624 18.5295 56.114 18.1231 55.4208 17.9347L55.4007 17.9454L51.8109 16.7979C51.6335 16.7406 51.4429 16.6321 51.2796 16.5427L51.3243 16.5278C51.4064 16.5631 51.4621 16.5549 51.5476 16.5442L51.5807 16.5397L48.8144 15.9369C46.9162 15.5862 45.0073 15.3791 43.0828 15.2485L40.9097 15.1575C40.4071 15.1546 39.8996 15.138 39.3979 15.1686L37.8514 15.1677C32.2284 15.3764 24.237 17.1268 20.2454 21.0903C15.1725 26.1275 19.3509 31.0301 24.7695 33.4463L26.6384 34.1836C28.5482 34.8979 30.8313 35.6248 32.8811 35.8397C33.2173 35.8749 33.6556 35.8221 33.95 35.9777L33.9687 35.9941L34.0877 39.4074C33.7713 39.5173 33.3862 39.5486 33.0652 39.6765Z" fill="#F2EEF1"/>
<path d="M51.5809 16.5398C51.7909 16.5572 51.9988 16.6221 52.2028 16.6735L55.8496 17.7224C56.0746 17.7841 56.3671 17.8684 56.5762 17.9632C56.4317 17.9631 56.2457 17.9899 56.1182 17.9336L56.012 17.9131C55.9257 17.8908 55.5221 17.8507 55.4521 17.904L55.421 17.9347L55.4009 17.9454L51.8112 16.7979C51.6337 16.7406 51.4431 16.6321 51.2798 16.5427L51.3245 16.5278C51.4066 16.5631 51.4623 16.5549 51.5478 16.5442L51.5809 16.5398Z" fill="#DCD4C5"/>
<path d="M17.0291 51.2957L17.1096 51.1997C17.1774 51.4034 17.2044 51.6165 17.2597 51.8233C18.2164 55.403 22.8261 57.4494 25.9608 58.6483C28.6143 59.6632 30.3077 60.0216 33.1188 60.4083C39.7249 61.3169 47.0805 61.2124 53.4156 59.0946C56.7916 57.9659 61.3665 55.9999 63.0659 52.5932C63.1961 52.332 63.2764 51.9974 63.441 51.765L63.4364 55.94C63.4343 56.9907 63.4883 58.057 63.2058 59.082C62.1533 62.9022 57.1523 65.5238 53.7686 66.7842L51.0902 67.6805C49.3058 68.1818 47.4628 68.5187 45.6273 68.7623L42.4916 69.034C38.3969 69.2656 34.3855 68.9263 30.4021 67.9035L27.7522 67.1759C23.8157 65.9032 17.6228 62.6694 17.0811 58.2994C16.982 57.4995 17.0295 56.6573 17.0292 55.8507L17.0291 51.2957Z" fill="#E1E1E1"/>
<path d="M39.3982 15.162C39.8999 15.138 40.4073 15.1545 40.9099 15.1575L43.0831 15.2485C45.0076 15.3791 46.9165 15.5861 48.8147 15.9369L51.581 16.5397L51.5478 16.5441C51.4624 16.5548 51.4066 16.563 51.3246 16.5278L51.2799 16.5427C51.4432 16.6321 51.6338 16.7405 51.8112 16.7978L55.4009 17.9454L55.4211 17.9346C56.1142 18.1231 56.7627 18.5294 57.3723 18.9026L58.6805 19.732C60.8774 21.28 63.2104 24.028 62.4217 26.927C60.811 32.8465 52.8152 35.2724 47.2996 36.0412C47.2177 35.9868 47.2384 35.9107 47.1789 35.8347C47.0368 35.9697 46.9616 35.9724 46.7732 36.0194C46.5725 36.5483 46.5972 37.2229 46.5945 37.7842L46.5895 39.4936C45.1682 39.3188 43.7481 39.1691 42.324 39.1172L38.3969 39.1171L35.4385 39.2854C34.9961 39.3153 34.5425 39.3223 34.1069 39.4073L33.9782 35.9941L33.9503 35.9776C33.6559 35.8221 33.2176 35.8749 32.8814 35.8396C30.8316 35.6248 28.5484 34.8978 26.6386 34.1836L24.7698 33.4462C19.3512 31.0301 15.1727 26.1275 20.2456 21.0902C24.2372 17.1267 32.2287 15.3764 37.8517 15.1677L39.3982 15.162Z" fill="#D9DDDD"/>
<path d="M33.978 35.9941C34.3438 36.0917 34.8245 36.1109 35.2106 36.1238L45.7954 36.1229C46.0953 36.1159 46.492 36.1345 46.773 36.0312C46.5723 36.5484 46.597 37.223 46.5943 37.7843L46.5893 39.4937C45.168 39.3188 43.7479 39.1692 42.3238 39.1172L38.3967 39.1171L35.4383 39.2855C34.9959 39.3154 34.5423 39.3224 34.1067 39.4074L33.978 35.9941Z" fill="#202F34"/>
<path d="M39.3982 15.1692C39.8999 15.1379 40.4073 15.1544 40.9099 15.1574L43.0831 15.2484C45.0076 15.379 46.9165 15.5861 48.8147 15.9368L51.581 16.5396L51.5479 16.5441C51.4624 16.5547 51.4066 16.5629 51.3246 16.5277L51.2799 16.5426C51.4432 16.632 51.6338 16.7405 51.8112 16.7978L55.401 17.9453L55.3856 17.9981C55.1349 18.6588 54.1513 19.6809 53.6805 20.197L49.2702 24.739L40.1336 33.9072C40.028 34.025 39.9463 34.1514 39.8042 34.2271L37.087 34.2043L33.4973 33.8395C33.1073 33.7929 32.7126 33.7932 32.3241 33.7316C31.6652 33.6269 31.0054 33.4143 30.3577 33.2522C27.9762 32.6559 24.1096 31.6139 22.1572 30.0345C22.411 29.7896 22.7229 29.5843 23.0153 29.3878L26.2892 27.133C27.6705 26.0726 29.1172 25.0532 30.4214 23.8994L38.2631 16.221C38.6827 15.8463 39.0003 15.561 39.3982 15.1692Z" fill="white"/>
<path d="M45.1482 21.1788C45.4471 21.154 45.7845 21.3844 45.8286 21.6915C45.9237 22.3536 45.2253 22.8271 44.8092 23.227L43.4343 24.5798L37.6428 30.8118C37.3878 31.099 37.1185 31.5161 36.7056 31.5585L36.6768 31.5554C35.758 31.4417 35.9242 30.6966 36.3599 30.1551C38.0628 28.039 40.1157 26.206 41.9796 24.2368L43.4755 22.6354C43.8375 22.2335 44.1762 21.7015 44.6294 21.3991L44.6723 21.3717C44.8328 21.2673 44.9607 21.2183 45.1482 21.1788Z" fill="#D9DDDD"/>
<path d="M40.1075 19.0757L40.277 19.0767C40.9497 19.1498 41.0686 20.0748 40.6929 20.5254C40.3622 20.9219 39.9431 21.2612 39.5913 21.6438L34.0813 27.3606C33.8084 27.6503 33.5469 27.9831 33.2375 28.233L33.202 28.2611C33.1081 28.3368 33.0308 28.3844 32.9176 28.4273C32.4471 28.6018 31.7149 27.6866 32.4468 26.8628C32.6771 26.6035 32.9495 26.3846 33.1908 26.1355L38.2555 20.7919C38.7639 20.2661 39.4109 19.3219 40.1075 19.0757Z" fill="#D9DDDD"/>
<path d="M34.1073 39.4073C34.5429 39.3223 34.9965 39.3153 35.4388 39.2854L38.3973 39.1171L42.3244 39.1172C43.7485 39.1691 45.1686 39.3188 46.5822 39.4936L47.371 39.6657L47.4007 39.6772C47.6087 39.7533 47.8331 39.7693 48.0503 39.806L51.2842 40.4584C52.1303 40.6688 52.9727 40.9544 53.8 41.229C57.6241 42.4987 62.9578 44.9382 63.55 49.4375C63.6436 50.1488 63.5833 51.0503 63.4409 51.765C63.2768 51.9974 63.1965 52.332 63.0663 52.5932C61.3668 55.9999 56.792 57.9659 53.416 59.0946C47.0809 61.2124 39.7253 61.3169 33.1192 60.4083C30.3081 60.0215 28.6147 59.6632 25.9612 58.6483C22.8265 57.4493 18.2168 55.4029 17.2601 51.8233C17.2048 51.6165 17.1778 51.4034 17.11 51.1997L17.0268 51.2957C16.8798 46.9081 19.3401 44.6821 23.1129 42.7725C25.1548 41.739 27.3706 40.9959 29.5887 40.4425L31.347 40.0595C31.9245 39.9508 32.5083 39.8673 33.0658 39.6765C33.3868 39.5485 33.7719 39.5173 34.1073 39.4073Z" fill="#F2EEF1"/>
<path d="M39.259 43.7333C43.8131 43.7192 48.7277 44.0723 52.8459 46.1881C58.5896 49.1388 56.6674 52.624 51.44 54.6372C48.2398 55.8696 44.7608 56.3563 41.3442 56.375C40.0918 56.3808 38.8134 56.4223 37.5638 56.3499L34.7588 56.0424C31.9562 55.6418 29.0935 54.9453 26.6747 53.4148C24.6694 52.1457 23.2756 49.9976 25.1665 47.9825C28.1636 44.7888 34.8834 43.8668 39.259 43.7333Z" fill="#CBA1F0"/>
</svg>
