<svg width="81" height="82" viewBox="0 0 81 82" fill="none" xmlns="http://www.w3.org/2000/svg">
<circle cx="40.5149" cy="41.2151" r="40" stroke="#D9DDDD" stroke-width="0.606061"/>
<path d="M12.9082 49.7001C14.6344 49.2307 17.2038 49.9445 18.2947 51.3837C18.9006 52.1832 19.1824 53.1973 19.7514 54.0346C21.553 56.6859 24.9652 57.3166 27.9097 56.548C29.8006 56.0544 31.739 54.8288 32.4092 52.9073C32.469 52.7358 32.4736 52.4985 32.6002 52.3667L33.8519 62.6364L33.9956 64.2258C33.6277 64.3455 33.2847 64.6301 32.9725 64.857L29.6499 67.3449C29.4021 67.5181 29.1443 67.7546 28.8718 67.8792C27.9054 67.5369 26.9701 67.0042 26.0859 66.4906C19.8781 62.8844 14.7713 56.6902 12.9082 49.7001Z" fill="#CBA1F0"/>
<path d="M30.492 23.3392L29.4107 19.9241C28.9289 18.4939 28.9172 18.0633 29.9146 16.872C32.562 13.71 37.2165 12.2707 41.2217 12.5477C44.5974 12.7811 49.4696 14.5744 51.1712 17.768C51.7412 18.8377 51.1697 19.8285 50.8057 20.8816L50.2672 22.5191C49.9267 23.3207 49.6866 24.1983 49.4256 25.0302L47.9643 29.3923C47.8868 29.5833 47.814 29.8 47.7039 29.9748C47.2111 29.8277 46.5957 29.8999 46.0832 29.9061L44.2775 29.9188L43.2014 29.9187L40.8291 29.9193L39.74 29.9187H37.3238L36.2352 29.9185L34.8918 29.916L33.6191 29.9132C33.3836 29.9119 33.1285 29.89 32.8958 29.9264C32.5635 29.5056 32.3894 28.9629 32.2118 28.459L30.492 23.3392Z" fill="#CBA1F0"/>
<path d="M39.74 29.9187L39.7543 25.6268C39.7477 25.4355 39.7037 25.2453 39.6933 25.0527L39.6765 23.428C39.6725 23.0173 39.635 22.5778 39.6769 22.1701C39.728 21.6736 40.0725 21.012 40.5351 21.6022L40.5722 21.6484C40.8962 22.078 40.701 23.9142 40.7246 24.5171C40.7323 24.7132 40.782 24.9038 40.7902 25.1003L40.8015 27.9347C40.8025 28.593 40.8443 29.2751 40.8002 29.9303L39.74 29.9187Z" fill="#693596"/>
<path d="M36.2355 29.9183L34.8338 24.6208C34.6714 24.0105 33.6076 21.4404 34.7493 21.2311L34.7859 21.2283C34.9458 21.3766 35.002 21.576 35.0668 21.7777L36.9371 28.6372C37.0583 29.0422 37.289 29.5016 37.3241 29.9183H36.2355Z" fill="#693596"/>
<path d="M43.2012 29.9187L43.2079 29.8437C43.2588 29.3826 43.3977 28.921 43.493 28.4673L44.7099 23.6041C44.8948 22.9587 45.052 22.2696 45.3307 21.6569C45.6557 20.9423 46.2305 21.2735 46.1852 21.8283C46.1595 22.1443 46.0725 22.4601 46.0009 22.7684L44.2773 29.9193L43.2012 29.9187Z" fill="#693596"/>
<path d="M12.9072 49.7001C9.70953 39.1307 12.5495 27.5145 20.7669 20.0989C21.6387 19.3121 22.8129 18.136 24.1017 18.4251L24.3622 18.4876C25.4998 18.8063 26.4055 20.2431 26.0531 21.4074L26.0382 21.4542C25.8415 22.0781 25.2784 22.4644 24.788 22.8486L23.7737 23.6648C20.4442 26.3945 17.8362 30.0131 16.3697 34.0676C16.0739 34.8853 15.6989 35.9176 16.0953 36.7538C16.7428 38.1198 18.5315 37.5435 19.0705 36.3656C19.2467 35.9805 19.3595 35.5562 19.5154 35.1605L20.6597 32.618C22.8993 28.2287 26.3214 25.6231 30.4918 23.3391L32.2116 28.4589C32.3892 28.9628 32.5633 29.5055 32.8956 29.9316C30.9523 31.5876 30.9801 32.4613 31.1243 34.769L31.8981 44.7519L32.5978 52.3667C32.4727 52.4986 32.468 52.7358 32.4083 52.9073C31.738 54.8288 29.7996 56.0544 27.9087 56.548C24.9643 57.3166 21.552 56.6859 19.7505 54.0347C19.1815 53.1973 18.8997 52.1832 18.2937 51.3837C17.2028 49.9445 14.6334 49.2307 12.9072 49.7001ZM16.5453 39.3041C14.7439 39.6664 15.143 41.993 16.7754 41.783C18.292 41.4488 18.2609 39.2293 16.5453 39.3041Z" fill="#F2EEF1"/>
<path d="M44.278 29.9186L46.0836 29.9059C46.5962 29.8998 47.2116 29.8276 47.7044 29.9747C49.4035 30.8789 49.5992 31.9059 49.5246 33.6463L48.3764 46.0393C48.3045 46.661 48.275 47.3306 48.1361 47.9385L46.8105 61.4932C46.7735 61.9515 46.7807 62.4934 46.666 62.9366L46.6339 62.9852C46.5608 63.1478 46.5682 63.3674 46.5578 63.5433L46.4979 64.2639C46.4475 64.9938 46.4662 65.7198 46.3314 66.4421C46.0173 68.1238 44.6853 69.5847 43.1258 70.2558C42.9844 70.3165 42.7128 70.3833 42.6094 70.48L42.6906 70.5039L42.681 70.5191C42.3162 70.5263 41.9563 70.5851 41.5916 70.6018L40.1053 70.6069C39.5858 70.605 38.2544 70.6391 37.7921 70.4439C37.8272 70.4129 37.8096 70.4316 37.8427 70.3858C35.9146 69.6869 34.6131 68.0722 34.2531 66.0778L33.9979 64.2258L33.8526 62.6364L32.5998 52.3666L31.8987 44.7518L31.1249 34.769C30.9808 32.4612 30.9529 31.5875 32.8962 29.9315C33.129 29.8898 33.384 29.9117 33.6196 29.913L34.8922 29.918L36.2356 29.9186H37.3243H39.7405L40.8296 29.9215L43.2019 29.9186H44.278ZM32.8962 29.9315C30.9529 31.5875 30.9808 32.4612 31.1249 34.769L31.8987 44.7518L32.5998 52.3666L33.8516 62.6364C34.5057 62.5335 36.5726 62.7316 36.7521 62.604L34.2113 40.5093L39.1251 40.5095C40.1801 40.509 41.045 40.6262 41.5408 39.5358L41.4566 39.4134C41.1016 38.9233 40.2327 39.0329 39.6462 39.029L36.0678 39.032C35.3996 39.0357 34.7117 39.0385 34.0513 39.1489L33.7006 35.6579C33.3981 33.257 33.7859 31.8724 35.2944 29.9276L34.8922 29.918L33.6196 29.913C33.384 29.9117 33.129 29.8898 32.8962 29.9315Z" fill="#D9DDDD"/>
<path d="M44.0343 39.0255C44.1371 38.9993 44.3195 39.0234 44.4323 39.0234L45.3894 39.0193C45.4014 40.6608 44.2904 40.5029 42.8985 40.5081C41.1029 40.4629 41.6875 40.6365 41.7058 39.1106C42.0692 38.9352 43.5982 39.0266 44.0343 39.0255Z" fill="white"/>
<path d="M39.8804 46.5586C40.2157 46.5302 40.5591 46.523 40.8843 46.6208C42.5971 47.1363 42.7193 48.5771 42.717 50.0231L42.7142 57.9256C42.7104 59.5236 42.4575 60.8233 40.6834 61.2208C40.3774 61.2743 39.9649 61.2974 39.6663 61.2151L39.6191 61.2013C38.6643 60.9355 38.1238 60.1825 37.8717 59.2441L37.8207 59.0289C37.7316 58.5259 37.7848 57.9475 37.7848 57.4351L37.7867 50.6453C37.7873 49.979 37.7374 49.2741 37.82 48.615C37.9532 47.5527 38.845 46.7305 39.8804 46.5586Z" fill="#CBA1F0"/>
<path d="M50.2676 22.519C55.6703 25.3745 59.8587 30.7745 61.6406 36.5573C62.2425 38.5104 62.3815 40.5536 62.3735 42.5847L62.4029 42.5361C62.4711 42.4303 63.0955 41.9964 63.2199 41.9098C65.4031 40.3891 68.4052 41.0985 68.8672 43.9227C68.9516 44.4387 68.9186 45.1334 68.8346 45.643L68.618 47.2468C66.8208 58.6255 57.2259 68.4023 45.8228 70.2148C44.7788 70.3809 43.7443 70.4465 42.6906 70.4896L42.6094 70.4801C42.7127 70.3834 42.9844 70.3166 43.1257 70.2559C44.6853 69.5847 46.0173 68.1239 46.3313 66.4422C46.4661 65.7199 46.4474 64.9938 46.4979 64.264L46.5578 63.5434C46.5682 63.3675 46.5607 63.1478 46.6339 62.9853L46.6574 62.9367C46.7807 62.4935 46.7734 61.9516 46.8105 61.4932L48.136 47.9385C48.275 47.3307 48.3045 46.6611 48.3763 46.0394L49.5245 33.6464C49.5992 31.906 49.4034 30.879 47.7043 29.9748C47.8144 29.7999 47.8872 29.5832 47.9647 29.3923L49.426 25.0302C49.687 24.1983 49.9271 23.3207 50.2676 22.519Z" fill="#F2EEF1"/>
<path d="M63.5507 49.483C65.2509 49.276 65.5798 51.5429 64.0475 52.0806C62.3838 52.1411 62.0492 49.9746 63.5507 49.483Z" fill="white"/>
<path d="M48.1364 47.9386L48.1944 47.9218C50.547 48.1339 51.2376 44.4871 54.3517 44.6964C58.4732 44.9735 57.4789 48.9713 59.8764 49.2064L60.3875 49.2044C59.3243 52.0586 57.5893 54.9444 55.5028 57.1937C53.6655 59.1743 49.4995 62.5515 46.6641 62.9367C46.781 62.4935 46.7738 61.9516 46.8108 61.4933L48.1364 47.9386Z" fill="#CBA1F0"/>
</svg>
