<svg width="82" height="82" viewBox="0 0 82 82" fill="none" xmlns="http://www.w3.org/2000/svg">
<circle cx="41.1214" cy="41.003" r="40" stroke="#D9DDDD" stroke-width="0.606061"/>
<path d="M38.6973 16.7076C37.5557 17.0738 36.365 17.5606 35.2928 18.0921C34.738 18.3671 34.2015 18.7975 33.6103 18.9802C31.7584 19.5525 29.4095 16.5599 32.3021 14.9929L33.9988 14.1605C36.9686 12.7734 40.6813 11.5989 43.94 12.5736C44.8401 12.8428 46.1108 13.2685 46.5722 14.1614C47.1405 15.2612 46.7802 16.6643 45.6431 17.2098C44.6708 17.6762 43.6754 16.9366 42.775 16.6167C42.0721 16.5025 40.2746 16.5344 39.5402 16.5927L39.015 16.6502C38.9146 16.6658 38.7967 16.7036 38.6973 16.7076Z" fill="#CBA1F0"/>
<path d="M38.6679 16.712C38.7969 16.7036 38.9148 16.6658 39.0152 16.6502L39.5404 16.5927C40.2747 16.5344 42.0722 16.5025 42.7751 16.6092L42.8119 18.2333L42.8026 23.727C43.0775 23.7806 43.3808 23.7567 43.6615 23.7571L45.2281 23.7522C45.4679 23.7516 45.7634 23.7167 45.9924 23.7962C47.3833 24.2794 47.2448 25.7276 47.2467 26.8605L47.2728 30.3478L37.0824 30.307C36.3028 30.3102 35.5262 30.3097 34.7538 30.4323C34.7023 30.0005 34.7116 29.5668 34.7115 29.1297L34.7169 25.9391C34.7386 24.2485 35.4115 23.7498 37.101 23.7587L38.6579 23.773L38.6626 18.0809L38.6679 16.712Z" fill="#CBA1F0"/>
<path d="M38.667 16.7121C38.796 16.7037 38.9139 16.6659 39.0143 16.6503L39.5395 16.5928C40.2739 16.5345 42.0713 16.5026 42.7742 16.6093L42.8111 18.2335C42.4164 18.0403 39.3738 18.1274 38.6795 18.081L38.667 16.7121Z" fill="#915FBD"/>
<path d="M34.7538 30.4414C35.5261 30.3097 36.3028 30.3102 37.0824 30.307L47.3138 30.3129C48.7871 30.309 50.2658 30.5488 51.3741 31.625C52.2284 32.4545 52.7519 33.6271 52.7662 34.821L52.7622 40.9178C52.7583 41.2617 52.702 41.6051 52.7001 41.9528L52.698 64.3941C52.6973 65.9222 52.5914 66.6168 51.4317 67.7835C50.549 68.6714 49.4391 69.1613 48.1779 69.1583L36.298 69.1524C35.3757 69.1983 34.3966 69.292 33.4846 69.1103C31.5267 68.7205 30.2753 67.0954 30.016 65.1742C29.9634 64.7843 29.9869 64.3708 29.9866 63.9771L29.983 42.0376C29.9809 41.6634 29.925 41.2941 29.9204 40.9186L29.9092 34.6102C29.9231 32.6981 31.6535 30.6303 33.6157 30.4798C33.9916 30.4511 34.3841 30.4987 34.7538 30.4414Z" fill="#F2EEF1"/>
<path d="M40.5216 42.3342C43.3475 42.1021 46.6333 44.1023 47.5437 46.8591C48.6107 50.09 48.0455 53.7282 45.5867 56.1822C44.5054 57.2616 43.255 58.0378 41.7516 58.3507L41.6836 58.3625C40.3062 58.5791 38.7698 58.0003 37.6723 57.1857C35.7407 55.7522 34.5931 53.1448 34.2808 50.8139C34.0578 49.149 34.4319 46.6234 35.4651 45.2852C36.6647 43.7318 38.5713 42.5838 40.5216 42.3342Z" fill="#CBA1F0"/>
<path d="M44.575 46.8257C45.4099 46.7837 46.0933 47.9513 44.6791 48.3468C44.5687 48.355 44.4617 48.3651 44.3522 48.3433L44.3184 48.3361C43.5273 48.172 43.4803 47.0786 44.575 46.8257Z" fill="#915FBD"/>
<path d="M37.8847 46.854C39.0895 46.8024 38.9917 48.3875 38.0076 48.4585C36.8351 48.3535 36.7798 47.1393 37.8847 46.854Z" fill="#915FBD"/>
<path d="M38.6515 52.2166C38.9027 52.1874 39.0036 52.5845 39.1054 52.7983C39.8097 54.2782 41.6428 54.3188 42.4823 52.9903C42.6015 52.8017 42.7139 52.3748 42.8868 52.2786C43.2655 52.068 43.3089 52.7568 43.1702 53.1367C42.1557 55.3251 39.0914 55.0178 38.4467 52.8974C38.3513 52.5835 38.3668 52.3237 38.6515 52.2166Z" fill="#915FBD"/>
</svg>
