<svg width="82" height="82" viewBox="0 0 82 82" fill="none" xmlns="http://www.w3.org/2000/svg">
<circle cx="40.7273" cy="41.003" r="40" stroke="#D9DDDD" stroke-width="0.606061"/>
<path d="M46.1847 22.789C46.3365 22.7457 46.448 22.7243 46.608 22.7397L46.6642 22.7448C48.1378 22.8878 49.4043 23.9297 49.4127 25.4797L49.4126 26.5217C49.4109 27.8571 49.3696 29.2015 49.4627 30.5341C49.1889 30.3754 48.74 30.3871 48.425 30.373L33.565 30.3207C33.0705 30.3142 32.5326 30.2217 32.0488 30.3297L32.0556 29.2817L32.0678 27.0896C32.0737 24.9106 31.8412 22.8861 34.6679 22.8716C34.8551 22.8706 35.2846 22.9179 35.4423 22.8286L35.4699 22.8073C35.8895 22.7147 36.3655 22.7559 36.7907 22.756L43.0173 22.7588C43.6212 22.7594 44.272 22.7124 44.8689 22.7869L45.7775 22.8538C45.8977 22.8542 46.0615 22.8673 46.1756 22.8313L46.1847 22.789Z" fill="#D9DDDD"/>
<path d="M46.1847 22.789C46.3365 22.7457 46.448 22.7243 46.608 22.7397L46.6642 22.7448C48.1378 22.8878 49.4043 23.9297 49.4127 25.4797L49.4126 26.5217C49.4109 27.8571 49.3696 29.2015 49.4627 30.5341C49.1889 30.3754 48.74 30.3871 48.425 30.373L33.565 30.3207C33.0705 30.3142 32.5326 30.2217 32.0488 30.3297L32.0556 29.2817C32.4164 29.2101 32.7316 29.1437 33.1137 29.1213L43.1794 29.0309C44.3136 28.9935 45.8584 28.9988 46.8319 28.3554L46.954 28.2731C48.4155 27.2237 48.1193 25.0416 47.1498 23.7597C46.9018 23.4318 46.6148 23.134 46.3179 22.8503L46.1756 22.8123L46.1847 22.789Z" fill="#E1E1E1"/>
<path d="M35.4704 22.7743C35.3759 22.2852 35.3898 21.7857 35.3901 21.2729L35.3882 17.8861C35.3876 17.5967 35.3711 17.2979 35.4024 17.0105L35.4064 16.9769C34.5777 16.9942 33.6085 17.2084 33.0769 16.3749C32.8132 15.9617 32.8359 15.448 32.9405 14.9901C33.4767 12.6445 36.3298 11.6313 38.5213 11.6216L49.2357 11.6125C49.4342 11.6122 49.6628 11.5945 49.8557 11.6431L49.8934 11.6533C51.1983 11.9922 51.0922 13.3183 51.0924 14.4071C51.0925 15.3174 51.3346 15.3462 50.5088 15.6223L47.7059 16.4596C47.1545 16.6326 46.6109 16.877 46.0558 17.0258L46.0204 17.035L46.1007 21.0519C46.1021 21.6222 46.093 22.2243 46.1784 22.7891L46.1762 22.8124C46.0621 22.8674 45.8982 22.8543 45.7781 22.854L44.8695 22.8216C44.2725 22.7125 43.6217 22.7595 43.0179 22.7589L36.7912 22.7562C36.366 22.7561 35.8901 22.7149 35.4704 22.7743Z" fill="#CBA1F0"/>
<path d="M44.8691 22.8215L44.8896 17.0417C45.2305 17.0235 45.6917 16.9455 46.0201 17.0348L46.1003 21.0517C46.1017 21.622 46.0926 22.2242 46.1781 22.7889L46.1758 22.8122C46.0617 22.8673 45.8979 22.8541 45.7778 22.8538L44.8691 22.8215Z" fill="#915FBD"/>
<path d="M23.5498 61.5152C23.6519 61.5251 23.7999 61.5064 23.9062 61.5063L44.3901 61.4437C44.7331 61.4451 45.0701 61.4963 45.4103 61.5005L52.2305 61.4927C52.4386 61.4845 52.6436 61.4483 52.8522 61.4457L56.2612 61.4378C56.9371 61.4307 57.6292 61.297 58.2976 61.4367L57.5589 64.3886C57.3675 65.1167 57.2441 65.893 56.9554 66.5899C56.4281 67.8624 55.2252 68.7467 53.8868 68.9997C53.1202 69.1447 52.2509 69.072 51.4705 69.0723L47.4321 69.0727L47.3619 69.1139C48.5098 69.2523 46.8394 70.4147 46.8592 70.8107L46.9288 70.8699H46.7202H45.9054H36.3584H34.2517C34.3884 70.3435 33.3852 69.8227 34.1607 69.158L33.6825 69.1203C33.5706 69.1139 33.4322 69.0941 33.3139 69.0928L32.5033 69.0828C30.5917 69.0636 28.6143 69.1895 26.7813 68.5275C25.2722 67.9825 24.939 66.2802 24.5529 64.913L23.8834 62.5585C23.7871 62.2253 23.716 61.8706 23.5691 61.5559L23.5498 61.5152ZM45.9007 69.0733L43.9719 69.0727L36.6349 69.0768C36.4316 69.0766 36.1813 69.0445 35.985 69.0739L34.5003 69.0755C34.2318 69.0772 33.9487 69.0633 33.6825 69.1203L34.1607 69.158C33.3852 69.8227 34.3884 70.3435 34.2517 70.8699H36.3584H45.9054H46.7202H46.9288L46.8592 70.8107C46.8394 70.4147 48.5098 69.2523 47.3619 69.1139L47.4321 69.0723L45.9007 69.0733Z" fill="#D9DDDD"/>
<path d="M45.9004 69.0732L47.4318 69.0723L47.3616 69.1138C48.5094 69.2522 46.8391 70.4146 46.8589 70.8107L46.9285 70.8699H46.7199H45.905H36.358H34.2514C34.3881 70.3435 33.3849 69.8226 34.1603 69.158L33.6821 69.1202C33.9483 69.0633 34.2315 69.0771 34.5 69.0755L35.9847 69.0738C36.1809 69.0445 36.4313 69.0765 36.6345 69.0768L43.9715 69.0726L45.9004 69.0732ZM43.9715 69.0724L43.0274 69.079C43.4678 69.0808 44.45 68.9607 44.8316 69.2079L45.8985 69.1972C45.9054 69.1471 45.9042 69.1097 45.9004 69.0732L43.9715 69.0724Z" fill="url(#paint0_linear_9_4558)"/>
<path d="M43.9724 69.0725L45.9013 69.0734C45.9051 69.1098 45.9063 69.1472 45.8994 69.1973L44.8325 69.2081C44.4509 68.9608 43.4687 69.0809 43.0283 69.0792L43.9724 69.0725Z" fill="#C9C8C8" fill-opacity="0.627451"/>
<path d="M32.0497 30.3296C32.5335 30.2217 33.0713 30.3141 33.5659 30.3206L48.4259 30.373C48.7409 30.387 49.1897 30.3753 49.4709 30.5341C49.6024 30.629 50.0846 30.5945 50.2613 30.5957C54.7894 30.6277 58.6179 32.7276 60.0774 37.2751L60.3344 38.1179C60.3917 38.3087 60.5048 38.5271 60.4641 38.7292L60.4139 38.7079C60.2078 38.7349 60.3213 38.7876 60.4583 38.7903L60.5549 38.9175L21.0947 38.8658C22.0371 34.7851 24.2541 32.0739 28.353 31.0011C28.9905 30.8342 29.6555 30.7459 30.3032 30.6277C30.8421 30.5292 31.811 30.7712 32.0497 30.3296Z" fill="#D9DDDD"/>
<path d="M21.0941 38.8538L60.5542 38.9125C60.8795 39.443 61.2556 42.5462 61.3142 43.5409L61.3341 45.2348C61.332 46.0642 61.2634 46.8741 61.2173 47.7012L61.1124 49.8349C61.0332 50.9058 60.781 51.9996 60.5706 53.053L60.1487 54.868L59.0617 58.7075C58.7942 59.6177 58.5031 60.5085 58.2974 61.4366C57.6289 61.2969 56.9368 61.4306 56.2609 61.4377L52.8519 61.4456C52.6434 61.4482 52.4383 61.4844 52.2302 61.4926L45.4101 61.5004C45.0699 61.4963 44.7329 61.445 44.3898 61.4436L23.9059 61.5062C23.7997 61.5063 23.6516 61.525 23.5495 61.5035C23.341 61.3043 23.2704 60.8559 23.1885 60.5777L21.5205 53.9766L20.8956 50.4212L20.4727 46.2423C20.3261 43.6117 20.5071 41.4451 21.0941 38.8538Z" fill="#CBA1F0"/>
<path d="M41.7612 41.791C42.2624 41.781 42.7767 41.7584 43.2753 41.8246C46.8 42.2925 50.5314 45.5278 50.7488 49.6165C51.0061 54.4583 46.8811 57.8588 42.7687 58.1207C41.2326 58.2352 39.6195 57.9017 38.2338 57.1508C33.9459 54.8272 32.2135 49.3228 35.5134 45.1945C37.0519 43.2697 39.4227 41.9571 41.7612 41.791Z" fill="#F2EEF1"/>
<path d="M39.4768 48.4458C40.7657 48.4752 40.738 50.8083 39.6662 50.87C38.4354 50.7718 38.2378 48.6612 39.4768 48.4458Z" fill="#CBA1F0"/>
<path d="M44.8782 48.4485C46.0831 48.3557 46.3253 50.6744 45.1199 50.8676C43.9239 50.9557 43.6842 48.6689 44.8782 48.4485Z" fill="#CBA1F0"/>
<path d="M40.1085 53.2957C40.3597 53.2665 40.4606 53.6636 40.5624 53.8774C41.2667 55.3573 43.0998 55.3979 43.9393 54.0694C44.0585 53.8808 44.1709 53.4539 44.3438 53.3577C44.7226 53.1471 44.7659 53.8359 44.6273 54.2158C43.6127 56.4042 40.5484 56.0969 39.9037 53.9765C39.8083 53.6626 39.8238 53.4028 40.1085 53.2957Z" fill="#CBA1F0"/>
<defs>
<linearGradient id="paint0_linear_9_4558" x1="41.8193" y1="72.5902" x2="39.8928" y2="66.9762" gradientUnits="userSpaceOnUse">
<stop stop-color="white" stop-opacity="0.521569"/>
<stop offset="1" stop-color="#FEFDFB" stop-opacity="0.764706"/>
</linearGradient>
</defs>
</svg>
