<svg width="82" height="82" viewBox="0 0 82 82" fill="none" xmlns="http://www.w3.org/2000/svg">
<circle cx="40.9095" cy="41.2151" r="40" stroke="#D9DDDD" stroke-width="0.606061"/>
<path d="M49.4151 44.0583L49.4831 44.0676C50.0812 44.1277 50.692 44.0793 51.293 44.1017L53.2106 44.2643C54.6047 44.4116 57.8256 44.7363 58.3035 46.4157L58.3139 46.4503C58.873 48.4473 52.4576 51.8164 51.061 52.5662L50.0793 53.0962C49.8485 53.2232 49.6149 53.3703 49.3673 53.4618L49.3687 45.2868C49.3692 44.8843 49.3491 44.4556 49.4151 44.0583Z" fill="#CBA1F0"/>
<path d="M60.0283 51.9755C61.3575 51.8678 62.7468 52.1886 63.8185 53.0066C67.8021 56.0472 66.2718 62.5226 61.0903 63.0936C58.2974 63.3671 55.4035 61.3358 55.0247 58.4852C54.5916 55.2256 56.7598 52.3868 60.0283 51.9755Z" fill="#F2EEF1"/>
<path d="M35.3987 26.0353L35.4007 22.7847C35.4014 22.2648 35.3506 21.6846 35.4268 21.1738C35.8543 18.3066 39.5063 14.524 41.8761 13.2017C42.3504 12.937 42.855 12.6882 43.389 12.5749L43.4313 12.5654C45.0292 12.2283 45.4451 13.6221 45.4523 14.8613L45.5148 26.1884C45.5464 27.5218 44.6884 27.9664 43.4921 28.4887C41.2443 29.4701 36.608 29.4239 35.5379 27.0233C35.4003 26.7148 35.4132 26.3675 35.3987 26.0353Z" fill="#CBA1F0"/>
<path d="M49.5728 58.2976C49.6133 58.5091 49.5984 58.7317 49.5982 58.9455L49.5983 63.9736C49.7339 64.0571 49.8972 64.0611 50.0502 64.0948L50.6352 64.2465C52.0425 64.6317 54.3564 65.3447 54.7408 66.9737C54.8135 67.2814 54.7913 67.5794 54.642 67.8608L54.6175 67.9076C53.7783 69.4767 50.5919 69.8519 48.9928 69.9768L42.575 70.2694C42.3696 70.2769 42.1688 70.3136 41.9618 70.3177L35.0436 70.3187C34.7877 70.3111 34.5363 70.2669 34.2777 70.2623C31.8599 70.2197 21.5532 70.6453 20.6963 67.5607C20.4135 66.5429 21.5044 65.7946 22.1469 65.2124C23.6615 63.84 25.049 62.6436 27.0969 62.1796L31.264 61.5707L31.2728 58.3465C31.6845 58.7823 32.0726 58.965 32.6338 59.1809C34.3103 59.7543 36.5849 59.9569 38.3357 60.0257L42.7126 60.03C44.1087 59.9696 48.967 59.6238 49.5728 58.2976ZM49.4354 65.1184L49.4242 65.157C49.284 65.6824 49.7351 66.0658 48.9416 66.5654C47.9408 67.1955 46.2755 67.324 45.1199 67.4507L42.2911 67.7316L38.0671 67.7337C37.8451 67.7213 37.6325 67.6738 37.4133 67.6525L36.003 67.5187C34.2216 67.3306 31.8402 67.4258 31.2484 65.4082C30.5342 66.1631 30.0231 66.8472 30.8729 67.7239C32.2546 68.806 34.9309 69.0429 36.6248 69.1861L37.934 69.3065L42.5297 69.3112L45.3544 69.0576C46.6209 68.904 47.914 68.7207 49.0986 68.2256C50.5727 67.6096 51.4036 66.4046 49.7573 65.2473C49.6699 65.1859 49.5693 65.0982 49.4354 65.1184Z" fill="#A56ED5"/>
<path d="M35.3934 26.0352C35.4133 26.3673 35.4004 26.7146 35.5379 27.0232C36.608 29.4238 41.2444 29.4699 43.4921 28.4885C44.6885 27.9663 45.5465 27.5217 45.554 26.1882C49.1061 26.2393 51.9952 27.4785 52.7206 31.3582C54.2171 30.4661 55.834 30.0294 57.5591 30.4728C63.9063 32.1046 62.9303 42.0515 55.1717 42.1404L49.3387 42.7448C49.3961 43.1308 49.4849 43.6676 49.405 44.0582C49.3494 44.4555 49.3695 44.8842 49.369 45.2867L49.3689 53.4616C49.2696 53.59 49.287 53.7603 49.2847 53.9012L49.2815 56.6739C49.2822 57.0713 49.2281 57.6375 49.3656 58.0107L49.4207 58.1439C49.4465 58.2024 49.4845 58.2666 49.5467 58.2902L49.5731 58.2975C48.9673 59.6237 44.109 59.9695 42.7129 60.0298L38.336 60.0256C36.5852 59.9568 34.3105 59.7541 32.634 59.1808C32.0728 58.9648 31.6847 58.7822 31.2772 58.3464C31.4051 57.9232 31.5338 56.3967 31.4731 55.9238C31.1661 56.114 30.7864 56.2257 30.4422 56.2955L30.1462 56.3422C28.1002 56.4825 25.9345 54.9139 25.8131 52.7913C25.691 52.7405 25.3439 52.9538 25.2152 53.0157C21.7167 54.6964 17.6684 53.7344 15.8218 50.1256C14.1684 46.8945 15.5239 42.8948 18.7703 41.2565C20.5465 40.3601 22.409 40.3897 24.2712 40.9993C23.6696 38.0665 25.3933 34.902 28.3516 34.0786L28.5197 34.0405C30.8249 33.6714 31.4283 34.9658 32.7441 36.2354C33.2214 36.6959 33.7844 37.07 34.3249 37.4514C34.4892 36.3563 34.4547 35.3091 34.4558 34.2028L34.455 27.5458C34.4476 27.2464 34.3238 26.742 34.5438 26.4934C34.7403 26.2713 35.0992 26.055 35.3934 26.0352ZM46.4942 40.4433L46.57 42.2171C46.5756 42.7221 46.6258 43.1226 46.282 43.5241C44.8991 45.1399 39.7569 44.9767 37.8996 44.6938C36.9946 44.5559 34.4862 44.1986 34.4335 42.9901C34.4204 42.6899 34.5441 40.8531 34.3898 40.7087L34.3606 40.6892C32.0539 41.6274 31.4804 41.7705 31.4877 44.2243L31.4946 46.0865L31.4721 55.744C31.4688 55.7937 31.4515 55.8778 31.4731 55.9238C31.5338 56.3967 31.4051 57.9232 31.2772 58.3464C31.6847 58.7822 32.0728 58.9648 32.634 59.1808C34.3105 59.7541 36.5852 59.9568 38.336 60.0256L42.7129 60.0298C44.109 59.9695 48.9673 59.6237 49.5731 58.2975L49.5467 58.2902C49.4845 58.2666 49.4465 58.2024 49.4207 58.1439L49.3656 58.0107C49.2281 57.6375 49.2822 57.0713 49.2815 56.6739L49.2847 53.9012C49.287 53.7603 49.2696 53.59 49.3689 53.4616L49.369 45.2867C49.3695 44.8842 49.3494 44.4555 49.405 44.0582C49.4849 43.6676 49.3961 43.1308 49.3387 42.7448L49.3266 42.7185C48.8897 41.9216 47.3188 40.7041 46.4942 40.4433Z" fill="#F2EEF1"/>
<path d="M46.4815 40.4434C46.3629 40.1429 46.3837 39.7805 46.381 39.4642L46.3774 38.1908C46.3768 37.6223 46.3351 37.0145 46.4035 36.4514C51.0695 37.0704 49.1962 41.2021 54.5305 41.9321L55.1454 42.0481C55.1535 42.1078 55.148 42.0846 55.1715 42.1405L49.3385 42.7449L49.3264 42.7186C48.8895 41.9217 47.3186 40.7041 46.4815 40.4434Z" fill="#CBA1F0"/>
<path d="M25.8135 52.7915C25.9748 52.6061 26.0175 52.2447 26.0765 52.0088C26.5645 50.0544 27.6791 48.6521 29.4674 47.713C29.5521 47.6686 30.0204 47.469 30.0533 47.4064C30.0725 47.3698 28.9935 44.2599 29.6145 42.7805C30.2422 41.2852 32.4897 40.6854 33.9637 40.4929C34.1852 40.464 34.5353 40.3529 34.3609 40.6893C32.0542 41.6275 31.4807 41.7706 31.4881 44.2245L31.4943 46.0867L31.4921 55.7441C31.4691 55.7938 31.4519 55.878 31.4652 55.9239C31.1665 56.1141 30.7867 56.2259 30.4425 56.2956L30.1466 56.3424C28.1005 56.4826 25.9348 54.9141 25.8135 52.7915Z" fill="#CBA1F0"/>
<path d="M46.4944 40.4435C47.319 40.7043 48.8899 41.9218 49.3268 42.7187L49.3389 42.745C49.3963 43.131 49.4851 43.6678 49.4052 44.0584C49.3496 44.4557 49.3697 44.8844 49.3692 45.2869L49.3691 53.4618C49.2698 53.5901 49.2872 53.7605 49.2849 53.9013L49.2817 56.6741C49.2824 57.0714 49.2283 57.6377 49.3658 58.0108L49.4209 58.1441C49.4467 58.2026 49.4847 58.2668 49.5469 58.2904L49.5733 58.2976C48.9674 59.6239 44.1091 59.9696 42.7131 60.03L38.3362 60.0257C36.5853 59.957 34.3107 59.7543 32.6342 59.1809C32.073 58.965 31.6849 58.7824 31.2773 58.3465C31.4053 57.9234 31.534 56.3968 31.4732 55.924C31.4517 55.878 31.469 55.7939 31.4723 55.7441L31.4948 46.0867L31.4879 44.2245C31.4806 41.7707 32.0541 41.6275 34.3608 40.6893L34.39 40.7089C34.5443 40.8533 34.4206 42.69 34.4337 42.9902C34.4864 44.1988 36.9948 44.5561 37.8997 44.694C39.7571 44.9769 44.8993 45.1401 46.2822 43.5243C46.6259 43.1228 46.5758 42.7222 46.5702 42.2173L46.4944 40.4435ZM31.4948 46.0867L31.4723 55.7441C31.4916 55.8635 31.5004 56.0137 31.6557 55.9153L31.6853 55.8857C31.8222 55.8695 31.8133 55.7874 31.8924 55.7082L31.9 55.6635C31.9457 55.5488 31.9046 55.7061 31.9299 55.6062L31.9518 55.5156C31.9717 55.4512 31.9839 55.3733 32.0174 55.3163L32.1075 55.272C32.215 55.2708 32.2643 55.1879 32.4001 55.2328L32.5064 55.2715L32.5894 54.6204L32.588 48.3945C32.5872 47.3295 32.588 46.2604 32.2006 45.2528C32.0185 45.1356 31.5674 44.6549 31.5373 44.4178L31.4948 46.0867Z" fill="#DDDDDC"/>
<path d="M32.5855 54.6204L32.5932 58.0753C32.5954 58.4356 32.675 58.8282 32.6327 59.1809C32.073 58.9649 31.6849 58.7823 31.2773 58.3464C31.4053 57.9233 31.534 56.3968 31.4732 55.9239C31.4517 55.8779 31.469 55.7938 31.4723 55.7441C31.4916 55.8634 31.5004 56.0136 31.6557 55.9152L31.6853 55.8856C31.8222 55.8694 31.8133 55.7873 31.8924 55.7081L31.9 55.6634C31.9457 55.5487 31.9046 55.7061 31.9299 55.6062L31.9518 55.5155C31.9717 55.4511 31.9839 55.3732 32.0174 55.3163L32.1075 55.2719C32.215 55.2707 32.2643 55.1878 32.4001 55.2327L32.5064 55.2714L32.5855 54.6204Z" fill="#F2EEF1"/>
</svg>
