<svg width="81" height="82" viewBox="0 0 81 82" fill="none" xmlns="http://www.w3.org/2000/svg">
<circle cx="40.5149" cy="41.003" r="40" stroke="#D9DDDD" stroke-width="0.606061"/>
<path d="M32.9146 32.4264V26.4801C32.9155 25.4543 33.14 24.5864 34.2755 24.2475L34.3238 24.2329C34.8968 24.1406 35.3368 24.1198 35.8484 24.1406V15.348C35.8494 14.9592 35.8197 14.5348 35.8912 14.152C36.1455 12.7899 37.2717 11.9235 38.6177 12.3057C39.3972 12.5271 40.1618 12.8635 40.9286 13.1307C42.6544 13.7321 45.1462 14.228 45.1698 16.5196L45.2123 24.1113L46.8808 24.1357C47.7184 24.1896 48.4108 24.8201 48.686 25.5822L48.707 25.6389C48.8118 25.9249 48.784 26.2377 48.7848 26.5377L48.7925 30.7218C48.8029 31.2274 48.8027 31.8904 48.7925 32.3931L44.1914 32.4264H39.646H35.7066C34.9075 32.4911 33.6882 32.4073 32.9146 32.4264Z" fill="#CBA1F0"/>
<path d="M39.6532 32.2463L48.8787 32.2131C49.4158 32.3482 49.9581 32.2432 50.4905 32.3817C51.1482 32.5526 52.0901 33.3218 52.1194 34.0752L52.1118 64.0527C52.1134 65.8456 52.1484 66.5011 50.7485 67.8496C49.2046 69.3368 47.7205 69.1303 45.6995 69.1286L36.2096 69.1324C34.8436 69.1483 33.8129 69.4109 32.3726 68.9474C30.6046 68.3783 29.4917 66.6815 29.4063 64.8737L29.3886 40.0446C29.3872 39.6756 29.3421 39.3246 29.3235 38.959L29.3093 34.4303C29.3077 34.244 29.2821 34.0218 29.3445 33.8455L29.3584 33.8089C29.58 33.1822 30.319 32.5481 30.9785 32.3989C31.6043 32.2573 32.1635 32.2718 32.8845 32.2718L39.6532 32.2463Z" fill="#DDDDDC" fill-opacity="0.862745"/>
<path d="M40.1173 42.3439C41.6207 42.2795 43.0901 42.6616 44.3141 43.5533C46.2249 44.9451 47.0079 46.2924 47.3584 48.5609C47.6988 50.7641 47.2215 53.3358 45.8829 55.1497C44.7321 56.7093 42.9138 58.0645 40.9669 58.3605L40.8253 58.3751C36.8404 58.7283 33.9591 54.091 33.6741 50.611C33.5284 48.8325 33.9099 46.3353 35.0836 44.9605C36.3218 43.5101 38.2138 42.5011 40.1173 42.3439Z" fill="#CBA1F0"/>
<circle cx="40.2516" cy="16.6688" r="0.606061" fill="black"/>
<path d="M37.125 46.9719C38.8436 47.0013 38.8066 49.3344 37.3776 49.3962C35.7364 49.298 35.473 47.1873 37.125 46.9719Z" fill="#F2EEF1"/>
<path d="M43.7217 46.9746C45.3283 46.8818 45.6511 49.2005 44.0439 49.3937C42.4493 49.4819 42.1297 47.195 43.7217 46.9746Z" fill="#F2EEF1"/>
<path d="M37.5747 52.4284C37.9201 52.3919 38.0589 52.8883 38.1988 53.1555C39.1672 55.0054 41.6878 55.0562 42.8421 53.3955C43.0059 53.1598 43.1605 52.6262 43.3982 52.5059C43.919 52.2427 43.9786 53.1037 43.788 53.5785C42.3929 56.314 38.1796 55.9299 37.2931 53.2794C37.1619 52.887 37.1832 52.5623 37.5747 52.4284Z" fill="#F2EEF1"/>
<path d="M48.8498 28.2004V26.9726C48.8498 26.2606 48.8498 25.7597 48.5548 25.2373C48.123 24.2713 47.3209 24.1173 46.3431 24.1173H45.8753L46.073 24.3484C46.3416 24.6502 46.5325 24.7936 46.7569 25.1424C47.6341 26.506 47.9022 28.8273 46.5797 29.9435L46.4692 30.031C45.5883 30.7155 44.1905 30.7099 43.1641 30.7497L34.0558 30.8459C33.71 30.8697 33.4248 30.9403 33.0983 31.0165L32.979 32.1773C33.5348 32.1773 33.8568 32.1704 34.3043 32.1773H47.9108C48.1958 32.1923 48.6038 32.1773 48.8913 32.1773C48.8913 30.7643 48.8483 29.621 48.8498 28.2004Z" fill="#CBA1F0"/>
<path d="M52.0186 61.4688C52.03 61.8089 52.0394 62.2296 52.0394 62.6915C52.0394 63.8643 51.9786 65.2891 51.7402 66.332C51.5727 67.0649 51.1133 67.6439 50.576 68.0801C50.0386 68.5165 49.4322 68.8024 48.9915 68.9493C48.9542 68.9617 48.8583 68.9774 48.6925 68.992C48.5328 69.0061 48.3229 69.0183 48.0691 69.0286C47.5619 69.0492 46.8855 69.0622 46.0977 69.0693C44.5224 69.0835 42.5065 69.0741 40.5181 69.0551C38.5299 69.0362 36.5701 69.0078 35.1072 68.9841C35.0417 68.9831 34.9772 68.982 34.9137 68.981C36.4219 68.8048 38.0213 68.6213 39.5624 68.4445C40.5469 68.3315 41.5077 68.2213 42.4057 68.1174C43.9161 67.9428 45.2491 67.7861 46.2184 67.6648C46.7028 67.6042 47.0973 67.5524 47.3779 67.5115C47.518 67.4911 47.6311 67.4732 47.7133 67.4581C47.7542 67.4507 47.7893 67.4435 47.817 67.4369C47.8307 67.4335 47.8444 67.4299 47.8569 67.4259C47.8667 67.4227 47.8862 67.4162 47.9053 67.4047C49.4589 66.4725 50.5507 64.773 51.2515 63.3257C51.5972 62.6118 51.8504 61.9537 52.0186 61.4688Z" fill="#E1E1E1" stroke="#E1E1E1" stroke-width="0.30303"/>
</svg>
