<svg width="82" height="82" viewBox="0 0 82 82" fill="none" xmlns="http://www.w3.org/2000/svg">
<circle cx="40.7273" cy="41.2151" r="40" stroke="#D9DDDD" stroke-width="0.606061"/>
<path d="M34.1025 33.1155C34.4046 30.8437 35.5203 30.0425 37.3403 28.8669C39.6325 27.3868 43.1124 25.5401 43.9701 22.7302C44.3334 23.4989 44.3485 24.3181 44.3505 25.147L44.44 30.9099C45.2963 30.5053 45.5341 30.4503 46.2734 29.6844L46.8637 29.0115C47.0352 28.8108 47.2014 28.5977 47.4633 28.5181C48.5694 28.688 48.8647 32.1213 48.7872 32.9799C48.6938 33.3321 45.7999 33.2296 45.3351 33.2294L35.267 33.1736C34.8791 33.1514 34.488 33.1695 34.1025 33.1155Z" fill="#D9DDDD"/>
<path d="M31.8269 34.0074C31.4328 33.9748 31.117 33.8736 31.2123 33.418C31.3654 32.6854 33.5788 32.9752 34.1024 33.1028C34.4879 33.1697 34.879 33.1516 35.2668 33.1738L45.335 33.2296C45.7997 33.2298 48.6937 33.3323 48.7871 32.98C48.9438 33.1165 50.0793 32.9734 50.4373 33.0944C50.7968 33.2158 50.9959 33.4755 51.3035 33.6706L51.2704 33.6867C51.0497 33.7964 50.8629 33.9704 50.6319 34.054C50.6585 34.4948 50.7413 35.0132 50.6608 35.4468C50.7871 35.4489 50.8931 35.4588 51.0143 35.4949C51.2128 35.751 51.0161 36.5229 50.8216 36.7489L50.8165 36.7525C50.6189 37.1755 50.7172 37.6931 50.6331 38.1463C51.2843 37.8162 51.1308 39.1958 50.7298 39.4394C50.53 39.4931 49.0114 39.3689 48.6595 39.3676L36.6914 39.3588C36.3092 39.3548 35.9453 39.2634 35.5636 39.2519L31.403 39.2393L31.2561 39.0718C31.038 38.7973 31.0048 38.5247 31.3009 38.3115C31.4748 38.0738 31.3902 36.8767 31.3586 36.5385C31.2702 36.3578 30.6987 35.5747 31.3895 35.5189C31.4993 35.0257 31.6334 34.474 31.8269 34.0074Z" fill="#F2EEF1"/>
<path d="M50.6338 38.1462C51.2851 37.8161 51.1316 39.1957 50.7306 39.4393C50.5307 39.4929 49.0122 39.3687 48.6602 39.3674L36.6922 39.3587C36.31 39.3546 35.9461 39.2633 35.5644 39.2518L31.4038 39.2391L31.2569 39.0716C31.0387 38.7971 31.0056 38.5245 31.3017 38.3113L34.2072 38.3384L38.4234 38.5934L43.658 38.5895L49.6885 38.3069C49.9865 38.2984 50.377 38.3167 50.6338 38.1462Z" fill="#A7A6A6"/>
<path d="M50.6608 35.4523C50.7871 35.4489 50.8931 35.4588 51.0143 35.4949C51.2128 35.7509 51.0161 36.5228 50.8216 36.7488L50.8165 36.7525C50.377 36.7038 49.9051 36.7385 49.4624 36.7391L33.6289 36.6784C32.8837 36.6392 32.135 36.5997 31.3976 36.4794L31.3586 36.5385C31.2702 36.3577 30.6987 35.5747 31.3895 35.5188L31.4322 35.5421C32.0651 35.7969 36.5158 35.7723 37.4015 35.7717L45.0094 35.8224C46.2243 35.7976 47.4434 35.6371 48.6561 35.5602L49.9891 35.5168C50.2012 35.5088 50.46 35.5194 50.6608 35.4523Z" fill="#A7A6A6"/>
<path d="M31.8271 34.0074C31.433 33.9748 31.1172 33.8736 31.2124 33.418C31.3656 32.6854 33.5789 32.9752 34.1025 33.1028C34.488 33.1697 34.8791 33.1516 35.267 33.1738L45.3351 33.2296C45.7999 33.2298 48.6938 33.3323 48.7872 32.98C48.9439 33.1165 50.0795 32.9734 50.4374 33.0944C50.7969 33.2158 50.996 33.4755 51.3037 33.6706L51.2705 33.6867C51.0499 33.7964 50.8631 33.9704 50.632 34.054C50.6586 34.4948 50.7414 35.0132 50.6609 35.4468C50.4601 35.5194 50.2014 35.5088 49.9893 35.5168L48.6563 35.5603C47.4436 35.6371 46.2245 35.7976 45.0095 35.8225L37.4017 35.7717C36.5159 35.7723 32.0652 35.7969 31.4323 35.5422L31.3897 35.5189C31.4994 35.0257 31.6336 34.474 31.8271 34.0074Z" fill="#F2EEF1"/>
<path d="M31.8271 34.009C31.433 33.9748 31.1172 33.8736 31.2124 33.418C31.3656 32.6854 33.5789 32.9752 34.1025 33.1028C34.488 33.1697 34.8791 33.1516 35.267 33.1738L45.3351 33.2296C45.7999 33.2298 48.6938 33.3323 48.7872 32.98C48.9439 33.1165 50.0795 32.9734 50.4374 33.0944C50.7969 33.2158 50.996 33.4755 51.3037 33.6706L51.2705 33.6867C51.0499 33.7964 50.8631 33.9704 50.632 34.054C50.1958 34.0035 49.6807 34.0591 49.2354 34.0599L37.179 34.0707C35.4012 34.0707 33.6012 34.128 31.8271 34.009Z" fill="#A7A6A6"/>
<path d="M56.2838 51.189L56.3192 53.907C56.3204 55.4038 56.5048 56.996 55.3465 58.1397C54.4211 59.0534 53.4794 59.3398 52.2485 59.3381L29.3389 59.3301C27.4906 59.3055 26.046 58.0914 25.5203 56.3206C25.4027 55.9244 25.3413 55.5232 25.3303 55.1118L25.3198 51.1886L56.2838 51.189Z" fill="#CBA1F0"/>
<path d="M31.4038 39.2328L35.5644 39.2517C35.9461 39.2632 36.31 39.3546 36.6922 39.3586L48.6603 39.3674C49.0122 39.3687 50.5308 39.4929 50.7306 39.4096C50.5567 39.7186 50.6985 40.2574 50.8231 40.5545C51.3476 41.2038 51.0916 41.9467 50.8892 42.6785C52.6402 43.2265 54.6745 45.2997 55.4825 46.8618C56.182 48.2143 56.152 49.6843 56.2837 51.1551L25.3183 51.1961C24.9598 48.2152 26.7709 45.3288 29.1897 43.7339C29.9517 43.2314 30.7748 42.8602 31.578 42.4339C31.0322 41.9862 30.9803 41.4125 31.3126 40.7598L31.3405 40.7076C31.4642 40.3732 31.5332 39.9897 31.4923 39.6336L31.4858 39.5839C31.4703 39.4599 31.4437 39.3512 31.4038 39.2328Z" fill="#D9DDDD"/>
<path d="M31.4036 39.2328L35.5642 39.2517C35.946 39.2632 36.3098 39.3546 36.6921 39.3586L48.6601 39.3674C49.012 39.3687 50.5306 39.4929 50.7304 39.4096C50.5565 39.7186 50.6983 40.2574 50.823 40.5545C50.4044 40.5641 49.9966 40.6392 49.5797 40.6571L43.204 41.0144L39.8289 41.0157C39.6114 41.0085 39.3981 40.9675 39.1792 40.9615L37.4951 40.9466L32.0877 40.7742C31.8844 40.7734 31.5117 40.8171 31.3403 40.7246C31.464 40.3732 31.5331 39.9897 31.4921 39.6336L31.4856 39.5839C31.4701 39.4599 31.4436 39.3512 31.4036 39.2328Z" fill="#F2EEF1"/>
</svg>
