<svg width="81" height="82" viewBox="0 0 81 82" fill="none" xmlns="http://www.w3.org/2000/svg">
<circle cx="40.303" cy="41.2151" r="40" stroke="#D9DDDD" stroke-width="0.606061"/>
<path d="M35.6576 35.3102L35.6526 35.3105C35.5729 34.604 35.6249 33.8515 35.6249 33.1379C35.6249 32.4619 35.6322 30.6099 35.8793 30.0403L35.8961 30.003C36.1991 29.0939 38.3203 29.1529 39.43 29.1529V28.0122C39.0266 27.9817 38.1868 28.0972 37.9056 27.8951L37.7478 27.7825C37.6043 27.6674 37.4496 27.4438 37.4398 27.2531C37.3932 26.3373 38.1624 26.2184 38.8503 26.2173L39.4337 26.2078C39.4623 26.1512 39.472 25.5923 39.4295 25.5502C39.1569 25.2799 36.6929 26.036 36.6813 24.6046C36.675 23.8251 37.3947 23.9226 37.9535 23.9203L39.3984 23.9295C39.4112 22.9914 39.4062 23.1706 38.5922 23.1704L37.3093 23.1696C36.9999 23.1693 36.6381 23.2046 36.3345 23.1469C35.641 23.0151 35.5744 22.0229 36.1728 21.7013L36.2109 21.6814C36.5739 21.4861 37.0408 21.5738 37.4381 21.5743L39.3287 21.6479C39.3908 21.3421 39.343 20.9107 39.3242 20.5963L37.0305 20.4997C36.6705 20.48 36.266 20.5341 35.9175 20.4355L35.8764 20.4236C35.0695 20.2015 35.1186 19.1266 35.8811 19.0289C36.2092 18.9869 36.6024 19.0467 36.938 19.0506L39.2868 19.0751L39.2028 18.3099C38.7749 18.3884 37.0739 18.3465 36.6396 18.3466C36.2667 18.3467 35.4645 18.5237 35.3973 17.9906C35.2598 16.8995 35.6547 16.8987 36.4968 16.8802L39.3677 16.8705L39.3642 16.0938L36.4219 16.064C35.4939 15.9949 35.4988 14.9901 35.9084 14.7111L35.9396 14.691C36.2582 14.482 36.8061 14.5884 37.1693 14.5877L39.3841 14.5956C39.3763 14.4839 39.3605 13.8486 39.3155 13.8073C39.2608 13.7572 36.5918 13.8654 36.1569 13.7751C35.2659 13.5902 35.4563 12.3731 36.3024 12.2675C36.612 12.2289 36.9958 12.3182 37.3146 12.3267L39.2582 12.3395C39.3241 12.0462 39.3022 11.8109 39.2582 11.5181C38.6329 11.4005 36.7459 11.6176 36.4765 10.8729C36.353 10.5315 36.6826 9.88871 37.0268 9.78422C37.2305 9.72239 37.4998 9.76265 37.7111 9.76852L40.1177 9.74573L41.1988 9.73549L43.9392 9.70954C44.1016 9.70715 44.3133 9.67071 44.4598 9.75783L44.4879 9.77609C44.8481 9.99999 45.0228 10.586 44.8121 10.9617C44.4087 11.6809 42.7429 11.3182 42.0319 11.5181V12.3904L45.4571 12.3518C45.9749 12.3268 45.8359 12.5142 45.8489 13.1078C45.8693 14.0418 45.2082 13.8751 44.6071 13.8755L42.0407 13.8582L42.0716 14.584L44.802 14.6902C45.2656 14.7164 45.695 14.6537 46.1188 14.8772C46.6789 15.928 46.067 16.1693 45.0866 16.1767L42.2006 16.1723L42.1864 16.8851C42.8321 16.8358 43.502 16.8698 44.1502 16.8704L45.0703 16.8723C45.3965 16.874 45.8444 16.8473 46.1078 17.0793C46.4841 17.4108 46.3971 18.3581 45.8421 18.4517C45.5078 18.508 45.1027 18.4645 44.7621 18.4648L42.1821 18.464L42.1631 19.1289C42.1976 19.1668 42.1754 19.1558 42.2323 19.1559L44.5886 19.1633C44.9498 19.1648 45.4061 19.0413 45.5866 19.4413C45.7279 19.7543 45.7452 20.4293 45.3368 20.5647L45.3017 20.5754C44.8978 20.7023 44.3836 20.648 43.9626 20.6484L42.0833 20.6477C42.0381 20.9544 42.0745 21.3247 42.0754 21.6381L44.0166 21.6981C44.5858 21.7115 44.5971 21.6762 45.157 21.7827C45.9059 21.925 45.8183 23.0771 45.0988 23.1842C44.7781 23.2319 44.3711 23.1801 44.0429 23.1781L42.1464 23.1619L42.1495 23.8464C42.2752 23.9241 42.6009 23.8995 42.7572 23.9085L44.1038 24.0487C44.3701 24.0886 44.669 24.091 44.6911 24.42C44.7671 25.5538 44.0523 25.5003 43.1362 25.5031L42.1711 25.5044V26.2171L43.1553 26.2508C43.4268 26.264 43.935 26.2594 44.1483 26.4443C44.5211 26.7676 44.3366 27.907 43.856 27.9882C43.6476 28.0235 43.3838 27.9953 43.1693 27.9954L42.1575 27.9947C42.0969 28.0885 42.1302 28.9715 42.1287 29.1499L43.3291 29.1529C44.492 29.1562 45.3867 29.3103 45.418 30.6419L45.5483 35.1854L45.534 35.2787C45.2309 35.3321 44.8816 35.3024 44.5715 35.3028L35.6576 35.3102Z" fill="#CBA1F0"/>
<path d="M40.7237 8.18481C39.5116 8.18481 40.1177 9.74573 40.1177 9.74573L41.1988 9.73549C41.1988 9.73549 41.9359 8.18481 40.7237 8.18481Z" fill="#CBA1F0"/>
<path d="M45.1424 34.9761C45.5195 35.4632 47.5766 34.1515 47.5755 38.0595L47.5478 39.9581C47.7121 39.9798 47.8926 39.9871 48.053 40.034C49.4312 40.437 49.6998 41.9103 49.697 43.4433L49.6628 45.5979L49.3526 52.6025L48.3334 69.317C48.2558 71.3039 48.3031 73.654 46.4448 74.279C46.0643 74.4071 45.6396 74.345 45.2483 74.3397L35.6306 74.3339C35.2586 74.3398 34.8751 74.3979 34.5055 74.3533C32.8655 74.1559 32.38 72.4911 32.272 70.5578L31.7322 61.0701L31.5841 57.1179L31.2302 49.6973L30.9998 44.6921C30.9476 43.357 30.6304 41.365 31.6057 40.4388C32.0519 40.0151 32.5399 40.1501 33.0118 39.9323L32.9878 38.2824C32.9847 37.2113 32.897 35.2541 34.0514 35.1803L35.3569 35.1661L44.1741 35.0938C44.4809 35.0932 44.8264 35.1316 45.1263 35.0627L45.1424 34.9761Z" fill="#F2EEF1"/>
<path d="M40.0975 47.261C42.2143 47.0951 44.552 48.7868 44.6725 50.9943C44.8119 53.5458 43.4337 55.8177 40.7228 55.9526C38.5057 56.0384 36.8714 54.902 36.2524 52.6936C35.489 49.9694 37.3014 47.4762 40.0975 47.261Z" fill="#A56ED5"/>
</svg>
