<svg width="82" height="81" viewBox="0 0 82 81" fill="none" xmlns="http://www.w3.org/2000/svg">
<circle cx="40.7273" cy="40.6091" r="40" stroke="#D9DDDD" stroke-width="0.606061"/>
<g clip-path="url(#clip0_9_4625)">
<path d="M35.1272 40.024C35.0083 39.9708 34.8216 39.9605 34.6992 39.9432L31.4751 39.3859C25.2982 38.0452 14.4065 33.7708 14.2956 26.2134C14.2608 23.8382 15.4923 21.4715 17.1124 19.7965C21.9606 14.7842 31.4633 12.1647 38.3138 12.0615L42.6581 12.0734L46.1285 12.3808C50.1359 12.8626 54.1693 13.8653 57.8137 15.6197C68.3695 20.7012 69.9125 29.5865 59.3171 35.7357C56.4522 37.3985 53.4258 38.4724 50.1926 39.2052L47.4738 39.7713L45.6671 39.9812L45.6807 43.4193L42.5566 43.1751L37.4 43.1693C36.6558 43.201 35.9019 43.2872 35.1626 43.3779L35.1272 40.024Z" fill="#A56ED5"/>
<path d="M35.1284 40.0241C35.1529 40.0134 44.7074 40.0379 45.6683 40.0321L45.6819 42.2072L42.5578 41.963L37.4011 41.9572C36.6569 41.9889 35.903 42.0751 35.1638 42.1658L35.1284 40.0241Z" fill="#202F34"/>
<path d="M39.2006 16.2654L41.372 16.256C43.1136 16.2579 44.7022 16.4487 46.429 16.7115L49.4333 17.2204C52.8798 17.9681 56.9275 19.4132 59.4911 21.9062C62.076 24.42 62.0395 27.5659 59.5308 30.1265C55.6469 34.0904 47.3979 36.0838 41.8158 36.1443C40.7494 36.1456 39.6581 36.1919 38.5947 36.1309L37.69 36.0415C32.805 35.6637 25.8714 34.1495 22.0727 30.7392C19.3146 28.2634 18.4555 25.0406 21.0723 22.1841C24.6183 18.3134 32.5376 16.7589 37.5184 16.3869L39.2006 16.2654Z" fill="#D9DDDD"/>
<path d="M39.3372 18.2563C39.7634 18.2386 40.5283 18.1201 40.5959 18.7095C40.6872 19.5049 40.0835 20.2215 39.3016 20.2927C38.074 20.285 37.0121 18.4589 39.3372 18.2563Z" fill="white"/>
<path d="M45.2407 16.9248C45.8466 16.9585 46.5033 17.0828 47.0667 17.3105C46.2448 18.4624 45.2393 19.5042 44.3185 20.5794L43.2137 21.8832L34.0843 31.8517C33.8701 32.1 33.7343 32.474 33.3795 32.512C32.7225 32.4361 32.0989 32.263 31.5186 31.9386L32.9816 30.1255L44.7019 17.3389C44.8595 17.1806 45.0194 16.9843 45.2407 16.9248Z" fill="white"/>
<path d="M35.1633 42.1657C35.9026 42.0751 36.6565 41.9889 37.4007 41.9572L42.5573 41.963L45.6867 42.2072C46.1551 42.2861 46.6404 42.3111 47.1126 42.3693L49.7114 42.7608C55.2094 43.7498 65.7584 47.107 66.45 53.8249C66.4979 54.2895 66.4706 54.7798 66.4707 55.2476L66.4706 57.7768C66.4712 58.5243 66.5054 59.2918 66.4238 60.0349C65.8376 65.3709 58.6848 68.2724 54.0871 69.5127C52.694 69.8885 51.2726 70.2212 49.8499 70.4656L45.5979 70.9738C44.4945 71.0438 43.3716 71.0005 42.265 71.0008L36.3439 71.0006C35.9137 71.0002 35.4659 71.0201 35.0387 70.9728C28.8798 70.291 21.2744 68.906 16.7426 64.357C14.5653 62.1714 14.3514 60.6947 14.3489 57.8855L14.3486 54.6447C14.3662 47.9085 23.7638 44.34 29.1201 43.1842L35.1633 42.1657Z" fill="#E1E1E1"/>
<path d="M39.3358 46.6654H41.3422C44.7561 46.6688 48.123 47.3056 51.3151 48.5023C53.9942 49.5067 58.4939 51.6221 58.508 55.0469C58.5298 60.3628 49.6855 62.7551 45.5441 63.2956L43.0485 63.5698L41.5122 63.5944C40.3571 63.5989 39.1711 63.6452 38.0193 63.5704L37.2517 63.4909C32.7306 63.113 22.3631 60.8407 22.2855 55.1877C22.2674 53.8716 23.011 52.6191 23.9072 51.7091C27.2061 48.3591 34.7399 46.69 39.3358 46.6654Z" fill="#CBA1F0"/>
<path d="M40.7668 49.397C43.3483 49.4007 46.6327 49.7288 49.0516 50.472L50.8711 51.0859C51.9096 51.4716 54.2601 52.5459 53.6625 53.7726C53.2054 54.7112 52.0805 55.1038 50.9579 54.6837L49.9259 54.2902L48.2841 53.7668C47.3916 53.5155 46.479 53.3266 45.5618 53.1489L43.9621 52.8503L38.635 52.1126C37.7834 51.9653 35.9587 51.6711 36.2053 50.6062L36.211 50.5846C36.4651 49.5537 39.7494 49.3977 40.7668 49.397Z" fill="#915FBD"/>
</g>
<defs>
<clipPath id="clip0_9_4625">
<rect width="60.6061" height="60.6061" fill="white" transform="translate(10.1216 10.609)"/>
</clipPath>
</defs>
</svg>
