<svg width="82" height="82" viewBox="0 0 82 82" fill="none" xmlns="http://www.w3.org/2000/svg">
<circle cx="40.9095" cy="41.003" r="40" stroke="#D9DDDD" stroke-width="0.606061"/>
<path d="M31.3584 57.8726L50.3944 57.8959C50.6284 57.9087 50.873 57.9025 51.1048 57.9332C51.1533 58.159 51.1859 58.3865 51.1947 58.6113L51.2119 66.1821C51.2115 67.5615 51.2094 68.668 49.6615 69.3369C49.3177 69.4855 48.9277 69.6031 48.5536 69.6166L35.2044 69.6294C33.9093 69.6273 32.5336 69.7376 31.676 68.5425L31.6487 68.5034C31.2267 67.9066 31.1914 67.3183 31.1919 66.6027L31.1932 65.3408C31.1945 64.424 31.1508 63.4826 31.2092 62.5691C31.2624 61.7352 31.3689 61.275 31.3473 60.4022L31.328 58.7362C31.3283 58.452 31.31 58.153 31.3584 57.8726Z" fill="#D9DDDD"/>
<path d="M41.159 62.9523C41.2845 62.9286 41.4514 62.9399 41.5798 62.9421C43.6229 62.9775 45.8788 64.6511 45.848 66.846L41.3727 66.8467L36.6738 66.8637C36.9338 64.3394 38.7225 63.1266 41.159 62.9523Z" fill="#A7A6A6"/>
<path d="M31.3602 57.8716C31.3677 57.3235 31.2543 56.7745 31.17 56.2331L27.0045 29.0709L25.1421 17.9335C24.9269 16.6933 24.8535 15.9383 24.8504 14.6857L24.8486 12.2201L57.5238 12.2151L57.5355 14.8416C57.5342 15.9744 57.5164 16.5027 57.3289 17.6101L55.8356 26.4317L52.2208 49.8148L51.2626 56.324C51.1736 56.8336 51.048 57.4211 51.1046 57.9393C50.8728 57.9025 50.6282 57.9086 50.3942 57.8959L31.3602 57.8716ZM40.988 21.5523C35.1012 21.9166 30.8126 27.0637 32.1441 32.9353C33.1582 37.4071 36.8253 40.2339 41.3505 40.25C46.9167 40.0314 50.6023 35.9681 50.3791 30.418L50.3319 29.9419C50.2209 29.3331 50.1525 28.7389 49.9864 28.1396C48.9014 24.2255 45.0525 21.4027 40.988 21.5523Z" fill="#F2EEF1"/>
<path d="M40.7295 45.9216L42.7155 45.9217C43.6759 45.9221 45.5799 45.8474 45.6159 46.5035C45.6493 47.1103 44.5996 47.1179 43.6361 47.118L41.8092 47.117L39.3324 47.1175C38.8669 47.1174 38.0689 47.1765 37.6631 47.0521L37.4498 46.9792C37.1617 46.8606 36.9449 46.6962 36.9387 46.5188C36.9193 45.9534 38.1608 45.9234 39.1474 45.9222L40.7295 45.9216Z" fill="#CBA1F0"/>
<path d="M40.7295 48.3458L42.7155 48.3459C43.6759 48.3463 45.5799 48.2716 45.6159 48.9276C45.6493 49.5345 44.5996 49.5421 43.6361 49.5422L41.8092 49.5412L39.3324 49.5417C38.8669 49.5416 38.0689 49.6007 37.6631 49.4763L37.4498 49.4034C37.1617 49.2848 36.9449 49.1204 36.9387 48.943C36.9193 48.3776 38.1608 48.3476 39.1474 48.3464L40.7295 48.3458Z" fill="#CBA1F0"/>
<path d="M36.6028 43.5392L45.3027 43.5467C46.1259 43.547 47.461 43.5317 47.4965 44.0585C47.5279 44.5254 46.8121 44.7236 45.8957 44.736C45.6695 44.7395 45.4078 44.751 45.1773 44.7513L37.0171 44.7495C36.295 44.7475 35.6795 44.7396 35.2433 44.4288C34.5085 43.9052 35.5225 43.5783 36.6028 43.5392Z" fill="#CBA1F0"/>
<path d="M40.988 21.5523C45.0525 21.4027 48.9015 24.2255 49.9864 28.1396C50.1525 28.7389 50.2209 29.3331 50.332 29.9419L50.3791 30.418C50.6023 35.9681 46.9167 40.0314 41.3506 40.25C36.8253 40.2339 33.1582 37.4071 32.1441 32.9353C30.8127 27.0637 35.1013 21.9166 40.988 21.5523ZM42.208 36.1656L42.024 35.9512C42.1274 35.6325 42.1494 35.0443 42.2491 34.8082L42.2607 34.7823C42.1008 34.7563 42.162 34.7146 42.2564 34.6439C41.197 34.8808 40.1764 34.806 39.2483 34.2109C38.9637 34.0285 38.7142 33.7866 38.4029 33.6499L38.3667 33.6332C37.9557 33.5178 36.9619 34.1455 37.7137 34.9778C38.7756 36.1534 40.7021 36.4196 42.208 36.1656ZM44.3528 26.7804C42.524 27.233 43.2227 29.5548 44.8715 29.3625C46.5562 28.8821 46.1787 26.6726 44.3528 26.7804ZM37.5942 26.8148C35.9774 27.2575 36.2015 29.5081 37.9875 29.3171C39.6033 28.8607 39.3479 26.6596 37.5942 26.8148ZM42.2564 34.6439C42.162 34.7146 42.1008 34.7563 42.2607 34.7823L42.2491 34.8082C42.1494 35.0443 42.1274 35.6325 42.024 35.9512L42.208 36.1656C43.2071 35.9608 44.5259 35.4636 44.9428 34.4636C44.8224 34.1829 44.4461 33.7108 44.0981 33.6914C44.0193 33.687 42.72 34.4806 42.2564 34.6439Z" fill="#CBA1F0"/>
</svg>
