<svg width="82" height="81" viewBox="0 0 82 81" fill="none" xmlns="http://www.w3.org/2000/svg">
<circle cx="41.1214" cy="40.6091" r="40" stroke="#D9DDDD" stroke-width="0.606061"/>
<path d="M14.4253 54.7634C14.5594 54.8747 14.5815 55.1492 14.6189 55.3136C15.8743 60.8355 28.5555 63.1526 33.9587 63.6659L38.0079 63.9275L43.7428 63.9312C46.0946 63.8078 48.476 63.6459 50.8064 63.2948L54.8441 62.4944C58.2518 61.7132 65.5536 59.5059 66.9038 55.7969C66.9884 55.5642 67.0373 55.2596 67.182 55.0596L67.1924 61.8661C66.9143 64.5846 62.5663 66.691 60.3767 67.5673C56.6315 69.0661 52.5199 69.8868 48.5169 70.2935L39.0195 70.6417C38.7403 70.6352 38.4669 70.5882 38.1909 70.5797L36.4726 70.5475C36.2609 70.5383 36.0567 70.5021 35.8472 70.486L33.6567 70.3179C28.2076 69.7593 18.849 68.1369 15.2752 63.6541C14.3875 62.5407 14.3859 61.543 14.3847 60.197L14.3842 56.1138C14.3843 55.6641 14.3709 55.2105 14.4253 54.7634Z" fill="#E1E1E1"/>
<path d="M14.4343 54.7636C14.7968 50.4685 23.0113 48.1639 26.427 47.3805C27.3098 47.178 28.2386 46.9281 29.1404 46.8396C28.8053 46.7211 28.4594 46.6489 28.1265 46.521C24.9596 45.3057 20.8714 43.0536 18.4117 40.8768C11.1923 34.4877 11.1435 25.7809 18.0134 19.4209C24.1752 13.7164 34.2097 11.1857 42.5641 11.5132C45.9862 11.6473 50.7576 12.6013 53.916 13.7313C59.3776 15.6852 65.0048 19.3077 67.5386 24.6642C70.0145 29.8982 68.5135 35.3802 64.6157 39.5516C62.0513 42.2958 58.7703 44.1127 55.4077 45.6934L52.6298 46.7739C52.9081 46.9091 53.367 46.9184 53.6775 46.9847L55.7549 47.4732C59.1295 48.2987 67.2625 50.6548 67.1827 55.0598C67.038 55.2598 66.9891 55.5644 66.9045 55.7971C65.5544 59.506 58.2525 61.7134 54.8449 62.4945L50.8071 63.295C48.4767 63.646 46.0953 63.808 43.7435 63.9313L38.0087 63.9277L33.9594 63.6661C28.5563 63.1528 15.875 60.8357 14.6196 55.3138C14.5822 55.1494 14.5601 54.8749 14.4343 54.7636ZM39.9915 16.4798C39.8524 16.9101 39.4667 17.1956 39.1524 17.4958L35.1011 21.2636L28.1974 28.0716L20.9603 35.4198C20.8192 35.5733 20.6852 35.7628 20.4996 35.8656L20.4347 35.8944L22.0201 37.5691C22.5539 38.104 23.2109 38.5213 23.8078 38.982C25.7668 40.6723 31.1551 42.7516 33.9772 42.7191L37.4458 43.0157C38.5779 43.0969 39.7259 43.0671 40.8608 43.0663C42.191 43.0654 43.4858 43.1051 44.8066 42.9311C44.8773 42.7673 45.0798 42.6237 45.2149 42.5102L46.0515 41.8102C46.6113 41.3276 47.1095 40.7764 47.6407 40.2632L51.3574 36.7493L62.1771 25.7385C62.0251 25.4048 61.8043 25.1185 61.586 24.8262C58.7172 20.9844 54.3367 18.6319 49.7615 17.4344C48.771 17.1751 47.7497 16.9091 46.7251 16.8448C46.3703 16.7717 46.0076 16.735 45.6485 16.689L43.0664 16.4957L40.9819 16.4589C40.6521 16.4561 40.3199 16.4428 39.9915 16.4798Z" fill="#F2EEF1"/>
<path d="M32.3864 45.8086L47.9148 45.7926C48.4899 45.7928 49.1053 45.7504 49.6759 45.8049C50.3627 45.8705 50.9942 46.9833 49.2764 46.9737C49.0976 46.973 48.9013 46.9562 48.7208 46.9543L36.3209 46.9068L33.3658 46.9577C32.9421 46.9602 32.4785 47.0366 32.0621 46.9904C31.2571 46.901 30.9528 45.8772 32.3864 45.8086Z" fill="#A56ED5"/>
<path d="M62.1767 25.7384C63.9 29.0675 63.9155 31.7978 61.7922 35.0875C59.4568 38.7056 54.9606 41.0566 50.8698 42.2282C48.9098 42.7897 46.8361 42.9329 44.8062 42.9286C44.8768 42.7672 45.0794 42.6236 45.2144 42.5101L46.0511 41.8101C46.6108 41.3275 47.1091 40.7763 47.6402 40.2631L51.3569 36.7492L62.1767 25.7384Z" fill="#D9DDDD"/>
<path d="M39.3228 48.2581L44.1464 48.2706C44.792 48.2997 45.4402 48.4034 46.0847 48.4578L49.7744 48.8348C53.2129 49.3222 66.6701 52.2398 58.5039 56.8393C54.9693 58.8301 49.4036 59.4871 45.3785 59.7868L42.5008 59.94L38.8789 59.9433C34.6636 59.7598 28.2983 59.1267 24.3932 57.4578C21.5733 56.2526 18.6174 54.001 22.6399 51.6155C24.6118 50.446 27.6623 49.6386 29.9429 49.2289L34.3357 48.6471C35.9912 48.4575 37.6556 48.2653 39.3228 48.2581Z" fill="#CBA1F0"/>
</svg>
