<svg width="81" height="81" viewBox="0 0 81 81" fill="none" xmlns="http://www.w3.org/2000/svg">
<circle cx="40.303" cy="40.6091" r="40" stroke="#D9DDDD" stroke-width="0.606061"/>
<path d="M13.8159 63.6556L66.9708 63.6245C67.066 64.1819 67.1664 64.8118 67.1197 65.3655C66.8754 67.3621 65.1382 68.8249 63.2744 69.3109L63.0395 69.3572C62.2922 69.4587 61.5038 69.4104 60.7499 69.4106L18.9748 69.4116C18.6384 69.4111 18.2938 69.4255 17.9585 69.3975C15.7067 69.2095 13.8622 67.3907 13.5923 65.1551C13.564 64.6622 13.5807 64.1 13.8159 63.6556Z" fill="#A56ED5"/>
<path d="M13.8159 63.6556L66.9708 63.6245C67.066 64.1819 67.1664 64.8118 67.1197 65.3655L13.5923 65.152C13.564 64.6622 13.5807 64.1 13.8159 63.6556Z" fill="#915FBD"/>
<path d="M21.268 44.2278C21.8063 44.4887 22.561 44.4029 23.1408 44.404L58.7698 44.4048C59.0463 44.4045 59.3558 44.3807 59.6284 44.4166L64.9706 58.4045L66.2572 61.4777C66.552 62.198 66.8368 62.8624 66.9713 63.6351L13.8164 63.6324C14.0197 63.2544 14.1371 62.7642 14.298 62.3389L20.7415 45.5906C20.9009 45.1449 21.0286 44.6358 21.268 44.2278Z" fill="#F2EEF1"/>
<path d="M39.4597 47.6058L39.5032 47.6009C40.6074 47.4868 42.0316 47.8168 42.8994 48.5574C43.727 49.2635 43.9097 50.3917 43.1773 51.2498C42.4998 52.0438 41.523 52.3667 40.5315 52.4249C39.4243 52.4512 38.0634 52.2722 37.1665 51.5262C36.3133 50.8164 36.0646 49.7117 36.7895 48.8068C37.4402 47.9948 38.4862 47.694 39.4597 47.6058Z" fill="#CBA1F0"/>
<path d="M55.3852 56.0962L55.4395 56.0903C56.8198 55.9529 58.6001 56.3504 59.6849 57.2423C60.7193 58.0927 60.9477 59.4515 60.0322 60.485C59.1852 61.4412 57.9643 61.8301 56.7249 61.9002C55.3409 61.9319 53.6398 61.7163 52.5187 60.8178C51.4521 59.963 51.1413 58.6325 52.0474 57.5427C52.8608 56.5647 54.1683 56.2024 55.3852 56.0962Z" fill="#CBA1F0"/>
<path d="M23.8705 56.0962L23.9248 56.0903C25.3052 55.9529 27.0854 56.3504 28.1702 57.2423C29.2046 58.0927 29.4331 59.4515 28.5176 60.485C27.6706 61.4412 26.4497 61.8301 25.2103 61.9002C23.8262 61.9319 22.1252 61.7163 21.004 60.8178C19.9375 59.963 19.6266 58.6325 20.5328 57.5427C21.3461 56.5647 22.6537 56.2024 23.8705 56.0962Z" fill="#CBA1F0"/>
<path d="M53.0517 47.6057L53.0988 47.6008C54.2951 47.4867 55.838 47.8167 56.7781 48.5573C57.6746 49.2634 57.8726 50.3916 57.0791 51.2497C56.3451 52.0437 55.287 52.3666 54.2128 52.4248C53.0133 52.4511 51.5391 52.2721 50.5674 51.5261C49.6431 50.8163 49.3737 49.7116 50.159 48.8067C50.8639 47.9947 51.9971 47.6939 53.0517 47.6057Z" fill="#CBA1F0"/>
<path d="M27.5547 52.4003L27.5076 52.4052C26.3114 52.5193 24.7685 52.1893 23.8283 51.4487C22.9318 50.7426 22.7339 49.6144 23.5273 48.7563C24.2613 47.9623 25.3195 47.6394 26.3936 47.5812C27.5931 47.5549 29.0673 47.7339 30.039 48.4799C30.9634 49.1897 31.2328 50.2944 30.4474 51.1993C29.7425 52.0113 28.6093 52.3121 27.5547 52.4003Z" fill="#CBA1F0"/>
<path d="M39.3968 55.8387L39.4284 55.8342C40.7332 55.6942 42.3593 56.1207 43.3965 56.9216C44.3898 57.6888 44.7853 59.0604 43.9691 60.0911C43.1693 61.1012 41.8516 61.4737 40.6279 61.6162C40.5534 61.6168 40.4308 61.6425 40.3508 61.6463L39.809 61.6559C38.7491 61.6584 37.6145 61.3529 36.7606 60.707C33.883 58.5303 36.7766 56.1291 39.3968 55.8387Z" fill="#CBA1F0"/>
<path d="M21.1248 41.9793C20.9906 41.3764 20.9364 40.7598 20.8721 40.1463L19.9099 30.9134L19.2371 25.6376L18.027 15.088C17.8719 13.9607 17.2276 12.4409 18.7224 11.9404L18.752 11.9291C19.1157 11.7956 19.6257 11.8404 20.0119 11.8437L26.6681 11.777L61.4179 11.7478C61.9632 11.7617 62.5709 12.2175 62.7653 12.7343L62.7815 12.772C63.0636 13.4359 62.6592 15.1598 62.581 15.8879L59.7571 41.4651C59.728 41.6408 59.6795 41.8231 59.6681 42.0003C59.5636 42.5385 59.5257 43.8585 59.6204 44.421C59.3553 44.3806 59.0458 44.4044 58.7693 44.4047L23.1403 44.4039C22.5605 44.4028 21.8058 44.4886 21.2674 44.2312L21.1248 41.9793Z" fill="#D9DDDD"/>
<path d="M21.125 41.9794L58.6463 41.9908C58.9711 41.9898 59.3487 41.95 59.6683 41.9946C59.5638 42.5386 59.5259 43.8585 59.6206 44.421C59.3555 44.3807 59.046 44.4045 58.7695 44.4047L23.1405 44.404C22.5607 44.4028 21.806 44.4886 21.2677 44.2313L21.125 41.9794Z" fill="#A56ED5"/>
<path d="M44.7877 13.1242L60.2223 13.1163C60.3413 13.1164 60.7673 13.0944 60.8428 13.1853C61.3505 13.7966 59.7136 15.0356 59.3678 15.3629L58.0017 16.7032L49.3018 25.7308L38.7215 36.5827C37.4756 37.8619 35.7595 39.1935 35.5151 41.0768C33.6022 40.5526 32.1814 40.6034 30.235 40.6062L23.8651 40.6027C22.6977 40.5971 22.5596 40.7861 22.3949 39.5165L19.8445 17.075C19.6794 15.8024 19.4302 14.5213 19.3408 13.2418C19.4034 13.1847 21.1801 13.1354 21.5866 13.129L44.7877 13.1242Z" fill="white"/>
<path d="M47.0281 17.1826C47.1477 17.1707 47.2493 17.1552 47.3657 17.1935C47.4765 17.8394 45.7052 19.4741 45.2948 19.9118L34.5408 30.8444C33.9565 31.4725 33.3018 32.3758 32.3237 32.0824C30.86 31.3134 33.2663 29.4035 33.8323 28.8651L41.86 20.9642C43.3624 19.5075 44.9292 17.7375 47.0281 17.1826Z" fill="#D9DDDD"/>
<path d="M50.4009 18.7858C50.7412 18.766 51.112 18.8053 51.3892 19.0251L51.4192 19.0495C51.7484 19.3079 51.9429 19.6921 51.8758 20.1198L51.8346 20.3303C51.5384 21.2855 50.3125 22.2167 49.6142 22.8846L41.2146 31.2529C40.3242 32.1381 39.2227 33.4179 37.9292 33.6581C37.4331 33.7385 36.8963 33.6963 36.3941 33.6916C36.3224 33.4329 36.3315 33.0039 36.3786 32.7394L36.3861 32.7001C36.5534 31.7484 37.6361 30.9698 38.2826 30.3364L41.577 27.1333L46.9452 21.6422C47.713 20.871 49.2884 18.9494 50.4009 18.7858Z" fill="#D9DDDD"/>
</svg>
