<svg width="82" height="81" viewBox="0 0 82 81" fill="none" xmlns="http://www.w3.org/2000/svg">
<circle cx="40.8484" cy="40.3726" r="40" stroke="#D4D4D4" stroke-width="0.606061"/>
<g clip-path="url(#clip0_9_5013)">
<path d="M14.1539 54.5271C14.2879 54.6384 14.31 54.9129 14.3474 55.0773C15.6028 60.5992 28.284 62.9163 33.6872 63.4296L37.7365 63.6912L43.4713 63.6948C45.8231 63.5715 48.2045 63.4096 50.5349 63.0585L54.5726 62.258C57.9803 61.4769 65.2822 59.2695 66.6323 55.5606C66.7169 55.3279 66.7658 55.0233 66.9105 54.8233L66.9209 61.6297C66.6428 64.3482 62.2948 66.4547 60.1052 67.331C56.36 68.8298 52.2484 69.6504 48.2455 70.0572L38.7481 70.4054C38.4688 70.3989 38.1954 70.3519 37.9195 70.3434L36.2011 70.3112C35.9894 70.302 35.7852 70.2657 35.5757 70.2496L33.3853 70.0816C27.9362 69.523 18.5775 67.9006 15.0037 63.4177C14.1161 62.3043 14.1144 61.3067 14.1132 59.9607L14.1127 55.8775C14.1128 55.4278 14.0995 54.9742 14.1539 54.5271Z" fill="#C2C2C2"/>
<path d="M14.1623 54.527C14.5248 50.2319 22.7393 47.9273 26.155 47.144C27.0378 46.9414 27.9666 46.6916 28.8685 46.603C28.5333 46.4845 28.1875 46.4123 27.8545 46.2845C24.6876 45.0692 20.5994 42.817 18.1397 40.6402C10.9203 34.2511 10.8715 25.5443 17.7414 19.1843C23.9033 13.4798 33.9377 10.9492 42.2921 11.2766C45.7142 11.4108 50.4856 12.3648 53.644 13.4947C59.1057 15.4486 64.7328 19.0711 67.2667 24.4276C69.7425 29.6616 68.2416 35.1436 64.3437 39.315C61.7793 42.0592 58.4983 43.8761 55.1357 45.4568L52.3578 46.5373C52.6361 46.6725 53.095 46.6819 53.4055 46.7481L55.4829 47.2367C58.8576 48.0622 66.9905 50.4182 66.9107 54.8232C66.7661 55.0232 66.7172 55.3278 66.6325 55.5605C65.2824 59.2694 57.9805 61.4768 54.5729 62.258L50.5351 63.0584C48.2047 63.4095 45.8234 63.5714 43.4716 63.6948L37.7367 63.6911L33.6875 63.4295C28.2843 62.9162 15.6031 60.5991 14.3476 55.0772C14.3103 54.9128 14.2882 54.6383 14.1623 54.527ZM39.7195 16.2432C39.5805 16.6735 39.1947 16.959 38.8804 17.2593L34.8292 21.0271L27.9254 27.835L20.6884 35.1833C20.5472 35.3367 20.4132 35.5262 20.2276 35.6291L20.1627 35.6578L21.7481 37.3325C22.2819 37.8675 22.9389 38.2847 23.5358 38.7454C25.4949 40.4358 30.8831 42.5151 33.7052 42.4825L37.1739 42.7792C38.306 42.8604 39.4539 42.8305 40.5889 42.8297C41.919 42.8289 43.2139 42.8685 44.5346 42.6945C44.6053 42.5307 44.8078 42.3871 44.9429 42.2736L45.7796 41.5737C46.3393 41.0911 46.8376 40.5398 47.3687 40.0267L51.0854 36.5127L61.9051 25.5019C61.7532 25.1682 61.5323 24.8819 61.314 24.5896C58.4453 20.7479 54.0647 18.3953 49.4895 17.1978C48.499 16.9385 47.4777 16.6725 46.4531 16.6083C46.0983 16.5352 45.7356 16.4984 45.3765 16.4524L42.7945 16.2591L40.71 16.2223C40.3802 16.2195 40.0479 16.2063 39.7195 16.2432Z" fill="#EAECEE"/>
<path d="M32.1149 45.572L47.6433 45.556C48.2184 45.5562 48.8338 45.5139 49.4044 45.5683C50.0912 45.6339 50.7227 46.7467 49.0049 46.7371C48.8261 46.7364 48.6298 46.7196 48.4493 46.7177L36.0495 46.6702L33.0943 46.7211C32.6707 46.7236 32.207 46.8 31.7906 46.7538C30.9857 46.6644 30.6813 45.6406 32.1149 45.572Z" fill="#2AA6FF"/>
<path d="M61.9047 25.502C63.628 28.831 63.6436 31.5614 61.5202 34.851C59.1849 38.4692 54.6887 40.8201 50.5979 41.9918C48.6379 42.5532 46.5641 42.6964 44.5342 42.6922C44.6048 42.5307 44.8074 42.3871 44.9424 42.2736L45.7791 41.5737C46.3389 41.0911 46.8371 40.5398 47.3682 40.0267L51.085 36.5127L61.9047 25.502Z" fill="#DEDDDD"/>
<path d="M39.0513 48.0215L43.8749 48.034C44.5205 48.0632 45.1687 48.1668 45.8133 48.2212L49.5029 48.5982C52.9415 49.0856 66.3986 52.0033 58.2324 56.6027C54.6978 58.5936 49.1321 59.2505 45.1071 59.5503L42.2293 59.7034L38.6074 59.7067C34.3921 59.5233 28.0268 58.8901 24.1217 57.2212C21.3019 56.016 18.3459 53.7644 22.3684 51.379C24.3404 50.2095 27.3908 49.402 29.6714 48.9924L34.0642 48.4106C35.7197 48.2209 37.3842 48.0287 39.0513 48.0215Z" fill="#70C3FF"/>
</g>
<defs>
<clipPath id="clip0_9_5013">
<rect width="60.6061" height="60.6061" fill="white" transform="translate(10.2427 10.3726)"/>
</clipPath>
</defs>
</svg>
