<svg width="81" height="82" viewBox="0 0 81 82" fill="none" xmlns="http://www.w3.org/2000/svg">
<circle cx="40.6971" cy="41.221" r="40" stroke="#D4D4D4" stroke-width="0.606061"/>
<path d="M34.0728 33.1214C34.3748 30.8496 35.4905 30.0483 37.3106 28.8728C39.6027 27.3927 43.0826 25.546 43.9403 22.7361C44.3036 23.5048 44.3187 24.3239 44.3207 25.1529L44.4102 30.9158C45.2665 30.5112 45.5043 30.4561 46.2436 29.6903L46.8339 29.0173C47.0054 28.8167 47.1716 28.6035 47.4335 28.524C48.5396 28.6938 48.8349 32.1272 48.7574 32.9857C48.664 33.338 45.7701 33.2355 45.3054 33.2353L35.2372 33.1795C34.8493 33.1573 34.4583 33.1754 34.0728 33.1214Z" fill="#DBDADA"/>
<path d="M31.7976 34.013C31.4035 33.9804 31.0877 33.8792 31.183 33.4236C31.3361 32.691 33.5495 32.9808 34.0731 33.1084C34.4586 33.1753 34.8497 33.1572 35.2375 33.1794L45.3057 33.2352C45.7704 33.2354 48.6644 33.3379 48.7578 32.9856C48.9145 33.1221 50.05 32.979 50.408 33.1C50.7675 33.2214 50.9666 33.4811 51.2742 33.6762L51.2411 33.6923C51.0204 33.802 50.8336 33.9761 50.6026 34.0596C50.6292 34.5004 50.712 35.0188 50.6315 35.4524C50.7578 35.4545 50.8638 35.4645 50.985 35.5006C51.1835 35.7566 50.9868 36.5285 50.7923 36.7545L50.7872 36.7581C50.5896 37.1811 50.6879 37.6987 50.6038 38.152C51.255 37.8218 51.1015 39.2014 50.7005 39.445C50.5007 39.4987 48.9821 39.3745 48.6302 39.3732L36.6621 39.3644C36.2799 39.3604 35.916 39.269 35.5343 39.2575L31.3737 39.2449L31.2268 39.0774C31.0087 38.8029 30.9755 38.5303 31.2716 38.3171C31.4455 38.0794 31.3609 36.8823 31.3293 36.5441C31.2409 36.3634 30.6694 35.5803 31.3602 35.5245C31.47 35.0313 31.6041 34.4796 31.7976 34.013Z" fill="#EAEAE9"/>
<path d="M50.6036 38.1521C51.2549 37.8219 51.1013 39.2015 50.7003 39.4451C50.5005 39.4988 48.9819 39.3746 48.63 39.3733L36.6619 39.3645C36.2797 39.3605 35.9158 39.2691 35.5341 39.2576L31.3735 39.245L31.2266 39.0775C31.0085 38.803 30.9754 38.5304 31.2714 38.3172L34.1769 38.3443L38.3931 38.5993L43.6277 38.5954L49.6583 38.3128C49.9562 38.3043 50.3467 38.3225 50.6036 38.1521Z" fill="#A7A6A6"/>
<path d="M50.6315 35.4579C50.7578 35.4545 50.8638 35.4644 50.985 35.5005C51.1835 35.7566 50.9868 36.5285 50.7923 36.7544L50.7872 36.7581C50.3477 36.7095 49.8758 36.7441 49.4331 36.7447L33.5996 36.684C32.8544 36.6448 32.1057 36.6053 31.3683 36.485L31.3293 36.5441C31.2409 36.3633 30.6694 35.5803 31.3602 35.5244L31.4029 35.5478C32.0358 35.8025 36.4865 35.7779 37.3722 35.7773L44.9801 35.8281C46.195 35.8032 47.4141 35.6427 48.6268 35.5659L49.9598 35.5224C50.1719 35.5144 50.4307 35.525 50.6315 35.4579Z" fill="#A7A6A6"/>
<path d="M31.7973 34.013C31.4032 33.9804 31.0874 33.8792 31.1826 33.4236C31.3358 32.691 33.5491 32.9808 34.0728 33.1084C34.4583 33.1753 34.8493 33.1572 35.2372 33.1794L45.3054 33.2352C45.7701 33.2354 48.664 33.3379 48.7574 32.9856C48.9141 33.1221 50.0497 32.979 50.4076 33.1C50.7671 33.2214 50.9662 33.4811 51.2739 33.6762L51.2407 33.6923C51.0201 33.802 50.8333 33.9761 50.6022 34.0596C50.6289 34.5004 50.7116 35.0188 50.6311 35.4524C50.4304 35.5251 50.1716 35.5144 49.9595 35.5225L48.6265 35.5659C47.4138 35.6427 46.1947 35.8032 44.9797 35.8281L37.3719 35.7773C36.4861 35.7779 32.0354 35.8025 31.4026 35.5478L31.3599 35.5245C31.4696 35.0313 31.6038 34.4796 31.7973 34.013Z" fill="#EAEAE9"/>
<path d="M31.7973 34.0146C31.4032 33.9804 31.0874 33.8792 31.1826 33.4236C31.3358 32.691 33.5491 32.9808 34.0728 33.1084C34.4583 33.1753 34.8493 33.1572 35.2372 33.1794L45.3054 33.2352C45.7701 33.2354 48.664 33.3379 48.7574 32.9856C48.9141 33.1221 50.0497 32.979 50.4076 33.1C50.7671 33.2214 50.9662 33.4811 51.2739 33.6762L51.2407 33.6923C51.0201 33.802 50.8333 33.9761 50.6022 34.0596C50.166 34.0091 49.6509 34.0647 49.2056 34.0655L37.1492 34.0763C35.3714 34.0763 33.5714 34.1336 31.7973 34.0146Z" fill="#A7A6A6"/>
<path d="M56.2535 51.1947L56.2889 53.9127C56.2901 55.4095 56.4745 57.0017 55.3162 58.1454C54.3908 59.0592 53.4492 59.3455 52.2182 59.3438L29.3086 59.3358C27.4603 59.3113 26.0157 58.0972 25.49 56.3263C25.3724 55.9301 25.311 55.529 25.3001 55.1175L25.2896 51.1943L56.2535 51.1947Z" fill="#70C3FF"/>
<path d="M31.3735 39.2385L35.5341 39.2575C35.9158 39.2689 36.2797 39.3603 36.6619 39.3644L48.63 39.3731C48.9819 39.3744 50.5005 39.4986 50.7003 39.4154C50.5264 39.7243 50.6682 40.2631 50.7929 40.5603C51.3174 41.2095 51.0613 41.9524 50.8589 42.6842C52.61 43.2323 54.6442 45.3054 55.4522 46.8676C56.1518 48.2201 56.1217 49.69 56.2534 51.1609L25.288 51.2018C24.9295 48.2209 26.7407 45.3345 29.1595 43.7396C29.9214 43.2371 30.7445 42.8659 31.5477 42.4396C31.002 41.992 30.95 41.4182 31.2823 40.7655L31.3102 40.7133C31.4339 40.3789 31.503 39.9954 31.462 39.6393L31.4555 39.5896C31.44 39.4657 31.4135 39.3569 31.3735 39.2385Z" fill="#DBDADA"/>
<path d="M31.3733 39.2385L35.5339 39.2575C35.9157 39.2689 36.2796 39.3603 36.6618 39.3644L48.6298 39.3731C48.9817 39.3744 50.5003 39.4986 50.7001 39.4154C50.5263 39.7243 50.6681 40.2631 50.7927 40.5603C50.3741 40.5698 49.9664 40.6449 49.5495 40.6629L43.1737 41.0201L39.7986 41.0214C39.5812 41.0142 39.3679 40.9733 39.1489 40.9672L37.4648 40.9523L32.0574 40.78C31.8541 40.7791 31.4814 40.8228 31.3101 40.7304C31.4337 40.3789 31.5028 39.9954 31.4618 39.6393L31.4554 39.5896C31.4399 39.4657 31.4133 39.3569 31.3733 39.2385Z" fill="#EAEAE9"/>
</svg>
