<svg width="82" height="82" viewBox="0 0 82 82" fill="none" xmlns="http://www.w3.org/2000/svg">
<circle cx="41.0003" cy="41.221" r="40" stroke="#D4D4D4" stroke-width="0.606061"/>
<path d="M13.3936 49.706C15.1197 49.2365 17.6892 49.9503 18.78 51.3896C19.386 52.1891 19.6678 53.2032 20.2368 54.0405C22.0383 56.6918 25.4506 57.3225 28.395 56.5539C30.2859 56.0603 32.2244 54.8347 32.8946 52.9131C32.9543 52.7416 32.959 52.5044 33.0855 52.3725L34.3373 62.6423L34.481 64.2317C34.1131 64.3514 33.77 64.6359 33.4579 64.8628L30.1352 67.3508C29.8875 67.5239 29.6297 67.7604 29.3572 67.8851C28.3908 67.5428 27.4554 67.0101 26.5713 66.4965C20.3634 62.8903 15.2566 56.696 13.3936 49.706Z" fill="#70C3FF"/>
<path d="M30.9788 23.3446L29.8975 19.9295C29.4157 18.4993 29.404 18.0686 30.4014 16.8774C33.0488 13.7154 37.7033 12.2761 41.7085 12.5531C45.0842 12.7865 49.9565 14.5798 51.6581 17.7733C52.228 18.8431 51.6565 19.8338 51.2925 20.887L50.754 22.5245C50.4135 23.3261 50.1734 24.2037 49.9124 25.0356L48.4511 29.3977C48.3736 29.5886 48.3008 29.8054 48.1907 29.9802C47.6979 29.8331 47.0825 29.9053 46.57 29.9114L44.7643 29.9242L43.6882 29.9241L41.316 29.9247L40.2268 29.9241H37.8106L36.722 29.9239L35.3786 29.9214L34.106 29.9185C33.8704 29.9172 33.6153 29.8953 33.3826 29.9318C33.0503 29.511 32.8762 28.9682 32.6987 28.4643L30.9788 23.3446Z" fill="#70C3FF"/>
<path d="M40.2263 29.9244L40.2406 25.6325C40.234 25.4412 40.1901 25.251 40.1797 25.0584L40.1629 23.4338C40.1588 23.0231 40.1213 22.5836 40.1632 22.1759C40.2143 21.6794 40.5588 21.0178 41.0214 21.6079L41.0586 21.6541C41.3825 22.0838 41.1874 23.9199 41.2109 24.5228C41.2186 24.7189 41.2683 24.9095 41.2765 25.106L41.2879 27.9404C41.2888 28.5988 41.3306 29.2808 41.2866 29.936L40.2263 29.9244Z" fill="#1286D9"/>
<path d="M36.7218 29.9242L35.3202 24.6267C35.1578 24.0164 34.094 21.4462 35.2356 21.2369L35.2722 21.2341C35.4321 21.3824 35.4884 21.5818 35.5531 21.7836L37.4234 28.643C37.5446 29.0481 37.7753 29.5075 37.8105 29.9242H36.7218Z" fill="#1286D9"/>
<path d="M43.6875 29.9245L43.6942 29.8494C43.7451 29.3884 43.884 28.9267 43.9793 28.473L45.1963 23.6098C45.3812 22.9645 45.5384 22.2754 45.817 21.6626C46.142 20.948 46.7169 21.2793 46.6715 21.8341C46.6458 22.1501 46.5588 22.4658 46.4872 22.7741L44.7636 29.9251L43.6875 29.9245Z" fill="#1286D9"/>
<path d="M13.3941 49.7055C10.1963 39.136 13.0363 27.5199 21.2537 20.1043C22.1256 19.3175 23.2997 18.1414 24.5885 18.4305L24.849 18.493C25.9866 18.8116 26.8924 20.2485 26.54 21.4127L26.5251 21.4595C26.3283 22.0835 25.7652 22.4698 25.2748 22.854L24.2605 23.6701C20.9311 26.3999 18.323 30.0185 16.8565 34.0729C16.5608 34.8907 16.1858 35.923 16.5821 36.7591C17.2296 38.1251 19.0183 37.5489 19.5573 36.371C19.7336 35.9858 19.8463 35.5616 20.0022 35.1659L21.1465 32.6234C23.3861 28.234 26.8082 25.6285 30.9786 23.3445L32.6985 28.4643C32.876 28.9682 33.0501 29.5109 33.3824 29.9369C31.4391 31.5929 31.4669 32.4666 31.6111 34.7744L32.3849 44.7572L33.0846 52.3721C32.9595 52.5039 32.9549 52.7411 32.8951 52.9127C32.2249 54.8342 30.2864 56.0598 28.3956 56.5534C25.4511 57.322 22.0388 56.6913 20.2373 54.04C19.6683 53.2027 19.3865 52.1886 18.7805 51.3891C17.6897 49.9498 15.1202 49.2361 13.3941 49.7055ZM17.0322 39.3095C15.2307 39.6718 15.6298 41.9984 17.2622 41.7884C18.7788 41.4542 18.7477 39.2346 17.0322 39.3095Z" fill="#EAECEE"/>
<path d="M44.7643 29.9244L46.5699 29.9118C47.0825 29.9056 47.6979 29.8334 48.1907 29.9805C49.8898 30.8848 50.0856 31.9118 50.0109 33.6522L48.8627 46.0452C48.7908 46.6669 48.7614 47.3365 48.6224 47.9443L47.2969 61.499C47.2598 61.9573 47.267 62.4993 47.1523 62.9424L47.1203 62.9911C47.0471 63.1536 47.0546 63.3733 47.0441 63.5492L46.9842 64.2697C46.9338 64.9996 46.9525 65.7257 46.8177 66.448C46.5037 68.1297 45.1716 69.5905 43.6121 70.2617C43.4708 70.3224 43.1991 70.3892 43.0958 70.4859L43.177 70.5098L43.1674 70.5249C42.8025 70.5322 42.4426 70.591 42.0779 70.6077L40.5916 70.6128C40.0721 70.6109 38.7408 70.645 38.2784 70.4498C38.3136 70.4188 38.2959 70.4375 38.3291 70.3917C36.4009 69.6928 35.0994 68.0781 34.7395 66.0836L34.4842 64.2316L34.3389 62.6422L33.0862 52.3725L32.3851 44.7577L31.6113 34.7748C31.4671 32.4671 31.4393 31.5934 33.3826 29.9373C33.6153 29.8957 33.8704 29.9176 34.1059 29.9189L35.3785 29.9239L36.7219 29.9244H37.8106H40.2268L41.3159 29.9274L43.6882 29.9244H44.7643ZM33.3826 29.9373C31.4393 31.5934 31.4671 32.4671 31.6113 34.7748L32.3851 44.7577L33.0862 52.3725L34.3379 62.6422C34.9921 62.5394 37.0589 62.7374 37.2384 62.6098L34.6977 40.5151L39.6114 40.5154C40.6664 40.5149 41.5314 40.6321 42.0271 39.5416L41.9429 39.4192C41.5879 38.9292 40.719 39.0388 40.1326 39.0349L36.5541 39.0378C35.8859 39.0415 35.198 39.0444 34.5376 39.1548L34.1869 35.6638C33.8845 33.2629 34.2722 31.8783 35.7808 29.9334L35.3785 29.9239L34.1059 29.9189C33.8704 29.9176 33.6153 29.8957 33.3826 29.9373Z" fill="#DEDDDD"/>
<path d="M44.5206 39.0312C44.6234 39.0049 44.8058 39.029 44.9186 39.029L45.8758 39.0249C45.8877 40.6665 44.7767 40.5085 43.3849 40.5138C41.5892 40.4685 42.1738 40.6421 42.1922 39.1163C42.5556 38.9408 44.0846 39.0322 44.5206 39.0312Z" fill="white"/>
<path d="M40.3672 46.5645C40.7025 46.5361 41.0459 46.5289 41.3711 46.6267C43.0839 47.1422 43.2061 48.583 43.2038 50.029L43.201 57.9315C43.1972 59.5295 42.9444 60.8292 41.1702 61.2267C40.8642 61.2802 40.4517 61.3033 40.1532 61.221L40.1059 61.2071C39.1511 60.9414 38.6107 60.1883 38.3585 59.25L38.3075 59.0348C38.2184 58.5317 38.2716 57.9534 38.2716 57.4409L38.2735 50.6512C38.2741 49.9848 38.2242 49.2799 38.3068 48.6209C38.44 47.5586 39.3318 46.7364 40.3672 46.5645Z" fill="#70C3FF"/>
<path d="M50.754 22.5244C56.1567 25.3799 60.345 30.7799 62.127 36.5626C62.7289 38.5158 62.8678 40.559 62.8598 42.5901L62.8893 42.5415C62.9574 42.4356 63.5819 42.0018 63.7063 41.9152C65.8894 40.3944 68.8915 41.1038 69.3535 43.9281C69.4379 44.444 69.4049 45.1388 69.321 45.6483L69.1043 47.2522C67.3071 58.6308 57.7122 68.4077 46.3091 70.2202C45.2651 70.3863 44.2306 70.4519 43.1769 70.4949L43.0957 70.4855C43.199 70.3888 43.4707 70.322 43.612 70.2613C45.1716 69.5901 46.5036 68.1293 46.8176 66.4476C46.9525 65.7253 46.9338 64.9992 46.9842 64.2693L47.0441 63.5488C47.0545 63.3729 47.0471 63.1532 47.1202 62.9907L47.1438 62.942C47.267 62.4988 47.2598 61.9569 47.2968 61.4986L48.6223 47.9439C48.7613 47.3361 48.7908 46.6665 48.8626 46.0448L50.0108 33.6518C50.0855 31.9114 49.8897 30.8844 48.1906 29.9801C48.3007 29.8053 48.3735 29.5886 48.4511 29.3976L49.9123 25.0355C50.1734 24.2036 50.4134 23.326 50.754 22.5244Z" fill="#EAECEE"/>
<path d="M64.037 49.4887C65.7372 49.2816 66.0661 51.5486 64.5338 52.0862C62.8701 52.1467 62.5355 49.9803 64.037 49.4887Z" fill="white"/>
<path d="M48.6217 47.9442L48.6797 47.9274C51.0323 48.1395 51.7229 44.4928 54.837 44.702C58.9586 44.9791 57.9643 48.9769 60.3618 49.212L60.8729 49.21C59.8097 52.0643 58.0746 54.95 55.9882 57.1993C54.1508 59.1799 49.9849 62.5572 47.1494 62.9423C47.2664 62.4991 47.2591 61.9572 47.2962 61.4989L48.6217 47.9442Z" fill="#70C3FF"/>
</svg>
