<svg width="81" height="81" viewBox="0 0 81 81" fill="none" xmlns="http://www.w3.org/2000/svg">
<circle cx="40.303" cy="40.524" r="40" stroke="#D4D4D4" stroke-width="0.606061"/>
<path d="M29.7119 59.616L50.3124 59.6342L50.2677 66.7856C50.266 68.5391 49.6473 69.7792 47.598 69.7907L33.5348 69.7919C32.9421 69.7921 32.2996 69.8415 31.7157 69.7418C30.094 69.4649 29.7175 68.0763 29.7122 66.6957L29.7119 59.616Z" fill="#70C3FF"/>
<path d="M39.6252 63.5364C41.8248 63.2522 43.96 64.9718 44.158 67.1749C44.2093 67.744 44.1474 68.3407 44.1083 68.9096C43.7171 66.9952 42.6734 65.4305 40.687 64.9128C39.8674 64.7653 39.0456 64.8067 38.2836 65.1638C37.1326 65.7032 36.0497 67.2407 35.8344 68.5074C35.8021 68.0691 35.7281 67.5784 35.7863 67.1419C36.0471 65.1902 37.6901 63.7314 39.6252 63.5364Z" fill="#2AA6FF"/>
<path d="M48.3444 43.1382C48.6953 43.2373 49.0112 43.2292 49.3728 43.2299L50.8215 43.2305C51.1407 43.2305 51.4769 43.2075 51.7913 43.2657L51.8196 43.2704L51.445 46.9909L51.0119 50.6701L50.3181 59.6492L29.7332 59.6187L28.7985 48.6392L28.1982 43.1846L31.7317 43.2671C31.9602 43.6767 32.1291 44.1048 32.3572 44.5038C35.0493 49.2142 42.6604 50.0036 46.3693 46.2485C47.2735 45.333 47.7507 44.2506 48.3444 43.1382Z" fill="#EAECEE"/>
<path d="M48.3444 43.1382C48.6953 43.2373 49.0112 43.2292 49.3728 43.2299L50.8215 43.2305C51.1407 43.2305 51.4769 43.2075 51.7913 43.2657L51.8196 43.2704L51.4248 47.1904C51.3518 47.1961 51.3079 47.012 51.2396 46.9817C50.9926 46.9954 50.9724 47.2976 50.9052 47.4958L50.5903 48.3709C49.2148 51.803 45.1982 53.8585 41.6861 54.2459C37.1245 54.749 32.6885 53.1933 29.8856 49.5011C29.566 49.0801 29.2833 48.599 28.8932 48.2394C28.8804 48.3669 28.8926 48.5514 28.7985 48.6392L28.1982 43.1846L31.7317 43.2671C31.9602 43.6767 32.1291 44.1048 32.3572 44.5038C35.0493 49.2142 42.6604 50.0036 46.3693 46.2485C47.2735 45.333 47.7507 44.2506 48.3444 43.1382Z" fill="#70C3FF"/>
<path d="M28.1946 43.1905L25.0244 15.3176C24.9764 14.8838 24.9055 14.4501 24.9149 14.0119C24.9401 12.8439 25.8647 11.7483 27.0452 11.6207C27.3911 11.5834 27.7549 11.603 28.1034 11.6027L52.8057 11.5913C54.3415 11.6178 55.1944 13.1401 55.119 14.5186C55.0656 15.4962 54.8677 16.4819 54.7754 17.4593L52.1751 39.9268C52.0506 41.037 51.9965 42.1698 51.8187 43.2729L51.7904 43.2656C51.476 43.2074 51.1398 43.2304 50.8206 43.2304L49.372 43.2298C49.0103 43.2291 48.6944 43.2371 48.3435 43.1381C47.7498 44.2505 47.2726 45.3329 46.3684 46.2484C42.6595 50.0035 35.0484 49.2141 32.3563 44.5037C32.1282 44.1047 31.9593 43.6765 31.7309 43.2809L28.1946 43.1905Z" fill="#EAECEE"/>
<path d="M31.7032 43.281C31.4913 42.8625 31.3053 42.1716 31.2326 41.7214C30.3772 36.4168 36.5379 33.3704 41.1346 33.8357C44.5569 34.1821 48.6352 36.7774 48.9369 40.4751C49.0091 41.3602 48.7068 42.3513 48.3159 43.1381C47.7221 44.2506 47.2449 45.333 46.3407 46.2484C42.6318 50.0035 35.0207 49.2141 32.3286 44.5038C32.1005 44.1047 31.9316 43.6766 31.7032 43.281Z" fill="#DEDDDD"/>
<path d="M37.2129 37.7964H43.8796" stroke="#1286D9" stroke-width="0.606061" stroke-linecap="round"/>
<path d="M36.001 39.6145H44.4858" stroke="#1286D9" stroke-width="0.606061" stroke-linecap="round"/>
<path d="M35.3945 41.4326H45.6976" stroke="#1286D9" stroke-width="0.606061" stroke-linecap="round"/>
<path d="M36.001 43.251H44.4858" stroke="#1286D9" stroke-width="0.606061" stroke-linecap="round"/>
<path d="M37.2129 44.7661H43.8796" stroke="#1286D9" stroke-width="0.606061" stroke-linecap="round"/>
</svg>
