<svg width="81" height="81" viewBox="0 0 81 81" fill="none" xmlns="http://www.w3.org/2000/svg">
<circle cx="40.303" cy="40.3726" r="40" stroke="#D4D4D4" stroke-width="0.606061"/>
<path d="M13.8169 63.4188L66.9718 63.3877C67.067 63.9451 67.1673 64.575 67.1207 65.1287C66.8764 67.1253 65.1392 68.5881 63.2754 69.0741L63.0405 69.1204C62.2932 69.2219 61.5048 69.1736 60.7509 69.1738L18.9758 69.1747C18.6393 69.1743 18.2947 69.1887 17.9594 69.1607C15.7076 68.9727 13.8632 67.1539 13.5933 64.9182C13.565 64.4253 13.5817 63.8632 13.8169 63.4188Z" fill="#2AA6FF"/>
<path d="M13.8169 63.4188L66.9718 63.3877C67.067 63.9451 67.1673 64.575 67.1207 65.1287L13.5933 64.9152C13.565 64.4253 13.5817 63.8632 13.8169 63.4188Z" fill="#005DA0"/>
<path d="M21.268 43.9912C21.8063 44.2521 22.561 44.1663 23.1408 44.1675L58.7698 44.1682C59.0463 44.1679 59.3558 44.1441 59.6284 44.18L64.9706 58.1679L66.2572 61.2411C66.552 61.9614 66.8368 62.6258 66.9713 63.3985L13.8164 63.3958C14.0197 63.0178 14.1371 62.5277 14.298 62.1024L20.7415 45.354C20.9009 44.9084 21.0286 44.3992 21.268 43.9912Z" fill="#EAECEE"/>
<path d="M39.4607 47.3693L39.5041 47.3643C40.6084 47.2503 42.0326 47.5803 42.9004 48.3208C43.728 49.0269 43.9107 50.1551 43.1783 51.0133C42.5007 51.8072 41.524 52.1301 40.5325 52.1883C39.4253 52.2146 38.0644 52.0356 37.1675 51.2896C36.3142 50.5798 36.0656 49.4751 36.7905 48.5703C37.4412 47.7582 38.4872 47.4575 39.4607 47.3693Z" fill="#70C3FF"/>
<path d="M55.3862 55.8596L55.4405 55.8537C56.8208 55.7163 58.6011 56.1138 59.6858 57.0057C60.7202 57.8561 60.9487 59.2149 60.0332 60.2484C59.1862 61.2047 57.9653 61.5935 56.7259 61.6637C55.3419 61.6953 53.6408 61.4798 52.5197 60.5813C51.4531 59.7264 51.1422 58.3959 52.0484 57.3061C52.8617 56.3281 54.1693 55.9659 55.3862 55.8596Z" fill="#70C3FF"/>
<path d="M23.8705 55.8596L23.9248 55.8537C25.3052 55.7163 27.0854 56.1138 28.1702 57.0057C29.2046 57.8561 29.4331 59.2149 28.5176 60.2484C27.6706 61.2047 26.4497 61.5935 25.2103 61.6637C23.8262 61.6953 22.1252 61.4798 21.004 60.5813C19.9375 59.7264 19.6266 58.3959 20.5328 57.3061C21.3461 56.3281 22.6537 55.9659 23.8705 55.8596Z" fill="#70C3FF"/>
<path d="M53.0517 47.3693L53.0988 47.3643C54.2951 47.2503 55.838 47.5803 56.7781 48.3208C57.6746 49.0269 57.8726 50.1551 57.0791 51.0133C56.3451 51.8072 55.287 52.1301 54.2128 52.1883C53.0133 52.2146 51.5391 52.0356 50.5674 51.2896C49.6431 50.5798 49.3737 49.4751 50.159 48.5703C50.8639 47.7582 51.9971 47.4575 53.0517 47.3693Z" fill="#70C3FF"/>
<path d="M27.5547 52.1637L27.5076 52.1686C26.3114 52.2827 24.7685 51.9527 23.8283 51.2121C22.9318 50.506 22.7339 49.3778 23.5273 48.5197C24.2613 47.7257 25.3195 47.4029 26.3936 47.3446C27.5931 47.3184 29.0673 47.4973 30.039 48.2433C30.9634 48.9531 31.2328 50.0578 30.4474 50.9627C29.7425 51.7747 28.6093 52.0755 27.5547 52.1637Z" fill="#70C3FF"/>
<path d="M39.3978 55.6021L39.4294 55.5976C40.7342 55.4577 42.3603 55.8842 43.3974 56.6851C44.3908 57.4522 44.7863 58.8238 43.9701 59.8546C43.1703 60.8646 41.8526 61.2371 40.6289 61.3797C40.5544 61.3803 40.4318 61.4059 40.3517 61.4097L39.81 61.4193C38.7501 61.4218 37.6155 61.1163 36.7616 60.4705C33.8839 58.2937 36.7775 55.8926 39.3978 55.6021Z" fill="#70C3FF"/>
<path d="M21.1258 41.7428C20.9916 41.1398 20.9373 40.5232 20.8731 39.9097L19.9109 30.6768L19.2381 25.401L18.028 14.8514C17.8729 13.7241 17.2286 12.2043 18.7234 11.7038L18.753 11.6925C19.1167 11.5591 19.6266 11.6038 20.0129 11.6071L26.6691 11.5404L61.4188 11.5112C61.9642 11.5251 62.5719 11.981 62.7663 12.4978L62.7825 12.5355C63.0646 13.1994 62.6602 14.9232 62.582 15.6514L59.7581 41.2286C59.729 41.4042 59.6804 41.5865 59.6691 41.7637C59.5646 42.302 59.5267 43.6219 59.6214 44.1844C59.3562 44.1441 59.0468 44.1679 58.7703 44.1681L23.1413 44.1674C22.5615 44.1662 21.8067 44.252 21.2684 43.9947L21.1258 41.7428Z" fill="#DFDEDE"/>
<path d="M21.125 41.7427L58.6463 41.7541C58.9711 41.7531 59.3487 41.7134 59.6683 41.7579C59.5638 42.3019 59.5259 43.6219 59.6206 44.1844C59.3555 44.144 59.046 44.1678 58.7695 44.168L23.1405 44.1673C22.5607 44.1661 21.806 44.2519 21.2677 43.9946L21.125 41.7427Z" fill="#2AA6FF"/>
<path d="M44.7886 12.8877L60.2233 12.8797C60.3423 12.8798 60.7683 12.8579 60.8438 12.9488C61.3515 13.56 59.7146 14.799 59.3688 15.1263L58.0027 16.4666L49.3027 25.4942L38.7225 36.3461C37.4766 37.6254 35.7605 38.9569 35.516 40.8402C33.6032 40.316 32.1824 40.3668 30.236 40.3697L23.8661 40.3661C22.6987 40.3606 22.5605 40.5495 22.3959 39.2799L19.8455 16.8384C19.6804 15.5658 19.4312 14.2847 19.3418 13.0053C19.4044 12.9481 21.181 12.8988 21.5875 12.8924L44.7886 12.8877Z" fill="white"/>
<path d="M47.0281 16.946C47.1477 16.9342 47.2493 16.9186 47.3657 16.9569C47.4765 17.6029 45.7052 19.2375 45.2948 19.6753L34.5408 30.6078C33.9565 31.2359 33.3018 32.1392 32.3237 31.8459C30.86 31.0768 33.2663 29.1669 33.8323 28.6285L41.86 20.7276C43.3624 19.2709 44.9292 17.5009 47.0281 16.946Z" fill="#DFDEDE"/>
<path d="M50.4009 18.5492C50.7412 18.5294 51.112 18.5688 51.3892 18.7885L51.4192 18.8129C51.7484 19.0713 51.9429 19.4556 51.8758 19.8832L51.8346 20.0937C51.5384 21.0489 50.3125 21.9801 49.6142 22.648L41.2146 31.0163C40.3242 31.9015 39.2227 33.1813 37.9292 33.4215C37.4331 33.502 36.8963 33.4597 36.3941 33.455C36.3224 33.1963 36.3315 32.7674 36.3786 32.5028L36.3861 32.4635C36.5534 31.5118 37.6361 30.7333 38.2826 30.0999L41.577 26.8967L46.9452 21.4056C47.713 20.6344 49.2884 18.7128 50.4009 18.5492Z" fill="#DFDEDE"/>
</svg>
