<svg width="82" height="82" viewBox="0 0 82 82" fill="none" xmlns="http://www.w3.org/2000/svg">
<circle cx="40.8484" cy="41.221" r="40" stroke="#D4D4D4" stroke-width="0.606061"/>
<path d="M34.0883 32.1974L30.695 18.8369C30.5183 18.1534 30.1296 17.0719 30.2743 16.2669L30.2906 16.1756C30.4935 14.9875 31.0719 14.8353 31.6059 14.4797L33.9281 13.0753C35.4289 12.2895 36.9835 11.7555 38.529 11.4403L39.5345 11.2428L40.6748 11.2257C41.0574 11.2258 41.4447 11.2046 41.8266 11.251L43.8358 11.609C45.0306 11.9118 46.2261 12.3595 47.3903 12.9619L50.4098 14.788C50.7537 14.9989 50.992 15.2363 51.1647 15.8965L51.1983 16.0308C51.4336 16.9666 51.1559 17.7192 50.9402 18.5344L48.3025 28.8659C48.0111 30.0214 47.6567 31.1142 47.4285 32.3239C47.2521 31.987 46.7006 32.1267 46.4787 32.1262L45.2105 32.1258L44.131 32.1263L42.5746 32.1268L41.5952 32.1262L40.0151 32.1263L39.0019 32.1262L37.4222 32.1269L36.4048 32.1259L34.9873 32.1268C34.7229 32.1273 34.4225 32.0755 34.1633 32.1745C34.1402 32.1834 34.1114 32.1978 34.0883 32.1974Z" fill="#70C3FF"/>
<path d="M39.0018 32.1264L38.4188 22.6912C38.3647 21.8631 38.1935 20.3058 38.8631 20.1779C39.4392 20.0679 39.4433 21.6972 39.4669 22.3665L40.015 32.128L39.0018 32.1264Z" fill="#1286D9"/>
<path d="M41.5947 32.1263C41.5938 31.319 41.6431 30.5264 41.6899 29.7162L42.0784 22.9958C42.1091 22.3341 42.0679 21.5349 42.1943 20.9129C42.2833 20.4754 42.5756 19.9433 42.8399 20.1722L42.8582 20.1889C43.3575 20.6365 43.212 21.7749 43.1634 22.5932L42.5742 32.1322L41.5947 32.1263Z" fill="#1286D9"/>
<path d="M36.4047 32.1261C36.3414 31.5693 36.2338 31.0379 36.1398 30.5038L34.8685 22.8436C34.7473 22.2059 34.5102 21.3459 34.7316 20.6956C35.0589 19.7339 35.5337 20.2143 35.7174 21.1525C35.8078 21.6143 35.8626 22.1116 35.9291 22.5878L36.3275 25.3147L37.189 30.6292C37.2616 31.1192 37.3764 31.632 37.4221 32.13L36.4047 32.1261Z" fill="#1286D9"/>
<path d="M44.1313 32.1262C44.0885 31.8962 44.3165 30.9224 44.3632 30.641L45.77 22.0127C45.864 21.3193 46.0239 19.6893 46.6105 20.2559C47.1801 20.806 46.8484 22.0936 46.7211 22.8686L45.2108 32.1176L44.1313 32.1262Z" fill="#1286D9"/>
<path d="M45.2103 32.1262H46.4785C46.7004 32.1267 47.252 31.987 47.4284 32.3239L47.4684 32.4012C47.6619 32.6079 47.5982 34.9849 47.5984 35.4896L47.5986 39.572C47.6788 40.212 47.3622 42.2275 47.2761 42.8883L46.0777 51.7479L44.3031 64.3626C43.8593 67.3925 43.4111 69.6968 41.7061 70.9685C41.3272 71.2512 40.9369 71.4631 40.5257 71.3384L40.3964 71.2968C39.0906 70.723 38.0227 68.6968 37.614 66.2732L36.6808 59.8393L34.1593 41.5567L34.0188 40.3202C33.9941 40.0682 33.9584 39.7755 33.9899 39.5209C34.0045 39.3549 33.9969 39.1737 33.9964 39.0057L33.9953 34.6172C33.9955 33.8975 33.9684 33.1286 34.0323 32.4185L34.0356 32.3828C34.0442 32.2862 34.0529 32.2633 34.0882 32.1975C34.1112 32.1978 34.14 32.1834 34.1631 32.1745C34.4223 32.0755 34.7228 32.1273 34.9871 32.1268L36.4046 32.126L37.4221 32.1262H39.0018H40.0149H41.595L42.5744 32.1279L44.1308 32.1276L45.2103 32.1262Z" fill="#EAECEE"/>
<path d="M40.7761 62.9645C41.4172 62.8865 42.1425 64.1932 41.9604 65.4758L41.9529 65.5268C41.8157 66.5147 41.4701 67.0804 40.9449 67.2891C39.5709 67.5042 39.078 63.2737 40.7761 62.9645Z" fill="#DBDBDA"/>
<path d="M40.5881 43.3438C41.5125 43.1212 42.4063 44.2795 42.7761 45.8768C43.4026 48.5827 42.5017 51.3135 41.0267 51.823L40.9664 51.8388C39.0576 52.2739 37.8861 47.7445 39.1034 44.8866C39.481 44.0002 39.996 43.4523 40.5881 43.3438Z" fill="#DBDBDA"/>
<path d="M45.2103 32.1262H46.4785C46.7004 32.1267 47.2519 31.987 47.4284 32.3239L47.4684 32.4012C47.6619 32.6079 47.5982 34.9849 47.5984 35.4896L47.5986 39.572L47.5926 39.5533C47.4955 39.5849 47.3679 39.5439 47.268 39.5402L33.9899 39.5332C34.0045 39.3549 33.9969 39.1737 33.9964 39.0057L33.9953 34.6172C33.9955 33.8975 33.9684 33.1286 34.0323 32.4185L34.0356 32.3828C34.0442 32.2862 34.0529 32.2633 34.0882 32.1975C34.1112 32.1978 34.14 32.1834 34.1631 32.1745C34.4223 32.0755 34.7228 32.1273 34.9871 32.1268L36.4046 32.126L37.4221 32.1262H39.0017H40.0149H41.595L42.5744 32.1279L44.1308 32.1276L45.2103 32.1262Z" fill="#DBDBDA"/>
</svg>
