<svg width="81" height="81" viewBox="0 0 81 81" fill="none" xmlns="http://www.w3.org/2000/svg">
<circle cx="40.6971" cy="40.524" r="40" stroke="#D4D4D4" stroke-width="0.606061"/>
<path d="M46.1544 22.3101C46.3062 22.2669 46.4177 22.2454 46.5777 22.2608L46.634 22.2659C48.1076 22.4089 49.374 23.4508 49.3824 25.0008L49.3823 26.0428C49.3807 27.3783 49.3393 28.7226 49.4324 30.0552C49.1586 29.8965 48.7097 29.9082 48.3947 29.8941L33.5348 29.8418C33.0402 29.8353 32.5023 29.7428 32.0186 29.8508L32.0253 28.8029L32.0375 26.6107C32.0434 24.4318 31.8109 22.4073 34.6376 22.3927C34.8248 22.3917 35.2543 22.439 35.412 22.3497L35.4396 22.3284C35.8592 22.2359 36.3352 22.277 36.7604 22.2772L42.9871 22.2799C43.5909 22.2805 44.2417 22.2335 44.8386 22.3081L45.7472 22.3749C45.8674 22.3753 46.0312 22.3884 46.1453 22.3524L46.1544 22.3101Z" fill="#DAD9D9"/>
<path d="M46.1544 22.3101C46.3062 22.2669 46.4177 22.2454 46.5777 22.2608L46.634 22.2659C48.1076 22.4089 49.374 23.4508 49.3824 25.0008L49.3823 26.0428C49.3807 27.3783 49.3393 28.7226 49.4324 30.0552C49.1586 29.8965 48.7097 29.9082 48.3947 29.8941L33.5348 29.8418C33.0402 29.8353 32.5023 29.7428 32.0186 29.8508L32.0253 28.8029C32.3861 28.7312 32.7013 28.6648 33.0834 28.6425L43.1491 28.552C44.2834 28.5146 45.8281 28.5199 46.8016 27.8765L46.9237 27.7942C48.3853 26.7449 48.089 24.5627 47.1195 23.2808C46.8715 22.9529 46.5845 22.6551 46.2876 22.3714L46.1453 22.3334L46.1544 22.3101Z" fill="#C9C8C8"/>
<path d="M35.4402 22.2953C35.3456 21.8062 35.3596 21.3067 35.3598 20.7939L35.3579 17.4071C35.3573 17.1177 35.3409 16.8189 35.3721 16.5315L35.3761 16.4979C34.5474 16.5152 33.5782 16.7294 33.0466 15.8959C32.783 15.4827 32.8056 14.9689 32.9102 14.5111C33.4464 12.1655 36.2995 11.1523 38.4911 11.1426L49.2054 11.1335C49.4039 11.1332 49.6325 11.1155 49.8255 11.1641L49.8631 11.1743C51.168 11.5132 51.062 12.8393 51.0621 13.9281C51.0622 14.8383 51.3043 14.8672 50.4785 15.1433L47.6756 15.9806C47.1242 16.1536 46.5807 16.398 46.0255 16.5468L45.9901 16.556L46.0704 20.5729C46.0718 21.1432 46.0627 21.7453 46.1481 22.3101L46.1459 22.3334C46.0318 22.3884 45.868 22.3753 45.7478 22.3749L44.8392 22.3426C44.2423 22.2335 43.5914 22.2805 42.9876 22.2799L36.761 22.2772C36.3358 22.2771 35.8598 22.2359 35.4402 22.2953Z" fill="#70C3FF"/>
<path d="M44.8389 22.3426L44.8593 16.5629C45.2003 16.5446 45.6614 16.4667 45.9898 16.5559L46.07 20.5728C46.0715 21.1431 46.0624 21.7453 46.1478 22.31L46.1456 22.3333C46.0315 22.3884 45.8676 22.3752 45.7475 22.3749L44.8389 22.3426Z" fill="#2AA6FF"/>
<path d="M23.5195 61.0362C23.6216 61.0461 23.7697 61.0274 23.8759 61.0273L44.3598 60.9647C44.7029 60.9661 45.0399 61.0173 45.3801 61.0215L52.2002 61.0137C52.4083 61.0055 52.6134 60.9693 52.8219 60.9667L56.2309 60.9588C56.9068 60.9516 57.5989 60.818 58.2674 60.9577L57.5286 63.9096C57.3372 64.6377 57.2139 65.414 56.9252 66.1109C56.3978 67.3834 55.1949 68.2677 53.8565 68.5207C53.0899 68.6657 52.2206 68.593 51.4402 68.5933L47.4018 68.5937L47.3316 68.6349C48.4795 68.7733 46.8092 69.9357 46.8289 70.3317L46.8985 70.3909H46.69H45.8751H36.3281H34.2214C34.3582 69.8645 33.355 69.3437 34.1304 68.679L33.6522 68.6413C33.5403 68.6349 33.402 68.6151 33.2836 68.6138L32.473 68.6038C30.5614 68.5846 28.584 68.7105 26.751 68.0485C25.242 67.5035 24.9087 65.8012 24.5226 64.434L23.8531 62.0795C23.7568 61.7463 23.6857 61.3916 23.5388 61.0769L23.5195 61.0362ZM45.8705 68.5943L43.9416 68.5937L36.6046 68.5978C36.4014 68.5976 36.151 68.5655 35.9547 68.5949L34.47 68.5965C34.2016 68.5982 33.9184 68.5843 33.6522 68.6413L34.1304 68.679C33.355 69.3437 34.3582 69.8645 34.2214 70.3909H36.3281H45.8751H46.69H46.8985L46.8289 70.3317C46.8092 69.9357 48.4795 68.7733 47.3316 68.6349L47.4018 68.5933L45.8705 68.5943Z" fill="#DAD9D9"/>
<path d="M45.8701 68.5943L47.4015 68.5934L47.3313 68.635C48.4792 68.7733 46.8088 69.9357 46.8286 70.3318L46.8982 70.391H46.6896H45.8747H36.3278H34.2211C34.3578 69.8646 33.3546 69.3438 34.1301 68.6791L33.6519 68.6413C33.9181 68.5844 34.2012 68.5983 34.4697 68.5966L35.9544 68.5949C36.1507 68.5656 36.401 68.5977 36.6043 68.5979L43.9413 68.5938L45.8701 68.5943ZM43.9413 68.5935L42.9971 68.6002C43.4375 68.6019 44.4197 68.4818 44.8014 68.7291L45.8682 68.7183C45.8751 68.6682 45.8739 68.6308 45.8701 68.5943L43.9413 68.5935Z" fill="url(#paint0_linear_9_4954)"/>
<path d="M43.9417 68.5935L45.8705 68.5943C45.8743 68.6308 45.8755 68.6682 45.8687 68.7183L44.8018 68.7291C44.4201 68.4818 43.4379 68.6019 42.9976 68.6002L43.9417 68.5935Z" fill="#C9C8C8" fill-opacity="0.627451"/>
<path d="M32.0189 29.8509C32.5027 29.7429 33.0406 29.8354 33.5351 29.8419L48.3951 29.8942C48.7101 29.9083 49.159 29.8966 49.4401 30.0553C49.5716 30.1502 50.0538 30.1158 50.2306 30.117C54.7586 30.1489 58.5871 32.2488 60.0466 36.7963L60.3036 37.6391C60.3609 37.8299 60.4741 38.0483 60.4333 38.2505L60.3832 38.2292C60.1771 38.2562 60.2906 38.3088 60.4275 38.3116L60.5241 38.4387L21.064 38.3871C22.0063 34.3064 24.2234 31.5952 28.3222 30.5224C28.9597 30.3555 29.6247 30.2672 30.2725 30.1489C30.8113 30.0504 31.7803 30.2924 32.0189 29.8509Z" fill="#DAD9D9"/>
<path d="M21.0638 38.3748L60.524 38.4335C60.8492 38.964 61.2253 42.0672 61.2839 43.0619L61.3038 44.7558C61.3018 45.5852 61.2331 46.3951 61.1871 47.2222L61.0821 49.3559C61.0029 50.4268 60.7508 51.5206 60.5403 52.574L60.1184 54.389L59.0314 58.2285C58.7639 59.1387 58.4728 60.0295 58.2671 60.9576C57.5987 60.8179 56.9065 60.9516 56.2306 60.9587L52.8217 60.9666C52.6131 60.9692 52.4081 61.0054 52.2 61.0136L45.3798 61.0214C45.0396 61.0173 44.7026 60.966 44.3595 60.9646L23.8756 61.0272C23.7694 61.0273 23.6213 61.046 23.5193 61.0245C23.3107 60.8253 23.2401 60.3769 23.1582 60.0987L21.4902 53.4976L20.8653 49.9422L20.4424 45.7633C20.2958 43.1327 20.4768 40.9661 21.0638 38.3748Z" fill="#70C3FF"/>
<path d="M41.7309 41.312C42.2322 41.302 42.7465 41.2794 43.245 41.3456C46.7697 41.8135 50.5011 45.0488 50.7185 49.1375C50.9759 53.9793 46.8508 57.3798 42.7384 57.6417C41.2024 57.7562 39.5893 57.4227 38.2035 56.6718C33.9156 54.3482 32.1833 48.8438 35.4832 44.7155C37.0217 42.7907 39.3924 41.4781 41.7309 41.312Z" fill="#EAECEE"/>
<path d="M39.446 47.9668C40.735 47.9962 40.7073 50.3293 39.6355 50.391C38.4046 50.2928 38.207 48.1822 39.446 47.9668Z" fill="#70C3FF"/>
<path d="M44.8479 47.9695C46.0528 47.8767 46.295 50.1954 45.0896 50.3886C43.8936 50.4767 43.6539 48.1899 44.8479 47.9695Z" fill="#70C3FF"/>
<path d="M40.0783 52.8167C40.3294 52.7875 40.4304 53.1846 40.5321 53.3984C41.2365 54.8783 43.0696 54.9189 43.9091 53.5904C44.0282 53.4018 44.1407 52.9749 44.3135 52.8787C44.6923 52.6681 44.7356 53.3569 44.597 53.7368C43.5824 55.9252 40.5181 55.6179 39.8734 53.4975C39.7781 53.1836 39.7935 52.9238 40.0783 52.8167Z" fill="#70C3FF"/>
<defs>
<linearGradient id="paint0_linear_9_4954" x1="41.789" y1="72.1114" x2="39.8625" y2="66.4973" gradientUnits="userSpaceOnUse">
<stop stop-color="white" stop-opacity="0.521569"/>
<stop offset="1" stop-color="#FEFDFB" stop-opacity="0.764706"/>
</linearGradient>
</defs>
</svg>
