<svg width="82" height="81" viewBox="0 0 82 81" fill="none" xmlns="http://www.w3.org/2000/svg">
<circle cx="41.0003" cy="40.3726" r="40" stroke="#D4D4D4" stroke-width="0.606061"/>
<path d="M33.5506 39.44L33.5211 37.6375C33.1754 37.5299 32.7323 37.549 32.3658 37.4874L29.6695 36.9306C26.0477 36.0708 21.8714 34.5023 18.9716 32.0703C16.3177 29.8444 14.5841 26.5573 15.6907 23.0651C17.2843 18.0363 23.2558 15.1005 28.0245 13.6988L30.7585 12.9792C32.4613 12.6145 34.2011 12.3916 35.9328 12.2183L38.6726 11.9946L43.1357 11.9949L46.145 12.2576C52.7119 13.0021 61.9699 15.5471 65.1989 21.7953C67.6384 26.5161 64.9686 30.3622 61.1458 33.0142C57.7801 35.3491 52.7763 36.9107 48.8056 37.4797L48.1115 37.5561C48.0375 37.5639 47.929 37.558 47.8689 37.6013L47.8713 39.4292L47.0669 39.2571L47.0796 37.5477C47.0823 36.9864 47.0575 36.3118 47.2583 35.7829C47.4466 35.7359 47.5219 35.7332 47.664 35.5982C47.7235 35.6742 47.7028 35.7503 47.7847 35.8047C53.3003 35.0358 61.2961 32.6099 62.9067 26.6904C63.6954 23.7915 61.3625 21.0435 59.1656 19.4955L57.8574 18.6661C57.2478 18.2929 56.5993 17.8866 55.9061 17.6981L55.886 17.7089L52.2963 16.5613C52.1189 16.504 51.9283 16.3955 51.7649 16.3061L51.8097 16.2913C51.8917 16.3265 51.9475 16.3183 52.0329 16.3076L52.0661 16.3032L49.2997 15.7004C47.4015 15.3496 45.4927 15.1425 43.5682 15.0119L41.395 14.921C40.8924 14.918 40.385 14.9015 39.8833 14.932L38.3368 14.9312C32.7138 15.1399 24.7223 16.8902 20.7307 20.8537C15.6578 25.891 19.8363 30.7935 25.2549 33.2097L27.1237 33.9471C29.0335 34.6613 31.3167 35.3882 33.3665 35.6031C33.7027 35.6384 34.141 35.5856 34.4354 35.7411L34.4541 35.7576L34.5731 39.1708C34.2566 39.2808 33.8716 39.312 33.5506 39.44Z" fill="#EAECEE"/>
<path d="M52.0668 16.3034C52.2768 16.3209 52.4846 16.3857 52.6887 16.4372L56.3355 17.486C56.5605 17.5478 56.853 17.632 57.062 17.7269C56.9175 17.7268 56.7315 17.7536 56.604 17.6973L56.4979 17.6768C56.4116 17.6544 56.0079 17.6143 55.938 17.6677L55.9068 17.6984L55.8867 17.7091L52.297 16.5616C52.1196 16.5043 51.929 16.3958 51.7656 16.3064L51.8104 16.2915C51.8924 16.3268 51.9482 16.3185 52.0336 16.3079L52.0668 16.3034Z" fill="#DCD4C5"/>
<path d="M17.5149 51.0594L17.5955 50.9634C17.6632 51.1671 17.6902 51.3802 17.7455 51.587C18.7022 55.1666 23.3119 57.213 26.4466 58.412C29.1002 59.4269 30.7936 59.7852 33.6047 60.172C40.2107 61.0806 47.5663 60.976 53.9014 58.8583C57.2775 57.7296 61.8523 55.7636 63.5517 52.3568C63.682 52.0957 63.7622 51.7611 63.9269 51.5287L63.9222 55.7037C63.9201 56.7543 63.9741 57.8206 63.6917 58.8457C62.6391 62.6659 57.6382 65.2875 54.2544 66.5479L51.576 67.4442C49.7917 67.9455 47.9486 68.2824 46.1132 68.526L42.9774 68.7977C38.8827 69.0293 34.8713 68.6899 30.8879 67.6672L28.2381 66.9396C24.3015 65.6669 18.1087 62.4331 17.5669 58.063C17.4678 57.2632 17.5153 56.421 17.515 55.6144L17.5149 51.0594Z" fill="#C2C2C2"/>
<path d="M39.8836 14.9254C40.3852 14.9014 40.8927 14.9179 41.3953 14.9209L43.5685 15.0119C45.4929 15.1425 47.4018 15.3496 49.3 15.7003L52.0663 16.3031L52.0332 16.3076C51.9477 16.3182 51.892 16.3265 51.8099 16.2912L51.7652 16.3061C51.9286 16.3955 52.1191 16.504 52.2966 16.5613L55.8863 17.7088L55.9064 17.6981C56.5996 17.8865 57.248 18.2929 57.8577 18.666L59.1659 19.4954C61.3627 21.0434 63.6957 23.7915 62.907 26.6904C61.2963 32.6099 53.3006 35.0358 47.785 35.8046C47.7031 35.7503 47.7238 35.6742 47.6642 35.5982C47.5222 35.7331 47.4469 35.7358 47.2586 35.7828C47.0578 36.3117 47.0826 36.9863 47.0798 37.5476L47.0749 39.257C45.6536 39.0822 44.2335 38.9326 42.8094 38.8806L38.8823 38.8805L35.9238 39.0488C35.4815 39.0788 35.0279 39.0857 34.5923 39.1707L34.4636 35.7575L34.4357 35.741C34.1413 35.5855 33.7029 35.6383 33.3668 35.603C31.3169 35.3882 29.0338 34.6613 27.124 33.947L25.2551 33.2097C19.8365 30.7935 15.6581 25.8909 20.731 20.8536C24.7226 16.8901 32.7141 15.1398 38.3371 14.9311L39.8836 14.9254Z" fill="#DEDDDD"/>
<path d="M34.4639 35.7578C34.8296 35.8554 35.3103 35.8745 35.6965 35.8874L46.2812 35.8866C46.5812 35.8796 46.9778 35.8982 47.2589 35.7949C47.0581 36.312 47.0828 36.9866 47.0801 37.5479L47.0751 39.2573C45.6539 39.0825 44.2338 38.9329 42.8096 38.8809L38.8825 38.8808L35.9241 39.0491C35.4817 39.0791 35.0281 39.0861 34.5925 39.171L34.4639 35.7578Z" fill="#202F34"/>
<path d="M39.8836 14.9329C40.3852 14.9016 40.8927 14.9181 41.3953 14.9211L43.5685 15.012C45.493 15.1426 47.4018 15.3497 49.3 15.7005L52.0663 16.3033L52.0332 16.3077C51.9477 16.3184 51.892 16.3266 51.81 16.2914L51.7652 16.3062C51.9286 16.3956 52.1191 16.5041 52.2966 16.5614L55.8863 17.709L55.8709 17.7617C55.6202 18.4225 54.6367 19.4446 54.1659 19.9607L49.7555 24.5027L40.6189 33.6709C40.5133 33.7887 40.4316 33.9151 40.2896 33.9907L37.5724 33.968L33.9827 33.6032C33.5926 33.5565 33.198 33.5569 32.8095 33.4952C32.1505 33.3906 31.4907 33.178 30.8431 33.0158C28.4616 32.4196 24.595 31.3776 22.6426 29.7981C22.8964 29.5532 23.2083 29.348 23.5007 29.1515L26.7746 26.8966C28.1558 25.8363 29.6026 24.8168 30.9068 23.6631L38.7484 15.9847C39.168 15.61 39.4856 15.3247 39.8836 14.9329Z" fill="white"/>
<path d="M45.6336 20.9425C45.9325 20.9177 46.2698 21.1481 46.314 21.4552C46.409 22.1172 45.7106 22.5907 45.2946 22.9907L43.9197 24.3435L38.1281 30.5755C37.8732 30.8626 37.6039 31.2798 37.191 31.3222L37.1621 31.3191C36.2433 31.2053 36.4095 30.4603 36.8452 29.9188C38.5481 27.8026 40.601 25.9697 42.4649 24.0004L43.9609 22.3991C44.3229 21.9972 44.6615 21.4652 45.1148 21.1628L45.1576 21.1353C45.3181 21.0309 45.4461 20.982 45.6336 20.9425Z" fill="#DEDDDD"/>
<path d="M40.5929 18.8391L40.7624 18.8401C41.4351 18.9133 41.5539 19.8382 41.1782 20.2888C40.8476 20.6853 40.4284 21.0247 40.0766 21.4072L34.5667 27.124C34.2937 27.4138 34.0323 27.7465 33.7228 27.9964L33.6873 28.0246C33.5935 28.1002 33.5162 28.1478 33.403 28.1908C32.9325 28.3652 32.2002 27.45 32.9321 26.6262C33.1625 26.3669 33.4348 26.148 33.6762 25.899L38.7408 20.5553C39.2492 20.0296 39.8962 19.0854 40.5929 18.8391Z" fill="#DEDDDD"/>
<path d="M34.5926 39.1709C35.0282 39.0859 35.4818 39.0789 35.9242 39.0489L38.8826 38.8806L42.8097 38.8807C44.2338 38.9327 45.6539 39.0823 47.0675 39.2572L47.8563 39.4293L47.8861 39.4407C48.094 39.5169 48.3185 39.5328 48.5357 39.5695L51.7696 40.222C52.6157 40.4323 53.458 40.718 54.2853 40.9926C58.1094 42.2622 63.4431 44.7018 64.0353 49.201C64.1289 49.9123 64.0687 50.8139 63.9263 51.5286C63.7621 51.7609 63.6819 52.0956 63.5517 52.3567C61.8522 55.7634 57.2774 57.7295 53.9013 58.8581C47.5662 60.9759 40.2106 61.0804 33.6046 60.1718C30.7935 59.7851 29.1001 59.4268 26.4465 58.4119C23.3118 57.2129 18.7021 55.1665 17.7454 51.5868C17.6901 51.38 17.6631 51.167 17.5954 50.9632L17.5121 51.0592C17.3651 46.6717 19.8255 44.4456 23.5983 42.536C25.6402 41.5025 27.856 40.7594 30.074 40.206L31.8323 39.8231C32.4098 39.7143 32.9936 39.6309 33.5512 39.44C33.8722 39.3121 34.2573 39.2808 34.5926 39.1709Z" fill="#EAECEE"/>
<path d="M39.7443 43.497C44.2984 43.4829 49.2131 43.836 53.3312 45.9518C59.0749 48.9025 57.1527 52.3877 51.9253 54.4009C48.7252 55.6332 45.2461 56.12 41.8296 56.1387C40.5772 56.1445 39.2988 56.186 38.0491 56.1136L35.2441 55.806C32.4415 55.4055 29.5789 54.709 27.1601 53.1784C25.1547 51.9094 23.7609 49.7613 25.6519 47.7461C28.6489 44.5525 35.3687 43.6305 39.7443 43.497Z" fill="#70C3FF"/>
</svg>
