<svg width="82" height="81" viewBox="0 0 82 81" fill="none" xmlns="http://www.w3.org/2000/svg">
<circle cx="40.8484" cy="40.524" r="40" stroke="#D4D4D4" stroke-width="0.606061"/>
<path d="M38.4248 16.2286C37.2833 16.5948 36.0926 17.0816 35.0204 17.6131C34.4656 17.8881 33.929 18.3185 33.3378 18.5012C31.4859 19.0735 29.1371 16.0809 32.0296 14.5139L33.7263 13.6815C36.6962 12.2944 40.4089 11.1199 43.6675 12.0946C44.5676 12.3638 45.8383 12.7895 46.2997 13.6824C46.868 14.7822 46.5077 16.1853 45.3706 16.7308C44.3983 17.1972 43.403 16.4576 42.5025 16.1377C41.7996 16.0235 40.0021 16.0554 39.2678 16.1137L38.7426 16.1712C38.6422 16.1868 38.5243 16.2246 38.4248 16.2286Z" fill="#70C3FF"/>
<path d="M38.3954 16.2329C38.5244 16.2245 38.6423 16.1867 38.7427 16.1711L39.2679 16.1135C40.0023 16.0553 41.7997 16.0234 42.5026 16.1301L42.5394 17.7542L42.5301 23.2478C42.8051 23.3015 43.1083 23.2775 43.389 23.278L44.9556 23.273C45.1955 23.2725 45.4909 23.2375 45.72 23.3171C47.1108 23.8003 46.9723 25.2484 46.9742 26.3814L47.0004 29.8687L36.8099 29.8279C36.0303 29.831 35.2537 29.8306 34.4813 29.9532C34.4298 29.5214 34.4392 29.0877 34.4391 28.6505L34.4444 25.46C34.4662 23.7694 35.139 23.2707 36.8285 23.2796L38.3854 23.2939L38.3902 17.6018L38.3954 16.2329Z" fill="#70C3FF"/>
<path d="M38.395 16.2329C38.524 16.2245 38.6419 16.1867 38.7423 16.1711L39.2675 16.1135C40.0019 16.0553 41.7994 16.0234 42.5023 16.1301L42.5391 17.7542C42.1444 17.5611 39.1018 17.6481 38.4076 17.6018L38.395 16.2329Z" fill="#2AA6FF"/>
<path d="M34.4813 29.9622C35.2537 29.8306 36.0303 29.8311 36.8099 29.8279L47.0413 29.8338C48.5147 29.8299 49.9934 30.0697 51.1017 31.1458C51.956 31.9754 52.4794 33.148 52.4937 34.3418L52.4897 40.4387C52.4858 40.7825 52.4296 41.1259 52.4277 41.4737L52.4255 63.915C52.4248 65.4431 52.3189 66.1377 51.1592 67.3043C50.2765 68.1922 49.1667 68.6822 47.9054 68.6792L36.0256 68.6733C35.1032 68.7192 34.1242 68.8128 33.2121 68.6311C31.2543 68.2414 30.0028 66.6162 29.7435 64.6951C29.6909 64.3052 29.7145 63.8917 29.7141 63.498L29.7106 41.5585C29.7085 41.1843 29.6526 40.815 29.648 40.4395L29.6367 34.131C29.6507 32.219 31.381 30.1512 33.3433 30.0007C33.7191 29.9719 34.1116 30.0195 34.4813 29.9622Z" fill="#EAECEE"/>
<path d="M40.2491 41.8552C43.075 41.6231 46.3609 43.6233 47.2713 46.3801C48.3383 49.611 47.773 53.2492 45.3142 55.7032C44.2329 56.7826 42.9826 57.5588 41.4791 57.8717L41.4112 57.8835C40.0337 58.1001 38.4974 57.5213 37.3998 56.7067C35.4682 55.2732 34.3206 52.6658 34.0084 50.3349C33.7854 48.67 34.1594 46.1444 35.1927 44.8062C36.3922 43.2528 38.2988 42.1048 40.2491 41.8552Z" fill="#70C3FF"/>
<path d="M44.3025 46.3466C45.1375 46.3045 45.8208 47.4722 44.4067 47.8676C44.2962 47.8759 44.1892 47.886 44.0797 47.8642L44.046 47.857C43.2548 47.6929 43.2078 46.5995 44.3025 46.3466Z" fill="#2AA6FF"/>
<path d="M37.6127 46.375C38.8175 46.3234 38.7197 47.9085 37.7356 47.9795C36.5631 47.8745 36.5078 46.6603 37.6127 46.375Z" fill="#2AA6FF"/>
<path d="M38.379 51.7376C38.6302 51.7084 38.7312 52.1055 38.8329 52.3192C39.5373 53.7992 41.3704 53.8398 42.2099 52.5113C42.329 52.3227 42.4415 51.8958 42.6143 51.7996C42.9931 51.589 43.0364 52.2778 42.8978 52.6577C41.8832 54.8461 38.8189 54.5388 38.1742 52.4184C38.0788 52.1045 38.0943 51.8447 38.379 51.7376Z" fill="#2AA6FF"/>
</svg>
