<svg width="82" height="81" viewBox="0 0 82 81" fill="none" xmlns="http://www.w3.org/2000/svg">
<circle cx="41.0003" cy="40.524" r="40" stroke="#D4D4D4" stroke-width="0.606061"/>
<path d="M33.3994 31.9471V26.0009C33.4004 24.9751 33.6249 24.1072 34.7603 23.7683L34.8086 23.7536C35.3816 23.6614 35.8216 23.6405 36.3332 23.6614V14.8688C36.3343 14.48 36.3046 14.0556 36.3761 13.6728C36.6304 12.3107 37.7565 11.4443 39.1025 11.8265C39.882 12.0478 40.6467 12.3843 41.4135 12.6515C43.1392 13.2529 45.6311 13.7487 45.6546 16.0404L45.6971 23.632L47.3657 23.6564C48.2033 23.7104 48.8956 24.3408 49.1708 25.1029L49.1919 25.1596C49.2967 25.4456 49.2689 25.7585 49.2697 26.0584L49.2774 30.2426C49.2878 30.7482 49.2876 31.4111 49.2774 31.9138L44.6763 31.9471H40.1308H36.1914C35.3924 32.0119 34.173 31.9281 33.3994 31.9471Z" fill="#70C3FF"/>
<path d="M40.1385 31.7673L49.364 31.7341C49.9012 31.8692 50.4435 31.7642 50.9759 31.9027C51.6336 32.0736 52.5754 32.8428 52.6048 33.5962L52.5971 63.5737C52.5988 65.3666 52.6338 66.0221 51.2338 67.3706C49.6899 68.8578 48.2059 68.6513 46.1848 68.6496L36.695 68.6534C35.329 68.6693 34.2982 68.9319 32.858 68.4684C31.09 67.8993 29.9771 66.2025 29.8916 64.3946L29.874 39.5656C29.8726 39.1966 29.8275 38.8456 29.8089 38.48L29.7947 33.9513C29.793 33.765 29.7674 33.5428 29.8298 33.3665L29.8438 33.3299C30.0654 32.7032 30.8044 32.0691 31.4638 31.9199C32.0896 31.7783 32.6489 31.7928 33.3698 31.7928L40.1385 31.7673Z" fill="#D9D9D9"/>
<path d="M40.6026 41.8649C42.106 41.8005 43.5755 42.1826 44.7995 43.0743C46.7102 44.4661 47.4932 45.8134 47.8437 48.0819C48.1842 50.2851 47.7069 52.8568 46.3682 54.6707C45.2174 56.2303 43.3991 57.5855 41.4523 57.8815L41.3107 57.8961C37.3257 58.2493 34.4445 53.612 34.1594 50.132C34.0137 48.3535 34.3952 45.8563 35.569 44.4814C36.8071 43.031 38.6992 42.022 40.6026 41.8649Z" fill="#70C3FF"/>
<circle cx="40.7369" cy="16.1898" r="0.606061" fill="black"/>
<path d="M37.6113 46.4927C39.3299 46.5221 39.293 48.8552 37.8639 48.9169C36.2228 48.8187 35.9593 46.7081 37.6113 46.4927Z" fill="#EAECEE"/>
<path d="M44.207 46.4954C45.8136 46.4026 46.1365 48.7213 44.5293 48.9144C42.9346 49.0026 42.6151 46.7158 44.207 46.4954Z" fill="#EAECEE"/>
<path d="M38.061 51.9492C38.4064 51.9126 38.5452 52.409 38.6851 52.6762C39.6536 54.5262 42.1741 54.5769 43.3284 52.9163C43.4922 52.6806 43.6469 52.1469 43.8845 52.0267C44.4053 51.7635 44.4649 52.6245 44.2743 53.0993C42.8793 55.8348 38.6659 55.4507 37.7794 52.8002C37.6483 52.4078 37.6695 52.083 38.061 51.9492Z" fill="#EAECEE"/>
<path d="M49.3346 27.7213V26.4935C49.3346 25.7815 49.3346 25.2806 49.0396 24.7582C48.6079 23.7921 47.8057 23.6382 46.828 23.6382H46.3602L46.5578 23.8692C46.8265 24.1711 47.0173 24.3145 47.2417 24.6633C48.119 26.0268 48.3871 28.3481 47.0646 29.4644L46.954 29.5519C46.0731 30.2364 44.6753 30.2307 43.649 30.2705L34.5406 30.3667C34.1949 30.3905 33.9096 30.4612 33.5832 30.5373L33.4639 31.6982C34.0197 31.6982 34.3417 31.6913 34.7892 31.6982H48.3957C48.6807 31.7132 49.0887 31.6982 49.3762 31.6982C49.3762 30.2852 49.3331 29.1419 49.3346 27.7213Z" fill="#70C3FF"/>
<path d="M52.504 60.9898C52.5154 61.3298 52.5248 61.7506 52.5248 62.2125C52.5248 63.3853 52.4639 64.8101 52.2255 65.853C52.058 66.5859 51.5986 67.1649 51.0614 67.6011C50.5239 68.0375 49.9175 68.3234 49.4769 68.4703C49.4396 68.4827 49.3437 68.4983 49.1778 68.513C49.0181 68.5271 48.8082 68.5393 48.5545 68.5496C48.0473 68.5702 47.3709 68.5832 46.5831 68.5903C45.0078 68.6045 42.9919 68.5951 41.0035 68.5761C39.0153 68.5572 37.0554 68.5288 35.5926 68.5051C35.5271 68.5041 35.4626 68.503 35.3991 68.502C36.9073 68.3258 38.5067 68.1423 40.0477 67.9655C41.0323 67.8525 41.9931 67.7423 42.8911 67.6384C44.4015 67.4638 45.7345 67.3071 46.7037 67.1858C47.1882 67.1252 47.5827 67.0734 47.8633 67.0325C48.0034 67.0121 48.1165 66.9942 48.1987 66.9791C48.2396 66.9716 48.2747 66.9645 48.3023 66.9578C48.3161 66.9545 48.3298 66.9509 48.3423 66.9469C48.3521 66.9437 48.3715 66.9372 48.3906 66.9257C49.9443 65.9935 51.0361 64.294 51.7369 62.8467C52.0826 62.1328 52.3358 61.4747 52.504 60.9898Z" fill="#C9C8C8" stroke="#C9C8C8" stroke-width="0.30303"/>
</svg>
