<svg width="82" height="81" viewBox="0 0 82 81" fill="none" xmlns="http://www.w3.org/2000/svg">
<circle cx="41.1517" cy="40.3726" r="40" stroke="#D4D4D4" stroke-width="0.606061"/>
<g clip-path="url(#clip0_9_4987)">
<path d="M27.3318 41.2795C30.2852 40.5593 33.275 40.0718 36.2991 39.7743L38.7466 39.5605L42.9457 39.5557C45.6138 39.6506 48.2817 39.9825 50.8967 40.5127L52.7519 40.9008C53.3015 41.0148 53.8962 41.1266 54.4276 41.307C54.9579 41.5264 55.5255 41.657 56.0766 41.8154L58.1322 42.4755C62.4016 43.9971 69.2003 47.3361 69.2095 52.6568L69.1603 54.2311L69.1396 54.2762C69.0426 54.4527 68.9924 54.6536 68.9227 54.8432C68.3241 56.4727 67.1997 57.7067 65.9187 58.8506C62.4079 61.9859 56.9318 63.7003 52.3186 64.6124L48.0405 65.2852L44.6501 65.5661L40.5706 65.6584L35.4292 65.4588C32.5441 65.219 29.7175 64.7477 26.9148 64.0252C22.0574 62.773 14.3397 59.7391 12.7696 54.6718C12.7286 54.5397 12.6898 54.2858 12.5946 54.1923L12.5615 54.1626C12.4747 52.8122 12.4343 51.5185 12.9992 50.2515C14.7809 46.2556 19.8985 43.7975 23.8809 42.3766L25.9155 41.7111C26.3871 41.5707 26.8722 41.4556 27.3318 41.2795Z" fill="#2AA6FF"/>
<path d="M27.3324 41.2798L27.2993 41.2737C26.1838 41.0768 25.8743 41.0019 24.7736 40.5234L23.0794 39.7759C19.8796 38.2968 16.6284 36.4781 14.5467 33.5393C11.2727 28.9173 11.9892 23.822 15.7676 19.6591C20.6985 14.2263 29.523 11.7136 36.7444 10.9989L39.9098 10.8111C41.6794 10.7576 43.4401 10.8395 45.1994 11.0192L47.5816 11.3203C49.9596 11.7382 52.3159 12.24 54.6201 12.9725C60.6885 14.9017 68.3558 19.2673 69.1651 26.122C70.0539 33.6499 62.9027 38.292 56.6839 40.6213L55.1323 41.1346C54.9263 41.1918 54.6065 41.2079 54.4282 41.3073C53.8968 41.1269 53.3021 41.0151 52.7525 40.9012L50.8973 40.513C48.2824 39.9828 45.6144 39.6509 42.9463 39.556L38.7472 39.5608L36.2998 39.7746C33.2756 40.0721 30.2858 40.5597 27.3324 41.2798Z" fill="#EAECEE"/>
<path d="M56.7778 18.5557C59.5449 20.0125 62.2405 21.9415 63.2083 25.0661C64.4782 29.1664 61.0298 32.6179 57.7767 34.4858C54.4937 36.3709 51.0201 37.255 47.3066 37.787L45.0518 38.123C43.2156 38.3316 40.1993 38.4969 38.334 38.2474C38.3586 38.1206 38.4186 38.0138 38.5063 37.9192L45.8542 30.2598L55.833 19.5578C56.1505 19.2354 56.5175 18.9267 56.7778 18.5557Z" fill="#DDDCDC"/>
<path d="M33.8042 37.6652L28.6779 36.479C26.1309 35.6884 23.6421 34.5492 21.6014 32.8082C15.275 27.4112 18.8454 21.8144 24.792 18.7498C28.0645 17.0633 31.7884 16.0676 35.4382 15.645L40.0893 15.3301L43.0961 15.3306L46.1987 15.595L48.3523 15.9536C49.8505 16.2248 51.3199 16.5378 52.7723 17.003C54.1572 17.4046 55.4866 17.9121 56.7771 18.5555C56.5168 18.9265 56.1498 19.2352 55.8323 19.5576L45.8535 30.2596L38.5056 37.919C38.4179 38.0136 38.3579 38.1203 38.3333 38.2472C36.8409 38.1795 35.2601 38.0324 33.8042 37.6652Z" fill="#DDDCDC"/>
<path d="M33.8047 37.6656L52.7728 17.0034C54.1577 17.405 55.4871 17.9125 56.7776 18.5558C56.5173 18.9269 56.1503 19.2356 55.8329 19.5579L45.854 30.2599L38.5062 37.9194C38.4184 38.014 38.3584 38.1207 38.3338 38.2476C36.8414 38.1799 35.2607 38.0328 33.8047 37.6656Z" fill="white"/>
<path d="M12.5588 54.1626L12.595 54.1923C12.6902 54.2858 12.729 54.5397 12.77 54.6718C14.3401 59.7392 22.0578 62.773 26.9152 64.0253C29.7179 64.7477 32.5444 65.2191 35.4296 65.4589L40.571 65.6585L44.6505 65.5661L48.0409 65.2852L52.3189 64.6124C56.9322 63.7004 62.4083 61.986 65.9191 58.8507C67.2001 57.7068 68.3245 56.4727 68.9231 54.8432C68.9928 54.6536 69.043 54.4527 69.14 54.2762L69.1607 54.2311C69.167 54.3613 69.1904 54.5232 69.1918 54.6588L69.1971 57.6427C69.1973 58.0483 69.2242 58.4746 69.169 58.877C68.3839 64.5803 59.7728 67.7558 54.9424 69.0072C52.6934 69.5898 50.4242 70.127 48.1104 70.3622L46.3562 70.5314C45.8617 70.5711 45.3522 70.5885 44.8662 70.6959C44.296 70.8218 43.6241 70.7625 43.0386 70.763L38.1264 70.7627C37.0656 70.7606 36.0631 70.6111 34.9935 70.5234C32.3657 70.308 29.7832 69.8112 27.2309 69.1608L24.7599 68.5001C20.5278 67.2103 13.0926 63.7864 12.5394 58.8242C12.4149 57.7072 12.4607 55.2849 12.5588 54.1626Z" fill="#EAECEE"/>
<path d="M35.9165 44.368C38.792 43.7597 41.74 43.7049 44.6449 44.1345C45.1644 44.2113 45.7637 44.2737 46.2641 44.4286C46.4571 44.3436 46.6238 44.4322 46.8246 44.4575L48.6932 44.6899C51.9925 45.1876 56.1121 46.3776 58.9301 48.0722C62.7907 50.3936 64.0136 53.4911 59.7275 56.573C56.0677 59.2045 51.5727 60.3332 47.1552 60.8998L43.4184 61.2276L38.9726 61.2372C38.0799 61.2323 37.2132 61.1414 36.326 61.0598L30.4413 60.0963C28.0602 59.5741 25.863 58.8449 23.7167 57.6522C19.992 55.5826 17.2626 52.7321 21.1654 49.2816C24.2106 46.5892 29.7101 45.2192 33.6069 44.651L34.7824 44.495C35.1356 44.4425 35.5354 44.3401 35.8918 44.3659L35.9165 44.368Z" fill="#EAECEE"/>
<path d="M52.9471 49.7677C54.823 49.7417 58.2028 50.1507 58.4162 52.4447C58.597 54.3862 55.7714 55.2244 54.2874 55.3504C52.455 55.5308 49.9921 55.0184 48.9937 53.3154C48.5949 52.6348 48.6382 51.7707 49.1645 51.1739C49.9894 50.2386 51.747 49.8368 52.9471 49.7677Z" fill="#70C3FF"/>
<path d="M40.1415 52.7981C42.2519 52.7689 46.0542 53.2289 46.2943 55.8097C46.4977 57.9939 43.3188 58.9368 41.6493 59.0786C39.5879 59.2816 36.8171 58.7051 35.694 56.7892C35.2453 56.0236 35.2941 55.0515 35.8861 54.3801C36.8141 53.3279 38.7914 52.8759 40.1415 52.7981Z" fill="#70C3FF"/>
<path d="M28.0994 49.7677C29.9753 49.7417 33.3551 50.1507 33.5686 52.4447C33.7493 54.3862 30.9237 55.2244 29.4397 55.3504C27.6073 55.5308 25.1444 55.0184 24.1461 53.3154C23.7472 52.6348 23.7906 51.7707 24.3169 51.1739C25.1418 50.2386 26.8993 49.8368 28.0994 49.7677Z" fill="#70C3FF"/>
</g>
<defs>
<clipPath id="clip0_9_4987">
<rect width="60.6061" height="60.6061" fill="white" transform="translate(10.5459 10.3726)"/>
</clipPath>
</defs>
</svg>
