<svg width="82" height="81" viewBox="0 0 82 81" fill="none" xmlns="http://www.w3.org/2000/svg">
<circle cx="41.1517" cy="40.524" r="40" stroke="#D4D4D4" stroke-width="0.606061"/>
<path d="M31.6006 57.3936L50.6366 57.4169C50.8706 57.4297 51.1152 57.4235 51.347 57.4542C51.3955 57.68 51.428 57.9075 51.4369 58.1323L51.4541 65.7031C51.4537 67.0825 51.4516 68.189 49.9037 68.8579C49.5599 69.0065 49.1699 69.1241 48.7958 69.1376L35.4466 69.1504C34.1515 69.1483 32.7758 69.2586 31.9182 68.0635L31.8909 68.0244C31.4689 67.4276 31.4336 66.8393 31.4341 66.1237L31.4354 64.8618C31.4367 63.945 31.393 63.0036 31.4514 62.0901C31.5046 61.2562 31.611 60.796 31.5895 59.9231L31.5702 58.2572C31.5704 57.973 31.5522 57.674 31.6006 57.3936Z" fill="#DEDDDD"/>
<path d="M41.4012 62.4733C41.5267 62.4496 41.6936 62.4609 41.822 62.4631C43.8651 62.4985 46.121 64.1721 46.0901 66.367L41.6149 66.3677L36.916 66.3847C37.176 63.8604 38.9647 62.6476 41.4012 62.4733Z" fill="#9D9D9D"/>
<path d="M31.6024 57.3926C31.6099 56.8445 31.4965 56.2955 31.4122 55.7541L27.2467 28.5919L25.3843 17.4545C25.1691 16.2143 25.0957 15.4593 25.0926 14.2067L25.0908 11.7411L57.766 11.7361L57.7777 14.3626C57.7764 15.4954 57.7586 16.0237 57.5711 17.1311L56.0778 25.9527L52.463 49.3358L51.5048 55.845C51.4157 56.3546 51.2902 56.9421 51.3467 57.4603C51.115 57.4235 50.8704 57.4296 50.6364 57.4169L31.6024 57.3926ZM41.2301 21.0733C35.3434 21.4376 31.0548 26.5847 32.3863 32.4563C33.4004 36.9281 37.0675 39.7549 41.5927 39.771C47.1589 39.5524 50.8445 35.4891 50.6212 29.939L50.5741 29.4629C50.4631 28.8541 50.3947 28.2599 50.2286 27.6606C49.1436 23.7465 45.2947 20.9237 41.2301 21.0733Z" fill="#EAECEE"/>
<path d="M40.9717 45.4422L42.9576 45.4423C43.9181 45.4427 45.8221 45.3681 45.8581 46.0241C45.8915 46.6309 44.8418 46.6385 43.8783 46.6386L42.0514 46.6376L39.5746 46.6381C39.109 46.638 38.3111 46.6971 37.9053 46.5727L37.692 46.4998C37.4039 46.3813 37.187 46.2168 37.1809 46.0394C37.1615 45.4741 38.403 45.4441 39.3896 45.4429L40.9717 45.4422Z" fill="#70C3FF"/>
<path d="M40.9717 47.8666L42.9576 47.8667C43.9181 47.867 45.8221 47.7924 45.8581 48.4484C45.8915 49.0552 44.8418 49.0629 43.8783 49.063L42.0514 49.0619L39.5746 49.0624C39.109 49.0623 38.3111 49.1215 37.9053 48.997L37.692 48.9241C37.4039 48.8056 37.187 48.6411 37.1809 48.4638C37.1615 47.8984 38.403 47.8684 39.3896 47.8672L40.9717 47.8666Z" fill="#70C3FF"/>
<path d="M36.845 43.0601L45.5448 43.0675C46.3681 43.0679 47.7032 43.0525 47.7387 43.5794C47.7701 44.0463 47.0543 44.2445 46.1379 44.2569C45.9117 44.2603 45.65 44.2719 45.4195 44.2722L37.2593 44.2704C36.5371 44.2684 35.9217 44.2605 35.4855 43.9496C34.7507 43.4261 35.7647 43.0992 36.845 43.0601Z" fill="#70C3FF"/>
<path d="M41.2302 21.0731C45.2947 20.9235 49.1436 23.7463 50.2286 27.6603C50.3947 28.2596 50.4631 28.8539 50.5742 29.4626L50.6213 29.9387C50.8445 35.4888 47.1589 39.5521 41.5927 39.7708C37.0675 39.7547 33.4004 36.9278 32.3863 32.456C31.0549 26.5844 35.3435 21.4373 41.2302 21.0731ZM42.4502 35.6864L42.2662 35.472C42.3696 35.1532 42.3916 34.565 42.4913 34.329L42.5029 34.3031C42.343 34.277 42.4042 34.2354 42.4986 34.1647C41.4392 34.4016 40.4186 34.3268 39.4905 33.7317C39.2059 33.5493 38.9564 33.3073 38.6451 33.1706L38.6088 33.1539C38.1979 33.0385 37.2041 33.6662 37.9559 34.4985C39.0178 35.6742 40.9443 35.9404 42.4502 35.6864ZM44.595 26.3012C42.7662 26.7537 43.4649 29.0756 45.1137 28.8832C46.7984 28.4029 46.4209 26.1933 44.595 26.3012ZM37.8363 26.3355C36.2196 26.7782 36.4437 29.0288 38.2297 28.8379C39.8455 28.3814 39.5901 26.1803 37.8363 26.3355ZM42.4986 34.1647C42.4042 34.2354 42.343 34.277 42.5029 34.3031L42.4913 34.329C42.3916 34.565 42.3696 35.1532 42.2662 35.472L42.4502 35.6864C43.4493 35.4816 44.768 34.9843 45.185 33.9843C45.0646 33.7036 44.6883 33.2316 44.3403 33.2122C44.2615 33.2078 42.9622 34.0013 42.4986 34.1647Z" fill="#70C3FF"/>
</svg>
