<svg width="81" height="82" viewBox="0 0 81 82" fill="none" xmlns="http://www.w3.org/2000/svg">
<circle cx="40.303" cy="41.221" r="40" stroke="#D4D4D4" stroke-width="0.606061"/>
<path d="M35.6585 35.3158L35.6536 35.3161C35.5739 34.6096 35.6258 33.8571 35.6258 33.1436C35.6259 32.4675 35.6332 30.6155 35.8803 30.0459L35.8971 30.0086C36.2001 29.0995 38.3213 29.1585 39.431 29.1585V28.0179C39.0276 27.9873 38.1877 28.1028 37.9065 27.9007L37.7488 27.7881C37.6053 27.673 37.4505 27.4494 37.4408 27.2587C37.3942 26.3429 38.1634 26.2241 38.8513 26.2229L39.4346 26.2134C39.4633 26.1568 39.473 25.5979 39.4305 25.5559C39.1579 25.2855 36.6938 26.0416 36.6823 24.6102C36.676 23.8307 37.3957 23.9282 37.9545 23.9259L39.3994 23.9351C39.4122 22.997 39.4072 23.1762 38.5932 23.176L37.3103 23.1752C37.0009 23.1749 36.6391 23.2102 36.3355 23.1526C35.642 23.0207 35.5754 22.0285 36.1738 21.7069L36.2119 21.687C36.5748 21.4917 37.0418 21.5794 37.439 21.5799L39.3297 21.6535C39.3918 21.3478 39.344 20.9163 39.3252 20.6019L37.0315 20.5053C36.6715 20.4857 36.2669 20.5398 35.9185 20.4411L35.8774 20.4292C35.0705 20.2071 35.1196 19.1322 35.8821 19.0345C36.2101 18.9925 36.6034 19.0524 36.939 19.0563L39.2877 19.0808L39.2038 18.3155C38.7759 18.394 37.0749 18.3521 36.6405 18.3522C36.2676 18.3524 35.4655 18.5293 35.3983 17.9962C35.2608 16.9051 35.6557 16.9044 36.4978 16.8858L39.3687 16.8761L39.3652 16.0994L36.4229 16.0697C35.4949 16.0005 35.4997 14.9957 35.9094 14.7167L35.9406 14.6966C36.2591 14.4877 36.8071 14.594 37.1702 14.5934L39.385 14.6012C39.3772 14.4895 39.3615 13.8542 39.3165 13.8129C39.2618 13.7628 36.5928 13.871 36.1579 13.7808C35.2669 13.5958 35.4573 12.3787 36.3034 12.2731C36.613 12.2345 36.9968 12.3238 37.3156 12.3323L39.2592 12.3452C39.325 12.0518 39.3031 11.8165 39.2592 11.5238C38.6339 11.4061 36.7469 11.6232 36.4775 10.8785C36.354 10.5371 36.6836 9.89432 37.0278 9.78983C37.2314 9.72801 37.5008 9.76827 37.712 9.77414L40.1187 9.75135L41.1997 9.74111L43.9402 9.71515C44.1026 9.71276 44.3143 9.67633 44.4608 9.76345L44.4889 9.7817C44.8491 10.0056 45.0238 10.5916 44.8131 10.9673C44.4097 11.6865 42.7438 11.3238 42.0329 11.5238V12.396L45.4581 12.3574C45.9758 12.3324 45.8369 12.5198 45.8499 13.1134C45.8703 14.0474 45.2091 13.8807 44.6081 13.8811L42.0417 13.8638L42.0725 14.5897L44.803 14.6958C45.2666 14.722 45.696 14.6593 46.1198 14.8828C46.6799 15.9336 46.0679 16.1749 45.0876 16.1823L42.2016 16.178L42.1874 16.8907C42.8331 16.8414 43.5029 16.8754 44.1511 16.876L45.0712 16.8779C45.3975 16.8796 45.8454 16.8529 46.1088 17.0849C46.4851 17.4164 46.3981 18.3637 45.843 18.4573C45.5087 18.5136 45.1037 18.4701 44.7631 18.4704L42.1831 18.4696L42.164 19.1345C42.1986 19.1724 42.1764 19.1614 42.2333 19.1616L44.5896 19.1689C44.9507 19.1704 45.4071 19.0469 45.5876 19.4469C45.7289 19.7599 45.7462 20.4349 45.3378 20.5703L45.3027 20.5811C44.8988 20.708 44.3846 20.6536 43.9635 20.654L42.0843 20.6533C42.039 20.96 42.0755 21.3304 42.0763 21.6437L44.0176 21.7037C44.5868 21.7171 44.5981 21.6818 45.158 21.7883C45.9068 21.9306 45.8192 23.0827 45.0998 23.1898C44.7791 23.2376 44.372 23.1857 44.0439 23.1837L42.1474 23.1675L42.1504 23.852C42.2761 23.9297 42.6019 23.9052 42.7582 23.9142L44.1047 24.0543C44.3711 24.0942 44.67 24.0966 44.6921 24.4256C44.7681 25.5594 44.0533 25.5059 43.1372 25.5087L42.1721 25.51V26.2228L43.1562 26.2564C43.4278 26.2696 43.9359 26.265 44.1493 26.4499C44.5221 26.7732 44.3376 27.9126 43.857 27.9938C43.6485 28.0291 43.3848 28.0009 43.1703 28.001L42.1585 28.0003C42.0979 28.0941 42.1311 28.9771 42.1297 29.1555L43.3301 29.1585C44.493 29.1618 45.3877 29.3159 45.419 30.6475L45.5492 35.191L45.535 35.2843C45.2319 35.3377 44.8826 35.308 44.5724 35.3085L35.6585 35.3158Z" fill="#70C3FF"/>
<path d="M40.7247 8.19043C39.5126 8.19043 40.1187 9.75135 40.1187 9.75135L41.1997 9.74111C41.1997 9.74111 41.9368 8.19043 40.7247 8.19043Z" fill="#70C3FF"/>
<path d="M45.1424 34.9819C45.5195 35.4691 47.5766 34.1574 47.5755 38.0654L47.5478 39.964C47.7121 39.9857 47.8926 39.993 48.053 40.0399C49.4312 40.4428 49.6998 41.9161 49.697 43.4492L49.6628 45.6038L49.3526 52.6084L48.3334 69.3229C48.2558 71.3097 48.3031 73.6598 46.4448 74.2849C46.0643 74.4129 45.6396 74.3509 45.2483 74.3456L35.6306 74.3397C35.2586 74.3457 34.8751 74.4038 34.5055 74.3591C32.8655 74.1618 32.38 72.4969 32.272 70.5637L31.7322 61.0759L31.5841 57.1237L31.2302 49.7032L30.9998 44.6979C30.9476 43.3629 30.6304 41.3708 31.6057 40.4447C32.0519 40.0209 32.5399 40.156 33.0118 39.9381L32.9878 38.2883C32.9847 37.2172 32.897 35.2599 34.0514 35.1862L35.3569 35.172L44.1741 35.0997C44.4809 35.0991 44.8264 35.1374 45.1263 35.0685L45.1424 34.9819Z" fill="#EAECEE"/>
<path d="M40.0975 47.2671C42.2143 47.1012 44.552 48.7929 44.6725 51.0004C44.8119 53.5519 43.4337 55.8238 40.7228 55.9587C38.5057 56.0445 36.8714 54.9081 36.2524 52.6997C35.489 49.9755 37.3014 47.4823 40.0975 47.2671Z" fill="#2AA6FF"/>
</svg>
