<svg width="82" height="82" viewBox="0 0 82 82" fill="none" xmlns="http://www.w3.org/2000/svg">
<circle cx="41.1517" cy="41.221" r="40" stroke="#D4D4D4" stroke-width="0.606061"/>
<path d="M49.6573 44.064L49.7253 44.0732C50.3234 44.1333 50.9342 44.0849 51.5352 44.1073L53.4528 44.2699C54.8468 44.4172 58.0678 44.7419 58.5457 46.4213L58.5561 46.4559C59.1152 48.4529 52.6998 51.822 51.3032 52.5718L50.3215 53.1018C50.0907 53.2289 49.8571 53.3759 49.6095 53.4674L49.6109 45.2924C49.6114 44.89 49.5913 44.4612 49.6573 44.064Z" fill="#70C3FF"/>
<path d="M60.2705 51.9811C61.5996 51.8734 62.989 52.1942 64.0607 53.0122C68.0442 56.0528 66.5139 62.5282 61.3325 63.0992C58.5396 63.3727 55.6457 61.3414 55.2669 58.4908C54.8338 55.2312 57.002 52.3925 60.2705 51.9811Z" fill="#EAECEE"/>
<path d="M35.6409 26.0406L35.6429 22.7899C35.6436 22.27 35.5928 21.6899 35.669 21.1791C36.0965 18.3118 39.7485 14.5293 42.1182 13.2069C42.5926 12.9422 43.0972 12.6935 43.6312 12.5802L43.6735 12.5707C45.2714 12.2336 45.6873 13.6274 45.6945 14.8665L45.757 26.1936C45.7886 27.5271 44.9306 27.9717 43.7343 28.4939C41.4865 29.4753 36.8501 29.4292 35.7801 27.0286C35.6425 26.72 35.6554 26.3727 35.6409 26.0406Z" fill="#70C3FF"/>
<path d="M49.815 58.3032C49.8555 58.5148 49.8406 58.7373 49.8403 58.9511L49.8405 63.9792C49.9761 64.0627 50.1394 64.0667 50.2924 64.1005L50.8774 64.2521C52.2847 64.6373 54.5986 65.3503 54.983 66.9794C55.0557 67.287 55.0335 67.5851 54.8841 67.8664L54.8596 67.9132C54.0205 69.4823 50.8341 69.8576 49.235 69.9824L42.8171 70.275C42.6118 70.2825 42.411 70.3192 42.204 70.3233L35.2858 70.3243C35.0299 70.3167 34.7784 70.2726 34.5199 70.2679C32.1021 70.2253 21.7954 70.6509 20.9385 67.5664C20.6557 66.5485 21.7465 65.8003 22.3891 65.218C23.9037 63.8456 25.2912 62.6492 27.339 62.1852L31.5062 61.5763L31.5149 58.3521C31.9266 58.788 32.3148 58.9706 32.876 59.1865C34.5525 59.7599 36.8271 59.9626 38.5779 60.0313L42.9548 60.0356C44.3509 59.9752 49.2092 59.6295 49.815 58.3032ZM49.6776 65.124L49.6663 65.1626C49.5262 65.688 49.9773 66.0715 49.1837 66.571C48.183 67.2011 46.5177 67.3296 45.3621 67.4563L42.5333 67.7372L38.3093 67.7393C38.0873 67.7269 37.8747 67.6794 37.6555 67.6581L36.2452 67.5243C34.4638 67.3363 32.0824 67.4314 31.4906 65.4138C30.7764 66.1688 30.2653 66.8528 31.1151 67.7295C32.4968 68.8116 35.1731 69.0485 36.867 69.1917L38.1762 69.3121L42.7719 69.3168L45.5966 69.0632C46.8631 68.9096 48.1562 68.7263 49.3408 68.2313C50.8149 67.6152 51.6457 66.4102 49.9994 65.2529C49.9121 65.1915 49.8115 65.1038 49.6776 65.124Z" fill="#2AA6FF"/>
<path d="M35.6356 26.041C35.6555 26.3732 35.6426 26.7205 35.7801 27.0291C36.8502 29.4296 41.4866 29.4758 43.7343 28.4944C44.9307 27.9721 45.7886 27.5275 45.7962 26.1941C49.3483 26.2452 52.2374 27.4843 52.9628 31.3641C54.4593 30.472 56.0762 30.0352 57.8013 30.4786C64.1485 32.1105 63.1725 42.0574 55.4139 42.1462L49.5809 42.7507C49.6383 43.1367 49.7271 43.6735 49.6472 44.0641C49.5915 44.4614 49.6117 44.8901 49.6112 45.2926L49.6111 53.4675C49.5118 53.5958 49.5292 53.7662 49.5269 53.907L49.5237 56.6797C49.5244 57.0771 49.4703 57.6434 49.6078 58.0165L49.6629 58.1498C49.6887 58.2083 49.7267 58.2724 49.7889 58.2961L49.8153 58.3033C49.2094 59.6296 44.3511 59.9753 42.9551 60.0357L38.5782 60.0314C36.8273 59.9627 34.5527 59.76 32.8762 59.1866C32.315 58.9707 31.9269 58.7881 31.5193 58.3522C31.6473 57.929 31.776 56.4025 31.7152 55.9296C31.4083 56.1199 31.0286 56.2316 30.6844 56.3013L30.3884 56.3481C28.3424 56.4883 26.1767 54.9198 26.0553 52.7972C25.9332 52.7464 25.5861 52.9597 25.4574 53.0216C21.9589 54.7022 17.9105 53.7402 16.064 50.1315C14.4106 46.9004 15.7661 42.9006 19.0125 41.2624C20.7887 40.3659 22.6512 40.3955 24.5134 41.0051C23.9117 38.0724 25.6355 34.9078 28.5938 34.0845L28.7619 34.0463C31.067 33.6773 31.6705 34.9717 32.9863 36.2413C33.4636 36.7018 34.0266 37.0758 34.567 37.4572C34.7313 36.3622 34.6969 35.3149 34.698 34.2086L34.6971 27.5517C34.6898 27.2523 34.566 26.7478 34.786 26.4992C34.9825 26.2772 35.3414 26.0609 35.6356 26.041ZM46.7364 40.4492L46.8122 42.223C46.8178 42.7279 46.8679 43.1285 46.5242 43.53C45.1413 45.1458 39.9991 44.9825 38.1417 44.6996C37.2368 44.5617 34.7284 44.2045 34.6757 42.9959C34.6626 42.6957 34.7863 40.859 34.632 40.7145L34.6028 40.695C32.2961 41.6332 31.7226 41.7763 31.7299 44.2302L31.7368 46.0924L31.7143 55.7498C31.711 55.7995 31.6937 55.8837 31.7152 55.9296C31.776 56.4025 31.6473 57.929 31.5193 58.3522C31.9269 58.7881 32.315 58.9707 32.8762 59.1866C34.5527 59.76 36.8273 59.9627 38.5782 60.0314L42.9551 60.0357C44.3511 59.9753 49.2094 59.6296 49.8153 58.3033L49.7889 58.2961C49.7267 58.2724 49.6887 58.2083 49.6629 58.1498L49.6078 58.0165C49.4703 57.6434 49.5244 57.0771 49.5237 56.6797L49.5269 53.907C49.5292 53.7662 49.5118 53.5958 49.6111 53.4675L49.6112 45.2926C49.6117 44.8901 49.5915 44.4614 49.6472 44.0641C49.7271 43.6735 49.6383 43.1367 49.5809 42.7507L49.5688 42.7244C49.1319 41.9275 47.561 40.7099 46.7364 40.4492Z" fill="#EAECEE"/>
<path d="M46.7237 40.449C46.6051 40.1486 46.6259 39.7861 46.6232 39.4698L46.6196 38.1964C46.619 37.628 46.5772 37.0201 46.6457 36.457C51.3117 37.076 49.4384 41.2077 54.7727 41.9377L55.3876 42.0537C55.3957 42.1134 55.3902 42.0902 55.4137 42.1461L49.5807 42.7505L49.5686 42.7242C49.1317 41.9273 47.5608 40.7098 46.7237 40.449Z" fill="#70C3FF"/>
<path d="M26.0547 52.7968C26.216 52.6115 26.2588 52.2501 26.3177 52.0142C26.8058 50.0597 27.9203 48.6575 29.7086 47.7184C29.7933 47.674 30.2616 47.4744 30.2945 47.4118C30.3137 47.3752 29.2347 44.2652 29.8557 42.7858C30.4834 41.2906 32.7309 40.6908 34.2049 40.4983C34.4264 40.4694 34.7765 40.3583 34.6022 40.6947C32.2955 41.6329 31.7219 41.776 31.7293 44.2298L31.7356 46.0921L31.7333 55.7495C31.7103 55.7992 31.6931 55.8834 31.7064 55.9293C31.4077 56.1195 31.0279 56.2313 30.6837 56.301L30.3878 56.3477C28.3417 56.488 26.176 54.9195 26.0547 52.7968Z" fill="#70C3FF"/>
<path d="M46.7366 40.4492C47.5612 40.71 49.1321 41.9276 49.569 42.7244L49.5811 42.7507C49.6385 43.1367 49.7273 43.6735 49.6474 44.0642C49.5917 44.4614 49.6119 44.8902 49.6114 45.2926L49.6113 53.4676C49.512 53.5959 49.5294 53.7662 49.5271 53.9071L49.5239 56.6798C49.5246 57.0772 49.4705 57.6435 49.608 58.0166L49.6631 58.1499C49.6889 58.2083 49.7269 58.2725 49.7891 58.2962L49.8155 58.3034C49.2096 59.6296 44.3513 59.9754 42.9553 60.0357L38.5784 60.0315C36.8275 59.9627 34.5529 59.7601 32.8764 59.1867C32.3152 58.9708 31.9271 58.7881 31.5195 58.3523C31.6475 57.9291 31.7762 56.4026 31.7154 55.9297C31.6939 55.8838 31.7112 55.7996 31.7145 55.7499L31.737 46.0924L31.7301 44.2302C31.7228 41.7764 32.2963 41.6333 34.603 40.6951L34.6322 40.7146C34.7865 40.859 34.6628 42.6958 34.6759 42.996C34.7286 44.2045 37.237 44.5618 38.1419 44.6997C39.9993 44.9826 45.1415 45.1458 46.5244 43.5301C46.8681 43.1286 46.8179 42.728 46.8124 42.223L46.7366 40.4492ZM31.737 46.0924L31.7145 55.7499C31.7338 55.8692 31.7425 56.0194 31.8978 55.921L31.9274 55.8915C32.0644 55.8752 32.0555 55.7931 32.1346 55.7139L32.1422 55.6693C32.1879 55.5546 32.1468 55.7119 32.1721 55.612L32.194 55.5213C32.2139 55.4569 32.2261 55.379 32.2596 55.3221L32.3497 55.2777C32.4571 55.2765 32.5065 55.1937 32.6423 55.2385L32.7486 55.2772L32.8316 54.6262L32.8301 48.4002C32.8294 47.3352 32.8301 46.2661 32.4428 45.2585C32.2607 45.1413 31.8095 44.6606 31.7795 44.4235L31.737 46.0924Z" fill="#DDDDDC"/>
<path d="M32.8277 54.626L32.8353 58.0809C32.8376 58.4412 32.9171 58.8338 32.8749 59.1865C32.3152 58.9706 31.9271 58.7879 31.5195 58.3521C31.6475 57.9289 31.7762 56.4024 31.7154 55.9295C31.6939 55.8836 31.7112 55.7994 31.7145 55.7497C31.7338 55.869 31.7425 56.0192 31.8978 55.9208L31.9274 55.8912C32.0644 55.875 32.0555 55.7929 32.1346 55.7137L32.1422 55.6691C32.1879 55.5544 32.1468 55.7117 32.1721 55.6118L32.194 55.5211C32.2139 55.4567 32.2261 55.3788 32.2596 55.3219L32.3497 55.2775C32.4571 55.2763 32.5065 55.1934 32.6423 55.2383L32.7486 55.277L32.8277 54.626Z" fill="#F2EEF1"/>
</svg>
