<svg width="81" height="81" viewBox="0 0 81 81" fill="none" xmlns="http://www.w3.org/2000/svg">
<circle cx="40.6971" cy="40.3726" r="40" stroke="#D4D4D4" stroke-width="0.606061"/>
<g clip-path="url(#clip0_9_5021)">
<path d="M35.0975 39.7875C34.9785 39.7342 34.7918 39.7239 34.6694 39.7066L31.4453 39.1493C25.2684 37.8087 14.3767 33.5343 14.2659 25.9769C14.231 23.6016 15.4625 21.2349 17.0827 19.5599C21.9308 14.5476 31.4335 11.9281 38.284 11.825L42.6283 11.8368L46.0988 12.1443C50.1061 12.626 54.1395 13.6287 57.7839 15.3831C68.3398 20.4647 69.8827 29.35 59.2873 35.4991C56.4224 37.1619 53.396 38.2359 50.1628 38.9686L47.444 39.5347L45.6373 39.7446L45.651 43.1827L42.5268 42.9385L37.3702 42.9327C36.626 42.9644 35.8721 43.0506 35.1328 43.1413L35.0975 39.7875Z" fill="#2AA6FF"/>
<path d="M35.0977 39.7876C35.1222 39.777 44.6766 39.8015 45.6375 39.7957L45.6512 41.9708L42.527 41.7265L37.3704 41.7208C36.6262 41.7525 35.8723 41.8386 35.133 41.9293L35.0977 39.7876Z" fill="#202F34"/>
<path d="M39.1699 16.029L41.3413 16.0195C43.0829 16.0215 44.6714 16.2122 46.3982 16.475L49.4026 16.9839C52.8491 17.7317 56.8968 19.1768 59.4603 21.6697C62.0452 24.1835 62.0088 27.3295 59.5 29.8901C55.6161 33.854 47.3672 35.8473 41.785 35.9078C40.7186 35.9091 39.6274 35.9554 38.5639 35.8944L37.6592 35.8051C32.7743 35.4272 25.8407 33.913 22.0419 30.5028C19.2838 28.0269 18.4247 24.8041 21.0416 21.9477C24.5876 18.077 32.5069 16.5225 37.4877 16.1504L39.1699 16.029Z" fill="#DFDEDE"/>
<path d="M39.3065 18.0198C39.7326 18.002 40.4975 17.8836 40.5651 18.4729C40.6564 19.2683 40.0527 19.9849 39.2709 20.0562C38.0432 20.0485 36.9813 18.2223 39.3065 18.0198Z" fill="white"/>
<path d="M45.21 16.6885C45.8158 16.7222 46.4725 16.8464 47.036 17.0742C46.214 18.226 45.2086 19.2678 44.2877 20.343L43.183 21.6469L34.0535 31.6154C33.8394 31.8637 33.7036 32.2376 33.3487 32.2756C32.6917 32.1998 32.0682 32.0267 31.4878 31.7022L32.9509 29.8892L44.6711 17.1025C44.8287 16.9443 44.9886 16.748 45.21 16.6885Z" fill="white"/>
<path d="M35.1326 41.9293C35.8718 41.8386 36.6257 41.7524 37.3699 41.7207L42.5265 41.7265L45.6559 41.9707C46.1243 42.0497 46.6096 42.0746 47.0818 42.1329L49.6806 42.5243C55.1786 43.5133 65.7276 46.8706 66.4193 53.5885C66.4671 54.0531 66.4399 54.5434 66.44 55.0112L66.4399 57.5403C66.4405 58.2878 66.4747 59.0553 66.393 59.7985C65.8068 65.1344 58.654 68.0359 54.0563 69.2762C52.6632 69.652 51.2418 69.9848 49.8191 70.2291L45.5671 70.7374C44.4638 70.8074 43.3408 70.764 42.2343 70.7644L36.3131 70.7641C35.8829 70.7638 35.4351 70.7837 35.0079 70.7363C28.8491 70.0545 21.2436 68.6696 16.7119 64.1206C14.5345 61.935 14.3207 60.4583 14.3181 57.6491L14.3179 54.4082C14.3355 47.6721 23.7331 44.1035 29.0894 42.9477L35.1326 41.9293Z" fill="#EAECEE"/>
<path d="M39.305 46.429H41.3114C44.7254 46.4324 48.0922 47.0691 51.2843 48.2658C53.9634 49.2702 58.4632 51.3856 58.4773 54.8105C58.499 60.1264 49.6547 62.5187 45.5134 63.0592L43.0177 63.3333L41.4814 63.3579C40.3263 63.3624 39.1404 63.4087 37.9885 63.3339L37.221 63.2545C32.6998 62.8765 22.3324 60.6043 22.2547 54.9512C22.2366 53.6352 22.9802 52.3827 23.8764 51.4726C27.1753 48.1226 34.7091 46.4536 39.305 46.429Z" fill="#70C3FF"/>
<path d="M40.736 49.1604C43.3176 49.1642 46.602 49.4922 49.0209 50.2355L50.8403 50.8494C51.8788 51.235 54.2294 52.3094 53.6318 53.5361C53.1746 54.4747 52.0497 54.8672 50.9271 54.4472L49.8951 54.0536L48.2534 53.5302C47.3608 53.2789 46.4482 53.09 45.531 52.9123L43.9313 52.6138L38.6042 51.8761C37.7527 51.7287 35.928 51.4346 36.1746 50.3696L36.1803 50.348C36.4343 49.3171 39.7186 49.1612 40.736 49.1604Z" fill="#419BDD"/>
</g>
<defs>
<clipPath id="clip0_9_5021">
<rect width="60.6061" height="60.6061" fill="white" transform="translate(10.0908 10.3726)"/>
</clipPath>
</defs>
</svg>
